<svg xmlns="http://www.w3.org/2000/svg" width="565.948" height="512.001" viewBox="0 0 565.948 512.001">
  <g id="around-the-world" transform="translate(-424.073)">
    <g id="Background" transform="translate(424.073 41.386)">
      <path id="Caminho_805" data-name="Caminho 805" d="M811.147,547.253H580.022a155.947,155.947,0,0,1-123.643-60.91h0A155.947,155.947,0,0,1,433.3,338.471L475.419,221.5A155.946,155.946,0,0,1,582.49,123.517L701.831,92.142a155.946,155.946,0,0,1,156.123,47.121l92.59,103.993a155.946,155.946,0,0,1,22.062,175.309L949.68,462.916A155.95,155.95,0,0,1,811.147,547.253Z" transform="translate(-424.073 -87.012)" fill="#2a94f4" opacity="0.11"/>
      <g id="Grupo_233" data-name="Grupo 233" transform="translate(90.905 414.701)">
        <path id="Caminho_806" data-name="Caminho 806" d="M615.2,986.865c0,15.432,83.746,27.953,187.061,27.953S989.3,1002.3,989.3,986.865,905.559,958.9,802.258,958.9,615.2,971.423,615.2,986.865Z" transform="translate(-615.197 -958.904)" fill="#2a94f4" opacity="0.2"/>
      </g>
    </g>
    <g id="Character" transform="translate(553.287 0)">
      <g id="Grupo_244" data-name="Grupo 244" transform="translate(0 0)">
        <g id="Grupo_243" data-name="Grupo 243" transform="translate(0 71.344)">
          <g id="Grupo_242" data-name="Grupo 242">
            <path id="Caminho_807" data-name="Caminho 807" d="M855.443,186.64l2.238-10.276s10.712-2.722,11.5-14.022-20.934-15.781-23.876-9.462c-1.2,2.576-2.23,8.129-3.03,13.8-1.163,8.245-1.839,16.747-1.839,16.747Z" transform="translate(-771.612 -149.997)" fill="#fcd2b1"/>
            <path id="Caminho_808" data-name="Caminho 808" d="M812.529,202.344s8.873-4.094,16.67-.524c3.059,1.4,10.165,7.741,10.165,7.741s-4.585,80.05-6.388,86.631c.48.164.937.335,1.426.521,18.871,7.533,46.778,24.405,59.08,31.458,5.94,3.408,3.591,9.447,7.265,14.921a38.124,38.124,0,0,1,5.423,12.261c1.676,6.97,1.316,14.2-4.771,18.589a13.891,13.891,0,0,1-7.642,2.612,14.531,14.531,0,0,1-8.513-2.328c-17-11.182-64.3-40.906-73.355-49.339a22.636,22.636,0,0,1-3.847-4.652,18.312,18.312,0,0,1-1.1-1.688C797.85,302.275,812.529,202.344,812.529,202.344Z" transform="translate(-752.492 -176.405)" fill="#3a386e"/>
            <g id="Grupo_235" data-name="Grupo 235" transform="translate(0 274.426)">
              <path id="Caminho_809" data-name="Caminho 809" d="M1018.087,865.221s36.419,1.572,63.915-23.057c22-19.706,38.283-52.653,42.927-67.067s6.638-43.185-.317-47.99S991.725,842.165,991.725,842.165Z" transform="translate(-850.944 -726.967)" fill="#0b4870"/>
              <path id="Caminho_810" data-name="Caminho 810" d="M704.624,834.979s15.173-17.17,56.139-17.114c31.9.043,136.553,28.716,136.553,28.716L851.8,895.245Z" transform="translate(-700.398 -774.631)" fill="#0e538c"/>
              <g id="Grupo_234" data-name="Grupo 234" transform="translate(166.125 120.615)">
                <path id="Caminho_811" data-name="Caminho 811" d="M1073.51,989.657l-21.242-9.1-7.258,13.653,9.617,7.972h16.224Z" transform="translate(-1045.01 -980.554)" fill="#fcd2b1"/>
                <path id="Caminho_812" data-name="Caminho 812" d="M1065.23,1009.69a14.892,14.892,0,0,0,12.433-5.438c5.31-6.324,2.276-8.979,5.69-9.359s18.207,6.448,33,4.931,19.345-3.774,20.1,1.716-1.185,25.886-19.012,25.128S1065.23,1009.69,1065.23,1009.69Z" transform="translate(-1055.613 -988.064)" fill="#0e538c"/>
              </g>
              <path id="Caminho_813" data-name="Caminho 813" d="M756.1,855.112c23.182,14.128,118.914,46.253,118.914,46.253S878.59,926,857.892,933.344c0,0-115.444-32.572-142.754-45.1s-18.966-34.438-15.173-40.172S727.276,837.542,756.1,855.112Z" transform="translate(-695.74 -787.723)" fill="#0b4870"/>
            </g>
            <path id="Caminho_814" data-name="Caminho 814" d="M1039.818,592.767a52.888,52.888,0,0,0-2.373,30.509c4.492,20.223-.62,21.579-.62,21.579s-24.323,16.884-48.068,19.411c-21.263,2.262-58.592-8.059-58.2-26.1,0,0,16.252-27.039,14.169-72.432-2.151-46.569,8.93-57.253,19.133-70.47,15.09-19.549-44.416-32.68,66.754-19.1,24.287,2.967,35.553,9.631,35.36,27.254-.063,5.857-4.9,15.269-6.455,24C1055.58,549.6,1046.191,576.221,1039.818,592.767Z" transform="translate(-818.867 -318.109)" fill="#3a386e"/>
            <g id="Grupo_237" data-name="Grupo 237" transform="translate(97.218 173.945)">
              <g id="Grupo_236" data-name="Grupo 236">
                <path id="Caminho_815" data-name="Caminho 815" d="M1011.4,593.168c-9.1,24.278-36.214,40.4-61.891,36.8a57.094,57.094,0,0,1-46.589-39.3,56.029,56.029,0,0,1-2.678-14.1,55.275,55.275,0,0,1,5.014-26.579,59.906,59.906,0,0,1,34.41-30.957,55.39,55.39,0,0,1,49.3,5.719c13.07,8.536,21.832,22.791,24.746,38.082v.006A56.46,56.46,0,0,1,1011.4,593.168Z" transform="translate(-900.141 -515.71)" fill="#1282d6"/>
                <path id="Caminho_816" data-name="Caminho 816" d="M953.68,623.145c-2.221,1.221-4.91,1.6-6.807,3.273-5.546,4.887.3,15.169-4.169,21.051-2.256,2.978-6.749,3.7-10.15,2.14a12.461,12.461,0,0,1-6.512-8.64c-.931-4.042-.613-8.993-3.956-11.451-1.741-1.278-4.019-1.469-6.17-1.608q-4.841-.321-9.687-.636c-1.093-.075-2.215-.15-3.319-.289a56.005,56.005,0,0,1-2.678-14.1,55.276,55.276,0,0,1,5.014-26.579,9.456,9.456,0,0,1,5.575-1.3c3.418.33,6.292,2.678,9.595,3.609,6.1,1.717,13.712-1.284,18.373,3.007,3.383,3.117,3.2,8.374,3.406,12.966s1.983,10.138,6.512,10.953c2.539.463,5.749-.613,7.362,1.406C957.657,618.918,955.9,621.924,953.68,623.145Z" transform="translate(-900.137 -552.025)" fill="#9dda9c"/>
                <path id="Caminho_817" data-name="Caminho 817" d="M1057.022,562.829v.006a20.126,20.126,0,0,1-2.8,4.892c-2.307,2.955-6.558,5.315-9.664,3.227-4.482-3.008-1.631-11.642-6.356-14.256-5.141-2.851-10.791,5.685-16.424,4-5.4-1.619-4.962-10.682-10.161-12.867-3.585-1.509-7.414,1.2-10.531,3.522s-7.64,4.366-10.606,1.857c-2.5-2.117-2.071-6.084-.931-9.155s2.8-6.257,2.036-9.444c-1.157-4.8-7.212-7.085-8.577-11.827a7.271,7.271,0,0,1-.035-3.759,55.39,55.39,0,0,1,49.3,5.719C1045.345,533.283,1054.106,547.538,1057.022,562.829Z" transform="translate(-943.453 -515.709)" fill="#9dda9c"/>
                <path id="Caminho_818" data-name="Caminho 818" d="M1045.715,681.385c2.61-3.439,7.348-4.253,11.146-6.306,3.353-1.813,6.235-5.1,6.279-8.908s-3.811-7.547-7.437-6.372c-2.018.654-3.405,2.51-5.292,3.478-3.152,1.617-6.931.489-10.387-.289s-7.7-.9-9.858,1.91c-3.519,4.59-.84,11.352-4.642,16.636-3.415,4.746-8.007,8.678-2.912,14.33,3.816,4.234,11.259,4.618,15.72,1.331C1043.78,693.182,1041.991,686.3,1045.715,681.385Z" transform="translate(-963.168 -591.15)" fill="#9dda9c"/>
              </g>
            </g>
            <g id="Grupo_239" data-name="Grupo 239" transform="translate(162.211 135.335)">
              <g id="Grupo_238" data-name="Grupo 238">
                <path id="Caminho_819" data-name="Caminho 819" d="M1069.243,436.654a3.143,3.143,0,0,0-4.7-1.609c-5.944,3.866-11.4,6.573-20.083,6.573a5.018,5.018,0,0,1-3.145-.7,3.159,3.159,0,0,0-4.3.508c-.286.353-.377.625.141.736a6.9,6.9,0,0,1,5.48,6.365l.685,12.766a3.157,3.157,0,0,0,.3,1.19l3.416,7.135a3.147,3.147,0,0,0,4.549,1.283l6.108-3.954,11.734-7.605a3.147,3.147,0,0,0,1.429-2.84l-1.16-18.309a3.063,3.063,0,0,0-.271-1.063A3.779,3.779,0,0,1,1069.243,436.654Z" transform="translate(-1036.781 -434.533)" fill="#fcd2b1"/>
              </g>
            </g>
            <g id="Grupo_240" data-name="Grupo 240" transform="translate(124.806 63.164)">
              <path id="Caminho_820" data-name="Caminho 820" d="M983.981,346.548c-.328-.026-.146,1.839-2.756,4.859s-2.819,9.116-2.74,8.919-5.044-14.178-3.576-17.6,4.487-4.293,5.256-3.175S983.981,346.548,983.981,346.548Z" transform="translate(-966.794 -312.313)" fill="#0b4870"/>
              <path id="Caminho_821" data-name="Caminho 821" d="M1045.569,361.538a36.085,36.085,0,0,1,.067,8.347,5.717,5.717,0,0,1-.195.906,6.2,6.2,0,0,1-.255.911c-3.031,9.484-17.586,23.008-27.654,24.227a32.166,32.166,0,0,1-3.889.115c-13.982-.339-21.978-9.814-26.53-19.948-.154-.367-.306-.709-.458-1.051a78.914,78.914,0,0,1-5.465-22.546c-.071-.806-.081-1.262-.081-1.262a14.74,14.74,0,0,1,.465-7.836,6.426,6.426,0,0,1,.248-.632s.179-.041.477-.118c3.9-1.055,30.412-8.17,30.987-8.221s27.126,1.184,27.126,1.184S1044.437,350.466,1045.569,361.538Z" transform="translate(-970.019 -309.871)" fill="#ffe3ca"/>
              <path id="Caminho_822" data-name="Caminho 822" d="M1067.6,363.279" transform="translate(-1015.537 -324.999)" fill="#4c2e1e"/>
              <path id="Caminho_823" data-name="Caminho 823" d="M958.255,303.08s.86,20.265,34.155,12.16c21.431-5.217,26.409,6.506,27.235,15.523a3.758,3.758,0,0,0,5.953,2.7c1.622-1.173,5.079-2.891,6.775.618,4.453,9.214-3.724,19.308-3.839,19.553,0,0,6.5,4.556,9.47-14.332.418-2.659.915-35.169-5.677-44.276s-14.459-8.694-14.459-8.694-8.332-7.021-27.964-1.277a52.16,52.16,0,0,1-17.185,2.282,13.93,13.93,0,0,0-14.5,15.361C958.228,302.825,958.241,302.952,958.255,303.08Z" transform="translate(-958.138 -282.796)" fill="#0b4870"/>
            </g>
            <g id="Grupo_241" data-name="Grupo 241" transform="translate(59.007 382.027)">
              <path id="Caminho_824" data-name="Caminho 824" d="M930.556,961.62l21.52-8.426,6.818,13.878-9.863,7.661-16.217-.514Z" transform="translate(-877.876 -953.194)" fill="#fcd2b1"/>
              <path id="Caminho_825" data-name="Caminho 825" d="M890.954,981.511a14.892,14.892,0,0,1-12.254-5.829c-5.107-6.49-1.99-9.047-5.39-9.535s-18.4,5.868-33.14,3.883-19.216-4.386-20.148,1.078.363,25.911,18.206,25.718S890.954,981.511,890.954,981.511Z" transform="translate(-819.8 -959.972)" fill="#0e538c"/>
            </g>
            <path id="Caminho_826" data-name="Caminho 826" d="M959.31,819.9s54.391-44.234,77.15-67.752,37.173-46.487,63.725-37.278-6.827,58.588-31.1,77.9-84.242,61.9-84.242,61.9S952.669,843.259,959.31,819.9Z" transform="translate(-833.474 -445.104)" fill="#0e538c"/>
          </g>
        </g>
        <path id="Caminho_827" data-name="Caminho 827" d="M855.96,20.8A32.151,32.151,0,0,0,795.806,43.52h0a32.06,32.06,0,0,0,6.43,10.432l-.275.1L844.68,97.57a6.041,6.041,0,0,0,10.343-3.907l3.284-60.891-.275.1A32.057,32.057,0,0,0,855.96,20.8ZM831.588,47.264a16.251,16.251,0,1,1,9.46-20.945A16.251,16.251,0,0,1,831.588,47.264Z" transform="translate(-747.119 0)" fill="#3a386e"/>
        <path id="Caminho_828" data-name="Caminho 828" d="M846.664,138.688a6.335,6.335,0,0,1,2.447-4.038c6.093-4.582,16.161-11.244,19.44-7.906,3.681,3.747,18.512,15.546-.07,30.537l-4.462,4.317-20.065-6.39Z" transform="translate(-773.458 -65.987)" fill="#ffe3ca"/>
      </g>
      <path id="Caminho_829" data-name="Caminho 829" d="M900.605,636.6a21.255,21.255,0,0,0-42.467-1.9h0a21.19,21.19,0,0,0,1.182,8.015l-.194-.009,14.589,37.581a3.994,3.994,0,0,0,7.3.327l17.889-36.126-.194-.008a21.2,21.2,0,0,0,1.894-7.878Zm-21.711,9.712a10.744,10.744,0,1,1,11.214-10.252A10.744,10.744,0,0,1,878.894,646.315Z" transform="translate(-780.885 -322.169)" fill="#3a386e"/>
      <path id="Caminho_830" data-name="Caminho 830" d="M862.988,639.733A21.255,21.255,0,0,0,822.346,652.2h0a21.207,21.207,0,0,0,3.8,7.153l-.186.057,26.356,30.5a3.994,3.994,0,0,0,6.988-2.143l4.725-40.035-.186.057a21.2,21.2,0,0,0-.86-8.056ZM845.8,656.169a10.743,10.743,0,1,1,7.122-13.421A10.744,10.744,0,0,1,845.8,656.169Z" transform="translate(-761.635 -327.573)" fill="#3a386e" opacity="0.85"/>
      <path id="Caminho_831" data-name="Caminho 831" d="M883.636,723.122l-3.56-1.529a16.809,16.809,0,0,1-8.539-8.135c-2.036-4.236-6.814-8.922-6.814-8.922-5.733,2.252,4.812,10.669-2.621,12.478-1.7.413-3.658-.162-5.778.351-2.649.641-6.428-6.519-6.957-4.845-3.788,11.977,9.066,19.957,14.315,20.638,6.912.9,21.425,5.242,21.425,5.242Z" transform="translate(-775.936 -369.435)" fill="#fcd2b1"/>
      <path id="Caminho_832" data-name="Caminho 832" d="M909.6,644.672s-6.582-7.223-5.533-15.733c.411-3.339,4.31-12.028,4.31-12.028s77.7-19.8,84.515-20.071c.011-.508.036-.995.066-1.517,1.482-20.265,12.715-45.305,15.723-59.163a44.081,44.081,0,0,1,8.456-18.091,38.124,38.124,0,0,1,10.051-8.872c6.139-3.7,13.136-5.541,19.162-1.065a13.888,13.888,0,0,1,4.8,6.5,14.529,14.529,0,0,1,.352,8.818c-5.527,19.579-19.579,73.65-24.884,84.83a22.64,22.64,0,0,1-3.272,5.073,18.249,18.249,0,0,1-1.277,1.558C1009.3,628.489,909.6,644.672,909.6,644.672Z" transform="translate(-804.922 -265.069)" fill="#3a386e"/>
    </g>
  </g>
</svg>
