<svg xmlns="http://www.w3.org/2000/svg" width="693" height="263.442" viewBox="0 0 693 263.442">
  <g id="artificial-intelligence" transform="translate(-132.119 -371.548)">
    <path id="Caminho_1096" data-name="Caminho 1096" d="M745.366,610.91s80.382-89.167,14.828-113.966-128.664-2.167-105.694-64.6S517.244,346.5,464.479,405.811s-161.6-13.267-222.474,6.243S199.082,528.128,230.3,560.618s-54.628,59.4-10.926,62.331S723.528,640.211,745.366,610.91Z" transform="translate(-12.469)" fill="#2a94f4" opacity="0.07"/>
    <g id="Grupo_396" data-name="Grupo 396" transform="translate(382.975 453.632)">
      <g id="Grupo_391" data-name="Grupo 391">
        <path id="Caminho_1097" data-name="Caminho 1097" d="M568.006,623.728H534.572L526.7,650.772h49.179Z" transform="translate(-453.809 -498.903)" fill="#3a386e"/>
        <path id="Caminho_1098" data-name="Caminho 1098" d="M437.861,594.216v25.141a3.593,3.593,0,0,0,3.593,3.593H629.228a3.593,3.593,0,0,0,3.593-3.593V594.216Z" transform="translate(-437.861 -493.605)" fill="#3a386e"/>
        <path id="Caminho_1099" data-name="Caminho 1099" d="M629.228,471.592H441.454a3.593,3.593,0,0,0-3.593,3.593V572.2h194.96V475.185A3.592,3.592,0,0,0,629.228,471.592Z" transform="translate(-437.861 -471.592)" fill="#3a386e"/>
        <rect id="Retângulo_167" data-name="Retângulo 167" width="178.072" height="92.932" transform="translate(8.444 7.679)" fill="#f7f7f7"/>
        <path id="Caminho_1100" data-name="Caminho 1100" d="M587.4,657.979a3.688,3.688,0,0,1-3.688,3.688h-71.3a3.688,3.688,0,0,1-3.688-3.688h0a3.688,3.688,0,0,1,3.688-3.688h71.3a3.688,3.688,0,0,1,3.688,3.688Z" transform="translate(-450.582 -504.39)" fill="#3a386e"/>
      </g>
      <g id="Grupo_395" data-name="Grupo 395" transform="translate(27.427 23.167)">
        <g id="Grupo_392" data-name="Grupo 392" transform="translate(1.566)">
          <path id="Caminho_1101" data-name="Caminho 1101" d="M476.237,502.026h-.047l-2.6,1.406-.391-1.547,3.27-1.748h1.725v14.97h-1.957V502.026Z" transform="translate(-473.198 -499.883)" fill="#3a386e"/>
          <path id="Caminho_1102" data-name="Caminho 1102" d="M495.842,507.4c0,5.091-1.889,7.9-5.205,7.9-2.926,0-4.906-2.743-4.952-7.692,0-5.022,2.164-7.785,5.205-7.785C494.046,499.828,495.842,502.639,495.842,507.4Zm-8.131.235c0,3.89,1.2,6.1,3.041,6.1,2.072,0,3.063-2.415,3.063-6.242,0-3.685-.944-6.1-3.041-6.1C489,501.4,487.711,503.557,487.711,507.637Z" transform="translate(-475.44 -499.828)" fill="#3a386e"/>
          <path id="Caminho_1103" data-name="Caminho 1103" d="M510.241,507.4c0,5.091-1.889,7.9-5.205,7.9-2.927,0-4.906-2.743-4.952-7.692,0-5.022,2.164-7.785,5.205-7.785C508.445,499.828,510.241,502.639,510.241,507.4Zm-8.132.235c0,3.89,1.2,6.1,3.041,6.1,2.072,0,3.063-2.415,3.063-6.242,0-3.685-.944-6.1-3.041-6.1C503.4,501.4,502.109,503.557,502.109,507.637Z" transform="translate(-478.025 -499.828)" fill="#3a386e"/>
          <path id="Caminho_1104" data-name="Caminho 1104" d="M519.43,502.026h-.047l-2.6,1.406-.391-1.547,3.27-1.748h1.726v14.97h-1.957V502.026Z" transform="translate(-480.952 -499.883)" fill="#3a386e"/>
          <path id="Caminho_1105" data-name="Caminho 1105" d="M539.039,507.4c0,5.091-1.889,7.9-5.205,7.9-2.926,0-4.9-2.743-4.952-7.692,0-5.022,2.164-7.785,5.205-7.785C537.243,499.828,539.039,502.639,539.039,507.4Zm-8.132.235c0,3.89,1.2,6.1,3.041,6.1,2.072,0,3.063-2.415,3.063-6.242,0-3.685-.944-6.1-3.041-6.1C532.2,501.4,530.907,503.557,530.907,507.637Z" transform="translate(-483.194 -499.828)" fill="#3a386e"/>
          <path id="Caminho_1106" data-name="Caminho 1106" d="M548.228,502.026h-.046l-2.6,1.406-.391-1.547,3.27-1.748h1.726v14.97h-1.958Z" transform="translate(-486.122 -499.883)" fill="#3a386e"/>
          <path id="Caminho_1107" data-name="Caminho 1107" d="M562.627,502.026h-.047l-2.6,1.406-.393-1.547,3.272-1.748h1.726v14.97h-1.957V502.026Z" transform="translate(-488.706 -499.883)" fill="#3a386e"/>
          <path id="Caminho_1108" data-name="Caminho 1108" d="M577.025,502.026h-.047l-2.6,1.406-.391-1.547,3.27-1.748h1.725v14.97h-1.957V502.026Z" transform="translate(-491.291 -499.883)" fill="#3a386e"/>
          <path id="Caminho_1109" data-name="Caminho 1109" d="M596.634,507.4c0,5.091-1.889,7.9-5.205,7.9-2.926,0-4.906-2.743-4.952-7.692,0-5.022,2.164-7.785,5.206-7.785C594.838,499.828,596.634,502.639,596.634,507.4Zm-8.132.235c0,3.89,1.2,6.1,3.041,6.1,2.072,0,3.063-2.415,3.063-6.242,0-3.685-.944-6.1-3.041-6.1C589.793,501.4,588.5,503.557,588.5,507.637Z" transform="translate(-493.534 -499.828)" fill="#3a386e"/>
          <path id="Caminho_1110" data-name="Caminho 1110" d="M605.823,502.026h-.047l-2.6,1.406-.391-1.547,3.27-1.748h1.726v14.97h-1.957Z" transform="translate(-496.461 -499.883)" fill="#3a386e"/>
          <path id="Caminho_1111" data-name="Caminho 1111" d="M620.219,502.026h-.047l-2.6,1.406-.391-1.547,3.27-1.748h1.725v14.97H620.22V502.026Z" transform="translate(-499.046 -499.883)" fill="#3a386e"/>
          <path id="Caminho_1112" data-name="Caminho 1112" d="M639.827,507.4c0,5.091-1.889,7.9-5.206,7.9-2.926,0-4.9-2.743-4.952-7.692,0-5.022,2.164-7.785,5.205-7.785C638.031,499.828,639.827,502.639,639.827,507.4Zm-8.131.235c0,3.89,1.2,6.1,3.041,6.1,2.072,0,3.063-2.415,3.063-6.242,0-3.685-.944-6.1-3.041-6.1C632.986,501.4,631.7,503.557,631.7,507.637Z" transform="translate(-501.287 -499.828)" fill="#3a386e"/>
        </g>
        <g id="Grupo_393" data-name="Grupo 393" transform="translate(1.566 23.348)">
          <path id="Caminho_1113" data-name="Caminho 1113" d="M476.237,530.482h-.047l-2.6,1.405-.391-1.547,3.27-1.748h1.725v14.97h-1.957v-13.08Z" transform="translate(-473.198 -528.339)" fill="#3a386e"/>
          <path id="Caminho_1114" data-name="Caminho 1114" d="M490.633,530.482h-.047l-2.6,1.405-.391-1.547,3.27-1.748h1.725v14.97h-1.957v-13.08Z" transform="translate(-475.782 -528.339)" fill="#3a386e"/>
          <path id="Caminho_1115" data-name="Caminho 1115" d="M510.241,535.859c0,5.09-1.889,7.9-5.205,7.9-2.927,0-4.906-2.743-4.952-7.692,0-5.022,2.164-7.785,5.205-7.785C508.445,528.284,510.241,531.095,510.241,535.859Zm-8.132.234c0,3.89,1.2,6.1,3.041,6.1,2.072,0,3.063-2.416,3.063-6.243,0-3.685-.944-6.1-3.041-6.1C503.4,529.85,502.109,532.012,502.109,536.093Z" transform="translate(-478.025 -528.284)" fill="#3a386e"/>
          <path id="Caminho_1116" data-name="Caminho 1116" d="M519.43,530.482h-.047l-2.6,1.405-.391-1.547,3.27-1.748h1.726v14.97h-1.957v-13.08Z" transform="translate(-480.952 -528.339)" fill="#3a386e"/>
          <path id="Caminho_1117" data-name="Caminho 1117" d="M539.039,535.859c0,5.09-1.889,7.9-5.205,7.9-2.926,0-4.9-2.743-4.952-7.692,0-5.022,2.164-7.785,5.205-7.785C537.243,528.284,539.039,531.095,539.039,535.859Zm-8.132.234c0,3.89,1.2,6.1,3.041,6.1,2.072,0,3.063-2.416,3.063-6.243,0-3.685-.944-6.1-3.041-6.1C532.2,529.85,530.907,532.012,530.907,536.093Z" transform="translate(-483.194 -528.284)" fill="#3a386e"/>
          <path id="Caminho_1118" data-name="Caminho 1118" d="M548.228,530.482h-.046l-2.6,1.405-.391-1.547,3.27-1.748h1.726v14.97h-1.958Z" transform="translate(-486.122 -528.339)" fill="#3a386e"/>
          <path id="Caminho_1119" data-name="Caminho 1119" d="M567.836,535.859c0,5.09-1.889,7.9-5.205,7.9-2.926,0-4.9-2.743-4.952-7.692,0-5.022,2.164-7.785,5.205-7.785C566.04,528.284,567.836,531.095,567.836,535.859Zm-8.131.234c0,3.89,1.2,6.1,3.041,6.1,2.072,0,3.063-2.416,3.063-6.243,0-3.685-.944-6.1-3.041-6.1C561,529.85,559.7,532.012,559.7,536.093Z" transform="translate(-488.364 -528.284)" fill="#3a386e"/>
          <path id="Caminho_1120" data-name="Caminho 1120" d="M577.025,530.482h-.047l-2.6,1.405-.391-1.547,3.27-1.748h1.725v14.97h-1.957v-13.08Z" transform="translate(-491.291 -528.339)" fill="#3a386e"/>
          <path id="Caminho_1121" data-name="Caminho 1121" d="M596.634,535.859c0,5.09-1.889,7.9-5.205,7.9-2.926,0-4.906-2.743-4.952-7.692,0-5.022,2.164-7.785,5.206-7.785C594.838,528.284,596.634,531.095,596.634,535.859Zm-8.132.234c0,3.89,1.2,6.1,3.041,6.1,2.072,0,3.063-2.416,3.063-6.243,0-3.685-.944-6.1-3.041-6.1C589.793,529.85,588.5,532.012,588.5,536.093Z" transform="translate(-493.534 -528.284)" fill="#3a386e"/>
          <path id="Caminho_1122" data-name="Caminho 1122" d="M605.823,530.482h-.047l-2.6,1.405-.391-1.547,3.27-1.748h1.726v14.97h-1.957Z" transform="translate(-496.461 -528.339)" fill="#3a386e"/>
          <path id="Caminho_1123" data-name="Caminho 1123" d="M625.429,535.859c0,5.09-1.889,7.9-5.205,7.9-2.926,0-4.906-2.743-4.952-7.692,0-5.022,2.164-7.785,5.205-7.785C623.632,528.284,625.429,531.095,625.429,535.859Zm-8.132.234c0,3.89,1.2,6.1,3.041,6.1,2.072,0,3.063-2.416,3.063-6.243,0-3.685-.944-6.1-3.041-6.1C618.588,529.85,617.3,532.012,617.3,536.093Z" transform="translate(-498.703 -528.284)" fill="#3a386e"/>
          <path id="Caminho_1124" data-name="Caminho 1124" d="M639.827,535.859c0,5.09-1.889,7.9-5.206,7.9-2.926,0-4.9-2.743-4.952-7.692,0-5.022,2.164-7.785,5.205-7.785C638.031,528.284,639.827,531.095,639.827,535.859Zm-8.131.234c0,3.89,1.2,6.1,3.041,6.1,2.072,0,3.063-2.416,3.063-6.243,0-3.685-.944-6.1-3.041-6.1C632.986,529.85,631.7,532.012,631.7,536.093Z" transform="translate(-501.287 -528.284)" fill="#3a386e"/>
        </g>
        <g id="Grupo_394" data-name="Grupo 394" transform="translate(0 46.695)">
          <path id="Caminho_1125" data-name="Caminho 1125" d="M481.446,564.315c0,5.09-1.889,7.9-5.205,7.9-2.926,0-4.9-2.743-4.952-7.692,0-5.022,2.164-7.785,5.205-7.785C479.65,556.74,481.446,559.551,481.446,564.315Zm-8.131.234c0,3.89,1.2,6.1,3.041,6.1,2.072,0,3.063-2.416,3.063-6.242,0-3.685-.944-6.1-3.041-6.1C474.605,558.306,473.315,560.468,473.315,564.549Z" transform="translate(-471.289 -556.74)" fill="#3a386e"/>
          <path id="Caminho_1126" data-name="Caminho 1126" d="M490.633,558.938h-.047l-2.6,1.405-.391-1.547,3.27-1.747h1.725v14.969h-1.957v-13.08Z" transform="translate(-474.216 -556.795)" fill="#3a386e"/>
          <path id="Caminho_1127" data-name="Caminho 1127" d="M505.031,558.938h-.046l-2.6,1.405-.393-1.547,3.273-1.747h1.725v14.969h-1.958v-13.08Z" transform="translate(-476.8 -556.795)" fill="#3a386e"/>
          <path id="Caminho_1128" data-name="Caminho 1128" d="M519.43,558.938h-.047l-2.6,1.405-.391-1.547,3.27-1.747h1.726v14.969h-1.957v-13.08Z" transform="translate(-479.386 -556.795)" fill="#3a386e"/>
          <path id="Caminho_1129" data-name="Caminho 1129" d="M533.829,558.938h-.046l-2.6,1.405-.393-1.547,3.273-1.747h1.726v14.969H533.83v-13.08Z" transform="translate(-481.97 -556.795)" fill="#3a386e"/>
          <path id="Caminho_1130" data-name="Caminho 1130" d="M553.437,564.315c0,5.09-1.889,7.9-5.205,7.9-2.927,0-4.906-2.743-4.952-7.692,0-5.022,2.164-7.785,5.205-7.785C551.641,556.74,553.437,559.551,553.437,564.315Zm-8.131.234c0,3.89,1.2,6.1,3.041,6.1,2.072,0,3.063-2.416,3.063-6.242,0-3.685-.944-6.1-3.041-6.1C546.6,558.306,545.306,560.468,545.306,564.549Z" transform="translate(-484.213 -556.74)" fill="#3a386e"/>
          <path id="Caminho_1131" data-name="Caminho 1131" d="M567.836,564.315c0,5.09-1.889,7.9-5.205,7.9-2.926,0-4.9-2.743-4.952-7.692,0-5.022,2.164-7.785,5.205-7.785C566.04,556.74,567.836,559.551,567.836,564.315Zm-8.131.234c0,3.89,1.2,6.1,3.041,6.1,2.072,0,3.063-2.416,3.063-6.242,0-3.685-.944-6.1-3.041-6.1C561,558.306,559.7,560.468,559.7,564.549Z" transform="translate(-486.798 -556.74)" fill="#3a386e"/>
          <path id="Caminho_1132" data-name="Caminho 1132" d="M582.235,564.315c0,5.09-1.889,7.9-5.205,7.9-2.926,0-4.9-2.743-4.952-7.692,0-5.022,2.164-7.785,5.206-7.785C580.439,556.74,582.235,559.551,582.235,564.315Zm-8.131.234c0,3.89,1.2,6.1,3.041,6.1,2.072,0,3.062-2.416,3.062-6.242,0-3.685-.944-6.1-3.041-6.1C575.394,558.306,574.1,560.468,574.1,564.549Z" transform="translate(-489.382 -556.74)" fill="#3a386e"/>
          <path id="Caminho_1133" data-name="Caminho 1133" d="M596.634,564.315c0,5.09-1.889,7.9-5.205,7.9-2.926,0-4.906-2.743-4.952-7.692,0-5.022,2.164-7.785,5.206-7.785C594.838,556.74,596.634,559.551,596.634,564.315Zm-8.132.234c0,3.89,1.2,6.1,3.041,6.1,2.072,0,3.063-2.416,3.063-6.242,0-3.685-.944-6.1-3.041-6.1C589.793,558.306,588.5,560.468,588.5,564.549Z" transform="translate(-491.967 -556.74)" fill="#3a386e"/>
          <path id="Caminho_1134" data-name="Caminho 1134" d="M605.823,558.938h-.047l-2.6,1.405-.391-1.547,3.27-1.747h1.726v14.969h-1.957Z" transform="translate(-494.895 -556.795)" fill="#3a386e"/>
          <path id="Caminho_1135" data-name="Caminho 1135" d="M625.429,564.315c0,5.09-1.889,7.9-5.205,7.9-2.926,0-4.906-2.743-4.952-7.692,0-5.022,2.164-7.785,5.205-7.785C623.632,556.74,625.429,559.551,625.429,564.315Zm-8.132.234c0,3.89,1.2,6.1,3.041,6.1,2.072,0,3.063-2.416,3.063-6.242,0-3.685-.944-6.1-3.041-6.1C618.588,558.306,617.3,560.468,617.3,564.549Z" transform="translate(-497.137 -556.74)" fill="#3a386e"/>
          <path id="Caminho_1136" data-name="Caminho 1136" d="M634.618,558.938h-.047l-2.6,1.405-.393-1.547,3.272-1.747h1.725v14.969h-1.957v-13.08Z" transform="translate(-500.063 -556.795)" fill="#3a386e"/>
        </g>
      </g>
      <path id="Caminho_1137" data-name="Caminho 1137" d="M560.69,612.133a5.148,5.148,0,1,1-5.148-5.148A5.148,5.148,0,0,1,560.69,612.133Z" transform="translate(-458.063 -495.898)" fill="#f7f7f7"/>
    </g>
    <path id="Caminho_1138" data-name="Caminho 1138" d="M815.423,687.361H141.815a9.7,9.7,0,0,1-9.7-9.7v-4.689a9.7,9.7,0,0,1,9.7-9.7H815.423a9.7,9.7,0,0,1,9.7,9.7v4.689A9.7,9.7,0,0,1,815.423,687.361Z" transform="translate(0 -52.371)" fill="#f7f7f7"/>
    <g id="Grupo_399" data-name="Grupo 399" transform="translate(235.126 464.285)">
      <g id="Grupo_398" data-name="Grupo 398" transform="translate(0.669 89.458)">
        <path id="Caminho_1139" data-name="Caminho 1139" d="M346.053,655.672c0,4.134-19.6,7.485-43.787,7.485s-43.787-3.352-43.787-7.485,19.6-7.485,43.787-7.485S346.053,651.538,346.053,655.672Z" transform="translate(-258.478 -603.405)" fill="#2a94f4"/>
        <rect id="Retângulo_168" data-name="Retângulo 168" width="30.958" height="52.027" transform="translate(28.308)" fill="#2a94f4"/>
        <g id="Grupo_397" data-name="Grupo 397" transform="translate(25.67 11.451)">
          <path id="Caminho_1140" data-name="Caminho 1140" d="M326,656.395a1.436,1.436,0,0,1-1.436,1.436H291.2a1.436,1.436,0,0,1-1.436-1.436h0a1.436,1.436,0,0,1,1.436-1.436h33.362A1.435,1.435,0,0,1,326,656.395Z" transform="translate(-289.765 -616.072)" fill="#2a94f4"/>
          <path id="Caminho_1141" data-name="Caminho 1141" d="M326,644.546a1.436,1.436,0,0,1-1.436,1.436H291.2a1.436,1.436,0,0,1-1.436-1.436h0a1.437,1.437,0,0,1,1.436-1.437h33.362A1.436,1.436,0,0,1,326,644.546Z" transform="translate(-289.765 -613.945)" fill="#2a94f4"/>
          <path id="Caminho_1142" data-name="Caminho 1142" d="M326,632.7a1.436,1.436,0,0,1-1.436,1.436H291.2a1.436,1.436,0,0,1-1.436-1.436h0a1.436,1.436,0,0,1,1.436-1.436h33.362A1.436,1.436,0,0,1,326,632.7Z" transform="translate(-289.765 -611.818)" fill="#2a94f4"/>
          <path id="Caminho_1143" data-name="Caminho 1143" d="M326,620.849a1.436,1.436,0,0,1-1.436,1.436H291.2a1.436,1.436,0,0,1-1.436-1.436h0a1.436,1.436,0,0,1,1.436-1.436h33.362A1.435,1.435,0,0,1,326,620.849Z" transform="translate(-289.765 -609.691)" fill="#2a94f4"/>
          <path id="Caminho_1144" data-name="Caminho 1144" d="M326,609a1.436,1.436,0,0,1-1.436,1.436H291.2A1.435,1.435,0,0,1,289.765,609h0a1.436,1.436,0,0,1,1.436-1.436h33.362A1.436,1.436,0,0,1,326,609Z" transform="translate(-289.765 -607.564)" fill="#2a94f4"/>
        </g>
      </g>
      <path id="Caminho_1145" data-name="Caminho 1145" d="M373.406,572.353,360.935,543.2v-5.718a8.2,8.2,0,0,0-.142-1.492A47.985,47.985,0,0,0,312.951,491.5v37.735h-1.915a8.239,8.239,0,0,0-8.239,8.239v2.051H264.95A48,48,0,0,0,302.8,586.405v12.263a8.24,8.24,0,0,0,8.239,8.24h41.658a8.24,8.24,0,0,0,8.239-8.24V575.015h10.715A1.774,1.774,0,0,0,373.406,572.353Z" transform="translate(-258.971 -485.82)" fill="#3a386e"/>
      <path id="Caminho_1146" data-name="Caminho 1146" d="M314.75,581.006V541.285h39.7a39.694,39.694,0,1,0-39.7,39.721Z" transform="translate(-260.787 -487.635)" fill="#2a94f4"/>
      <path id="Caminho_1147" data-name="Caminho 1147" d="M305.629,484.576h-.01a47.956,47.956,0,0,0-47.956,47.956c0,.011,0,.022,0,.033h47.965Z" transform="translate(-257.663 -484.576)" fill="#3a386e"/>
      <ellipse id="Elipse_160" data-name="Elipse 160" cx="26.264" cy="26.264" rx="26.264" ry="26.264" transform="translate(22.388 73.251) rotate(-76.814)" fill="#0b4870"/>
      <path id="Caminho_1148" data-name="Caminho 1148" d="M323.415,554.422v47.115c0,3-.442,5.765,4.119,5.765h31.374" transform="translate(-269.465 -497.115)" fill="none" stroke="#c3e1f7" stroke-miterlimit="10" stroke-width="2"/>
      <circle id="Elipse_161" data-name="Elipse 161" cx="13.905" cy="13.905" r="13.905" transform="translate(38.001 65.161) rotate(-80.758)" fill="#f7f7f7"/>
      <path id="Caminho_1149" data-name="Caminho 1149" d="M328.029,548.713a5.871,5.871,0,1,1-5.871-5.871A5.87,5.87,0,0,1,328.029,548.713Z" transform="translate(-268.187 -495.036)" fill="#2a94f4"/>
      <path id="Caminho_1150" data-name="Caminho 1150" d="M381.393,554.864H368.18c-3.877,0-7.018,3.479-7.018,7.77s3.142,7.77,7.018,7.77H387.4Z" transform="translate(-276.243 -497.194)" fill="#2a94f4"/>
      <path id="Caminho_1151" data-name="Caminho 1151" d="M364.307,605.279a2.479,2.479,0,0,0-2.479,2.479v21.819h8.259a9.919,9.919,0,0,0,9.919-9.92v-14.38h-15.7Z" transform="translate(-276.363 -506.244)" fill="#0b4870"/>
    </g>
    <g id="Grupo_407" data-name="Grupo 407" transform="translate(599.387 484.255)">
      <rect id="Retângulo_169" data-name="Retângulo 169" width="30.324" height="8.662" transform="matrix(0.32, -0.947, 0.947, 0.32, 73.457, 69.604)" fill="#2a94f4"/>
      <path id="Caminho_1152" data-name="Caminho 1152" d="M721.262,560.067l-6.151-6.1,30.9-35.76,6.15,6.1Z" transform="translate(-704.045 -510.583)" fill="#2a94f4"/>
      <path id="Caminho_1153" data-name="Caminho 1153" d="M716.132,564.216l6.449.451-.6,34.978-6.449-.45Z" transform="translate(-704.121 -518.842)" fill="#2a94f4"/>
      <g id="Grupo_400" data-name="Grupo 400" transform="translate(53.942 57.169)">
        <rect id="Retângulo_170" data-name="Retângulo 170" width="34.416" height="6.65" transform="translate(4.285 58.769)" fill="#0b4870"/>
        <path id="Caminho_1154" data-name="Caminho 1154" d="M810.352,661.687a.586.586,0,0,1-.586.586H767.954a.586.586,0,0,1-.586-.586v-5.874a.586.586,0,0,1,.586-.586h41.813a.586.586,0,0,1,.586.586Z" transform="translate(-767.368 -592.349)" fill="#0b4870"/>
        <path id="Caminho_1155" data-name="Caminho 1155" d="M809.233,637.361v-38.71a20.059,20.059,0,1,0-40.118,0v38.711h40.118Z" transform="translate(-767.682 -578.592)" fill="#0b4870"/>
      </g>
      <circle id="Elipse_162" data-name="Elipse 162" cx="10.108" cy="10.108" r="10.108" transform="translate(61.131 74.58) rotate(-45)" fill="#3a386e"/>
      <path id="Caminho_1156" data-name="Caminho 1156" d="M797.182,598.8a4.633,4.633,0,1,1-4.633-4.633A4.633,4.633,0,0,1,797.182,598.8Z" transform="translate(-717.115 -524.218)" fill="#0b4870"/>
      <g id="Grupo_404" data-name="Grupo 404" transform="translate(34.819)">
        <path id="Caminho_1157" data-name="Caminho 1157" d="M746.18,513.428a11,11,0,0,0,2.4,15.377l40.761,29.771a11,11,0,1,0,12.98-17.772l-40.762-29.771A11,11,0,0,0,746.18,513.428Z" transform="translate(-744.061 -508.915)" fill="#0b4870"/>
        <g id="Grupo_403" data-name="Grupo 403" transform="translate(4.286 4.602)">
          <g id="Grupo_401" data-name="Grupo 401">
            <path id="Caminho_1158" data-name="Caminho 1158" d="M758.1,515.591a5.545,5.545,0,1,1-7.749,1.207A5.546,5.546,0,0,1,758.1,515.591Z" transform="translate(-749.285 -514.523)" fill="#0b4870"/>
            <path id="Caminho_1159" data-name="Caminho 1159" d="M756.987,518.674a2.541,2.541,0,1,1-3.55.553A2.542,2.542,0,0,1,756.987,518.674Z" transform="translate(-749.943 -515.181)" fill="#0b4870"/>
          </g>
          <g id="Grupo_402" data-name="Grupo 402" transform="translate(43.108 31.485)">
            <path id="Caminho_1160" data-name="Caminho 1160" d="M810.641,553.964a5.545,5.545,0,1,1-7.749,1.208A5.546,5.546,0,0,1,810.641,553.964Z" transform="translate(-801.825 -552.897)" fill="#0b4870"/>
            <path id="Caminho_1161" data-name="Caminho 1161" d="M809.527,557.047a2.542,2.542,0,1,1-3.551.553A2.541,2.541,0,0,1,809.527,557.047Z" transform="translate(-802.483 -553.554)" fill="#0b4870"/>
          </g>
        </g>
      </g>
      <g id="Grupo_406" data-name="Grupo 406" transform="translate(0 38.794)">
        <g id="Grupo_405" data-name="Grupo 405" transform="translate(0 41.512)">
          <path id="Caminho_1162" data-name="Caminho 1162" d="M731.637,635.57l3.332-.268,1.295-21.4-16-7.109.792,9.835,10.76.333Z" transform="translate(-704.97 -606.791)" fill="#2a94f4"/>
          <path id="Caminho_1163" data-name="Caminho 1163" d="M706.328,637.351l3.332-.269-3.155-18.343,10.568-2.051-.793-9.834-14.656,9.579Z" transform="translate(-701.624 -606.802)" fill="#2a94f4"/>
        </g>
        <path id="Caminho_1164" data-name="Caminho 1164" d="M710.671,610.131a7.539,7.539,0,1,1,8.12,6.909A7.54,7.54,0,0,1,710.671,610.131Z" transform="translate(-703.244 -564.417)" fill="#3a386e"/>
        <path id="Caminho_1165" data-name="Caminho 1165" d="M715.258,610.654a3.765,3.765,0,1,1,4.055,3.45A3.764,3.764,0,0,1,715.258,610.654Z" transform="translate(-704.069 -565.243)" fill="#0b4870"/>
        <path id="Caminho_1166" data-name="Caminho 1166" d="M710.671,564.342a7.539,7.539,0,1,1,8.12,6.909A7.54,7.54,0,0,1,710.671,564.342Z" transform="translate(-703.244 -556.197)" fill="#3a386e"/>
        <path id="Caminho_1167" data-name="Caminho 1167" d="M715.258,564.865a3.765,3.765,0,1,1,4.055,3.45A3.764,3.764,0,0,1,715.258,564.865Z" transform="translate(-704.069 -557.023)" fill="#0b4870"/>
      </g>
    </g>
  </g>
</svg>
