<svg xmlns="http://www.w3.org/2000/svg" width="2305.861" height="3742.847" viewBox="0 0 2305.861 3742.847">
  <g id="Grupo_203" data-name="Grupo 203" transform="translate(244.758 -1579.153)" opacity="0.03">
    <path id="Caminho_327" data-name="Caminho 327" d="M41.743,3805.194c-63.713,85.683-17.576,160.381,90.077,281.215S371.292,4251.184,355.913,4385.2s127.426,257.048,243.866,232.881,360.307-184.547,305.382-347.125-153.79-327.352-92.274-450.384-169.169-294.4-318.564-215.305S105.456,3719.511,41.743,3805.194Z" transform="translate(1148 -2006)" fill="#3a386e"/>
    <path id="Caminho_328" data-name="Caminho 328" d="M-1232.514,4793.841s19.773,228.488,373.489,188.942,292.2-292.2,279.018-404.247,35.152-259.246,109.85-329.549,184.548-226.29,74.7-397.656-808.494-481.142-953.5-101.062S-1232.514,4793.841-1232.514,4793.841Z" transform="translate(1148 -1504)" fill="#3a386e"/>
    <path id="Caminho_329" data-name="Caminho 329" d="M353.716,5789.08c180.154,87.879,406.444-70.3,353.716-210.912s-149.4-300.989-318.564-230.685S173.563,5701.2,353.716,5789.08Z" transform="translate(1116 -1991)" fill="#3a386e"/>
    <path id="Polígono_1" data-name="Polígono 1" d="M156.5,0,313,271H0Z" transform="matrix(0.966, 0.259, -0.259, 0.966, 178.403, 4345.112)" fill="#3a386e"/>
    <rect id="Retângulo_40" data-name="Retângulo 40" width="267" height="267" transform="translate(1502.136 4583.636) rotate(-30)" fill="#3a386e"/>
    <circle id="Elipse_60" data-name="Elipse 60" cx="145" cy="145" r="145" transform="translate(718 5032)" fill="#3a386e"/>
    <g id="Grupo_49" data-name="Grupo 49" transform="translate(87 -179)">
      <circle id="Elipse_62" data-name="Elipse 62" cx="5.3" cy="5.3" r="5.3" transform="translate(895 4150.398)" fill="#3a386e"/>
      <circle id="Elipse_63" data-name="Elipse 63" cx="5.3" cy="5.3" r="5.3" transform="translate(916.2 4150.398)" fill="#3a386e"/>
      <circle id="Elipse_64" data-name="Elipse 64" cx="5.3" cy="5.3" r="5.3" transform="translate(937.4 4150.398)" fill="#3a386e"/>
      <circle id="Elipse_65" data-name="Elipse 65" cx="5.3" cy="5.3" r="5.3" transform="translate(958.599 4150.398)" fill="#3a386e"/>
      <circle id="Elipse_66" data-name="Elipse 66" cx="5.3" cy="5.3" r="5.3" transform="translate(979.799 4150.398)" fill="#3a386e"/>
      <circle id="Elipse_67" data-name="Elipse 67" cx="5.3" cy="5.3" r="5.3" transform="translate(1000.999 4150.398)" fill="#3a386e"/>
      <circle id="Elipse_68" data-name="Elipse 68" cx="5.3" cy="5.3" r="5.3" transform="translate(1022.198 4150.398)" fill="#3a386e"/>
      <circle id="Elipse_69" data-name="Elipse 69" cx="5.3" cy="5.3" r="5.3" transform="translate(1043.398 4150.398)" fill="#3a386e"/>
      <circle id="Elipse_70" data-name="Elipse 70" cx="5.3" cy="5.3" r="5.3" transform="translate(895 4129.198)" fill="#3a386e"/>
      <circle id="Elipse_71" data-name="Elipse 71" cx="5.3" cy="5.3" r="5.3" transform="translate(916.2 4129.198)" fill="#3a386e"/>
      <circle id="Elipse_72" data-name="Elipse 72" cx="5.3" cy="5.3" r="5.3" transform="translate(937.4 4129.198)" fill="#3a386e"/>
      <circle id="Elipse_73" data-name="Elipse 73" cx="5.3" cy="5.3" r="5.3" transform="translate(958.599 4129.198)" fill="#3a386e"/>
      <circle id="Elipse_74" data-name="Elipse 74" cx="5.3" cy="5.3" r="5.3" transform="translate(979.799 4129.198)" fill="#3a386e"/>
      <circle id="Elipse_75" data-name="Elipse 75" cx="5.3" cy="5.3" r="5.3" transform="translate(1000.999 4129.198)" fill="#3a386e"/>
      <circle id="Elipse_76" data-name="Elipse 76" cx="5.3" cy="5.3" r="5.3" transform="translate(1022.198 4129.198)" fill="#3a386e"/>
      <circle id="Elipse_77" data-name="Elipse 77" cx="5.3" cy="5.3" r="5.3" transform="translate(1043.398 4129.198)" fill="#3a386e"/>
      <circle id="Elipse_78" data-name="Elipse 78" cx="5.3" cy="5.3" r="5.3" transform="translate(895 4107.999)" fill="#3a386e"/>
      <circle id="Elipse_79" data-name="Elipse 79" cx="5.3" cy="5.3" r="5.3" transform="translate(916.2 4107.999)" fill="#3a386e"/>
      <circle id="Elipse_80" data-name="Elipse 80" cx="5.3" cy="5.3" r="5.3" transform="translate(937.4 4107.999)" fill="#3a386e"/>
      <circle id="Elipse_81" data-name="Elipse 81" cx="5.3" cy="5.3" r="5.3" transform="translate(958.599 4107.999)" fill="#3a386e"/>
      <circle id="Elipse_82" data-name="Elipse 82" cx="5.3" cy="5.3" r="5.3" transform="translate(979.799 4107.999)" fill="#3a386e"/>
      <circle id="Elipse_83" data-name="Elipse 83" cx="5.3" cy="5.3" r="5.3" transform="translate(1000.999 4107.999)" fill="#3a386e"/>
      <circle id="Elipse_84" data-name="Elipse 84" cx="5.3" cy="5.3" r="5.3" transform="translate(1022.198 4107.999)" fill="#3a386e"/>
      <circle id="Elipse_85" data-name="Elipse 85" cx="5.3" cy="5.3" r="5.3" transform="translate(1043.398 4107.999)" fill="#3a386e"/>
      <circle id="Elipse_86" data-name="Elipse 86" cx="5.3" cy="5.3" r="5.3" transform="translate(895 4086.799)" fill="#3a386e"/>
      <circle id="Elipse_87" data-name="Elipse 87" cx="5.3" cy="5.3" r="5.3" transform="translate(916.2 4086.799)" fill="#3a386e"/>
      <circle id="Elipse_88" data-name="Elipse 88" cx="5.3" cy="5.3" r="5.3" transform="translate(937.4 4086.799)" fill="#3a386e"/>
      <circle id="Elipse_89" data-name="Elipse 89" cx="5.3" cy="5.3" r="5.3" transform="translate(958.599 4086.799)" fill="#3a386e"/>
      <circle id="Elipse_90" data-name="Elipse 90" cx="5.3" cy="5.3" r="5.3" transform="translate(979.799 4086.799)" fill="#3a386e"/>
      <circle id="Elipse_91" data-name="Elipse 91" cx="5.3" cy="5.3" r="5.3" transform="translate(1000.999 4086.799)" fill="#3a386e"/>
      <circle id="Elipse_92" data-name="Elipse 92" cx="5.3" cy="5.3" r="5.3" transform="translate(1022.198 4086.799)" fill="#3a386e"/>
      <circle id="Elipse_93" data-name="Elipse 93" cx="5.3" cy="5.3" r="5.3" transform="translate(1043.398 4086.799)" fill="#3a386e"/>
      <circle id="Elipse_94" data-name="Elipse 94" cx="5.3" cy="5.3" r="5.3" transform="translate(895 4065.599)" fill="#3a386e"/>
      <circle id="Elipse_95" data-name="Elipse 95" cx="5.3" cy="5.3" r="5.3" transform="translate(916.2 4065.599)" fill="#3a386e"/>
      <circle id="Elipse_96" data-name="Elipse 96" cx="5.3" cy="5.3" r="5.3" transform="translate(937.4 4065.599)" fill="#3a386e"/>
      <circle id="Elipse_97" data-name="Elipse 97" cx="5.3" cy="5.3" r="5.3" transform="translate(958.599 4065.599)" fill="#3a386e"/>
      <circle id="Elipse_98" data-name="Elipse 98" cx="5.3" cy="5.3" r="5.3" transform="translate(979.799 4065.599)" fill="#3a386e"/>
      <circle id="Elipse_99" data-name="Elipse 99" cx="5.3" cy="5.3" r="5.3" transform="translate(1000.999 4065.599)" fill="#3a386e"/>
      <circle id="Elipse_100" data-name="Elipse 100" cx="5.3" cy="5.3" r="5.3" transform="translate(1022.198 4065.599)" fill="#3a386e"/>
      <circle id="Elipse_101" data-name="Elipse 101" cx="5.3" cy="5.3" r="5.3" transform="translate(1043.398 4065.599)" fill="#3a386e"/>
      <circle id="Elipse_102" data-name="Elipse 102" cx="5.3" cy="5.3" r="5.3" transform="translate(895 4044.399)" fill="#3a386e"/>
      <circle id="Elipse_103" data-name="Elipse 103" cx="5.3" cy="5.3" r="5.3" transform="translate(916.2 4044.399)" fill="#3a386e"/>
      <circle id="Elipse_104" data-name="Elipse 104" cx="5.3" cy="5.3" r="5.3" transform="translate(937.4 4044.399)" fill="#3a386e"/>
      <circle id="Elipse_105" data-name="Elipse 105" cx="5.3" cy="5.3" r="5.3" transform="translate(958.599 4044.399)" fill="#3a386e"/>
      <circle id="Elipse_106" data-name="Elipse 106" cx="5.3" cy="5.3" r="5.3" transform="translate(979.799 4044.399)" fill="#3a386e"/>
      <circle id="Elipse_107" data-name="Elipse 107" cx="5.3" cy="5.3" r="5.3" transform="translate(1000.999 4044.399)" fill="#3a386e"/>
      <circle id="Elipse_108" data-name="Elipse 108" cx="5.3" cy="5.3" r="5.3" transform="translate(1022.198 4044.399)" fill="#3a386e"/>
      <circle id="Elipse_109" data-name="Elipse 109" cx="5.3" cy="5.3" r="5.3" transform="translate(1043.398 4044.399)" fill="#3a386e"/>
      <circle id="Elipse_110" data-name="Elipse 110" cx="5.3" cy="5.3" r="5.3" transform="translate(895 4023.2)" fill="#3a386e"/>
      <circle id="Elipse_111" data-name="Elipse 111" cx="5.3" cy="5.3" r="5.3" transform="translate(916.2 4023.2)" fill="#3a386e"/>
      <circle id="Elipse_112" data-name="Elipse 112" cx="5.3" cy="5.3" r="5.3" transform="translate(937.4 4023.2)" fill="#3a386e"/>
      <circle id="Elipse_113" data-name="Elipse 113" cx="5.3" cy="5.3" r="5.3" transform="translate(958.599 4023.2)" fill="#3a386e"/>
      <circle id="Elipse_114" data-name="Elipse 114" cx="5.3" cy="5.3" r="5.3" transform="translate(979.799 4023.2)" fill="#3a386e"/>
      <circle id="Elipse_115" data-name="Elipse 115" cx="5.3" cy="5.3" r="5.3" transform="translate(1000.999 4023.2)" fill="#3a386e"/>
      <circle id="Elipse_116" data-name="Elipse 116" cx="5.3" cy="5.3" r="5.3" transform="translate(1022.198 4023.2)" fill="#3a386e"/>
      <circle id="Elipse_117" data-name="Elipse 117" cx="5.3" cy="5.3" r="5.3" transform="translate(1043.398 4023.2)" fill="#3a386e"/>
      <circle id="Elipse_118" data-name="Elipse 118" cx="5.3" cy="5.3" r="5.3" transform="translate(895 4002)" fill="#3a386e"/>
      <circle id="Elipse_119" data-name="Elipse 119" cx="5.3" cy="5.3" r="5.3" transform="translate(916.2 4002)" fill="#3a386e"/>
      <circle id="Elipse_120" data-name="Elipse 120" cx="5.3" cy="5.3" r="5.3" transform="translate(937.4 4002)" fill="#3a386e"/>
      <circle id="Elipse_121" data-name="Elipse 121" cx="5.3" cy="5.3" r="5.3" transform="translate(958.599 4002)" fill="#3a386e"/>
      <circle id="Elipse_122" data-name="Elipse 122" cx="5.3" cy="5.3" r="5.3" transform="translate(979.799 4002)" fill="#3a386e"/>
      <circle id="Elipse_123" data-name="Elipse 123" cx="5.3" cy="5.3" r="5.3" transform="translate(1000.999 4002)" fill="#3a386e"/>
      <circle id="Elipse_124" data-name="Elipse 124" cx="5.3" cy="5.3" r="5.3" transform="translate(1022.198 4002)" fill="#3a386e"/>
      <circle id="Elipse_125" data-name="Elipse 125" cx="5.3" cy="5.3" r="5.3" transform="translate(1043.398 4002)" fill="#3a386e"/>
    </g>
    <g id="Grupo_50" data-name="Grupo 50" transform="translate(30 -1367)">
      <circle id="Elipse_62-2" data-name="Elipse 62" cx="5.3" cy="5.3" r="5.3" transform="translate(895 4150.398)" fill="#3a386e"/>
      <circle id="Elipse_63-2" data-name="Elipse 63" cx="5.3" cy="5.3" r="5.3" transform="translate(916.2 4150.398)" fill="#3a386e"/>
      <circle id="Elipse_64-2" data-name="Elipse 64" cx="5.3" cy="5.3" r="5.3" transform="translate(937.4 4150.398)" fill="#3a386e"/>
      <circle id="Elipse_65-2" data-name="Elipse 65" cx="5.3" cy="5.3" r="5.3" transform="translate(958.599 4150.398)" fill="#3a386e"/>
      <circle id="Elipse_66-2" data-name="Elipse 66" cx="5.3" cy="5.3" r="5.3" transform="translate(979.799 4150.398)" fill="#3a386e"/>
      <circle id="Elipse_67-2" data-name="Elipse 67" cx="5.3" cy="5.3" r="5.3" transform="translate(1000.999 4150.398)" fill="#3a386e"/>
      <circle id="Elipse_68-2" data-name="Elipse 68" cx="5.3" cy="5.3" r="5.3" transform="translate(1022.198 4150.398)" fill="#3a386e"/>
      <circle id="Elipse_69-2" data-name="Elipse 69" cx="5.3" cy="5.3" r="5.3" transform="translate(1043.398 4150.398)" fill="#3a386e"/>
      <circle id="Elipse_70-2" data-name="Elipse 70" cx="5.3" cy="5.3" r="5.3" transform="translate(895 4129.198)" fill="#3a386e"/>
      <circle id="Elipse_71-2" data-name="Elipse 71" cx="5.3" cy="5.3" r="5.3" transform="translate(916.2 4129.198)" fill="#3a386e"/>
      <circle id="Elipse_72-2" data-name="Elipse 72" cx="5.3" cy="5.3" r="5.3" transform="translate(937.4 4129.198)" fill="#3a386e"/>
      <circle id="Elipse_73-2" data-name="Elipse 73" cx="5.3" cy="5.3" r="5.3" transform="translate(958.599 4129.198)" fill="#3a386e"/>
      <circle id="Elipse_74-2" data-name="Elipse 74" cx="5.3" cy="5.3" r="5.3" transform="translate(979.799 4129.198)" fill="#3a386e"/>
      <circle id="Elipse_75-2" data-name="Elipse 75" cx="5.3" cy="5.3" r="5.3" transform="translate(1000.999 4129.198)" fill="#3a386e"/>
      <circle id="Elipse_76-2" data-name="Elipse 76" cx="5.3" cy="5.3" r="5.3" transform="translate(1022.198 4129.198)" fill="#3a386e"/>
      <circle id="Elipse_77-2" data-name="Elipse 77" cx="5.3" cy="5.3" r="5.3" transform="translate(1043.398 4129.198)" fill="#3a386e"/>
      <circle id="Elipse_78-2" data-name="Elipse 78" cx="5.3" cy="5.3" r="5.3" transform="translate(895 4107.999)" fill="#3a386e"/>
      <circle id="Elipse_79-2" data-name="Elipse 79" cx="5.3" cy="5.3" r="5.3" transform="translate(916.2 4107.999)" fill="#3a386e"/>
      <circle id="Elipse_80-2" data-name="Elipse 80" cx="5.3" cy="5.3" r="5.3" transform="translate(937.4 4107.999)" fill="#3a386e"/>
      <circle id="Elipse_81-2" data-name="Elipse 81" cx="5.3" cy="5.3" r="5.3" transform="translate(958.599 4107.999)" fill="#3a386e"/>
      <circle id="Elipse_82-2" data-name="Elipse 82" cx="5.3" cy="5.3" r="5.3" transform="translate(979.799 4107.999)" fill="#3a386e"/>
      <circle id="Elipse_83-2" data-name="Elipse 83" cx="5.3" cy="5.3" r="5.3" transform="translate(1000.999 4107.999)" fill="#3a386e"/>
      <circle id="Elipse_84-2" data-name="Elipse 84" cx="5.3" cy="5.3" r="5.3" transform="translate(1022.198 4107.999)" fill="#3a386e"/>
      <circle id="Elipse_85-2" data-name="Elipse 85" cx="5.3" cy="5.3" r="5.3" transform="translate(1043.398 4107.999)" fill="#3a386e"/>
      <circle id="Elipse_86-2" data-name="Elipse 86" cx="5.3" cy="5.3" r="5.3" transform="translate(895 4086.799)" fill="#3a386e"/>
      <circle id="Elipse_87-2" data-name="Elipse 87" cx="5.3" cy="5.3" r="5.3" transform="translate(916.2 4086.799)" fill="#3a386e"/>
      <circle id="Elipse_88-2" data-name="Elipse 88" cx="5.3" cy="5.3" r="5.3" transform="translate(937.4 4086.799)" fill="#3a386e"/>
      <circle id="Elipse_89-2" data-name="Elipse 89" cx="5.3" cy="5.3" r="5.3" transform="translate(958.599 4086.799)" fill="#3a386e"/>
      <circle id="Elipse_90-2" data-name="Elipse 90" cx="5.3" cy="5.3" r="5.3" transform="translate(979.799 4086.799)" fill="#3a386e"/>
      <circle id="Elipse_91-2" data-name="Elipse 91" cx="5.3" cy="5.3" r="5.3" transform="translate(1000.999 4086.799)" fill="#3a386e"/>
      <circle id="Elipse_92-2" data-name="Elipse 92" cx="5.3" cy="5.3" r="5.3" transform="translate(1022.198 4086.799)" fill="#3a386e"/>
      <circle id="Elipse_93-2" data-name="Elipse 93" cx="5.3" cy="5.3" r="5.3" transform="translate(1043.398 4086.799)" fill="#3a386e"/>
      <circle id="Elipse_94-2" data-name="Elipse 94" cx="5.3" cy="5.3" r="5.3" transform="translate(895 4065.599)" fill="#3a386e"/>
      <circle id="Elipse_95-2" data-name="Elipse 95" cx="5.3" cy="5.3" r="5.3" transform="translate(916.2 4065.599)" fill="#3a386e"/>
      <circle id="Elipse_96-2" data-name="Elipse 96" cx="5.3" cy="5.3" r="5.3" transform="translate(937.4 4065.599)" fill="#3a386e"/>
      <circle id="Elipse_97-2" data-name="Elipse 97" cx="5.3" cy="5.3" r="5.3" transform="translate(958.599 4065.599)" fill="#3a386e"/>
      <circle id="Elipse_98-2" data-name="Elipse 98" cx="5.3" cy="5.3" r="5.3" transform="translate(979.799 4065.599)" fill="#3a386e"/>
      <circle id="Elipse_99-2" data-name="Elipse 99" cx="5.3" cy="5.3" r="5.3" transform="translate(1000.999 4065.599)" fill="#3a386e"/>
      <circle id="Elipse_100-2" data-name="Elipse 100" cx="5.3" cy="5.3" r="5.3" transform="translate(1022.198 4065.599)" fill="#3a386e"/>
      <circle id="Elipse_101-2" data-name="Elipse 101" cx="5.3" cy="5.3" r="5.3" transform="translate(1043.398 4065.599)" fill="#3a386e"/>
      <circle id="Elipse_102-2" data-name="Elipse 102" cx="5.3" cy="5.3" r="5.3" transform="translate(895 4044.399)" fill="#3a386e"/>
      <circle id="Elipse_103-2" data-name="Elipse 103" cx="5.3" cy="5.3" r="5.3" transform="translate(916.2 4044.399)" fill="#3a386e"/>
      <circle id="Elipse_104-2" data-name="Elipse 104" cx="5.3" cy="5.3" r="5.3" transform="translate(937.4 4044.399)" fill="#3a386e"/>
      <circle id="Elipse_105-2" data-name="Elipse 105" cx="5.3" cy="5.3" r="5.3" transform="translate(958.599 4044.399)" fill="#3a386e"/>
      <circle id="Elipse_106-2" data-name="Elipse 106" cx="5.3" cy="5.3" r="5.3" transform="translate(979.799 4044.399)" fill="#3a386e"/>
      <circle id="Elipse_107-2" data-name="Elipse 107" cx="5.3" cy="5.3" r="5.3" transform="translate(1000.999 4044.399)" fill="#3a386e"/>
      <circle id="Elipse_108-2" data-name="Elipse 108" cx="5.3" cy="5.3" r="5.3" transform="translate(1022.198 4044.399)" fill="#3a386e"/>
      <circle id="Elipse_109-2" data-name="Elipse 109" cx="5.3" cy="5.3" r="5.3" transform="translate(1043.398 4044.399)" fill="#3a386e"/>
      <circle id="Elipse_110-2" data-name="Elipse 110" cx="5.3" cy="5.3" r="5.3" transform="translate(895 4023.2)" fill="#3a386e"/>
      <circle id="Elipse_111-2" data-name="Elipse 111" cx="5.3" cy="5.3" r="5.3" transform="translate(916.2 4023.2)" fill="#3a386e"/>
      <circle id="Elipse_112-2" data-name="Elipse 112" cx="5.3" cy="5.3" r="5.3" transform="translate(937.4 4023.2)" fill="#3a386e"/>
      <circle id="Elipse_113-2" data-name="Elipse 113" cx="5.3" cy="5.3" r="5.3" transform="translate(958.599 4023.2)" fill="#3a386e"/>
      <circle id="Elipse_114-2" data-name="Elipse 114" cx="5.3" cy="5.3" r="5.3" transform="translate(979.799 4023.2)" fill="#3a386e"/>
      <circle id="Elipse_115-2" data-name="Elipse 115" cx="5.3" cy="5.3" r="5.3" transform="translate(1000.999 4023.2)" fill="#3a386e"/>
      <circle id="Elipse_116-2" data-name="Elipse 116" cx="5.3" cy="5.3" r="5.3" transform="translate(1022.198 4023.2)" fill="#3a386e"/>
      <circle id="Elipse_117-2" data-name="Elipse 117" cx="5.3" cy="5.3" r="5.3" transform="translate(1043.398 4023.2)" fill="#3a386e"/>
      <circle id="Elipse_118-2" data-name="Elipse 118" cx="5.3" cy="5.3" r="5.3" transform="translate(895 4002)" fill="#3a386e"/>
      <circle id="Elipse_119-2" data-name="Elipse 119" cx="5.3" cy="5.3" r="5.3" transform="translate(916.2 4002)" fill="#3a386e"/>
      <circle id="Elipse_120-2" data-name="Elipse 120" cx="5.3" cy="5.3" r="5.3" transform="translate(937.4 4002)" fill="#3a386e"/>
      <circle id="Elipse_121-2" data-name="Elipse 121" cx="5.3" cy="5.3" r="5.3" transform="translate(958.599 4002)" fill="#3a386e"/>
      <circle id="Elipse_122-2" data-name="Elipse 122" cx="5.3" cy="5.3" r="5.3" transform="translate(979.799 4002)" fill="#3a386e"/>
      <circle id="Elipse_123-2" data-name="Elipse 123" cx="5.3" cy="5.3" r="5.3" transform="translate(1000.999 4002)" fill="#3a386e"/>
      <circle id="Elipse_124-2" data-name="Elipse 124" cx="5.3" cy="5.3" r="5.3" transform="translate(1022.198 4002)" fill="#3a386e"/>
      <circle id="Elipse_125-2" data-name="Elipse 125" cx="5.3" cy="5.3" r="5.3" transform="translate(1043.398 4002)" fill="#3a386e"/>
    </g>
    <g id="Grupo_51" data-name="Grupo 51" transform="translate(-208 -2242)">
      <circle id="Elipse_62-3" data-name="Elipse 62" cx="5.3" cy="5.3" r="5.3" transform="translate(895 4150.398)" fill="#3a386e"/>
      <circle id="Elipse_63-3" data-name="Elipse 63" cx="5.3" cy="5.3" r="5.3" transform="translate(916.2 4150.398)" fill="#3a386e"/>
      <circle id="Elipse_64-3" data-name="Elipse 64" cx="5.3" cy="5.3" r="5.3" transform="translate(937.4 4150.398)" fill="#3a386e"/>
      <circle id="Elipse_65-3" data-name="Elipse 65" cx="5.3" cy="5.3" r="5.3" transform="translate(958.599 4150.398)" fill="#3a386e"/>
      <circle id="Elipse_66-3" data-name="Elipse 66" cx="5.3" cy="5.3" r="5.3" transform="translate(979.799 4150.398)" fill="#3a386e"/>
      <circle id="Elipse_67-3" data-name="Elipse 67" cx="5.3" cy="5.3" r="5.3" transform="translate(1000.999 4150.398)" fill="#3a386e"/>
      <circle id="Elipse_68-3" data-name="Elipse 68" cx="5.3" cy="5.3" r="5.3" transform="translate(1022.198 4150.398)" fill="#3a386e"/>
      <circle id="Elipse_69-3" data-name="Elipse 69" cx="5.3" cy="5.3" r="5.3" transform="translate(1043.398 4150.398)" fill="#3a386e"/>
      <circle id="Elipse_70-3" data-name="Elipse 70" cx="5.3" cy="5.3" r="5.3" transform="translate(895 4129.198)" fill="#3a386e"/>
      <circle id="Elipse_71-3" data-name="Elipse 71" cx="5.3" cy="5.3" r="5.3" transform="translate(916.2 4129.198)" fill="#3a386e"/>
      <circle id="Elipse_72-3" data-name="Elipse 72" cx="5.3" cy="5.3" r="5.3" transform="translate(937.4 4129.198)" fill="#3a386e"/>
      <circle id="Elipse_73-3" data-name="Elipse 73" cx="5.3" cy="5.3" r="5.3" transform="translate(958.599 4129.198)" fill="#3a386e"/>
      <circle id="Elipse_74-3" data-name="Elipse 74" cx="5.3" cy="5.3" r="5.3" transform="translate(979.799 4129.198)" fill="#3a386e"/>
      <circle id="Elipse_75-3" data-name="Elipse 75" cx="5.3" cy="5.3" r="5.3" transform="translate(1000.999 4129.198)" fill="#3a386e"/>
      <circle id="Elipse_76-3" data-name="Elipse 76" cx="5.3" cy="5.3" r="5.3" transform="translate(1022.198 4129.198)" fill="#3a386e"/>
      <circle id="Elipse_77-3" data-name="Elipse 77" cx="5.3" cy="5.3" r="5.3" transform="translate(1043.398 4129.198)" fill="#3a386e"/>
      <circle id="Elipse_78-3" data-name="Elipse 78" cx="5.3" cy="5.3" r="5.3" transform="translate(895 4107.999)" fill="#3a386e"/>
      <circle id="Elipse_79-3" data-name="Elipse 79" cx="5.3" cy="5.3" r="5.3" transform="translate(916.2 4107.999)" fill="#3a386e"/>
      <circle id="Elipse_80-3" data-name="Elipse 80" cx="5.3" cy="5.3" r="5.3" transform="translate(937.4 4107.999)" fill="#3a386e"/>
      <circle id="Elipse_81-3" data-name="Elipse 81" cx="5.3" cy="5.3" r="5.3" transform="translate(958.599 4107.999)" fill="#3a386e"/>
      <circle id="Elipse_82-3" data-name="Elipse 82" cx="5.3" cy="5.3" r="5.3" transform="translate(979.799 4107.999)" fill="#3a386e"/>
      <circle id="Elipse_83-3" data-name="Elipse 83" cx="5.3" cy="5.3" r="5.3" transform="translate(1000.999 4107.999)" fill="#3a386e"/>
      <circle id="Elipse_84-3" data-name="Elipse 84" cx="5.3" cy="5.3" r="5.3" transform="translate(1022.198 4107.999)" fill="#3a386e"/>
      <circle id="Elipse_85-3" data-name="Elipse 85" cx="5.3" cy="5.3" r="5.3" transform="translate(1043.398 4107.999)" fill="#3a386e"/>
      <circle id="Elipse_86-3" data-name="Elipse 86" cx="5.3" cy="5.3" r="5.3" transform="translate(895 4086.799)" fill="#3a386e"/>
      <circle id="Elipse_87-3" data-name="Elipse 87" cx="5.3" cy="5.3" r="5.3" transform="translate(916.2 4086.799)" fill="#3a386e"/>
      <circle id="Elipse_88-3" data-name="Elipse 88" cx="5.3" cy="5.3" r="5.3" transform="translate(937.4 4086.799)" fill="#3a386e"/>
      <circle id="Elipse_89-3" data-name="Elipse 89" cx="5.3" cy="5.3" r="5.3" transform="translate(958.599 4086.799)" fill="#3a386e"/>
      <circle id="Elipse_90-3" data-name="Elipse 90" cx="5.3" cy="5.3" r="5.3" transform="translate(979.799 4086.799)" fill="#3a386e"/>
      <circle id="Elipse_91-3" data-name="Elipse 91" cx="5.3" cy="5.3" r="5.3" transform="translate(1000.999 4086.799)" fill="#3a386e"/>
      <circle id="Elipse_92-3" data-name="Elipse 92" cx="5.3" cy="5.3" r="5.3" transform="translate(1022.198 4086.799)" fill="#3a386e"/>
      <circle id="Elipse_93-3" data-name="Elipse 93" cx="5.3" cy="5.3" r="5.3" transform="translate(1043.398 4086.799)" fill="#3a386e"/>
      <circle id="Elipse_94-3" data-name="Elipse 94" cx="5.3" cy="5.3" r="5.3" transform="translate(895 4065.599)" fill="#3a386e"/>
      <circle id="Elipse_95-3" data-name="Elipse 95" cx="5.3" cy="5.3" r="5.3" transform="translate(916.2 4065.599)" fill="#3a386e"/>
      <circle id="Elipse_96-3" data-name="Elipse 96" cx="5.3" cy="5.3" r="5.3" transform="translate(937.4 4065.599)" fill="#3a386e"/>
      <circle id="Elipse_97-3" data-name="Elipse 97" cx="5.3" cy="5.3" r="5.3" transform="translate(958.599 4065.599)" fill="#3a386e"/>
      <circle id="Elipse_98-3" data-name="Elipse 98" cx="5.3" cy="5.3" r="5.3" transform="translate(979.799 4065.599)" fill="#3a386e"/>
      <circle id="Elipse_99-3" data-name="Elipse 99" cx="5.3" cy="5.3" r="5.3" transform="translate(1000.999 4065.599)" fill="#3a386e"/>
      <circle id="Elipse_100-3" data-name="Elipse 100" cx="5.3" cy="5.3" r="5.3" transform="translate(1022.198 4065.599)" fill="#3a386e"/>
      <circle id="Elipse_101-3" data-name="Elipse 101" cx="5.3" cy="5.3" r="5.3" transform="translate(1043.398 4065.599)" fill="#3a386e"/>
      <circle id="Elipse_102-3" data-name="Elipse 102" cx="5.3" cy="5.3" r="5.3" transform="translate(895 4044.399)" fill="#3a386e"/>
      <circle id="Elipse_103-3" data-name="Elipse 103" cx="5.3" cy="5.3" r="5.3" transform="translate(916.2 4044.399)" fill="#3a386e"/>
      <circle id="Elipse_104-3" data-name="Elipse 104" cx="5.3" cy="5.3" r="5.3" transform="translate(937.4 4044.399)" fill="#3a386e"/>
      <circle id="Elipse_105-3" data-name="Elipse 105" cx="5.3" cy="5.3" r="5.3" transform="translate(958.599 4044.399)" fill="#3a386e"/>
      <circle id="Elipse_106-3" data-name="Elipse 106" cx="5.3" cy="5.3" r="5.3" transform="translate(979.799 4044.399)" fill="#3a386e"/>
      <circle id="Elipse_107-3" data-name="Elipse 107" cx="5.3" cy="5.3" r="5.3" transform="translate(1000.999 4044.399)" fill="#3a386e"/>
      <circle id="Elipse_108-3" data-name="Elipse 108" cx="5.3" cy="5.3" r="5.3" transform="translate(1022.198 4044.399)" fill="#3a386e"/>
      <circle id="Elipse_109-3" data-name="Elipse 109" cx="5.3" cy="5.3" r="5.3" transform="translate(1043.398 4044.399)" fill="#3a386e"/>
      <circle id="Elipse_110-3" data-name="Elipse 110" cx="5.3" cy="5.3" r="5.3" transform="translate(895 4023.2)" fill="#3a386e"/>
      <circle id="Elipse_111-3" data-name="Elipse 111" cx="5.3" cy="5.3" r="5.3" transform="translate(916.2 4023.2)" fill="#3a386e"/>
      <circle id="Elipse_112-3" data-name="Elipse 112" cx="5.3" cy="5.3" r="5.3" transform="translate(937.4 4023.2)" fill="#3a386e"/>
      <circle id="Elipse_113-3" data-name="Elipse 113" cx="5.3" cy="5.3" r="5.3" transform="translate(958.599 4023.2)" fill="#3a386e"/>
      <circle id="Elipse_114-3" data-name="Elipse 114" cx="5.3" cy="5.3" r="5.3" transform="translate(979.799 4023.2)" fill="#3a386e"/>
      <circle id="Elipse_115-3" data-name="Elipse 115" cx="5.3" cy="5.3" r="5.3" transform="translate(1000.999 4023.2)" fill="#3a386e"/>
      <circle id="Elipse_116-3" data-name="Elipse 116" cx="5.3" cy="5.3" r="5.3" transform="translate(1022.198 4023.2)" fill="#3a386e"/>
      <circle id="Elipse_117-3" data-name="Elipse 117" cx="5.3" cy="5.3" r="5.3" transform="translate(1043.398 4023.2)" fill="#3a386e"/>
      <circle id="Elipse_118-3" data-name="Elipse 118" cx="5.3" cy="5.3" r="5.3" transform="translate(895 4002)" fill="#3a386e"/>
      <circle id="Elipse_119-3" data-name="Elipse 119" cx="5.3" cy="5.3" r="5.3" transform="translate(916.2 4002)" fill="#3a386e"/>
      <circle id="Elipse_120-3" data-name="Elipse 120" cx="5.3" cy="5.3" r="5.3" transform="translate(937.4 4002)" fill="#3a386e"/>
      <circle id="Elipse_121-3" data-name="Elipse 121" cx="5.3" cy="5.3" r="5.3" transform="translate(958.599 4002)" fill="#3a386e"/>
      <circle id="Elipse_122-3" data-name="Elipse 122" cx="5.3" cy="5.3" r="5.3" transform="translate(979.799 4002)" fill="#3a386e"/>
      <circle id="Elipse_123-3" data-name="Elipse 123" cx="5.3" cy="5.3" r="5.3" transform="translate(1000.999 4002)" fill="#3a386e"/>
      <circle id="Elipse_124-3" data-name="Elipse 124" cx="5.3" cy="5.3" r="5.3" transform="translate(1022.198 4002)" fill="#3a386e"/>
      <circle id="Elipse_125-3" data-name="Elipse 125" cx="5.3" cy="5.3" r="5.3" transform="translate(1043.398 4002)" fill="#3a386e"/>
    </g>
  </g>
</svg>
