<svg xmlns="http://www.w3.org/2000/svg" width="510.187" height="375.934" viewBox="0 0 510.187 375.934">
  <g id="cryptocurrency" transform="translate(-217.542 -258.278)">
    <g id="Grupo_49" data-name="Grupo 49" transform="translate(217.542 304.103)" opacity="0.05">
      <path id="Caminho_567" data-name="Caminho 567" d="M669.171,529.844c-36.713-26.737-46.426-41.916-46.426-41.916,140.779-168.351-143.693-223.31-199.115-107.56-23.1,48.249-70.146,47.221-150.15,62.378-73.89,14-71.585,90.028-10.679,149.522H703.219C713.554,556.405,685.926,542.046,669.171,529.844Z" transform="translate(-217.542 -319.055)" fill="#2a94f4"/>
    </g>
    <path id="Caminho_568" data-name="Caminho 568" d="M414.052,342.139a97.082,97.082,0,0,0-6.491-7.711c-4.442-4.364-9.537-12.077-25.831-6.392a35.271,35.271,0,0,0-3.713,1.618c-1.436.7-5.886.713-10.443-3.419-7.24-6.567-10.072-11.522-19.993-11.676-11.543-.179-13.358,16.257-22.33,20.463-5.709,2.677-20.772,5.338-23.888,6.524Z" transform="translate(-20.622 -13.846)" fill="#2a94f4" opacity="0.1"/>
    <path id="Caminho_569" data-name="Caminho 569" d="M283.27,600.517c.761.047,19.968-2.26,20.841-20.121s-11.367-22.284-8.145-42.167,11.672-25.6-7.267-40.109c0,0-8.445-5.843-8.838-14.041-.47-9.812-17.409-21.2-28.77-14.654s-8.691,16.658,1.037,33.022.354,19.22-1.516,24.51-6.205,10.841,3.724,23.485-1.9,28.082,6.552,40.189C260.888,590.633,268.305,599.595,283.27,600.517Z" transform="translate(-6.421 -51.471)" fill="#2a94f4"/>
    <g id="Grupo_51" data-name="Grupo 51" transform="translate(257.179 444.844)">
      <path id="Caminho_570" data-name="Caminho 570" d="M288.451,637.3a.811.811,0,0,1-.6-.937c10.317-54.516-10.714-128.863-10.927-129.607a.811.811,0,0,1,1.558-.447c.215.748,21.35,75.465,10.962,130.355a.811.811,0,0,1-.948.646Z" transform="translate(-271.782 -505.72)" fill="#0b4870"/>
      <path id="Caminho_571" data-name="Caminho 571" d="M286.31,539.364a.783.783,0,0,1-.132-.046.812.812,0,0,1-.409-1.071,108.876,108.876,0,0,0,6.089-17.958.811.811,0,0,1,1.586.339,110.545,110.545,0,0,1-6.195,18.28A.813.813,0,0,1,286.31,539.364Z" transform="translate(-273.947 -509.146)" fill="#0b4870"/>
      <path id="Caminho_572" data-name="Caminho 572" d="M285.25,563.936a.813.813,0,0,1-.317-.161c-4.077-3.372-14.332-9.72-14.436-9.784a.811.811,0,0,1,.853-1.379c.424.262,10.453,6.471,14.617,9.913a.811.811,0,0,1-.717,1.411Z" transform="translate(-270.113 -517.226)" fill="#0b4870"/>
      <path id="Caminho_573" data-name="Caminho 573" d="M293.043,584.763a.852.852,0,0,1-.167-.063.812.812,0,0,1-.357-1.09l5.716-11.291a.811.811,0,1,1,1.447.734l-5.716,11.291A.811.811,0,0,1,293.043,584.763Z" transform="translate(-275.604 -521.995)" fill="#0b4870"/>
    </g>
    <g id="Grupo_52" data-name="Grupo 52" transform="translate(446.592 343.162)">
      <path id="Caminho_574" data-name="Caminho 574" d="M526.692,405.081l-.709-2.024-.71,2.024a7.079,7.079,0,0,1-3.943,4h0a7.086,7.086,0,0,1,3.943,4l.71,2.025.709-2.025a7.081,7.081,0,0,1,3.943-4h0A7.081,7.081,0,0,1,526.692,405.081Z" transform="translate(-521.33 -378.78)" fill="#fff"/>
      <path id="Caminho_575" data-name="Caminho 575" d="M683.2,374.254l-1.191-3.4-1.19,3.4a11.876,11.876,0,0,1-6.612,6.705h0a11.876,11.876,0,0,1,6.612,6.705l1.19,3.4,1.191-3.4a11.876,11.876,0,0,1,6.612-6.705h0A11.88,11.88,0,0,1,683.2,374.254Z" transform="translate(-558.941 -370.859)" fill="#fff"/>
    </g>
    <g id="Grupo_53" data-name="Grupo 53" transform="translate(315.658 395.72)" opacity="0.5">
      <path id="Caminho_576" data-name="Caminho 576" d="M668.368,604.406H369.778V443.195a2.627,2.627,0,0,1,2.628-2.628H665.74a2.627,2.627,0,0,1,2.628,2.628Z" transform="translate(-353.111 -440.567)" fill="#2a94f4"/>
      <path id="Caminho_577" data-name="Caminho 577" d="M676.891,675.189H350.378a2.705,2.705,0,0,1-2.705-2.705V657.867H679.6v14.617A2.706,2.706,0,0,1,676.891,675.189Z" transform="translate(-347.673 -494.027)" fill="#2a94f4"/>
      <path id="Caminho_578" data-name="Caminho 578" d="M516.339,657.866l3.495,3.361a7.442,7.442,0,0,0,5.159,2.079h60.786a7.441,7.441,0,0,0,5.595-2.535l2.548-2.905Z" transform="translate(-389.168 -494.027)" fill="#fff"/>
      <rect id="Retângulo_81" data-name="Retângulo 81" width="276.373" height="143.619" transform="translate(27.775 10.838)" fill="#f7f7f7"/>
    </g>
    <line id="Linha_4" data-name="Linha 4" x2="487.883" transform="translate(239.659 576.882)" fill="none" stroke="#102236" stroke-linecap="round" stroke-linejoin="round" stroke-miterlimit="10" stroke-width="0.375"/>
    <g id="Grupo_55" data-name="Grupo 55" transform="translate(451.528 294.404)">
      <circle id="Elipse_16" data-name="Elipse 16" cx="37.353" cy="37.353" r="37.353" fill="#3a386e"/>
      <g id="Grupo_54" data-name="Grupo 54" transform="translate(5.748 5.748)">
        <path id="Caminho_579" data-name="Caminho 579" d="M567.106,377.025a31.6,31.6,0,1,1,31.6-31.6A31.64,31.64,0,0,1,567.106,377.025Z" transform="translate(-535.501 -313.816)" fill="#3a386e"/>
      </g>
      <path id="Caminho_580" data-name="Caminho 580" d="M580.469,348.748c2.3-.806,3.761-3.181,3.761-6.119,0-4.1-2.8-6.807-7.262-7.1v-3.664h-4.483V335.5h-2.058v-3.636h-4.484V335.5H562.6v5.758h3.2v16.7h-3.2v5.755h3.341v4.136h4.484V363.72h2.058v4.136h4.483v-4.143c4.887-.159,7.977-3.141,7.977-7.839C584.944,352.249,583.234,349.473,580.469,348.748Zm-9.015-7.486h4.384a2.923,2.923,0,0,1,1.129.207,2.433,2.433,0,0,1,1.418,2.447,2.618,2.618,0,0,1-1.418,2.594,2.776,2.776,0,0,1-1.129.224h-4.384Zm5.513,16.6a4.349,4.349,0,0,1-1.129.14l-4.384-.041v-5.917h4.384a4.346,4.346,0,0,1,1.129.14,2.691,2.691,0,0,1,2.1,2.758A2.783,2.783,0,0,1,576.967,357.865Z" transform="translate(-536.42 -312.509)" fill="#fff"/>
    </g>
    <g id="Grupo_60" data-name="Grupo 60" transform="translate(308.081 376.347)">
      <circle id="Elipse_17" data-name="Elipse 17" cx="24.184" cy="24.184" r="24.184" transform="translate(0 0)" fill="#3a386e"/>
      <g id="Grupo_59" data-name="Grupo 59" transform="translate(3.722 3.722)">
        <g id="Grupo_58" data-name="Grupo 58">
          <g id="Grupo_57" data-name="Grupo 57">
            <g id="Grupo_56" data-name="Grupo 56">
              <path id="Caminho_581" data-name="Caminho 581" d="M363.021,460.732a20.462,20.462,0,1,1,20.462-20.462A20.485,20.485,0,0,1,363.021,460.732Z" transform="translate(-342.559 -419.808)" fill="#3a386e"/>
            </g>
          </g>
        </g>
      </g>
      <path id="Caminho_582" data-name="Caminho 582" d="M378.195,442.309a4.087,4.087,0,0,0-8.025-.183l-1.562.188a5.04,5.04,0,0,1-4.162-1.439l-1.112-1.112a4.089,4.089,0,1,0-1.886,1.886l.769.769a5.036,5.036,0,0,1,1.367,4.6l-.252,1.189a4.09,4.09,0,1,0,2.609.552,5.037,5.037,0,0,1,4.328-3.96l.219-.026a4.087,4.087,0,0,0,7.708-2.465Z" transform="translate(-342.038 -419.553)" fill="#fff"/>
    </g>
    <g id="Grupo_66" data-name="Grupo 66" transform="translate(468.747 593.961)">
      <rect id="Retângulo_82" data-name="Retângulo 82" width="48.367" height="6.897" transform="translate(0 16.677)" fill="#3a386e"/>
      <path id="Caminho_583" data-name="Caminho 583" d="M574.9,712.641c-13.357,0-24.184,7.467-24.184,16.677s10.828,16.677,24.184,16.677,24.183-7.467,24.183-16.677S588.256,712.641,574.9,712.641Z" transform="translate(-550.715 -705.744)" fill="#3a386e"/>
      <g id="Grupo_65" data-name="Grupo 65" transform="translate(0)">
        <ellipse id="Elipse_18" data-name="Elipse 18" cx="24.184" cy="16.677" rx="24.184" ry="16.677" fill="#3a386e"/>
        <g id="Grupo_64" data-name="Grupo 64" transform="translate(3.722 2.567)">
          <g id="Grupo_63" data-name="Grupo 63">
            <g id="Grupo_62" data-name="Grupo 62">
              <g id="Grupo_61" data-name="Grupo 61">
                <path id="Caminho_584" data-name="Caminho 584" d="M576.113,735.118c-11.283,0-20.462-6.33-20.462-14.111s9.18-14.111,20.462-14.111,20.462,6.33,20.462,14.111S587.4,735.118,576.113,735.118Z" transform="translate(-555.651 -706.897)" fill="#3a386e"/>
              </g>
            </g>
          </g>
        </g>
        <path id="Caminho_585" data-name="Caminho 585" d="M591.287,722.414c-.354-1.458-2.355-2.5-4.485-2.333a3.845,3.845,0,0,0-3.54,2.207l-1.562.13a6.533,6.533,0,0,1-4.162-.993l-1.113-.768a2.217,2.217,0,0,0-.806-3.243,5.557,5.557,0,0,0-5.617-.077c-1.737,1.091-1.785,2.948-.142,4.081a5.527,5.527,0,0,0,4.679.54l.769.53a2.842,2.842,0,0,1,1.367,3.174l-.252.82c-1.693.146-3.142,1.016-3.5,2.236-.426,1.448.9,2.916,2.971,3.288,2.274.409,4.556-.578,5.036-2.145.37-1.209-.444-2.4-1.9-3,.446-1.455,2.187-2.554,4.328-2.731l.219-.018a4.68,4.68,0,0,0,4.163,1.569C590.048,725.492,591.675,724.012,591.287,722.414Z" transform="translate(-555.13 -706.721)" fill="#fff"/>
      </g>
    </g>
    <g id="Grupo_68" data-name="Grupo 68" transform="translate(370.44 421.435)">
      <path id="Caminho_586" data-name="Caminho 586" d="M529.435,523.976H421.107a.778.778,0,0,1-.777-.777V488.781a.777.777,0,0,1,.777-.777H529.435a.778.778,0,0,1,.777.777V523.2A.777.777,0,0,1,529.435,523.976Z" transform="translate(-420.33 -477.952)" fill="#b8b8b8" opacity="0.16"/>
      <path id="Caminho_587" data-name="Caminho 587" d="M542.132,510.645h-103.9a.761.761,0,0,1-.762-.762v-34.45a.761.761,0,0,1,.762-.762h103.9a.761.761,0,0,1,.762.762v34.45A.762.762,0,0,1,542.132,510.645Z" transform="translate(-424.546 -474.672)" fill="#3a386e"/>
      <g id="Grupo_67" data-name="Grupo 67" transform="translate(25.607 11.025)">
        <path id="Caminho_588" data-name="Caminho 588" d="M529.868,491.63H455.461a1.168,1.168,0,0,1,0-2.336h74.407a1.168,1.168,0,0,1,0,2.336Z" transform="translate(-454.293 -489.294)" fill="#fff"/>
        <path id="Caminho_589" data-name="Caminho 589" d="M489.842,507H455.461a1.168,1.168,0,0,1,0-2.336h34.381a1.168,1.168,0,0,1,0,2.336Z" transform="translate(-454.293 -493.075)" fill="#fff"/>
      </g>
    </g>
    <g id="Grupo_71" data-name="Grupo 71" transform="translate(307.658 479.947)">
      <path id="Caminho_590" data-name="Caminho 590" d="M470.246,605.194H369.778V567.358a.773.773,0,0,1,.773-.773h99.7a.773.773,0,0,1,.773.773V604.42A.773.773,0,0,1,470.246,605.194Z" transform="translate(-345.112 -555.797)" fill="#b8b8b8" opacity="0.16"/>
      <g id="Grupo_70" data-name="Grupo 70">
        <path id="Caminho_591" data-name="Caminho 591" d="M479.729,590.886H337.984a.921.921,0,0,1-.921-.921V553.2a.921.921,0,0,1,.921-.921H479.729a.921.921,0,0,1,.921.921v36.768A.921.921,0,0,1,479.729,590.886Z" transform="translate(-337.063 -552.277)" fill="#3a386e"/>
        <g id="Grupo_69" data-name="Grupo 69" transform="translate(45.445 11.833)">
          <path id="Caminho_592" data-name="Caminho 592" d="M478.449,570.477h-79.86a1.253,1.253,0,1,1,0-2.506h79.86a1.253,1.253,0,0,1,0,2.506Z" transform="translate(-397.336 -567.971)" fill="#fff"/>
          <path id="Caminho_593" data-name="Caminho 593" d="M435.489,586.974h-36.9a1.253,1.253,0,1,1,0-2.506h36.9a1.253,1.253,0,1,1,0,2.506Z" transform="translate(-397.336 -572.03)" fill="#fff"/>
        </g>
        <path id="Caminho_594" data-name="Caminho 594" d="M375.1,584.856h-23.1a.82.82,0,0,1-.82-.82V563.2a.82.82,0,0,1,.82-.82h23.1a.82.82,0,0,1,.82.82v20.832A.819.819,0,0,1,375.1,584.856Z" transform="translate(-340.534 -554.764)" fill="#fff"/>
      </g>
    </g>
    <g id="Grupo_74" data-name="Grupo 74" transform="translate(490.37 477.639)">
      <path id="Caminho_595" data-name="Caminho 595" d="M685.426,612.045H580.407a1.014,1.014,0,0,1-1.014-1.014v-60.8a1.014,1.014,0,0,1,1.014-1.014H685.426a1.014,1.014,0,0,1,1.014,1.014v60.8A1.014,1.014,0,0,1,685.426,612.045Z" transform="translate(-579.393 -549.216)" fill="#ebedfd"/>
      <g id="Grupo_73" data-name="Grupo 73" transform="translate(17.072 14.06)">
        <g id="Grupo_72" data-name="Grupo 72" transform="translate(8.908)">
          <rect id="Retângulo_83" data-name="Retângulo 83" width="0.745" height="37.281" transform="translate(56.257)" fill="#fff"/>
          <rect id="Retângulo_84" data-name="Retângulo 84" width="0.745" height="37.281" transform="translate(45.006)" fill="#fff"/>
          <rect id="Retângulo_85" data-name="Retângulo 85" width="0.745" height="37.281" transform="translate(33.754)" fill="#fff"/>
          <rect id="Retângulo_86" data-name="Retângulo 86" width="0.745" height="37.281" transform="translate(22.503)" fill="#fff"/>
          <rect id="Retângulo_87" data-name="Retângulo 87" width="0.745" height="37.281" transform="translate(11.252)" fill="#fff"/>
          <rect id="Retângulo_88" data-name="Retângulo 88" width="0.745" height="37.281" fill="#fff"/>
        </g>
        <rect id="Retângulo_89" data-name="Retângulo 89" width="73.903" height="0.745" transform="translate(0 41.571)" fill="#fff"/>
      </g>
      <path id="Caminho_596" data-name="Caminho 596" d="M628.448,606.013a3.828,3.828,0,0,1-.912-.112c-4.287-1.054-6.5-4.993-8.278-8.157-1.24-2.208-2.411-4.294-3.692-4.294-4.175,0-6.8,4.932-8.914,8.895-.407.766-.79,1.482-1.156,2.11a1.415,1.415,0,0,1-2.445-1.424c.348-.6.714-1.286,1.1-2.017,2.337-4.387,5.538-10.394,11.411-10.394,2.939,0,4.5,2.787,6.162,5.737,1.666,2.967,3.389,6.034,6.484,6.8a.723.723,0,0,0,.647-.1c1.829-1.206,2.892-7.607,3.744-12.749,1.283-7.739,2.3-13.872,6.1-13.872.05,0,.1,0,.154,0,3.815.162,4.958,5.135,6.166,10.4,1.008,4.4,2.151,9.382,4.62,9.743,2.919.43,4.053-.562,5.5-1.811a7.454,7.454,0,0,1,6.04-2.32c2.7.249,4.233,2.03,5.581,3.6,1.846,2.146,3.571,4.172,8.518,3.675a1.437,1.437,0,0,1,1.552,1.266,1.418,1.418,0,0,1-1.266,1.552c-6.408.651-8.925-2.288-10.951-4.646-1.363-1.586-2.205-2.491-3.695-2.629-1.837-.171-2.71.591-3.926,1.643a8.511,8.511,0,0,1-7.761,2.472c-4.384-.641-5.7-6.369-6.968-11.909-.833-3.625-1.868-8.137-3.528-8.209h-.017c-1.409,0-2.7,7.764-3.318,11.5-1.091,6.564-2.119,12.762-4.98,14.649A3.548,3.548,0,0,1,628.448,606.013Z" transform="translate(-585.166 -555.911)" fill="#3a386e"/>
    </g>
    <g id="Grupo_76" data-name="Grupo 76" transform="translate(344.925 593.567)">
      <g id="Grupo_75" data-name="Grupo 75">
        <path id="Caminho_597" data-name="Caminho 597" d="M483.267,716.727l-72.961-11.5a1.136,1.136,0,0,1-.945-1.3h0a1.136,1.136,0,0,1,1.3-.945l72.961,11.5a1.136,1.136,0,0,1,.945,1.3h0A1.137,1.137,0,0,1,483.267,716.727Z" transform="translate(-392.113 -702.97)" fill="#3a386e"/>
        <path id="Caminho_598" data-name="Caminho 598" d="M453.152,727.085H387.5a1.01,1.01,0,0,1-1.01-1.01h0a1.01,1.01,0,0,1,1.01-1.01h65.652a1.01,1.01,0,0,1,1.01,1.01h0A1.01,1.01,0,0,1,453.152,727.085Z" transform="translate(-386.49 -708.406)" fill="#3a386e"/>
      </g>
    </g>
    <path id="Caminho_599" data-name="Caminho 599" d="M606.705,270.391A44.482,44.482,0,0,1,609.961,267c2.229-1.917,4.784-5.3,12.957-2.807a18.958,18.958,0,0,1,1.862.711c.721.305,2.953.313,5.239-1.5,3.632-2.884,5.052-5.06,10.029-5.128,5.791-.079,6.7,7.139,11.2,8.987,2.864,1.175,10.42,2.344,11.983,2.865Z" transform="translate(-95.742)" fill="#2a94f4" opacity="0.1"/>
    <g id="Grupo_78" data-name="Grupo 78" transform="translate(598.6 448.15)">
      <path id="Caminho_600" data-name="Caminho 600" d="M807.2,703.144s2.879,8.494,3.471,9.9a7.374,7.374,0,0,0,2.53,2.715,4.826,4.826,0,0,1,.9,1.28,1.367,1.367,0,0,1,.029,1.228c-3.015,7-11.178,9.433-11.336,8.886-.285-.986,1.01-2.868,2.741-3.75a5.768,5.768,0,0,0,3-4.651h0a9.051,9.051,0,0,0-.747-4.531l-2.92-6.367Z" transform="translate(-742.574 -557.596)" fill="#fa968c"/>
      <path id="Caminho_601" data-name="Caminho 601" d="M786.6,715.418l-2.487,8.766a11.661,11.661,0,0,0,.637,8.077v0a2.547,2.547,0,0,1-1.583,3.521c-4.832,1.43-14.2,4.138-14.589,3.768-1.991-1.886,3.691-4.5,7.941-7.34,2.866-1.917,4.45-11.5,5.1-18.877l4.316,1.343A1.016,1.016,0,0,1,786.6,715.418Z" transform="translate(-734.066 -560.103)" fill="#fa968c"/>
      <path id="Caminho_602" data-name="Caminho 602" d="M777.308,740.806a32.128,32.128,0,0,1-6.145.762,1.27,1.27,0,0,0-.636.221c-1.972,1.361-3.007,2.782-1.951,3.782.424.4,11.431-2.826,15.725-4.1a1.528,1.528,0,0,0,.944-2.116l-.719-1.547A31.443,31.443,0,0,1,777.308,740.806Z" transform="translate(-734.062 -566.123)" fill="#0b4870"/>
      <path id="Caminho_603" data-name="Caminho 603" d="M790.394,584.747c5.18,1,9.294,7.262,8.006,13.93-.74,3.831-5.094,17.452-9.648,28.157a12.689,12.689,0,0,0,1.261,12.488,10.867,10.867,0,0,1,1.088,1.792c1.48,3.124,6.832,21.392,9.895,33.554-.383,1.549-1.426,3.481-2.635,4.107-5.988-10.514-15.614-29.636-17.188-32.959a57.06,57.06,0,0,1-2.492-5.965c-3.93-5.845-1.38-37.149-.186-43.335C779.783,589.85,785.214,583.747,790.394,584.747Z" transform="translate(-736.133 -528.441)" fill="#0b4870"/>
      <ellipse id="Elipse_19" data-name="Elipse 19" cx="10.381" cy="8.047" rx="10.381" ry="8.047" transform="matrix(0.055, -0.998, 0.998, 0.055, 46.327, 28.575)" fill="#0b4870"/>
      <path id="Caminho_604" data-name="Caminho 604" d="M798.233,533.04a11.172,11.172,0,0,1,21.815-2.424,3.954,3.954,0,0,0,3.624,2.756,9.862,9.862,0,0,1,2.111.318,9.937,9.937,0,0,1,2.619,18.134,5.285,5.285,0,0,0-2.344,3.591,13.006,13.006,0,1,1-21.994-11.681A11.171,11.171,0,0,1,798.233,533.04Z" transform="translate(-741.453 -513.211)" fill="#0b4870"/>
      <path id="Caminho_605" data-name="Caminho 605" d="M794.527,515.659s-4.678,2.6-4.339,6.459c0,0-2.32-1.843-2.542-7.763C787.492,510.253,794.527,515.659,794.527,515.659Z" transform="translate(-738.857 -510.772)" fill="#0b4870"/>
      <path id="Caminho_606" data-name="Caminho 606" d="M776.009,542.756a10.654,10.654,0,0,1-1.2,4.305,8.039,8.039,0,0,1-1.626,2.018A7.871,7.871,0,0,1,771,550.4a10.478,10.478,0,0,1-4.272.645,18.884,18.884,0,0,1-3.682-.533,38.049,38.049,0,0,1-6.458-2.289c-2.037-.906-3.994-1.91-5.9-2.992a129.4,129.4,0,0,1-10.948-7.029,111.73,111.73,0,0,1-10.163-8.031.864.864,0,0,1,1.08-1.344l.011.008c1.7,1.231,3.486,2.39,5.282,3.514s3.6,2.233,5.437,3.291a125.952,125.952,0,0,0,11.22,5.809c1.91.847,3.823,1.659,5.752,2.34a34.149,34.149,0,0,0,5.747,1.561,13.548,13.548,0,0,0,2.671.213,4.9,4.9,0,0,0,2-.408,1.74,1.74,0,0,0,.854-.871,5.06,5.06,0,0,0,.345-1.862,3.018,3.018,0,0,1,6.035.1c0,.06,0,.12-.008.179Z" transform="translate(-724.503 -514.671)" fill="#fab9af"/>
      <path id="Caminho_607" data-name="Caminho 607" d="M785.579,565.356c-1.509-5.551-4.51-17.295-3.991-21.05a4.659,4.659,0,0,1,4.88-4.012l15.735.868a4.824,4.824,0,0,1,4.562,4.942c-.118,4.565-2.79,14.821-4.271,20.185Z" transform="translate(-737.352 -517.53)" fill="#3a386e"/>
      <path id="Caminho_608" data-name="Caminho 608" d="M785.888,685.42a.815.815,0,0,1-.337-.742c.971-11.555,2.488-26.268,2.9-29.081.047-.322.1-.639.167-.949-1.725-13.817-.478-43.25-.44-48.414.05-6.79,4.55-14.207,9.825-14.168s10.686,5.8,12.034,12.1c.889,4.156-4.623,25.708-10.165,41.243a24.044,24.044,0,0,0-1.208,10.216,30.558,30.558,0,0,1-.093,6.7c-.4,2.769-4.145,13.926-7.6,23.465a.815.815,0,0,1-.627.533A6,6,0,0,1,785.888,685.42Z" transform="translate(-738.341 -530.268)" fill="#0b4870"/>
      <path id="Caminho_609" data-name="Caminho 609" d="M803.212,573.3a14.981,14.981,0,0,1-.323-7.172c1.1-5.533,3.068-15.962,3.186-20.428a4.406,4.406,0,0,0-4.171-4.514l-2.333-.129a6.28,6.28,0,0,1-11.4-.629l-2.191-.121c2.1,5.229.873,11.906-3.44,15.6.613,2.732,1.1,5.475,1.461,7.7a14.872,14.872,0,0,1-1.3,8.834c-2.278,4.715-4.3,12.368-3.992,15.461,16.294,5.6,28.2-2.067,28.2-2.067Z" transform="translate(-736.653 -517.536)" fill="#3a386e"/>
      <g id="Grupo_77" data-name="Grupo 77" transform="translate(54.608 15.862)">
        <path id="Caminho_610" data-name="Caminho 610" d="M795.364,539.433l7.179-.356-1.828-7.936-4.648.317Z" transform="translate(-795.364 -531.142)" fill="#fab9af"/>
      </g>
      <path id="Caminho_611" data-name="Caminho 611" d="M796.148,531.459l4.648-.317.571,2.478c-1.1,1.108-2.565,3.552-4.245,3.459a2.679,2.679,0,0,1-1.432-.507Z" transform="translate(-740.836 -515.28)" fill="#fa968c"/>
      <path id="Caminho_612" data-name="Caminho 612" d="M794.616,531.578c1.568.086,3.306-.6,5.754-2.516a7.092,7.092,0,0,0,2.588-4.466l.421-7.633-11.752-.648a21.779,21.779,0,0,0-.471,8.074C791.632,527.44,793.383,531.51,794.616,531.578Z" transform="translate(-739.672 -511.632)" fill="#fab9af"/>
      <path id="Caminho_613" data-name="Caminho 613" d="M804.335,524.386c-.082,1.489.564,2.736,1.444,2.784s1.957-1.85,2.039-3.339a1.747,1.747,0,0,0-1.742-2.054C805.2,521.729,804.417,522.9,804.335,524.386Z" transform="translate(-742.961 -512.976)" fill="#fab9af"/>
      <path id="Caminho_614" data-name="Caminho 614" d="M803.969,516.44a4.322,4.322,0,0,0-4.078-4.553l-3.967-.217a6.489,6.489,0,0,1-3.153-1.02,3.15,3.15,0,0,0-4.166.538c-1.109,1.343-1.659,3.193.862,5.073,1.253.935,3.208.084,4.452.568.078,0,.149-.008.23,0l3.5.193a2.215,2.215,0,0,1,2.058,2.328,1.428,1.428,0,0,0,1.349,1.463l.155.008.659-1.763,1.807,2.739Z" transform="translate(-738.864 -510.104)" fill="#0b4870"/>
      <path id="Caminho_615" data-name="Caminho 615" d="M728.705,522.313s1.883,3.693.946,4.642-1.739,1.414-3.171.1a14.072,14.072,0,0,1-3.275-5.442,10.788,10.788,0,0,1,.07-5.08c.928-1.134,1.529,1.949,1.893,3.428s.922,3.112,1.584,2.736-.248-3.155.368-3.838S728.705,522.313,728.705,522.313Z" transform="translate(-722.938 -511.626)" fill="#fab9af"/>
      <path id="Caminho_616" data-name="Caminho 616" d="M773.354,587.329s4.122-.442,4.674.772.7,2.129-1.036,3a14.068,14.068,0,0,1-6.253,1.118,10.788,10.788,0,0,1-4.721-1.878c-.728-1.271,2.366-.733,3.877-.546s3.236.25,3.121-.5-3.036-.894-3.454-1.713S773.354,587.329,773.354,587.329Z" transform="translate(-733.509 -529.056)" fill="#fab9af"/>
      <path id="Caminho_617" data-name="Caminho 617" d="M793.008,515.158c.3,1.766-.336,2.687,5.23,5.724s7.439,1.974,9.063,5c0,0-.513-4.9-3.578-6.737s-8.48-3.231-10.023-7.185A7.4,7.4,0,0,0,793.008,515.158Z" transform="translate(-740.169 -510.561)" fill="#0b4870"/>
      <path id="Caminho_618" data-name="Caminho 618" d="M805.291,545.7c.8,1.2,1.445,2.292,2.1,3.469s1.254,2.339,1.813,3.547a48.361,48.361,0,0,1,2.8,7.565,26.358,26.358,0,0,1,.955,8.379,15.945,15.945,0,0,1-.922,4.424,11.982,11.982,0,0,1-2.423,3.989,13.373,13.373,0,0,1-3.6,2.776,18.445,18.445,0,0,1-4,1.541,28.047,28.047,0,0,1-4.039.7,37.415,37.415,0,0,1-3.985.133A69.168,69.168,0,0,1,778.686,580a.864.864,0,0,1,.3-1.7l.01,0a80.425,80.425,0,0,0,14.887.514,29.4,29.4,0,0,0,6.962-1.341,10.959,10.959,0,0,0,5.2-3.444,9.1,9.1,0,0,0,1.726-5.594,21.819,21.819,0,0,0-1.177-6.59,42.709,42.709,0,0,0-2.725-6.558c-.539-1.071-1.1-2.137-1.7-3.18-.595-1.025-1.252-2.105-1.851-3.014l-.039-.059a3.016,3.016,0,0,1,5.021-3.342Z" transform="translate(-736.49 -518.533)" fill="#fab9af"/>
      <path id="Caminho_619" data-name="Caminho 619" d="M792.55,516.292s-.541,5.862-5.829,8.4c0,0,2.507-4.315,2.513-7.226S793,514.3,792.55,516.292Z" transform="translate(-738.63 -511.309)" fill="#0b4870"/>
      <path id="Caminho_620" data-name="Caminho 620" d="M815.787,724.893a1.048,1.048,0,0,0,.088-1.362c-.255-.339-.93-1.265-1.439-1.961a.5.5,0,0,0-.85.069c-2.035,3.716-5.246,6.523-9.249,6.851-1.337.8-2.266,2.722-2.041,3.5.053.183,1.815.305,3.727-.653C814.513,727.082,815.787,724.893,815.787,724.893Z" transform="translate(-742.453 -562.079)" fill="#0b4870"/>
    </g>
    <g id="Grupo_84" data-name="Grupo 84" transform="translate(573.352 408.744)">
      <circle id="Elipse_20" data-name="Elipse 20" cx="26.051" cy="26.051" r="26.051" transform="translate(0 0)" fill="#3a386e"/>
      <g id="Grupo_82" data-name="Grupo 82" transform="translate(4.009 4.008)">
        <g id="Grupo_81" data-name="Grupo 81">
          <g id="Grupo_80" data-name="Grupo 80">
            <g id="Grupo_79" data-name="Grupo 79">
              <path id="Caminho_621" data-name="Caminho 621" d="M716.811,507.241A22.042,22.042,0,1,1,738.853,485.2,22.066,22.066,0,0,1,716.811,507.241Z" transform="translate(-694.769 -463.157)" fill="#3a386e"/>
            </g>
          </g>
        </g>
      </g>
      <g id="Grupo_83" data-name="Grupo 83" transform="translate(18.036 11.984)">
        <path id="Caminho_622" data-name="Caminho 622" d="M721.388,473.736l-8.015,12.889,8.015,3.759,8.015-3.759Z" transform="translate(-713.373 -473.736)" fill="#fff"/>
        <path id="Caminho_623" data-name="Caminho 623" d="M721.388,506.841l8.015-12.889-8.015,5.245-8.015-5.245Z" transform="translate(-713.373 -478.71)" fill="#fff"/>
      </g>
    </g>
  </g>
</svg>
