<svg xmlns="http://www.w3.org/2000/svg" width="374.921" height="337.799" viewBox="0 0 374.921 337.799">
  <g id="dog" transform="translate(-22.12 -87)">
    <g id="Grupo_204" data-name="Grupo 204" transform="translate(53.763 108.085)">
      <path id="Caminho_772" data-name="Caminho 772" d="M186.485,165.532c-9.349,4.087-18.644,9.072-25.184,16.908s-9.817,19.09-5.892,28.508c5.24,12.583,21.845,19.9,21.921,33.535.054,9.763-8.953,17.218-18.05,20.765s-19.162,4.829-27.434,10.015c-12.482,7.829-18.334,22.98-20.729,37.514-2.488,15.1-1.48,32.278,9.2,43.23,13.274,13.613,35.228,12.075,54.019,9.176,25.076-3.871,50.043-8.423,75-12.975q82.082-14.963,164.16-29.923c5.866-1.07,11.971-2.24,16.739-5.823,9.468-7.116,10.267-21.809,4.764-32.3s-15.684-17.614-25.792-23.779-20.787-12-28.36-21.107-11.34-22.587-5.611-32.952c4.854-8.784,15.287-13.476,19.836-22.422,5.992-11.783-.9-26.837-11.773-34.36S235.88,143.932,186.485,165.532Z" transform="translate(-109.985 -145.548)" fill="#f0faff"/>
    </g>
    <g id="Grupo_210" data-name="Grupo 210" transform="translate(22.12 259.357)">
      <g id="Grupo_205" data-name="Grupo 205">
        <circle id="Elipse_126" data-name="Elipse 126" cx="44.094" cy="44.094" r="44.094" fill="#b0e1ff"/>
      </g>
      <g id="Grupo_209" data-name="Grupo 209" transform="translate(30.738 43.086)">
        <g id="Grupo_206" data-name="Grupo 206" transform="translate(12.348)">
          <path id="Caminho_773" data-name="Caminho 773" d="M142.768,773.385a1.007,1.007,0,0,1-1.008-1.008V686.248a1.008,1.008,0,0,1,2.017,0v86.128A1.009,1.009,0,0,1,142.768,773.385Z" transform="translate(-141.76 -685.24)" fill="#cef"/>
        </g>
        <g id="Grupo_207" data-name="Grupo 207" transform="translate(0 10.488)">
          <path id="Caminho_774" data-name="Caminho 774" d="M120.829,728.727a1,1,0,0,1-.713-.3l-12.349-12.349a1.008,1.008,0,0,1,1.426-1.426l12.349,12.349a1.01,1.01,0,0,1-.713,1.721Z" transform="translate(-107.473 -714.362)" fill="#cef"/>
        </g>
        <g id="Grupo_208" data-name="Grupo 208" transform="translate(0 21.958)">
          <path id="Caminho_775" data-name="Caminho 775" d="M120.829,760.573a1,1,0,0,1-.713-.3l-12.349-12.349a1.007,1.007,0,0,1,1.426-1.422l12.349,12.349a1.011,1.011,0,0,1,0,1.426A1.034,1.034,0,0,1,120.829,760.573Z" transform="translate(-107.473 -746.213)" fill="#cef"/>
        </g>
      </g>
    </g>
    <g id="Grupo_220" data-name="Grupo 220" transform="translate(249.317 195.398)">
      <g id="Grupo_211" data-name="Grupo 211" transform="translate(69.526 77.737)">
        <path id="Caminho_776" data-name="Caminho 776" d="M903.072,603.86a40.441,40.441,0,1,1-57.012,50.05Z" transform="translate(-846.06 -603.86)" fill="#cef"/>
      </g>
      <g id="Grupo_212" data-name="Grupo 212">
        <circle id="Elipse_127" data-name="Elipse 127" cx="64.013" cy="64.013" r="64.013" fill="#b0e1ff"/>
      </g>
      <g id="Grupo_219" data-name="Grupo 219" transform="translate(44.622 62.55)">
        <g id="Grupo_213" data-name="Grupo 213" transform="translate(17.928)">
          <path id="Caminho_777" data-name="Caminho 777" d="M828.152,689.647a1.461,1.461,0,0,1-1.462-1.462V563.152a1.462,1.462,0,0,1,2.924,0V688.185A1.459,1.459,0,0,1,828.152,689.647Z" transform="translate(-826.69 -561.69)" fill="#cef"/>
        </g>
        <g id="Grupo_214" data-name="Grupo 214" transform="translate(0 15.223)">
          <path id="Caminho_778" data-name="Caminho 778" d="M796.3,624.812a1.459,1.459,0,0,1-1.034-.429L777.337,606.46a1.464,1.464,0,0,1,2.071-2.071l17.927,17.927a1.462,1.462,0,0,1-1.037,2.5Z" transform="translate(-776.907 -603.961)" fill="#cef"/>
        </g>
        <g id="Grupo_215" data-name="Grupo 215" transform="translate(0 31.868)">
          <path id="Caminho_779" data-name="Caminho 779" d="M796.3,671.032a1.459,1.459,0,0,1-1.034-.429l-17.927-17.927a1.463,1.463,0,0,1,2.071-2.067l17.927,17.927a1.462,1.462,0,0,1-1.037,2.5Z" transform="translate(-776.907 -650.181)" fill="#cef"/>
        </g>
        <g id="Grupo_216" data-name="Grupo 216" transform="translate(61.204 59.354)">
          <path id="Caminho_780" data-name="Caminho 780" d="M948.063,795.085a1.522,1.522,0,0,1-1.2-1.523V728.051a1.522,1.522,0,0,1,1.386-1.545,1.464,1.464,0,0,1,1.541,1.462v65.676A1.466,1.466,0,0,1,948.063,795.085Z" transform="translate(-946.86 -726.505)" fill="#cef"/>
        </g>
        <g id="Grupo_217" data-name="Grupo 217" transform="translate(61.204 54.551)">
          <path id="Caminho_781" data-name="Caminho 781" d="M948.32,729.018a1.462,1.462,0,0,1-1.034-2.5L960.212,713.6a1.463,1.463,0,0,1,2.071,2.067l-12.925,12.925A1.458,1.458,0,0,1,948.32,729.018Z" transform="translate(-946.857 -713.167)" fill="#cef"/>
        </g>
        <g id="Grupo_218" data-name="Grupo 218" transform="translate(61.204 66.554)">
          <path id="Caminho_782" data-name="Caminho 782" d="M948.32,762.348a1.462,1.462,0,0,1-1.034-2.5l12.925-12.925a1.463,1.463,0,0,1,2.071,2.067l-12.925,12.925A1.474,1.474,0,0,1,948.32,762.348Z" transform="translate(-946.857 -746.497)" fill="#cef"/>
        </g>
      </g>
    </g>
    <path id="Caminho_783" data-name="Caminho 783" d="M396.531,953.968H49.355a4.868,4.868,0,0,1-4.855-4.855V918.844a4.868,4.868,0,0,1,4.855-4.854h347.18a4.868,4.868,0,0,1,4.855,4.854v30.269A4.871,4.871,0,0,1,396.531,953.968Z" transform="translate(-14.32 -529.169)" fill="#f2f2f2"/>
    <g id="Grupo_231" data-name="Grupo 231" transform="translate(118.179 177.752)">
      <g id="Grupo_221" data-name="Grupo 221" transform="translate(57.43 14.301)">
        <path id="Caminho_784" data-name="Caminho 784" d="M448.733,378.71l36.344,19.447a2.426,2.426,0,0,1,1.332,1.246,2.194,2.194,0,0,1-.158,1.365c-2.182,6.032-9.147,9.5-15.521,8.8s-11.978-4.9-15.648-10.163a46.792,46.792,0,0,1-6.356-14.664,11.577,11.577,0,0,1,.007-6.032Z" transform="translate(-448.33 -378.71)" fill="#3a386e"/>
      </g>
      <g id="Grupo_222" data-name="Grupo 222" transform="translate(0 19.727)">
        <path id="Caminho_785" data-name="Caminho 785" d="M310.668,399.807a25.149,25.149,0,0,0-4.793-1.739,24.026,24.026,0,0,0-4.988-.742,14.279,14.279,0,0,0-4.725.544,6.957,6.957,0,0,0-3.461,2.236,2.154,2.154,0,1,1-3.382-2.669,1.64,1.64,0,0,1,.126-.144l.04-.043a10.3,10.3,0,0,1,2.687-2.02,11.968,11.968,0,0,1,3.018-1.088,17.912,17.912,0,0,1,5.971-.212,26.844,26.844,0,0,1,5.568,1.3,27.934,27.934,0,0,1,5.146,2.366,1.26,1.26,0,0,1-1.192,2.218Z" transform="translate(-288.858 -393.778)" fill="#f7869e"/>
      </g>
      <path id="Caminho_786" data-name="Caminho 786" d="M622.209,748.826c0,.778,0,1.48-.011,2.114-.047,3.558-.245,4.977-.98,5.733a4.37,4.37,0,0,1-1.84.929s-8.207-18.68-17.549-43.305c-27.737-10.757-39.769-36.088-34.108-44.861,9.342-11.038,31.842-8.351,27.312,4.671-9.342,11.6,16.134,30.852,16.134,30.852S622.209,741.181,622.209,748.826Z" transform="translate(-466.421 -546.024)" fill="#3a386e"/>
      <path id="Caminho_787" data-name="Caminho 787" d="M329.923,636.48c-16.984,8.773-33.683,26.606-33.683,26.606s6.511,34.248,8.492,36.229c6.652-5.8.706-33.542.706-33.542,2.265-.284,30.993-17.409,30.993-17.409Z" transform="translate(-293.581 -529.349)" fill="#3a386e"/>
      <path id="Caminho_788" data-name="Caminho 788" d="M527.184,527.278a6.526,6.526,0,0,1-.288,2.272A1.929,1.929,0,0,1,524.5,530.9c-4.815-.85-32.833-32.267-44.721-40.478-39.909,9.061-51.232-18.961-51.232-18.961s-6.227-13.022-40.475-1.984c-24.1,6.151-41.692-3.688-52.658-18.493a63.818,63.818,0,0,1-4.116-6.3c-1.466-2.553-1.959-9.115-1.887-17.333.158-18.5,3.166-45.4,4.314-53.828-14.247-2.233-18.68-7.361-22.641-12.457,5.092-.565,16.1,1.765,16.7.569-2.038-.205-14.135-4.772-17.416-6.677a19.909,19.909,0,0,1,6.057-12.3c.241-.241.49-.468.738-.688a13.422,13.422,0,0,1,4.246-2.607s.007,0,.014-.007a7.083,7.083,0,0,1,1.549-.367s0,.007.007.011c1.66,1.887,3.23,3.547,4.736,4.995.18.173.364.346.544.511.032.029.058.058.086.083,7.433,6.929,13.35,8.675,20.949,7.988,8.067.421,17.124-10.332,16.843,37.785a56.807,56.807,0,0,0,1.772,15.136c5.568,20.855,23.351,27.416,39.758,30.315,9.028,1.6,17.639,2.082,23.567,3.23,18.964,3.68,34.533,33.117,37.929,37.648s20.664,3.961,20.664,3.961l34.025,38.263a13.458,13.458,0,0,1,1.711,2.406A12.7,12.7,0,0,1,527.184,527.278Z" transform="translate(-302.623 -339)" fill="#3a386e"/>
      <path id="Caminho_789" data-name="Caminho 789" d="M393.8,675.78c-11.6,12.738-18.68,35.379-18.964,38.494s16.984,38.778,16.984,38.778c3.681,0-.85-31.133-5.946-37.363,1.7-10.757,22.076-26.322,23.21-33.117C405.686,676.345,393.8,675.78,393.8,675.78Z" transform="translate(-343.869 -554.496)" fill="#3a386e"/>
      <circle id="Elipse_128" data-name="Elipse 128" cx="2.831" cy="2.831" r="2.831" transform="translate(34.22 14.718)" fill="#0e538c"/>
      <path id="Caminho_790" data-name="Caminho 790" d="M339.355,344.838c-7.1,2.723-10.242.49-12.165-2.168.245-.241.49-.468.738-.684a13.5,13.5,0,0,1,4.246-2.611l.014-.007a7.776,7.776,0,0,1,1.556-.357.6.6,0,0,1,.079-.011c1.819,2.071,3.544,3.9,5.2,5.517a.978.978,0,0,1,.086.086C339.193,344.679,339.272,344.758,339.355,344.838Z" transform="translate(-313.385 -339)" fill="#0e538c"/>
      <g id="Grupo_223" data-name="Grupo 223" transform="translate(74.49 62.014)">
        <path id="Caminho_791" data-name="Caminho 791" d="M496.993,511.4c-.429-.076-.861-.14-1.293-.2l1.354.18C497.032,511.384,497.011,511.394,496.993,511.4Z" transform="translate(-495.7 -511.2)" fill="#ffddab"/>
      </g>
      <g id="Grupo_224" data-name="Grupo 224" transform="translate(56.342 66.508)">
        <path id="Caminho_792" data-name="Caminho 792" d="M494.013,554a14.352,14.352,0,0,1-4.768,7.782c-4.224,3.4-10.285,3.724-15.482,2.172s-9.731-4.718-14.167-7.836c-3.67-2.578-7.386-5.2-10.2-8.693s-4.649-8.02-3.933-12.442c.7-4.314,3.734-7.966,7.357-10.4q.7-.47,1.43-.893C459.822,544.535,477.605,551.1,494.013,554Z" transform="translate(-445.309 -523.68)" fill="#3a386e"/>
      </g>
      <g id="Grupo_225" data-name="Grupo 225" transform="translate(80.65 114.862)">
        <path id="Caminho_793" data-name="Caminho 793" d="M523.269,658.849a13.281,13.281,0,0,0-6.828,1.667,6.669,6.669,0,0,0-3.522,3.864c-.591,2.388,1.217,4.883,3.515,5.766a11.1,11.1,0,0,0,7.235-.245,73.061,73.061,0,0,1,7-2.308c1.919-.4,4.12-.526,5.388-2.02a4.3,4.3,0,0,0-.331-5.42,7.352,7.352,0,0,0-5.319-2.2,28.65,28.65,0,0,0-5.866.7Z" transform="translate(-512.806 -657.948)" fill="#3a386e"/>
      </g>
      <g id="Grupo_226" data-name="Grupo 226" transform="translate(15.609 77.37)">
        <path id="Caminho_794" data-name="Caminho 794" d="M332.2,553.941l.133-.1-.112.09A.031.031,0,0,1,332.2,553.941Z" transform="translate(-332.2 -553.84)" fill="#0e538c"/>
      </g>
      <g id="Grupo_227" data-name="Grupo 227" transform="translate(26.784 88.361)">
        <path id="Caminho_795" data-name="Caminho 795" d="M369.241,607.988a63.828,63.828,0,0,1-4.116-6.3c-1.466-2.553-1.959-9.115-1.887-17.333a39.091,39.091,0,0,0,2.528,3.947c1.563,1.97,3.677,3.414,5.55,5.092s3.594,3.753,3.954,6.241C375.806,603.36,372.871,607.012,369.241,607.988Z" transform="translate(-363.231 -584.36)" fill="#3a386e"/>
      </g>
      <g id="Grupo_228" data-name="Grupo 228" transform="translate(49.245 96.636)">
        <path id="Caminho_796" data-name="Caminho 796" d="M430.88,607.34A5.441,5.441,0,0,1,432.67,609l4,5.049a35.93,35.93,0,0,1,4.793,7.159,12.108,12.108,0,0,1,.926,8.4c-.364,1.217-1.131,2.492-2.73,2.258a3.092,3.092,0,0,1-1.477-.691c-2.928-2.377-3.342-6.662-5.917-9.338-2.06-2.139-5.434-3.194-6.41-6a5.924,5.924,0,0,1,.479-4.5,12.01,12.01,0,0,1,1.459-2.215,4.9,4.9,0,0,1,3.086-1.793Z" transform="translate(-425.601 -607.34)" fill="#3a386e"/>
      </g>
      <g id="Grupo_229" data-name="Grupo 229" transform="translate(112.72 101.414)">
        <path id="Caminho_797" data-name="Caminho 797" d="M607.066,621.014a15.287,15.287,0,0,1,14.344,4.145,9.717,9.717,0,0,1,2.888,5.658,5.74,5.74,0,0,1-2.615,5.532c-2.2,1.235-5.009.475-7.2-.792s-4.109-3.021-6.471-3.922a19.153,19.153,0,0,1-4.037-1.552,4.857,4.857,0,0,1,3.4-8.838" transform="translate(-601.858 -620.606)" fill="#3a386e"/>
      </g>
      <path id="Caminho_798" data-name="Caminho 798" d="M668.672,539.253a17.372,17.372,0,0,0,3.482.414,19.27,19.27,0,0,0,3.6-.378,21.627,21.627,0,0,0,3.554-1.124,23.238,23.238,0,0,0,3.349-1.793,24.408,24.408,0,0,0,9.309-12.356,36.974,36.974,0,0,0,1.152-3.925,40.53,40.53,0,0,0,.684-4.08q.216-2.069.23-4.167c0-1.4-.065-2.809-.18-4.217a71.8,71.8,0,0,0-3.821-16.76h0a1.275,1.275,0,0,1,2.38-.911,75.085,75.085,0,0,1,5.287,17.182c.241,1.505.425,3.025.54,4.556s.137,3.083.094,4.635a44.053,44.053,0,0,1-.425,4.653,42.074,42.074,0,0,1-.98,4.613,37.543,37.543,0,0,1-1.592,4.5,34.678,34.678,0,0,1-2.254,4.278,31.636,31.636,0,0,1-2.957,3.925,27.874,27.874,0,0,1-7.865,6.068,28.787,28.787,0,0,1-4.7,1.894,26.316,26.316,0,0,1-5.089.933,24.785,24.785,0,0,1-5.283-.216,3.932,3.932,0,0,1,1.16-7.779c.094.014.184.029.274.05Z" transform="translate(-528.798 -435.097)" fill="#3a386e"/>
      <g id="Grupo_230" data-name="Grupo 230" transform="translate(49.002 16.036)">
        <path id="Caminho_799" data-name="Caminho 799" d="M431.407,383.53q9.48,18.3,18.957,36.6a2.416,2.416,0,0,1,.393,1.783,2.219,2.219,0,0,1-.9,1.037c-5.211,3.738-12.918,2.658-17.779-1.527s-7.1-10.822-7.148-17.236a46.844,46.844,0,0,1,3.057-15.687,11.564,11.564,0,0,1,3.421-4.97Z" transform="translate(-424.928 -383.53)" fill="#3a386e"/>
      </g>
    </g>
    <ellipse id="Elipse_129" data-name="Elipse 129" cx="136.668" cy="3.601" rx="136.668" ry="3.601" transform="translate(99.144 397.429)" fill="#f2f2f2"/>
    <circle id="Elipse_130" data-name="Elipse 130" cx="30.071" cy="30.071" r="30.071" transform="translate(288.931 87)" fill="#3a386e"/>
    <g id="Grupo_232" data-name="Grupo 232" transform="translate(65.164 138.019)">
      <path id="Caminho_800" data-name="Caminho 800" d="M236.616,288.522c-.947-1.253-2.784-.025-3.612.706a14.789,14.789,0,0,0-1.811,1.927c-.274.349-.54.709-.835,1.041s-.663.587-.926.933a.162.162,0,0,0,.187.248,4.168,4.168,0,0,0,1.415-1.253c.49-.558.947-1.149,1.441-1.707a11.67,11.67,0,0,1,1.624-1.588,2.081,2.081,0,0,1,2.46-.238c.043.029.086-.032.058-.068Z" transform="translate(-197.795 -266.623)" fill="#2a94f4"/>
      <path id="Caminho_801" data-name="Caminho 801" d="M237.8,282.6c.5-.836-.263-1.689-1.07-1.9a3.093,3.093,0,0,0-2.723.839,15.346,15.346,0,0,0-2.337,3.072c-.835,1.242-1.649,2.5-2.517,3.724-.166.234.194.511.346.274,1.167-1.808,2.42-3.562,3.641-5.333a5.493,5.493,0,0,1,2.046-2.046c1.066-.5,2.759-.187,2.488,1.332a.067.067,0,0,0,.126.04Z" transform="translate(-197.612 -261.913)" fill="#2a94f4"/>
      <path id="Caminho_802" data-name="Caminho 802" d="M173.1,254.339a16.6,16.6,0,0,1-4.671,3.853c-4.678,3-10.642,3.6-16.119,3.3a16.6,16.6,0,0,1-5.823-1.214c-.259-.115-.515-.238-.763-.375a7.545,7.545,0,0,1-4.008-5.236c-.465-3.007,1.545-6.007,4.228-7.444,5.672-3.039,13.044-1.541,17.65,2.859-1.282-2.319-3.335-4.1-5.02-6.14s-3.079-4.628-2.625-7.239a7.1,7.1,0,0,1,2.226-3.886,12.862,12.862,0,0,1,3.864-2.366,24.029,24.029,0,0,1,9.378-1.786,13.382,13.382,0,0,1,4.39.637,6.726,6.726,0,0,1,3.5,2.633,7.14,7.14,0,0,1,.908,4.433,21.4,21.4,0,0,1-1.052,4.476c-.281.893-.565,1.79-.864,2.679A39.72,39.72,0,0,1,173.1,254.339Z" transform="translate(-141.644 -228.669)" fill="#2a94f4"/>
      <path id="Caminho_803" data-name="Caminho 803" d="M188.536,260.635a22.616,22.616,0,0,1-1.869,5.46,12.389,12.389,0,0,1-1.657,2.55,5.635,5.635,0,0,1-2.514,1.26,40.824,40.824,0,0,1-12.965,2.4c-1.937.04-4.012-.1-5.557-1.275a2.284,2.284,0,0,1-1.03-2.431,2.612,2.612,0,0,1,1.657-1.318c3.328-1.232,7-.843,10.53-.436l4.678.54a4.848,4.848,0,0,0,3.31-.407c-1.8-3.551-5.071-6.072-7.844-8.928a4.686,4.686,0,0,1-1.5-2.467c-.266-1.934,1.516-2.24,2.924-1.772a8.794,8.794,0,0,1,4.141,3.151,24.314,24.314,0,0,1,2.975,6q-1.415-4.8-2.827-9.594a3.636,3.636,0,0,1-.209-1.88,2.687,2.687,0,0,1,2.96-1.642,5.986,5.986,0,0,1,4.754,4.177A12.382,12.382,0,0,1,188.536,260.635Z" transform="translate(-155.215 -242.214)" fill="#f0faff"/>
      <path id="Caminho_804" data-name="Caminho 804" d="M203.407,309.462c0-.05-.011-.1-.014-.155a3.166,3.166,0,0,1,.032-1.106,3.237,3.237,0,0,1,.4-.814,11.761,11.761,0,0,1,1.729-2.521,16.8,16.8,0,0,1,2.683-2.1,6.486,6.486,0,0,0,1.293-.954,20.264,20.264,0,0,0,1.347-2.157,1.8,1.8,0,0,1,2.182-.792,1.383,1.383,0,0,1,.285,1.97c-.781,1.023-2.326.479-3.342,1.242a12.549,12.549,0,0,0-5.078,8.657c-.036.23-.112.508-.339.558a.451.451,0,0,1-.281-.047,1.452,1.452,0,0,1-.717-.832A3.8,3.8,0,0,1,203.407,309.462Z" transform="translate(-181.134 -273.485)" fill="#545454"/>
    </g>
  </g>
</svg>
