<svg id="Logo" xmlns="http://www.w3.org/2000/svg" width="235.399" height="158.356" viewBox="0 0 235.399 158.356">
  <path id="Caminho_1" data-name="Caminho 1" d="M234.121,174.172l-18.039-40.959.73,9.86-29.2-.486v3.079l2.229,9.535,30.45,13.045h0Z" transform="translate(-66.774 -47.413)" fill="#3a386e" fill-rule="evenodd"/>
  <path id="Caminho_2" data-name="Caminho 2" d="M151.878,123.664,127.243,80.012l-22.354-1.307-4.166,5.714-5.7-1.807v33.216l6.14.969h0l50.717,8Z" transform="translate(-33.82 -28.013)" fill="#3a386e" fill-rule="evenodd"/>
  <path id="Caminho_3" data-name="Caminho 3" d="M135.448,65.288l4.5,7.984,2.879-20.541L127.3,44.882,113.362,64Z" transform="translate(-40.348 -15.974)" fill="#3a386e" fill-rule="evenodd"/>
  <path id="Caminho_4" data-name="Caminho 4" d="M173.613,153.112l4.261,7.332,2.2-.415,1.6.763-1.535-6.651Z" transform="translate(-61.792 -54.495)" fill="#3a386e" fill-rule="evenodd"/>
  <path id="Caminho_5" data-name="Caminho 5" d="M149.954,159.1l5.93-1.122-4.9-8.439-31.018-4.894,1.051,2.4Z" transform="translate(-42.697 -51.482)" fill="#3a386e" fill-rule="evenodd"/>
  <path id="Caminho_6" data-name="Caminho 6" d="M206.622,122.325l-37.485-7.685,10.458,18.534,27.649.462Z" transform="translate(-60.199 -40.803)" fill="#3a386e" fill-rule="evenodd"/>
  <path id="Caminho_7" data-name="Caminho 7" d="M296.021,212.569l24.711,16.64-.533-.783-6.063-8.922Z" transform="translate(-105.359 -75.657)" fill="#3a386e" fill-rule="evenodd"/>
  <path id="Caminho_8" data-name="Caminho 8" d="M300.187,190.992,276.5,156.9h0l-11.279-16.237-28.338-6.532,17.308,39.6h0l10.824,4.143h0l34.6,13.24Z" transform="translate(-84.313 -47.74)" fill="#3a386e" fill-rule="evenodd"/>
  <path id="Caminho_9" data-name="Caminho 9" d="M174.951,168.845l0,0-.587-.25-.008-.034-2.773-1.325-10.945,2.075-9.826-4.092,1.756,4.252,40.488,16.422h0l13.767,5.584-2.943-10.3-28.926-12.328Z" transform="translate(-53.675 -58.804)" fill="#3a386e" fill-rule="evenodd"/>
  <path id="Caminho_10" data-name="Caminho 10" d="M166.1,198.86l1.318-5.406L133.64,176.536l15.3,15.813h0l7.088,6.511Z" transform="translate(-47.565 -62.833)" fill="#3a386e" fill-rule="evenodd"/>
  <path id="Caminho_11" data-name="Caminho 11" d="M155.841,177.4l1.821,4.409,32.5,16.279,1.783-6.045Z" transform="translate(-55.467 -63.141)" fill="#3a386e" fill-rule="evenodd"/>
  <path id="Caminho_12" data-name="Caminho 12" d="M235.624,117.9l-4.931,1.317v1.111l21.818,5.153h0l-14.585-18.7-8.962-.7h0Z" transform="translate(-81.493 -37.757)" fill="#3a386e" fill-rule="evenodd"/>
  <path id="Caminho_13" data-name="Caminho 13" d="M84.668,81.489,73.735,78.024h0l3.119,21.838,7.813,7.491Z" transform="translate(-26.244 -27.77)" fill="#3a386e" fill-rule="evenodd"/>
  <path id="Caminho_14" data-name="Caminho 14" d="M117.744,158.437l4.078,2.043.56.28h0l13.24,6.631-4.9-11.872-17.288-7.2-2.209-5.052-6.666-1.052v9.621l13.188,6.6Z" transform="translate(-37.213 -50.617)" fill="#3a386e" fill-rule="evenodd"/>
  <path id="Caminho_15" data-name="Caminho 15" d="M174.824,212.678H163.635l-5.576-5.122,11.688,22.772,7.9-7.43Z" transform="translate(-56.256 -73.873)" fill="#3a386e" fill-rule="evenodd"/>
  <path id="Caminho_16" data-name="Caminho 16" d="M202.882,211.588l-13.585-6.8-1.338,5.5,3.568,12.932h0l1.857,6.731.359,1.3,11.045-10.26-1.906-9.395Z" transform="translate(-66.898 -72.887)" fill="#3a386e" fill-rule="evenodd"/>
  <path id="Caminho_17" data-name="Caminho 17" d="M283.537,208.017l19.822,20.941v-4.9Z" transform="translate(-100.916 -74.037)" fill="#3a386e" fill-rule="evenodd"/>
  <path id="Caminho_18" data-name="Caminho 18" d="M356.012,233.641l-8.686-6.541-8.448-1.056Z" transform="translate(-120.613 -80.453)" fill="#3a386e" fill-rule="evenodd"/>
  <path id="Caminho_19" data-name="Caminho 19" d="M328.15,204.757l7.473.936h0l5.209.652-7.767-20.227-26.072-12.271h-.318Z" transform="translate(-109.152 -61.876)" fill="#3a386e" fill-rule="evenodd"/>
  <path id="Caminho_20" data-name="Caminho 20" d="M158.134,82.322l5.276,9.35L204.053,100l2.179-.58-9.1-16.147h0l-4.8-8.512L161.385,59.124Z" transform="translate(-56.283 -21.043)" fill="#3a386e" fill-rule="evenodd"/>
  <path id="Caminho_21" data-name="Caminho 21" d="M63.344,46.491l21.02,6.666,20.562-28.206h0L73.741,0l-18.4,1.534-.406.153L67.1,15.328,52.063,31.8l.207.415,11.074,14.28Z" transform="translate(-18.53)" fill="#3a386e" fill-rule="evenodd"/>
  <path id="Caminho_22" data-name="Caminho 22" d="M44.823,16.817,33.612,4.242,0,16.849l32.2,13.8Z" transform="translate(0 -1.51)" fill="#3a386e" fill-rule="evenodd"/>
</svg>
