<svg xmlns="http://www.w3.org/2000/svg" width="546.047" height="254.977" viewBox="0 0 546.047 254.977">
  <g id="messaging" transform="translate(-274.106 -420.593)">
    <ellipse id="Elipse_131" data-name="Elipse 131" cx="273.024" cy="13.446" rx="273.024" ry="13.446" transform="translate(274.106 648.678)" fill="#f7f7f7"/>
    <path id="Caminho_833" data-name="Caminho 833" d="M579.063,425.591h-199V540.507h27.6c12.174,8.985,32.221,23.718,32.293,23.357s.045-14.412.022-23.357h139.08V425.591Z" transform="translate(-6.217 -0.293)" fill="#3a386e"/>
    <rect id="Retângulo_145" data-name="Retângulo 145" width="160.227" height="11.678" transform="translate(393.025 450.627)" fill="#f7f7f7"/>
    <rect id="Retângulo_146" data-name="Retângulo 146" width="160.227" height="11.678" transform="translate(393.025 473.257)" fill="#f7f7f7"/>
    <rect id="Retângulo_147" data-name="Retângulo 147" width="160.227" height="11.678" transform="translate(393.025 495.887)" fill="#f7f7f7"/>
    <path id="Caminho_834" data-name="Caminho 834" d="M749.106,476.54h-199V591.456h27.6c12.174,8.985,32.221,23.718,32.293,23.357s.045-14.412.022-23.357H749.1V476.54Z" transform="translate(-16.195 -3.283)" fill="#3a386e"/>
    <rect id="Retângulo_148" data-name="Retângulo 148" width="160.227" height="11.678" transform="translate(553.089 498.586)" fill="#f7f7f7"/>
    <rect id="Retângulo_149" data-name="Retângulo 149" width="160.227" height="11.678" transform="translate(553.089 521.216)" fill="#f7f7f7"/>
    <path id="Caminho_835" data-name="Caminho 835" d="M409.18,515v.57l-7.345,9-3.981,3.019-5.8-3.139-.12-.342Z" transform="translate(-6.914 -5.54)" fill="#0e538c"/>
    <path id="Caminho_836" data-name="Caminho 836" d="M402.3,523.149l6.885-8.374-8.172-3.605-9.072,12.712,7.03,3.752Z" transform="translate(-6.914 -5.315)" fill="#0e538c"/>
    <rect id="Retângulo_150" data-name="Retângulo 150" width="160.227" height="11.678" transform="translate(553.089 543.847)" fill="#f7f7f7"/>
    <path id="Caminho_837" data-name="Caminho 837" d="M401.4,512.064l6.714,2.9-7.42,9.688L394.2,521.8Z" transform="translate(-7.047 -5.367)" fill="#f7f7f7"/>
    <circle id="Elipse_132" data-name="Elipse 132" cx="0.954" cy="0.954" r="0.954" transform="translate(388.793 518.217)" fill="#f7f7f7"/>
    <g id="Grupo_281" data-name="Grupo 281" transform="translate(323.756 474.549)">
      <path id="Caminho_838" data-name="Caminho 838" d="M359.641,659.44l.021,5.719a12.476,12.476,0,0,1-.47,3.442l-.5,1.761a2.259,2.259,0,0,0,2.181,2.876c3.9-.014,10.552,0,12.267,0a.56.56,0,0,0,.58-.469c.145-1.67-4.677-2.787-8.31-4.194-2.767-1.071-2.619-6.044-2.278-8.947a1.748,1.748,0,0,0-1.887-1.939h0A1.751,1.751,0,0,0,359.641,659.44Z" transform="translate(-328.714 -488.462)" fill="#fab9af"/>
      <path id="Caminho_839" data-name="Caminho 839" d="M331.008,657.759l-1.97,6.542a3.019,3.019,0,0,1-.386.814l-1.4,2.075a2.362,2.362,0,0,0,1.27,3.579s2.816.99,5.719,1.945c2.972.976,6.71.16,6.71-.624,0-1.742-1.625-.36-4.346-2.179-.912-.61-1.853-1.248-2.692-1.906-2.342-1.838-.3-6.492,1.137-9.114a1.606,1.606,0,0,0-1.083-2.336l-.679-.145A1.958,1.958,0,0,0,331.008,657.759Z" transform="translate(-326.851 -488.384)" fill="#fab9af"/>
      <path id="Caminho_840" data-name="Caminho 840" d="M352.648,576.445l21.585-1.812s2.173,15.711-3.281,44.149c-2.558,13.337-7.89,38.821-7.89,38.821a6.12,6.12,0,0,1-4.034.382s-.4-11.241-.652-23.348c-.237-11.61-.3-24.016-1.041-28.075C355.823,598.271,352.648,576.445,352.648,576.445Z" transform="translate(-328.364 -483.588)" fill="#0e538c"/>
      <path id="Caminho_841" data-name="Caminho 841" d="M355.784,576.523c2.228,11.96,7.207,29.845-2.383,46.646s-19.661,34.269-19.661,34.269a5.457,5.457,0,0,1-3.569-1.248s1.681-7.617,4.112-16.511c2.781-10.175,6.3-22.142,5.3-28.382-1.881-11.694-4.041-27.269-3.386-34.833S354.612,570.234,355.784,576.523Z" transform="translate(-327.045 -483.392)" fill="#0e538c"/>
      <g id="Grupo_247" data-name="Grupo 247" transform="translate(40.196 39.718)">
        <g id="Grupo_246" data-name="Grupo 246">
          <g id="Grupo_245" data-name="Grupo 245">
            <path id="Caminho_842" data-name="Caminho 842" d="M369.552,525.692s2.96-1.416,4.26-2.157,4.643-1.757,4.913-2,9.909-.836,10.495-1.34,1.152,1.181-1.346,1.729-5.975,1.885-6.166,2.863,2.566,1.208,2.846,2.012-.078.625-.473.8-3.279-1.424-4.547-.971-3.206-.174-4.179.158-5.7,1.922-5.7,1.922Z" transform="translate(-369.552 -520.106)" fill="#fab9af"/>
          </g>
        </g>
      </g>
      <g id="Grupo_250" data-name="Grupo 250" transform="translate(42.182 42.472)">
        <g id="Grupo_249" data-name="Grupo 249">
          <g id="Grupo_248" data-name="Grupo 248">
            <path id="Caminho_843" data-name="Caminho 843" d="M375.019,527.954l1.525-.564s-1.9-4.464-2.732-4.356a20.943,20.943,0,0,0-2.15.44Z" transform="translate(-371.662 -523.033)" fill="#f7f7f7"/>
          </g>
        </g>
      </g>
      <g id="Grupo_253" data-name="Grupo 253" transform="translate(36.135 42.174)">
        <g id="Grupo_252" data-name="Grupo 252">
          <g id="Grupo_251" data-name="Grupo 251">
            <path id="Caminho_844" data-name="Caminho 844" d="M374.99,528.707c-.2-.145-3.242-5.991-3.242-5.991l-6.51.883,3.518,6.924Z" transform="translate(-365.238 -522.716)" fill="#da9b5b"/>
          </g>
        </g>
      </g>
      <g id="Grupo_256" data-name="Grupo 256" transform="translate(59.981 39.744)">
        <g id="Grupo_255" data-name="Grupo 255">
          <g id="Grupo_254" data-name="Grupo 254">
            <path id="Caminho_845" data-name="Caminho 845" d="M393.372,537.179s2.487-2.238,3.69-3.175,3.463-3.691,3.8-3.85,4.646-9.015,5.35-9.368-.665-1.548-2.155.594-4.1,4.9-5.1,4.7-.139-2.89-.788-3.464-.618-.171-.935.134.066,3.646-.856,4.664-1.084,3.089-1.776,3.875-4.031,4.622-4.031,4.622Z" transform="translate(-390.571 -520.134)" fill="#fab9af"/>
          </g>
        </g>
      </g>
      <g id="Grupo_259" data-name="Grupo 259" transform="translate(18.454 0.86)">
        <g id="Grupo_258" data-name="Grupo 258">
          <g id="Grupo_257" data-name="Grupo 257">
            <path id="Caminho_846" data-name="Caminho 846" d="M351.126,479.51s7.465-2.788,10.906,2.895,3.11,17.054-.653,18.454-9.413.666-11.339-2.888-3.666-8.693-3.582-12.129S349.166,480.5,351.126,479.51Z" transform="translate(-346.455 -478.826)" fill="#fab9af"/>
          </g>
        </g>
      </g>
      <g id="Grupo_262" data-name="Grupo 262" transform="translate(20.58 16.068)">
        <g id="Grupo_261" data-name="Grupo 261">
          <g id="Grupo_260" data-name="Grupo 260">
            <path id="Caminho_847" data-name="Caminho 847" d="M360.7,502.067s-.6,5.357-.089,6.351-9.317,0-9.317,0a74.97,74.97,0,0,0-2.454-12.288C347.274,491.571,360.7,502.067,360.7,502.067Z" transform="translate(-348.714 -494.983)" fill="#fab9af"/>
          </g>
        </g>
      </g>
      <g id="Grupo_265" data-name="Grupo 265" transform="translate(17.833)">
        <g id="Grupo_264" data-name="Grupo 264">
          <g id="Grupo_263" data-name="Grupo 263">
            <path id="Caminho_848" data-name="Caminho 848" d="M348.67,495.13s.361,5.751,3.231,5.3,6.71-8.856,7.907-9.275,1.21-1.123,1.21-1.123l.75,1.1,1.272.081s-1.16-3.414.59-4.807-1.817-11.052-11.017-7.836c0,0-7.066,1.949-6.81,5.967S347.088,493.129,348.67,495.13Z" transform="translate(-345.795 -477.913)" fill="#0e538c"/>
          </g>
        </g>
      </g>
      <g id="Grupo_268" data-name="Grupo 268" transform="translate(22.208 27.909)">
        <g id="Grupo_267" data-name="Grupo 267">
          <g id="Grupo_266" data-name="Grupo 266">
            <path id="Caminho_849" data-name="Caminho 849" d="M361.88,510.352s-.032-1.895-.892-2.079-9.49-1.011-10.545-.6v2.21S352.476,511.138,361.88,510.352Z" transform="translate(-350.443 -507.562)" fill="#f7f7f7"/>
          </g>
        </g>
      </g>
      <g id="Grupo_271" data-name="Grupo 271" transform="translate(30.183 9.192)">
        <g id="Grupo_270" data-name="Grupo 270">
          <g id="Grupo_269" data-name="Grupo 269">
            <path id="Caminho_850" data-name="Caminho 850" d="M361.6,489.144c-.161-.675-1.875-2.6-2.531-.538s.992,4.837,1.912,4.6S362.005,490.853,361.6,489.144Z" transform="translate(-358.915 -487.678)" fill="#eea886"/>
          </g>
        </g>
      </g>
      <g id="Grupo_274" data-name="Grupo 274" transform="translate(6.108 30.234)">
        <g id="Grupo_273" data-name="Grupo 273">
          <g id="Grupo_272" data-name="Grupo 272">
            <path id="Caminho_851" data-name="Caminho 851" d="M335.074,581.327a78.894,78.894,0,0,0,12.383,2.208c7.805.86,27.308-.31,27.431-1.232s-4.195-34.339-3.949-36.06.377-7.853.377-7.853a43.211,43.211,0,0,0,3.875,12.283c.745,1.352,3.25,5.588,4.457,4.624,5.843-4.664,14.89-22.243,15.464-22.391-.483-.21-4.288-1.962-4.822-2.139-.467-.156-4.682,4.306-7.237,7.072-1.139,1.233-1.947,2.129-1.947,2.129-.738-1.66-3.424-12.113-4.258-15.73-1.883-8.159-1.594-8.5-1.594-8.5-5.71-1.727-14.378-5.243-14.378-5.243l-11.437-.465s-10.5,2.31-14.63,4.177c-.393.178-.393,9.365-1.469,11.773l3.427,7.231s1.98,14.323,2.39,20.693C339.346,556.83,335.074,581.327,335.074,581.327Z" transform="translate(-333.339 -510.032)" fill="#2a94f4"/>
          </g>
        </g>
      </g>
      <g id="Grupo_277" data-name="Grupo 277" transform="translate(4.731 34.411)">
        <g id="Grupo_276" data-name="Grupo 276">
          <g id="Grupo_275" data-name="Grupo 275">
            <path id="Caminho_852" data-name="Caminho 852" d="M332.778,538.171c.3.964,1.655,1.777,2.535,2.134a3.276,3.276,0,0,0,1.832.184l.448-.082v0l7.837-1.454s1.714-19.75-10.708-24.482C334.4,514.577,330.035,529.328,332.778,538.171Z" transform="translate(-331.876 -514.469)" fill="#2a94f4"/>
          </g>
        </g>
      </g>
      <g id="Grupo_280" data-name="Grupo 280" transform="translate(16.776 2.214)">
        <g id="Grupo_279" data-name="Grupo 279">
          <g id="Grupo_278" data-name="Grupo 278">
            <path id="Caminho_853" data-name="Caminho 853" d="M348.9,480.265s-9.392.953-.168,15.211Z" transform="translate(-344.673 -480.265)" fill="#0e538c"/>
          </g>
        </g>
      </g>
    </g>
    <path id="Caminho_854" data-name="Caminho 854" d="M403.573,514.994l-2.008-.977a.5.5,0,0,1-.232-.673h0a.5.5,0,0,1,.673-.232l2.008.977a.5.5,0,0,1,.232.673h0A.5.5,0,0,1,403.573,514.994Z" transform="translate(-7.463 -5.426)" fill="#2a94f4"/>
    <path id="Caminho_855" data-name="Caminho 855" d="M400.573,519.047l-2.008-.977a.5.5,0,0,1-.233-.673h0a.5.5,0,0,1,.673-.233l2.008.977a.5.5,0,0,1,.232.673h0A.5.5,0,0,1,400.573,519.047Z" transform="translate(-7.287 -5.664)" fill="#2a94f4"/>
    <path id="Caminho_856" data-name="Caminho 856" d="M399.667,520.372l-2.008-.977a.5.5,0,0,1-.233-.673h0a.5.5,0,0,1,.673-.233l2.008.977a.5.5,0,0,1,.232.673h0A.5.5,0,0,1,399.667,520.372Z" transform="translate(-7.233 -5.741)" fill="#2a94f4"/>
    <path id="Caminho_857" data-name="Caminho 857" d="M405.3,517.547l-2.008-.977a.5.5,0,0,1-.233-.673h0a.5.5,0,0,1,.673-.233l2.008.977a.5.5,0,0,1,.233.673h0A.5.5,0,0,1,405.3,517.547Z" transform="translate(-7.564 -5.576)" fill="#2a94f4"/>
    <path id="Caminho_858" data-name="Caminho 858" d="M404.291,518.9l-2.008-.977a.5.5,0,0,1-.233-.673h0a.5.5,0,0,1,.673-.233l2.008.977a.5.5,0,0,1,.233.673h0A.5.5,0,0,1,404.291,518.9Z" transform="translate(-7.505 -5.655)" fill="#2a94f4"/>
    <path id="Caminho_859" data-name="Caminho 859" d="M401.127,523l-2.008-.977a.5.5,0,0,1-.233-.673h0a.5.5,0,0,1,.673-.232l2.008.977a.5.5,0,0,1,.233.673h0A.5.5,0,0,1,401.127,523Z" transform="translate(-7.319 -5.896)" fill="#2a94f4"/>
    <path id="Caminho_860" data-name="Caminho 860" d="M765.763,648.231s-3.345,8.328-4.014,9.7a7.38,7.38,0,0,1-2.678,2.574,4.83,4.83,0,0,0-.972,1.229,1.371,1.371,0,0,0-.1,1.226c2.627,7.161,10.649,10.041,10.837,9.5.339-.97-.851-2.922-2.532-3.9a5.773,5.773,0,0,1-2.743-4.813h0a9.059,9.059,0,0,1,1-4.485l3.269-6.2Z" transform="translate(-28.389 -13.358)" fill="#fa968c"/>
    <path id="Caminho_861" data-name="Caminho 861" d="M778.509,659.193l2,8.9a11.671,11.671,0,0,1-1.082,8.035h0a2.548,2.548,0,0,0,1.388,3.605c4.749,1.694,13.959,4.917,14.369,4.568,2.093-1.774-3.441-4.7-7.53-7.772-2.758-2.073-3.812-11.734-4.057-19.143l-4.386,1.1A1.017,1.017,0,0,0,778.509,659.193Z" transform="translate(-29.598 -13.895)" fill="#fa968c"/>
    <path id="Caminho_862" data-name="Caminho 862" d="M786.947,680.579a32.15,32.15,0,0,0,6.1,1.1,1.275,1.275,0,0,1,.624.256c1.895,1.468,2.851,2.945,1.741,3.887-.446.378-11.266-3.454-15.486-4.968a1.529,1.529,0,0,1-.827-2.167l.8-1.506A31.474,31.474,0,0,0,786.947,680.579Z" transform="translate(-29.622 -15.056)" fill="#0e538c"/>
    <path id="Caminho_863" data-name="Caminho 863" d="M781.506,554.108c-5.231.714-9.687,6.744-8.768,13.477.528,3.869,4.129,17.718,8.088,28.665a12.7,12.7,0,0,1-1.948,12.409,10.869,10.869,0,0,0-1.186,1.731c-1.651,3.039-8.005,21-11.735,32.981.3,1.569,1.233,3.557,2.407,4.249,6.563-10.176,17.234-28.751,18.99-31.984a56.926,56.926,0,0,0,2.818-5.823c4.249-5.623,3.426-37.042,2.574-43.288C791.827,559.791,786.737,553.394,781.506,554.108Z" transform="translate(-28.861 -7.831)" fill="#0e538c"/>
    <path id="Caminho_864" data-name="Caminho 864" d="M783.988,499.292s4.531,2.851,3.98,6.693c0,0,2.42-1.714,2.967-7.616C791.315,494.279,783.988,499.292,783.988,499.292Z" transform="translate(-29.919 -4.47)" fill="#0e538c"/>
    <g id="Grupo_282" data-name="Grupo 282" transform="translate(756.673 514.777)">
      <path id="Caminho_865" data-name="Caminho 865" d="M793.346,524.1a15.829,15.829,0,0,0,1.01,6.945,7.106,7.106,0,0,0,4.673,4.024,16.387,16.387,0,0,0,7.574.133,34.174,34.174,0,0,0,7.852-2.573l.009,0a.946.946,0,0,1,.94,1.632,32.958,32.958,0,0,1-7.912,4.19,19.687,19.687,0,0,1-9.432,1.164,12.038,12.038,0,0,1-4.962-1.86,12.448,12.448,0,0,1-3.793-3.944,20.263,20.263,0,0,1-2.547-9.708,3.3,3.3,0,0,1,6.589-.309c0,.088,0,.175,0,.262Z" transform="translate(-786.755 -520.648)" fill="#efa8a0"/>
    </g>
    <path id="Caminho_866" data-name="Caminho 866" d="M788.122,543.9c1.813-5.463,5.46-17.031,5.148-20.813a4.661,4.661,0,0,0-4.655-4.277h-15.77a4.827,4.827,0,0,0-4.83,4.687c-.133,4.567,1.971,14.962,3.155,20.4Z" transform="translate(-28.982 -5.763)" fill="#2a94f4"/>
    <path id="Caminho_867" data-name="Caminho 867" d="M782.578,653.568a.815.815,0,0,0,.377-.723c-.334-11.6-1.038-26.383-1.294-29.217-.029-.324-.068-.644-.115-.957,2.485-13.711,2.861-43.188,3.108-48.35.325-6.788-3.763-14.445-9.037-14.7s-11,5.206-12.69,11.425c-1.117,4.1,3.2,25.942,7.884,41.769a24.061,24.061,0,0,1,.644,10.274,30.542,30.542,0,0,0-.277,6.7c.251,2.788,3.375,14.142,6.3,23.864a.814.814,0,0,0,.6.567A6.006,6.006,0,0,0,782.578,653.568Z" transform="translate(-28.673 -8.158)" fill="#0e538c"/>
    <path id="Caminho_868" data-name="Caminho 868" d="M769.178,550.825a14.991,14.991,0,0,0,.718-7.148c-.8-5.59-2.186-16.117-2.058-20.587a4.408,4.408,0,0,1,4.416-4.28h2.338a6.284,6.284,0,0,0,11.421,0h2.2c-2.386,5.109-1.529,11.848,2.576,15.781-.762,2.7-1.4,5.41-1.885,7.61a14.872,14.872,0,0,0,.811,8.9c2.015,4.837,3.613,12.594,3.137,15.668-16.589,4.7-28.061-3.619-28.061-3.619Z" transform="translate(-28.793 -5.763)" fill="#2a94f4"/>
    <g id="Grupo_283" data-name="Grupo 283" transform="translate(746.916 505.552)">
      <path id="Caminho_869" data-name="Caminho 869" d="M783.542,519.428l-7.153-.752,2.263-7.828,4.628.572Z" transform="translate(-776.389 -510.848)" fill="#fab9af"/>
    </g>
    <path id="Caminho_870" data-name="Caminho 870" d="M783.376,511.42l-4.628-.572-.707,2.444c1.035,1.168,2.367,3.691,4.051,3.691a2.675,2.675,0,0,0,1.458-.428Z" transform="translate(-29.57 -5.296)" fill="#fa968c"/>
    <path id="Caminho_871" data-name="Caminho 871" d="M783.382,514.536c-1.571,0-3.27-.786-5.611-2.831a7.1,7.1,0,0,1-2.34-4.6v-7.65h11.778a21.794,21.794,0,0,1,.026,8.093C786.592,510.567,784.618,514.536,783.382,514.536Z" transform="translate(-29.417 -4.627)" fill="#fab9af"/>
    <path id="Caminho_872" data-name="Caminho 872" d="M777.339,505.872c0,1.493-.714,2.7-1.6,2.7s-1.853-1.956-1.853-3.449a1.748,1.748,0,0,1,1.853-1.956C776.624,503.169,777.339,504.379,777.339,505.872Z" transform="translate(-29.327 -4.846)" fill="#fab9af"/>
    <path id="Caminho_873" data-name="Caminho 873" d="M773.889,500.085a4.324,4.324,0,0,1,4.325-4.324l3.975,0a6.5,6.5,0,0,0,3.206-.845,3.153,3.153,0,0,1,4.132.767c1.035,1.4,1.482,3.281-1.141,5.022-1.3.865-3.21-.093-4.48.322-.078,0-.148-.016-.23-.016h-3.5a2.217,2.217,0,0,0-2.185,2.212,1.43,1.43,0,0,1-1.429,1.388h-.155l-.561-1.8-1.956,2.638v-5.366Z" transform="translate(-29.327 -4.335)" fill="#0e538c"/>
    <path id="Caminho_874" data-name="Caminho 874" d="M786.084,499.107c-.394,1.748.188,2.7-5.541,5.431s-7.542,1.563-9.33,4.5c0,0,.782-4.865,3.946-6.535s8.652-2.761,10.411-6.627A7.418,7.418,0,0,1,786.084,499.107Z" transform="translate(-29.17 -4.417)" fill="#0e538c"/>
    <path id="Caminho_875" data-name="Caminho 875" d="M785.84,499.577s.217,5.887,5.362,8.714c0,0-2.267-4.45-2.112-7.358S785.5,497.567,785.84,499.577Z" transform="translate(-30.027 -4.563)" fill="#0e538c"/>
    <path id="Caminho_876" data-name="Caminho 876" d="M755.979,665.834a1.048,1.048,0,0,1-.013-1.366c.273-.324,1-1.213,1.546-1.88a.5.5,0,0,1,.845.115c1.828,3.825,4.883,6.808,8.864,7.356,1.291.873,2.115,2.845,1.847,3.613-.063.18-1.83.205-3.688-.859C757.131,668.092,755.979,665.834,755.979,665.834Z" transform="translate(-28.261 -14.189)" fill="#0e538c"/>
    <g id="Grupo_284" data-name="Grupo 284" transform="translate(738.789 512.038)">
      <path id="Caminho_877" data-name="Caminho 877" d="M774.365,521.37l-.015.488c0,.2,0,.4.007.605.006.409.029.826.067,1.242a19.679,19.679,0,0,0,.392,2.461,13.775,13.775,0,0,0,1.807,4.447,11.785,11.785,0,0,0,3.244,3.4,16.251,16.251,0,0,0,4.555,2.107,24.915,24.915,0,0,0,5.335.9,48.165,48.165,0,0,0,5.655-.056A85.513,85.513,0,0,0,806.94,535.2l.012,0a.945.945,0,0,1,.556,1.8,64.233,64.233,0,0,1-11.587,3.657,33.608,33.608,0,0,1-12.642.466,19.656,19.656,0,0,1-6.422-2.286,17.3,17.3,0,0,1-5.307-4.722,20.042,20.042,0,0,1-3.011-6.348,23.489,23.489,0,0,1-.639-3.386c-.065-.57-.111-1.141-.134-1.723-.012-.288-.012-.584-.009-.88.006-.317.009-.562.043-1a3.291,3.291,0,0,1,6.57.344Z" transform="translate(-767.756 -517.739)" fill="#fab9af"/>
    </g>
    <path id="Caminho_878" data-name="Caminho 878" d="M815.24,536.525h-3.958a1.6,1.6,0,0,1-1.6-1.6v-9.017a1.6,1.6,0,0,1,1.6-1.6h3.958a1.6,1.6,0,0,1,1.6,1.6v9.017A1.6,1.6,0,0,1,815.24,536.525Z" transform="translate(-31.427 -6.086)" fill="#2a94f4"/>
    <circle id="Elipse_133" data-name="Elipse 133" cx="0.591" cy="0.591" r="0.591" transform="translate(778.974 519.854)" fill="#f7f7f7"/>
    <path id="Caminho_879" data-name="Caminho 879" d="M731.824,425.591H704.906v17.625h9.814l4.206,5.046,3.757-5.046h9.141Z" transform="translate(-25.279 -0.293)" fill="#f7f7f7"/>
    <path id="Caminho_880" data-name="Caminho 880" d="M505.279,591.71H478.362v17.625h9.813l4.206,5.046,3.758-5.046h9.14Z" transform="translate(-11.986 -10.041)" fill="#f7f7f7"/>
    <g id="Grupo_286" data-name="Grupo 286" transform="translate(394.109 577.276)">
      <path id="Caminho_881" data-name="Caminho 881" d="M412.255,589.8c-5.89,2.454-11.884,10.768-5.834,22.622s27.256,4.4,28.14-4.326C435.691,596.943,427.354,583.514,412.255,589.8Z" transform="translate(-401.726 -587.111)" fill="#fcd434"/>
      <g id="Grupo_285" data-name="Grupo 285" transform="translate(2.175 1.925)">
        <path id="Caminho_882" data-name="Caminho 882" d="M410.913,606.473c-3.627-10.8,3.438-17.362,3.463-17.385q-1.036.319-2.12.769c-5.89,2.454-11.884,10.768-5.834,22.622,3.362,6.589,11.409,7.213,18.044,4.968C424.465,617.447,414.545,617.295,410.913,606.473Z" transform="translate(-403.9 -589.088)" fill="#fdbd1a"/>
      </g>
      <path id="Caminho_883" data-name="Caminho 883" d="M408.621,594.9s2.345-3.7,8.494-4.959,5.931.866,2.481,1.781S405.753,599.151,408.621,594.9Z" transform="translate(-401.974 -587.19)" fill="#f7f7f7" opacity="0.4"/>
      <path id="Caminho_884" data-name="Caminho 884" d="M413.911,602.271s2.859-10.577-1.5-12.689-5.4,3.812-5.4,3.812-5.3.66-5.422,4.57S413.911,602.271,413.911,602.271Z" transform="translate(-401.59 -587.165)" fill="#f24d54"/>
      <path id="Caminho_885" data-name="Caminho 885" d="M424.988,598.115s-6.592-4.924-5.735-8.005,4.141-4.115,6.3-1.825c3.136-2.408,6.923-.838,6.264,2.352S424.988,598.115,424.988,598.115Z" transform="translate(-402.622 -587.043)" fill="#f24d54"/>
      <path id="Caminho_886" data-name="Caminho 886" d="M416.414,610.058c-.059.58,2.815,3.1,7.656,1.116s4.093-5.434,3.607-5.96-3.935,3.389-6.385,3.848S416.517,609.049,416.414,610.058Z" transform="translate(-402.46 -588.107)" fill="#782d10"/>
      <path id="Caminho_887" data-name="Caminho 887" d="M423.919,611.162s1.187-3.34,3.552-2.841A6.333,6.333,0,0,1,423.919,611.162Z" transform="translate(-402.9 -588.289)" fill="#f24d54"/>
    </g>
    <g id="Grupo_288" data-name="Grupo 288" transform="translate(602.441 420.593)">
      <path id="Caminho_888" data-name="Caminho 888" d="M629.68,424.356c-6.045,4.062-10.9,14.707-1.482,26.628s31.5-1.157,30.536-11.125C657.509,427.115,645.179,413.943,629.68,424.356Z" transform="translate(-622.908 -420.593)" fill="#fcd434"/>
      <g id="Grupo_287" data-name="Grupo 287" transform="translate(0 2.429)">
        <path id="Caminho_889" data-name="Caminho 889" d="M631.885,443.409c-6.472-11.284-.027-20.2,0-20.236q-1.089.589-2.2,1.334c-6.045,4.062-10.9,14.707-1.482,26.628,5.236,6.626,14.382,5.528,21.31,1.533C649.507,452.669,638.368,454.713,631.885,443.409Z" transform="translate(-622.908 -423.173)" fill="#fdbd1a"/>
      </g>
      <path id="Caminho_890" data-name="Caminho 890" d="M626.655,430.938s1.8-4.664,8.4-7.449,6.833-.355,3.175,1.44S624.392,436.333,626.655,430.938Z" transform="translate(-623.109 -420.688)" fill="#f7f7f7" opacity="0.4"/>
      <path id="Caminho_891" data-name="Caminho 891" d="M633.5,446.613c.2,2.044,6.638,6.643,13.943,3.264s8.828-12.4,6.445-14.358C652.814,434.636,633.29,444.42,633.5,446.613Z" transform="translate(-623.53 -421.465)" fill="#782d10"/>
      <path id="Caminho_892" data-name="Caminho 892" d="M636.167,445.023s.635,1.523,1.613,1.324,13.289-6.972,14.232-7.386.211-2.271.211-2.271a33.473,33.473,0,0,0-8.668,3.8C638.138,443.614,636.167,445.023,636.167,445.023Z" transform="translate(-623.686 -421.537)" fill="#f7f7f7"/>
      <path id="Caminho_893" data-name="Caminho 893" d="M640.623,450.79s5.553-5.527,8.338-4.4c1.838.679,1.815,1.546,1.815,1.546S645.878,452.178,640.623,450.79Z" transform="translate(-623.948 -422.097)" fill="#f45b51"/>
      <path id="Caminho_894" data-name="Caminho 894" d="M628.634,441.553c.822.07,2.725-4.271,4.617-4.789s3.62.282,4.348-.249-3.7-3.714-5.893-2.578S627.1,441.422,628.634,441.553Z" transform="translate(-623.216 -421.361)" fill="#782d10"/>
      <path id="Caminho_895" data-name="Caminho 895" d="M646.243,431.692c1.027-.144,1.917-3,2.892-3.353s3.017.457,3.923-.175-3.181-3.453-5.556-2.375S645.02,431.864,646.243,431.692Z" transform="translate(-624.232 -420.883)" fill="#782d10"/>
    </g>
    <g id="Grupo_290" data-name="Grupo 290" transform="translate(781.183 488.231)">
      <path id="Caminho_896" data-name="Caminho 896" d="M830.179,493.507c-4.587-2.267-12.771-1.508-16.748,8.4s11.7,18.794,17.445,14.729C838.215,511.433,841.939,499.318,830.179,493.507Z" transform="translate(-812.793 -492.447)" fill="#fcd434"/>
      <g id="Grupo_289" data-name="Grupo 289">
        <path id="Caminho_897" data-name="Caminho 897" d="M819.428,501.453c4.618-7.885,12.306-7.072,12.333-7.069q-.74-.458-1.582-.876c-4.587-2.267-12.771-1.508-16.748,8.4-2.211,5.5,1.653,10.7,6.506,13.525A12.264,12.264,0,0,1,819.428,501.453Z" transform="translate(-812.793 -492.447)" fill="#fdbd1a"/>
      </g>
      <path id="Caminho_898" data-name="Caminho 898" d="M825.8,493.889s3.472-.532,7.474,2.521,2.6,4.041.231,2.438S821.725,494.393,825.8,493.889Z" transform="translate(-813.497 -492.53)" fill="#f7f7f7" opacity="0.4"/>
      <path id="Caminho_899" data-name="Caminho 899" d="M818.552,503.575c-1.177.834-1.731,6.366,2.88,9.638s10.643,1.05,11-1.085C832.6,511.164,819.815,502.68,818.552,503.575Z" transform="translate(-813.082 -493.097)" fill="#782d10"/>
      <path id="Caminho_900" data-name="Caminho 900" d="M820.585,504.587s-.706.92-.244,1.446,8.891,5.665,9.472,6.1,1.458-.665,1.458-.665a23.514,23.514,0,0,0-5.345-3.955C822.133,505.3,820.585,504.587,820.585,504.587Z" transform="translate(-813.226 -493.16)" fill="#f7f7f7"/>
      <path id="Caminho_901" data-name="Caminho 901" d="M818.795,509.235s5.308,1.454,5.6,3.544c.228,1.357-.309,1.646-.309,1.646S819.783,512.922,818.795,509.235Z" transform="translate(-813.145 -493.433)" fill="#f45b51"/>
      <path id="Caminho_902" data-name="Caminho 902" d="M820.685,500.01c-.013.43,1.825.278,5.3,2.972.335.1.874-.468.206-2.1s-1.723-2.482-1.933-2.333.617,1.442.729,2.336C822.605,499.605,820.7,499.543,820.685,500.01Z" transform="translate(-813.256 -492.805)" fill="#782d10"/>
      <path id="Caminho_903" data-name="Caminho 903" d="M835,506.053c.2-.409-2.475-1.135-4.089-.228-.41.194,2.6,1.472,3.974,3.43.3.52.848.088-.161-1.262a8.9,8.9,0,0,0-1.946-1.779S834.8,506.443,835,506.053Z" transform="translate(-813.854 -493.207)" fill="#782d10"/>
    </g>
    <g id="Grupo_292" data-name="Grupo 292" transform="translate(327.015 430.828)">
      <path id="Caminho_904" data-name="Caminho 904" d="M338.327,433.037c-5.668,2.381-11.419,10.407-5.559,21.811s26.272,4.164,27.1-4.246C360.926,439.848,352.857,426.934,338.327,433.037Z" transform="translate(-330.314 -431.466)" fill="#fcd434"/>
      <g id="Grupo_291" data-name="Grupo 291" transform="translate(0.001 0.824)">
        <path id="Caminho_905" data-name="Caminho 905" d="M337.08,449.1c-3.524-10.4,3.264-16.737,3.288-16.759q-1,.311-2.04.746c-5.668,2.381-11.419,10.407-5.559,21.811,3.258,6.34,11.012,6.918,17.4,4.737C350.167,459.636,340.61,459.516,337.08,449.1Z" transform="translate(-330.315 -432.341)" fill="#fdbd1a"/>
      </g>
      <path id="Caminho_906" data-name="Caminho 906" d="M334.839,437.961s2.249-3.57,8.171-4.8,5.717.817,2.4,1.709S332.087,442.06,334.839,437.961Z" transform="translate(-330.551 -431.543)" fill="#f7f7f7" opacity="0.4"/>
      <ellipse id="Elipse_134" data-name="Elipse 134" cx="1.67" cy="2.228" rx="1.67" ry="2.228" transform="translate(7.074 10.616) rotate(-18.511)" fill="#782d10"/>
      <ellipse id="Elipse_135" data-name="Elipse 135" cx="1.67" cy="2.227" rx="1.67" ry="2.227" transform="matrix(0.97, -0.244, 0.244, 0.97, 18.908, 7.022)" fill="#782d10"/>
      <path id="Caminho_907" data-name="Caminho 907" d="M343.5,452.59c-.348.4,3.473,2.6,7.025,1.56s5.046-6.237,4.3-6.5-1.594,4.454-4.8,5.322C346.385,453.954,344.261,451.7,343.5,452.59Z" transform="translate(-331.086 -432.415)" fill="#782d10"/>
    </g>
    <path id="Caminho_908" data-name="Caminho 908" d="M358.656,671.076s6.724-.23,8.31-1.208c0,0,5.368.945,6.722,2.087s1.533,3.184-2.612,3.184-12.42-.6-12.42-.6S357.052,672.479,358.656,671.076Z" transform="translate(-4.919 -14.627)" fill="#0e538c"/>
    <path id="Caminho_909" data-name="Caminho 909" d="M328.3,665.638s3.785,1.622,5.108,1.082c0,0,.6,3.154,4.927,4.026s3.635,3.214,1.172,3.485-11.175-.871-12.557-2.7S326.558,666.389,328.3,665.638Z" transform="translate(-3.063 -14.379)" fill="#0e538c"/>
  </g>
</svg>
