<svg xmlns="http://www.w3.org/2000/svg" width="475.869" height="340.105" viewBox="0 0 475.869 340.105">
  <g id="people-debating-2" transform="translate(-56.505 -140.407)">
    <path id="Caminho_1168" data-name="Caminho 1168" d="M88.488,427.926c50.873,47.1,154.006,33.6,196.687-11.84,14.454-15.389,8.559-20.157,22.451-34.206,45.431-45.943,118.06-4.636,173.993-40.126,41.094-26.074,61.67-86.3,44.9-128.271-28.019-70.13-153.643-72.6-174.7-73.016C225.583,137.982,77.882,213.218,58.563,319.389,57.358,326.011,46.826,389.353,88.488,427.926Z" fill="#2a94f4" opacity="0.21"/>
    <g id="Grupo_408" data-name="Grupo 408" transform="translate(163.074 230.408)">
      <path id="Caminho_1169" data-name="Caminho 1169" d="M745.984,760.089l6.911-2.473,3.62,6.751-7.569,3.949Z" transform="translate(-614.814 -634.798)" fill="#efb68f"/>
      <path id="Caminho_1170" data-name="Caminho 1170" d="M541.541,604.083s30.746,9.865,32.905,66.173c0,0,22.024-11.262,39.969-12.5l5.5,10.553s-34.261,26.039-55.024,29.145c0,0-15.114-11.149-19.213-44.836" transform="translate(-480.865 -534.205)" fill="#0b4870"/>
      <path id="Caminho_1171" data-name="Caminho 1171" d="M765.724,722.666s-1.317-15.627,3.62-15.627,1.317,4.937,1.317,4.937,3.62-8.886,12.835-7.569,5.266,15.8-14.151,25.012Z" transform="translate(-627.644 -599.848)" fill="#efb68f"/>
      <path id="Caminho_1172" data-name="Caminho 1172" d="M430.3,599.022s7.975,6.826,22.688,1.745c0,0,21.935,17.982,19.925,41.118s-5.25,47.647,5.613,99.794c0,0-19.794,10.8-59.861,16.757,0,0-5.141-83.334-8.991-94.029S399.5,611.708,430.3,599.022Z" transform="translate(-392.314 -530.889)" fill="#0e538c"/>
      <path id="Caminho_1173" data-name="Caminho 1173" d="M434.856,1025.663l2.463,8.707,9.024-5.962-3.327-8.238Z" transform="translate(-410.966 -806.821)" fill="#efb68f"/>
      <path id="Caminho_1174" data-name="Caminho 1174" d="M460.792,472.458s-.592-6.283-4.491-10.276-.094-24.863,4.035-31.531C460.336,430.651,466.055,470.671,460.792,472.458Z" transform="translate(-423.949 -420.574)" fill="#0b4870"/>
      <path id="Caminho_1175" data-name="Caminho 1175" d="M492.331,490.857c-1.294-2.76-4.263-8.406-10.215-10.345a10.346,10.346,0,0,0-9.878,1.572,242.1,242.1,0,0,0,.217,29.977c.35,5.042.844,9.876,1.445,14.488a74.858,74.858,0,0,0,22.834,2.485c-.447-2.683-1.07-6.883-1.508-12.063C494.013,502.6,495.7,498.04,492.331,490.857Z" transform="translate(-435.221 -452.857)" fill="#e5ab83"/>
      <path id="Caminho_1176" data-name="Caminho 1176" d="M476.113,415.724c7.49-11.71,25.334-11.747,33.18.816,7.194,11.484,4.135,38.305-.793,43.829-12.416,13.918-27.678,1.7-31.07-5.015C472.456,445.533,469.82,425.587,476.113,415.724Z" transform="translate(-435.578 -405.096)" fill="#efb68f"/>
      <path id="Caminho_1177" data-name="Caminho 1177" d="M451.817,493.2a11.071,11.071,0,0,0,4.28,7.091c6.51,4.8,9.366-4.651,6.908-9.5C460.081,485.022,450.611,485.61,451.817,493.2Z" transform="translate(-422.01 -457.443)" fill="#efb68f"/>
      <path id="Caminho_1178" data-name="Caminho 1178" d="M477,429.867s-11.73,2.818-8.574,17.749h-3.862s-.048-5.748-5.116-5.573c0,0-1.322-20.347,9.433-23.792Z" transform="translate(-427.044 -412.449)" fill="#0b4870"/>
      <path id="Caminho_1179" data-name="Caminho 1179" d="M492.416,418.843s14.241-7.048,24.293-.252a10.871,10.871,0,0,0,6.367-2.81c3.109-2.955,4.089-7.8,2.569-12.424a37.478,37.478,0,0,1-4.831.786,24.481,24.481,0,0,1-8.349-.786c-3.588-.782-10.28-2.241-15.19-1.873-3.234.243-7.731,1.431-12.976,5.743a7.522,7.522,0,0,0,8.117,11.616Z" transform="translate(-442.463 -401.425)" fill="#0b4870"/>
      <path id="Caminho_1180" data-name="Caminho 1180" d="M579.791,447.658s2.967,5.195,3.717,15.489c0,0,1.173-15.754-2.277-17.026S579.791,447.658,579.791,447.658Z" transform="translate(-505.545 -430.492)" fill="#0b4870"/>
      <path id="Caminho_1181" data-name="Caminho 1181" d="M403.559,599.022s-41.143,1.064-37.794,51.184,4.586,45.17,4.586,45.17,12.215,45.834,17.732,56.515l10.429-7.019s-7.123-51.352-8.36-55.065c0,0,4.589-34.032,2.294-39.6C392.447,650.206,404.482,609.572,403.559,599.022Z" transform="translate(-365.572 -530.889)" fill="#0b4870"/>
      <path id="Caminho_1182" data-name="Caminho 1182" d="M585.806,681.945" transform="translate(-509.867 -585.219)" fill="#0b4870"/>
      <path id="Caminho_1183" data-name="Caminho 1183" d="M442,1050.025s.723,12.313,15.3,16.555c0,0,8.236-.965-1.782-14.5,0,0,12.137,2.715-4.494-8.014C451.024,1044.063,443.359,1044.5,442,1050.025Z" transform="translate(-415.647 -822.477)" fill="#efb68f"/>
      <path id="Caminho_1184" data-name="Caminho 1184" d="M430.3,599.022s12.925,7.376,22.688,1.745c0,0,26.96,13.947,19.874,34.546,0,0-2.026,41.366-1.785,47.427L419.19,650.206s3.847-28.945-12.8-41.543A42.043,42.043,0,0,1,430.3,599.022Z" transform="translate(-392.314 -530.889)" fill="#0e538c"/>
    </g>
    <g id="Grupo_409" data-name="Grupo 409" transform="translate(266.533 155.919)">
      <path id="Caminho_1185" data-name="Caminho 1185" d="M730.946,530.728l-6.911-2.473-3.62,6.751,7.569,3.949Z" transform="translate(-701.52 -410.034)" fill="#efb68f"/>
      <path id="Caminho_1186" data-name="Caminho 1186" d="M806.471,374.721s-30.746,9.865-32.905,66.173c0,0-22.024-11.262-39.969-12.5l-5.5,10.553s34.261,26.039,55.024,29.145c0,0,15.114-11.149,19.213-44.836" transform="translate(-706.552 -309.44)" fill="#0b4870"/>
      <path id="Caminho_1187" data-name="Caminho 1187" d="M688.133,493.305s1.316-15.627-3.62-15.627-1.316,4.937-1.316,4.937-3.62-8.886-12.835-7.569-5.266,15.8,14.151,25.012Z" transform="translate(-665.618 -375.084)" fill="#efb68f"/>
      <path id="Caminho_1188" data-name="Caminho 1188" d="M928.969,369.661s-7.975,6.826-22.688,1.745c0,0-21.935,17.982-19.925,41.118s4.937,48.153-5.926,100.3c0,0,12.776-5.182,61.683-5.182,0,0,3.631-61.9,7.481-72.6S959.771,382.348,928.969,369.661Z" transform="translate(-806.361 -306.124)" fill="#0e538c"/>
      <path id="Caminho_1189" data-name="Caminho 1189" d="M1040.256,796.3l-2.462,8.706-9.024-5.96,3.327-8.237Z" transform="translate(-903.552 -582.059)" fill="#efb68f"/>
      <path id="Caminho_1190" data-name="Caminho 1190" d="M1020.29,254.341s.592-6.283,4.491-10.276.094-24.863-4.035-31.531C1020.745,212.534,1015.028,252.554,1020.29,254.341Z" transform="translate(-896.537 -203.176)" fill="#0b4870"/>
      <path id="Caminho_1191" data-name="Caminho 1191" d="M957.374,261.5c1.294-2.76,4.263-8.406,10.215-10.345a10.346,10.346,0,0,1,9.878,1.572c-.936,9.366-1.563,19.361-1.729,29.924q-.118,7.474.067,14.541a74.861,74.861,0,0,1-22.834,2.485c.447-2.683,1.07-6.883,1.508-12.063C955.693,273.238,954.007,268.678,957.374,261.5Z" transform="translate(-853.889 -228.092)" fill="#e5ab83"/>
      <path id="Caminho_1192" data-name="Caminho 1192" d="M947.9,203.984c-6.61-10.361-25.742-7.482-33.18.817-4.915,5.483-4.726,13.04-4.555,19.867a40.856,40.856,0,0,0,6.207,20.854c2.9,4.528,5.143,8.032,9.217,9.234,7.883,2.326,17.9-5.018,20.995-11.14C951.552,233.792,954.186,213.847,947.9,203.984Z" transform="translate(-825.799 -193.213)" fill="#efb68f"/>
      <path id="Caminho_1193" data-name="Caminho 1193" d="M1022,275.086a11.071,11.071,0,0,1-4.28,7.091c-6.51,4.8-9.366-4.651-6.908-9.5C1013.738,266.9,1023.207,267.492,1022,275.086Z" transform="translate(-891.213 -240.046)" fill="#efb68f"/>
      <path id="Caminho_1194" data-name="Caminho 1194" d="M1021.1,369.661s41.143,1.064,37.794,51.184-4.586,45.17-4.586,45.17-12.215,45.834-17.732,56.515l-10.429-7.019s7.123-51.352,8.36-55.065c0,0-4.589-34.032-2.294-39.6C1032.217,420.845,1020.18,380.211,1021.1,369.661Z" transform="translate(-898.496 -306.124)" fill="#0b4870"/>
      <path id="Caminho_1195" data-name="Caminho 1195" d="M911.135,452.584" transform="translate(-826.479 -360.455)" fill="#0b4870"/>
      <path id="Caminho_1196" data-name="Caminho 1196" d="M1019.815,820.663s-.723,12.313-15.3,16.555c0,0-8.236-.965,1.782-14.5,0,0-12.137,2.715,4.494-8.014C1010.791,814.7,1018.456,815.139,1019.815,820.663Z" transform="translate(-885.573 -597.712)" fill="#efb68f"/>
      <path id="Caminho_1197" data-name="Caminho 1197" d="M938.071,369.661s-12.926,7.376-22.688,1.745c0,0-26.96,13.947-19.874,34.546,0,0,2.026,41.366,1.785,47.427l51.889-32.534s-3.847-28.945,12.8-41.543A42.044,42.044,0,0,0,938.071,369.661Z" transform="translate(-815.463 -306.124)" fill="#0e538c"/>
      <path id="Caminho_1198" data-name="Caminho 1198" d="M947.326,214.156l-5.25,12.777a25.5,25.5,0,0,0-9.894-21.753A34.073,34.073,0,0,1,915.2,216.165a32.282,32.282,0,0,1-9.581,1.064l-1.362,4.274s-13.781-27.991,11.541-34.694S949.326,198.56,947.326,214.156Z" transform="translate(-819.518 -185.395)" fill="#0b4870"/>
    </g>
    <g id="Grupo_410" data-name="Grupo 410" transform="translate(345.449 158.72)">
      <path id="Caminho_1199" data-name="Caminho 1199" d="M1128.91,235.106s.136,16.245,3.84,20.483c0,0,2.152-11.564.662-16.452S1128.91,235.106,1128.91,235.106Z" transform="translate(-1048.079 -220.728)" fill="#0b4870"/>
      <path id="Caminho_1200" data-name="Caminho 1200" d="M1248.82,213.669s11.833,14.919-2.694,52.234c.574-1.5,1.623-21.071,1.623-21.071Z" transform="translate(-1124.878 -206.721)" fill="#0b4870"/>
      <path id="Caminho_1201" data-name="Caminho 1201" d="M959.815,546.642l-6.911-2.473-3.62,6.751,7.57,3.949Z" transform="translate(-930.39 -423.261)" fill="#b97a59"/>
      <path id="Caminho_1202" data-name="Caminho 1202" d="M1035.341,390.635s-30.746,9.865-32.9,66.173c0,0-22.024-11.262-39.969-12.5l-5.5,10.553s34.261,26.039,55.024,29.145c0,0,15.114-11.149,19.213-44.836" transform="translate(-935.421 -322.667)" fill="#3a386e"/>
      <path id="Caminho_1203" data-name="Caminho 1203" d="M1035.341,390.635s-30.746,9.865-32.9,66.173c0,0-22.024-11.262-39.969-12.5l-5.5,10.553s34.261,26.039,55.024,29.145c0,0,15.114-11.149,19.213-44.836" transform="translate(-935.421 -322.667)" opacity="0.07"/>
      <path id="Caminho_1204" data-name="Caminho 1204" d="M917,509.219s1.316-15.627-3.62-15.627-1.317,4.937-1.317,4.937-3.62-8.886-12.835-7.569-5.266,15.8,14.151,25.012Z" transform="translate(-894.487 -388.311)" fill="#b97a59"/>
      <path id="Caminho_1205" data-name="Caminho 1205" d="M1157.746,385.575s-7.975,6.826-22.688,1.745c0,0-21.935,17.982-19.925,41.118s4.888,37.1-5.975,89.246c0,0,35.009,4.228,62.15-15.3,0,0,3.213-40.731,7.063-51.425S1188.548,398.262,1157.746,385.575Z" transform="translate(-1035.138 -319.352)" fill="#3a386e"/>
      <path id="Caminho_1206" data-name="Caminho 1206" d="M1186.242,277.41c1.294-2.76,4.263-8.406,10.215-10.345a10.346,10.346,0,0,1,9.878,1.572c.5,9.127-.548,19.172-1.3,29.977-.35,5.042.236,9.876-.365,14.488a74.859,74.859,0,0,1-22.834,2.485c.447-2.683,1.07-6.883,1.508-12.063C1184.56,289.152,1182.877,284.592,1186.242,277.41Z" transform="translate(-1082.757 -241.32)" fill="#aa6b4f"/>
      <path id="Caminho_1207" data-name="Caminho 1207" d="M1174.61,210.678c-7.333-10.808-25.138-10.626-33.119,1.162-7.318,10.775-3.836,35.89,2.965,43.193,12.052,12.942,24.895-1.16,28.361-7.453C1177.9,238.377,1180.768,219.781,1174.61,210.678Z" transform="translate(-1053.65 -199.585)" fill="#b97a59"/>
      <path id="Caminho_1208" data-name="Caminho 1208" d="M1249.433,289.123a11.283,11.283,0,0,1-3.746,7.073c-5.721,4.777-8.277-4.687-6.128-9.523C1242.116,280.91,1250.467,281.535,1249.433,289.123Z" transform="translate(-1120.08 -252.031)" fill="#b97a59"/>
      <path id="Caminho_1209" data-name="Caminho 1209" d="M1140.01,468.5" transform="translate(-1055.351 -373.682)" fill="#0b4870"/>
      <path id="Caminho_1210" data-name="Caminho 1210" d="M1166.941,385.575s-12.925,7.376-22.688,1.745c0,0-26.96,13.947-19.874,34.546,0,0,2.026,41.366,1.785,47.427l51.889-32.534s-3.847-28.945,12.8-41.543A42.045,42.045,0,0,0,1166.941,385.575Z" transform="translate(-1044.333 -319.352)" fill="#3a386e"/>
      <path id="Caminho_1211" data-name="Caminho 1211" d="M1083.08,566.753l-6.91-2.473-3.62,6.751,7.568,3.949Z" transform="translate(-1011.152 -436.438)" fill="#b97a59"/>
      <path id="Caminho_1212" data-name="Caminho 1212" d="M1158.6,410.363c-1.318-2.479-16.722,17.8-32.905,66.173,0,0-22.025-11.262-39.969-12.5l-5.5,10.553s34.261,26.039,55.024,29.145c0,0,14.882-9.282,25.936-43.418,0,0,15.952-37.9,1.518-48.992Z" transform="translate(-1016.179 -335.46)" fill="#3a386e"/>
      <path id="Caminho_1213" data-name="Caminho 1213" d="M1158.6,410.363c-1.318-2.479-16.722,17.8-32.905,66.173,0,0-22.025-11.262-39.969-12.5l-5.5,10.553s34.261,26.039,55.024,29.145c0,0,14.882-9.282,25.936-43.418,0,0,15.952-37.9,1.518-48.992Z" transform="translate(-1016.179 -335.46)" opacity="0.07"/>
      <path id="Caminho_1214" data-name="Caminho 1214" d="M1040.269,529.33s1.316-15.627-3.62-15.627-1.317,4.937-1.317,4.937-3.62-8.886-12.835-7.569-5.266,15.8,14.151,25.012Z" transform="translate(-975.25 -401.488)" fill="#b97a59"/>
      <path id="Caminho_1215" data-name="Caminho 1215" d="M1148,208.566a53.756,53.756,0,0,0,8.335,9.136c2.127,1.841,5.635,2.591,7.7,4.593,2.733,2.655,1.505,8.932,4.8,9.334,0,0-.383-8.588,5.85-7.3,0,0,8.384-34.463-22.732-30.491-31.778.828-21.429,24.164-21.429,24.164S1139.248,218.166,1148,208.566Z" transform="translate(-1048.076 -193.518)" fill="#0b4870"/>
    </g>
    <g id="Grupo_412" data-name="Grupo 412" transform="translate(99.395 251.496)">
      <path id="Caminho_1216" data-name="Caminho 1216" d="M471.964,694.833l1.441-4.284a17.918,17.918,0,0,1-3.359-10.214c0-5.967,2.881-.765,2.881-.765s-.9-7.938,1.261-10.625,1.8,6.178,1.8,6.178,10.8.315,7.383,8.119c0,0-1.981,6.12-4.141,8.263l-2.186,5.2Z" transform="translate(-370.343 -597.457)" fill="#f4b99f"/>
      <path id="Caminho_1217" data-name="Caminho 1217" d="M259.826,560.164H238.506a4.52,4.52,0,0,1-4.52-4.52V477.764a15.18,15.18,0,0,1,15.18-15.18h0a15.18,15.18,0,0,1,15.18,15.18v77.881A4.52,4.52,0,0,1,259.826,560.164Z" transform="translate(-215.678 -462.584)" fill="#0e507c"/>
      <path id="Caminho_1218" data-name="Caminho 1218" d="M327.124,661.02s11.018,3.808,15.743,15.262c2.9,15.633,14.207,34.916,15.1,37.433a120.018,120.018,0,0,0,19.354-26.1l8.909,3.084s-20.967,39.884-29.348,47.314L334.984,713.87Z" transform="translate(-276.702 -592.598)" fill="#3a386e"/>
      <path id="Caminho_1219" data-name="Caminho 1219" d="M327.124,661.02s11.018,3.808,15.743,15.262c2.9,15.633,14.207,34.916,15.1,37.433a120.018,120.018,0,0,0,19.354-26.1l8.909,3.084s-20.967,39.884-29.348,47.314L334.984,713.87Z" transform="translate(-276.702 -592.598)" opacity="0.07"/>
      <path id="Caminho_1220" data-name="Caminho 1220" d="M269.613,604.293s2.322,15.71,2.6,21.364c0,0,7.25,5.385,16.73,0V610.579Z" transform="translate(-239.021 -555.43)" fill="#e8ac97"/>
      <path id="Caminho_1221" data-name="Caminho 1221" d="M245.213,506.4s1.178-11.232,9.785-17.6c1.732-1.282,7.327-5.513,14.5-4.28a16.808,16.808,0,0,1,7.5,3.392c7.785,6.266,8.887,19.441,6.793,28.723-.41,1.818-4.52,19.862-15.452,20.638-8.688.617-15.285-8.485-17.05-10.922A33.753,33.753,0,0,1,245.213,506.4Z" transform="translate(-223.033 -476.811)" fill="#f4b99f"/>
      <path id="Caminho_1222" data-name="Caminho 1222" d="M243.626,549.77c-1.594-.853-4.446,1.456-4.9,4.622-.655,4.519,3.9,8.454,5.553,7.432C246.239,560.608,246.128,551.107,243.626,549.77Z" transform="translate(-218.739 -519.59)" fill="#f4b99f"/>
      <path id="Caminho_1223" data-name="Caminho 1223" d="M262.153,492.122s-7.485,14.52-16.863,16.356c0,0-.578-4.809-4.478-3.18,0,0-2.636-20.328,13.083-24.322,0,0,29.705-10.4,28.308,24.42C282.2,505.4,279.336,503.007,262.153,492.122Z" transform="translate(-220.041 -473.681)" fill="#0e538c"/>
      <path id="Caminho_1224" data-name="Caminho 1224" d="M256.893,554.565s-7.479,4.132-5.3,14.6,0,16.137,0,16.137,1.374-10.78-1.823-17.589,2.4-12.482,2.4-12.482Z" transform="translate(-225.37 -522.849)" fill="#0e538c"/>
      <path id="Caminho_1225" data-name="Caminho 1225" d="M225.863,653.476s9.712,10.661,18.63,2.329c2.176,3.194,9.028,7.833,11.613,13.717,2.33,5.3,6.269,14.265,6.438,25.317.13,8.5-2.107,9.441-4.478,23.814a162.872,162.872,0,0,0-2.057,22.741c-.321,9.872,3.554,35.817,6.541,51.976,0,0-40.323-1.349-56.42-12.436,0,0,3.608-50.544,0-69.166S189.827,663.085,225.863,653.476Z" transform="translate(-194.071 -587.655)" fill="#3a386e"/>
      <g id="Grupo_411" data-name="Grupo 411" transform="translate(11.654 196.033)">
        <path id="Caminho_1226" data-name="Caminho 1226" d="M214.689,1034.617l3.923,12.179,7.3-5.165-4.548-10.52Z" transform="translate(-214.689 -1031.11)" fill="#efb68f"/>
        <path id="Caminho_1227" data-name="Caminho 1227" d="M226.06,1066.343s-.484,12.257,10.356,17.3c0,0,6.409-.487-.144-14.488,0,0,9.095,3.386-2.776-8.207C233.5,1060.944,227.571,1060.94,226.06,1066.343Z" transform="translate(-222.137 -1050.658)" fill="#efb68f"/>
      </g>
      <path id="Caminho_1228" data-name="Caminho 1228" d="M194.976,685.361s-21.766,2.759-11.181,94.791l6.489,32.905,12.468-4.627-3.31-45.759s-4.77-27.349,3.31-36.554C202.752,726.117,204.738,689.286,194.976,685.361Z" transform="translate(-180.891 -608.545)" fill="#3a386e"/>
      <path id="Caminho_1229" data-name="Caminho 1229" d="M194.976,685.361s-21.766,2.759-11.181,94.791l6.489,32.905,12.468-4.627-4.607-33.578a73.452,73.452,0,0,1-.077-27.006c1.632-8.553,4.008-12.009,4.685-21.729a69.078,69.078,0,0,0-1.339-18.906C199.426,697.769,198.031,690.4,194.976,685.361Z" transform="translate(-180.891 -608.545)" opacity="0.07"/>
    </g>
  </g>
</svg>
