<svg xmlns="http://www.w3.org/2000/svg" width="417.417" height="351.366" viewBox="0 0 417.417 351.366">
  <g id="personal-text" transform="translate(-97.371 -148.689)">
    <path id="Caminho_1049" data-name="Caminho 1049" d="M173.657,428.3s-36.59-57.712,13.223-88.391,46.36-97.045,93.967-103.843,51.929-106.424,118.261-84.139,142.361,214.585,84.028,273.117C483.135,425.048,260.715,407.11,173.657,428.3Z" transform="translate(-35.658)" fill="#2a94f4" opacity="0.1"/>
    <ellipse id="Elipse_151" data-name="Elipse 151" cx="23.923" cy="3.933" rx="23.923" ry="3.933" transform="translate(414.042 492.189)" fill="#d3d3d3"/>
    <ellipse id="Elipse_152" data-name="Elipse 152" cx="62.922" cy="3.856" rx="62.922" ry="3.856" transform="translate(303.938 473.173)" fill="#d3d3d3"/>
    <ellipse id="Elipse_153" data-name="Elipse 153" cx="26.873" cy="2.622" rx="26.873" ry="2.622" transform="translate(222.777 491.526)" fill="#d3d3d3"/>
    <ellipse id="Elipse_154" data-name="Elipse 154" cx="33.888" cy="3.78" rx="33.888" ry="3.78" transform="translate(125.394 477.106)" fill="#d3d3d3"/>
    <ellipse id="Elipse_155" data-name="Elipse 155" cx="203.87" cy="21.163" rx="203.87" ry="21.163" transform="translate(97.371 416.948)" fill="#3a386e"/>
    <path id="Caminho_1050" data-name="Caminho 1050" d="M365.542,204.041H478.024a5.371,5.371,0,0,1,5.371,5.371v39.495a5.371,5.371,0,0,1-5.371,5.371h-7.741v17.536L448.8,254.279H365.542a5.371,5.371,0,0,1-5.371-5.371V209.412A5.371,5.371,0,0,1,365.542,204.041Z" transform="translate(-147.963 -31.165)" fill="#3a386e"/>
    <path id="Caminho_1051" data-name="Caminho 1051" d="M410.441,558.017H297.96a5.371,5.371,0,0,0-5.371,5.371v39.495a5.371,5.371,0,0,0,5.371,5.371H305.7V625.79l21.484-17.536h83.256a5.371,5.371,0,0,0,5.371-5.371V563.388A5.372,5.372,0,0,0,410.441,558.017Z" transform="translate(-109.912 -230.461)" fill="#3a386e"/>
    <path id="Caminho_1052" data-name="Caminho 1052" d="M410.441,387.93H297.96a5.371,5.371,0,0,0-5.371,5.371V432.8a5.371,5.371,0,0,0,5.371,5.371H305.7V455.7l21.484-17.536h83.256a5.371,5.371,0,0,0,5.371-5.371V393.3A5.372,5.372,0,0,0,410.441,387.93Z" transform="translate(-109.912 -134.698)" fill="#3a386e"/>
    <path id="Caminho_1053" data-name="Caminho 1053" d="M445.854,244.544c0,1.047.613,1.9,1.369,1.9h72.9c.756,0,1.369-.849,1.369-1.9h0c0-1.047-.613-1.9-1.369-1.9h-72.9c-.756,0-1.369.849-1.369,1.9Z" transform="translate(-196.204 -52.901)" fill="#fff" opacity="0.4"/>
    <path id="Caminho_1054" data-name="Caminho 1054" d="M379.267,227.71a1.9,1.9,0,0,0,1.9,1.9H482.106a1.9,1.9,0,0,0,1.9-1.9h0a1.9,1.9,0,0,0-1.9-1.9H381.163a1.9,1.9,0,0,0-1.9,1.9Z" transform="translate(-158.714 -43.423)" fill="#fff" opacity="0.4"/>
    <circle id="Elipse_156" data-name="Elipse 156" cx="7.487" cy="7.487" r="7.487" transform="translate(310.314 198.356)" fill="#fff" opacity="0.4"/>
    <path id="Caminho_1055" data-name="Caminho 1055" d="M391.442,600.689c0,1.047-.613,1.9-1.369,1.9h-72.9c-.756,0-1.369-.849-1.369-1.9h0c0-1.047.613-1.9,1.369-1.9h72.9c.756,0,1.369.849,1.369,1.9Z" transform="translate(-122.983 -253.419)" fill="#fff" opacity="0.4"/>
    <path id="Caminho_1056" data-name="Caminho 1056" d="M420.539,583.855a1.9,1.9,0,0,1-1.9,1.9H317.7a1.9,1.9,0,0,1-1.9-1.9h0a1.9,1.9,0,0,1,1.9-1.9H418.643a1.9,1.9,0,0,1,1.9,1.9Z" transform="translate(-122.983 -243.941)" fill="#fff" opacity="0.4"/>
    <circle id="Elipse_157" data-name="Elipse 157" cx="7.487" cy="7.487" r="7.487" transform="translate(192.821 353.983)" fill="#fff" opacity="0.4"/>
    <path id="Caminho_1057" data-name="Caminho 1057" d="M499.166,793.831s-20.479-7.572-99.571,0-254.056,8.57-254.056,8.57-45.384-3.6-48.168-13.662c0,0,129.744-11.1,179.152-9.807s142.287-7.485,142.287-7.485,74.753,5.18,83.266,13.635C502.077,785.082,511.218,790.217,499.166,793.831Z" transform="translate(0 -350.627)" fill="#f2f2f2"/>
    <path id="Caminho_1058" data-name="Caminho 1058" d="M391.442,427.831c0,1.047-.613,1.9-1.369,1.9h-72.9c-.756,0-1.369-.849-1.369-1.9h0c0-1.047.613-1.9,1.369-1.9h72.9c.756,0,1.369.849,1.369,1.9Z" transform="translate(-122.983 -156.096)" fill="#fff"/>
    <path id="Caminho_1059" data-name="Caminho 1059" d="M420.539,411a1.9,1.9,0,0,1-1.9,1.9H317.7a1.9,1.9,0,0,1-1.9-1.9h0a1.9,1.9,0,0,1,1.9-1.9H418.643a1.9,1.9,0,0,1,1.9,1.9Z" transform="translate(-122.983 -146.618)" fill="#fff"/>
    <circle id="Elipse_158" data-name="Elipse 158" cx="7.487" cy="7.487" r="7.487" transform="translate(192.821 278.448)" fill="#fff"/>
    <g id="Grupo_373" data-name="Grupo 373" transform="translate(431.391 358.116)">
      <path id="Caminho_1060" data-name="Caminho 1060" d="M910.939,662.046s-9.448,19.205,4.472,22.475,14.322-11.216,12.9-17.186,20.663-22.021,2.444-36.22S898.335,654.72,910.939,662.046Z" transform="translate(-886.748 -627.953)" fill="#2a94f4" opacity="0.4"/>
      <path id="Caminho_1061" data-name="Caminho 1061" d="M868.359,701.781s-.445,12.638,7.85,11.032,5.006-9.511,2.792-12.384,5.808-16.869-7.448-20.114S859.792,700.882,868.359,701.781Z" transform="translate(-861.76 -657.263)" fill="#2a94f4" opacity="0.4"/>
      <g id="Grupo_368" data-name="Grupo 368" transform="translate(7.803 32.555)">
        <rect id="Retângulo_164" data-name="Retângulo 164" width="0.437" height="34.068" transform="translate(0 0.131) rotate(-17.524)" fill="#0b4870"/>
      </g>
      <g id="Grupo_369" data-name="Grupo 369" transform="translate(6.768 39.139)">
        <path id="Caminho_1062" data-name="Caminho 1062" d="M882.417,723.367l-5.168-2.846.211-.382,4.735,2.608,2.081-5.224.406.161Z" transform="translate(-877.249 -717.521)" fill="#0b4870"/>
      </g>
      <g id="Grupo_370" data-name="Grupo 370" transform="translate(26.315 14.152)">
        <rect id="Retângulo_165" data-name="Retângulo 165" width="51.622" height="0.437" transform="translate(0 50.873) rotate(-80.218)" fill="#0b4870"/>
      </g>
      <g id="Grupo_371" data-name="Grupo 371" transform="translate(28.337 20.078)">
        <path id="Caminho_1063" data-name="Caminho 1063" d="M931.406,680.639l-4.8-6.477.351-.26,4.557,6.152,7.12-4.5.233.37Z" transform="translate(-926.608 -673.901)" fill="#0b4870"/>
      </g>
      <g id="Grupo_372" data-name="Grupo 372" transform="translate(26.342 30.746)">
        <path id="Caminho_1064" data-name="Caminho 1064" d="M926.842,705.05l-4.8-6.477.351-.26,4.557,6.151,7.12-4.5.233.369Z" transform="translate(-922.043 -698.313)" fill="#0b4870"/>
      </g>
    </g>
    <path id="Caminho_1065" data-name="Caminho 1065" d="M826.545,730.81s7.418,8.538,8.78,9.9a9.3,9.3,0,0,0,4.25,1.961,6.084,6.084,0,0,1,1.665,1.063,1.725,1.725,0,0,1,.621,1.419c-.176,9.612-8.541,16.349-8.987,15.786-.8-1.015-.191-3.83,1.409-5.686a7.275,7.275,0,0,0,1.282-6.863h0a11.412,11.412,0,0,0-3.036-4.931l-6.45-6.037Z" transform="translate(-410.28 -327.748)" fill="#b97a59"/>
    <path id="Caminho_1066" data-name="Caminho 1066" d="M614.8,753.227l-5.9,9.86a14.712,14.712,0,0,0-1.871,10.045s0,0,0,0a3.212,3.212,0,0,1-3.082,3.769c-6.353.158-18.647.387-19-.192-1.806-2.948,5.969-4.268,12.076-6.337,4.118-1.4,9.187-12.544,12.4-21.317l4.815,3.05A1.278,1.278,0,0,1,614.8,753.227Z" transform="translate(-274.367 -338.022)" fill="#b97a59"/>
    <path id="Caminho_1067" data-name="Caminho 1067" d="M597.143,803.943a40.518,40.518,0,0,1-7.733-1.086,1.607,1.607,0,0,0-.847.06c-2.847,1.011-4.574,2.4-3.616,3.966.385.628,14.847.3,20.495.153a1.928,1.928,0,0,0,1.844-2.268l-.369-2.12A39.641,39.641,0,0,1,597.143,803.943Z" transform="translate(-274.367 -368.196)" fill="#0e538c"/>
    <path id="Caminho_1068" data-name="Caminho 1068" d="M690.732,503.513c6.524-1.306,14.316,4.037,16,12.434.966,4.825,2.389,22.8,2.188,37.472a16,16,0,0,0,7.436,13.974,13.745,13.745,0,0,1,2.126,1.572c3.219,2.94,18.19,21.706,27.575,34.438.293,1.99,0,4.744-1.114,6.053-12.011-9.412-32.379-27.134-35.8-30.26a71.858,71.858,0,0,1-5.757-5.772c-7.379-4.945-19.354-42.7-20.914-50.491C680.784,514.536,684.208,504.819,690.732,503.513Z" transform="translate(-329.183 -199.664)" fill="#3a386e"/>
    <path id="Caminho_1069" data-name="Caminho 1069" d="M690.732,503.513c6.524-1.306,14.316,4.037,16,12.434.966,4.825,2.389,22.8,2.188,37.472a16,16,0,0,0,7.436,13.974,13.745,13.745,0,0,1,2.126,1.572c3.219,2.94,18.19,21.706,27.575,34.438.293,1.99,0,4.744-1.114,6.053-12.011-9.412-32.379-27.134-35.8-30.26a71.858,71.858,0,0,1-5.757-5.772c-7.379-4.945-19.354-42.7-20.914-50.491C680.784,514.536,684.208,504.819,690.732,503.513Z" transform="translate(-329.183 -199.664)" opacity="0.1"/>
    <ellipse id="Elipse_159" data-name="Elipse 159" cx="10.148" cy="13.092" rx="10.148" ry="13.092" transform="translate(355.471 236.313)" fill="#0e538c"/>
    <path id="Caminho_1070" data-name="Caminho 1070" d="M716.811,364.517a14.089,14.089,0,0,1,27.3-4.568,4.987,4.987,0,0,0,4.754,3.218,12.4,12.4,0,0,1,2.68.254,12.532,12.532,0,0,1,4.558,22.652,6.665,6.665,0,0,0-2.7,4.684A16.4,16.4,0,1,1,724.9,377.575,14.081,14.081,0,0,1,716.811,364.517Z" transform="translate(-348.757 -113.761)" fill="#0e538c"/>
    <path id="Caminho_1071" data-name="Caminho 1071" d="M699.941,335.278s-5.71,3.593-5.016,8.435c0,0-3.05-2.16-3.74-9.6C690.708,328.959,699.941,335.278,699.941,335.278Z" transform="translate(-334.322 -103.259)" fill="#0e538c"/>
    <path id="Caminho_1072" data-name="Caminho 1072" d="M688.23,423.561c-2.285-6.885-6.881-21.464-6.487-26.229a5.875,5.875,0,0,1,5.866-5.391h19.874a6.083,6.083,0,0,1,6.087,5.906c.168,5.756-2.484,18.857-3.976,25.713H688.23Z" transform="translate(-329.002 -136.957)" fill="#b97a59"/>
    <g id="Grupo_374" data-name="Grupo 374" transform="translate(330.007 251.886)">
      <path id="Caminho_1073" data-name="Caminho 1073" d="M658.585,393.728c.043.523.059.938.056,1.4s-.028.9-.06,1.351a17.986,17.986,0,0,1-.439,2.721,14.2,14.2,0,0,1-.981,2.772,10.017,10.017,0,0,1-1.923,2.765,7.353,7.353,0,0,1-3.521,1.991,7.73,7.73,0,0,1-3.932-.155,7.508,7.508,0,0,1-.822-.279l-.4-.152c-.128-.054-.243-.115-.365-.173l-.719-.357-.653-.391c-.457-.268-.79-.531-1.178-.8-.372-.273-.738-.559-1.1-.85a21.791,21.791,0,0,1-3.838-4.049,29.519,29.519,0,0,1-2.693-4.595c-.366-.75-.706-1.473-1.043-2.132a12.818,12.818,0,0,0-1-1.739,4.569,4.569,0,0,0-2.581-1.9l-.105-.033a2.188,2.188,0,0,1,.952-4.257,8.846,8.846,0,0,1,3.06.972,9.39,9.39,0,0,1,2.54,2.041,27.513,27.513,0,0,1,2.976,4.469,28.944,28.944,0,0,0,2.466,3.667,18.333,18.333,0,0,0,2.98,2.888c.28.208.562.414.852.611s.606.411.859.54l.393.234.377.177c.062.029.125.065.185.089l.173.058a2.288,2.288,0,0,0,.331.111,1.664,1.664,0,0,0,.886.063,1.583,1.583,0,0,0,.649-.413,5.635,5.635,0,0,0,.9-1.182,14.656,14.656,0,0,0,.869-1.732c.27-.634.535-1.305.774-2,.13-.345.235-.7.361-1.05s.237-.733.35-1.02l.119-.3a2.2,2.2,0,0,1,4.241.633Z" transform="translate(-629.748 -384.85)" fill="#b97a59"/>
    </g>
    <path id="Caminho_1074" data-name="Caminho 1074" d="M639.53,612.7a1.03,1.03,0,0,1-.168-1.014c4.969-13.753,11.637-31.174,13.059-34.465q.245-.565.515-1.1c2.427-17.392,13.589-52.826,15.327-59.1,2.285-8.253,10.2-15.81,16.608-14.035s11.113,10.564,10.691,18.676c-.279,5.353-14.054,29.794-25.893,46.9a30.328,30.328,0,0,0-4.819,12.046,38.477,38.477,0,0,1-2.309,8.132c-1.4,3.239-9.611,15.6-16.947,26.085a1.028,1.028,0,0,1-.938.444A7.568,7.568,0,0,1,639.53,612.7Z" transform="translate(-305.117 -199.327)" fill="#3a386e"/>
    <path id="Caminho_1075" data-name="Caminho 1075" d="M639.53,612.7a1.03,1.03,0,0,1-.168-1.014c4.969-13.753,11.637-31.174,13.059-34.465q.245-.565.515-1.1c2.427-17.392,13.589-52.826,15.327-59.1,2.285-8.253,10.2-15.81,16.608-14.035s11.113,10.564,10.691,18.676c-.279,5.353-14.054,29.794-25.893,46.9a30.328,30.328,0,0,0-4.819,12.046,38.477,38.477,0,0,1-2.309,8.132c-1.4,3.239-9.611,15.6-16.947,26.085a1.028,1.028,0,0,1-.938.444A7.568,7.568,0,0,1,639.53,612.7Z" transform="translate(-305.117 -199.327)" opacity="0.04"/>
    <path id="Caminho_1076" data-name="Caminho 1076" d="M684.534,411.817c.961,3.4,1.77,6.818,2.375,9.59a18.754,18.754,0,0,1-1.021,11.214c-2.541,6.1-4.553,15.871-3.954,19.746C702.84,458.292,717.3,447.8,717.3,447.8l-5.532-15.528a18.891,18.891,0,0,1-.9-9.009c1-7.044,2.755-20.312,2.593-25.944a5.556,5.556,0,0,0-5.565-5.394h-2.947a7.919,7.919,0,0,1-14.393,0h-2.767a5.785,5.785,0,0,0-5.954,4.333C680.44,401.01,684.534,411.817,684.534,411.817Z" transform="translate(-328.901 -136.945)" fill="#3a386e"/>
    <g id="Grupo_375" data-name="Grupo 375" transform="translate(365.62 245.54)">
      <path id="Caminho_1077" data-name="Caminho 1077" d="M711.245,381.14l9.016-.947-2.853-9.866-5.831.722Z" transform="translate(-711.245 -370.327)" fill="#b97a59"/>
    </g>
    <path id="Caminho_1078" data-name="Caminho 1078" d="M711.719,371.049l5.831-.722.891,3.08c-1.305,1.472-2.983,4.651-5.105,4.651a3.374,3.374,0,0,1-1.838-.54Z" transform="translate(-345.768 -124.788)" fill="#a86a4f"/>
    <path id="Caminho_1079" data-name="Caminho 1079" d="M704.679,358.4c1.98,0,4.122-.991,7.072-3.568a8.946,8.946,0,0,0,2.949-5.8v-9.641H699.857a27.465,27.465,0,0,0-.033,10.2C700.635,353.395,703.122,358.4,704.679,358.4Z" transform="translate(-338.929 -107.366)" fill="#b97a59"/>
    <path id="Caminho_1080" data-name="Caminho 1080" d="M728.714,352.886c0,1.881.9,3.406,2.011,3.406s2.336-2.465,2.336-4.347a2.2,2.2,0,0,0-2.336-2.465C729.615,349.48,728.714,351.005,728.714,352.886Z" transform="translate(-355.461 -113.05)" fill="#b97a59"/>
    <path id="Caminho_1081" data-name="Caminho 1081" d="M711.945,332.935a5.45,5.45,0,0,0-5.452-5.45l-5.01,0a8.183,8.183,0,0,1-4.041-1.066,3.974,3.974,0,0,0-5.208.967c-1.3,1.768-1.867,4.136,1.438,6.328,1.643,1.09,4.045-.118,5.646.406.1,0,.187-.02.289-.02h4.416a2.8,2.8,0,0,1,2.753,2.788,1.8,1.8,0,0,0,1.8,1.748h.2l.707-2.266,2.465,3.324v-6.762Z" transform="translate(-334.345 -99.749)" fill="#0e538c"/>
    <path id="Caminho_1082" data-name="Caminho 1082" d="M611.07,407.242s3.168,4.159,2.219,5.547-1.84,2.146-3.912.84a17.743,17.743,0,0,1-5.289-6.016,13.615,13.615,0,0,1-1.056-6.32c.9-1.616,2.336,2.074,3.12,3.827s1.844,3.654,2.581,3.039-1.018-3.86-.407-4.845S611.07,407.242,611.07,407.242Z" transform="translate(-284.653 -141.996)" fill="#b97a59"/>
    <path id="Caminho_1083" data-name="Caminho 1083" d="M702.947,333.751c.5,2.2-.237,3.407,6.982,6.845s9.5,1.969,11.759,5.67c0,0-.986-6.131-4.973-8.235s-10.9-3.479-13.12-8.352C703.6,329.679,702.607,332.246,702.947,333.751Z" transform="translate(-340.913 -101.902)" fill="#0e538c"/>
    <g id="Grupo_376" data-name="Grupo 376" transform="translate(323.408 258.417)">
      <path id="Caminho_1084" data-name="Caminho 1084" d="M648.7,426.37c-9.147,0-20.055-3.873-32.6-11.592a3.059,3.059,0,0,1,3.207-5.21c16.08,9.9,29.239,12.977,38.053,8.908,9.626-4.444,11.519-15.974,11.537-16.09a3.059,3.059,0,0,1,6.045.939c-.094.606-2.447,14.9-15.017,20.706A26.481,26.481,0,0,1,648.7,426.37Z" transform="translate(-614.645 -399.796)" fill="#b97a59"/>
    </g>
    <path id="Caminho_1085" data-name="Caminho 1085" d="M697.51,337.94s-.274,7.419-6.757,10.982c0,0,2.857-5.607,2.663-9.273S697.938,335.407,697.51,337.94Z" transform="translate(-334.088 -105.681)" fill="#0e538c"/>
    <path id="Caminho_1086" data-name="Caminho 1086" d="M852.893,763.117a1.322,1.322,0,0,0-.548-1.633c-.459-.273-1.691-1.032-2.616-1.6a.633.633,0,0,0-.96.486c-.6,5.309-3.008,10.119-7.523,12.414-1.179,1.572-1.345,4.26-.71,5.063.149.188,2.264-.51,4.038-2.542C852.452,766.279,852.893,763.117,852.893,763.117Z" transform="translate(-418.214 -344.063)" fill="#0e538c"/>
    <g id="Grupo_378" data-name="Grupo 378" transform="translate(316.02 246.625)">
      <g id="Grupo_377" data-name="Grupo 377" transform="translate(0 0)">
        <path id="Caminho_1087" data-name="Caminho 1087" d="M612.671,396.333a1.671,1.671,0,0,1-.022,1.37,3.3,3.3,0,0,1-1.664,1.059c-1.737.669-3.477,1.488-5.222,1.993a44.177,44.177,0,0,1-2.384-6.961q-1.168-3.634-2.208-7.254-1-3.492-1.891-6.977a35.788,35.788,0,0,1-1.541-6.624c.849-.363,2.525.147,3.391.255l3.908.486a2.536,2.536,0,0,1,1,.26,1.547,1.547,0,0,1,.582.987Q609.59,385.436,612.671,396.333Z" transform="translate(-597.738 -372.81)" fill="#2a94f4"/>
        <path id="Caminho_1088" data-name="Caminho 1088" d="M614.285,397.27a1.773,1.773,0,0,1,.037,1.169,1.947,1.947,0,0,1-1.084.839,35.417,35.417,0,0,1-3.451,1.5,48.878,48.878,0,0,1-1.93-6.055q-.967-3.194-1.855-6.408-.863-3.119-1.654-6.261a42.986,42.986,0,0,1-1.417-6.031c.579-.287,1.782.257,2.395.4l2.759.629a1.638,1.638,0,0,1,.708.282,1.724,1.724,0,0,1,.45.915Q611.761,387.749,614.285,397.27Z" transform="translate(-600.662 -374.573)" fill="#d3d3d3"/>
      </g>
    </g>
    <path id="Caminho_1089" data-name="Caminho 1089" d="M614.421,385.023s5.436,1.432,6.423-.081,1.372-2.711-.777-4.231a19.076,19.076,0,0,0-8.153-2.774c-2.33-.195-6.372,1.127-6.711,1.555-1.236,1.556,3.022,1.465,5.085,1.522s4.389.326,4.081,1.311-4.253.579-4.979,1.592S614.421,385.023,614.421,385.023Z" transform="translate(-285.796 -129.061)" fill="#b97a59"/>
    <path id="Caminho_1090" data-name="Caminho 1090" d="M816.917,278.241a5.137,5.137,0,0,1-5.137,5.137H750.854a5.137,5.137,0,0,1-5.137-5.137h0a5.137,5.137,0,0,1,5.137-5.137H811.78a5.137,5.137,0,0,1,5.138,5.137Z" transform="translate(-365.034 -70.049)" fill="#2a94f4" opacity="0.1"/>
    <path id="Caminho_1091" data-name="Caminho 1091" d="M213.917,536.406a5.137,5.137,0,0,1-5.137,5.137H147.854a5.137,5.137,0,0,1-5.137-5.137h0a5.137,5.137,0,0,1,5.137-5.137H208.78a5.137,5.137,0,0,1,5.137,5.137Z" transform="translate(-25.531 -215.402)" fill="#2a94f4" opacity="0.1"/>
    <path id="Caminho_1092" data-name="Caminho 1092" d="M960.871,507.856a5.137,5.137,0,0,1-5.137,5.137H894.807a5.137,5.137,0,0,1-5.137-5.137h0a5.137,5.137,0,0,1,5.137-5.137h60.926a5.139,5.139,0,0,1,5.138,5.137Z" transform="translate(-446.083 -199.327)" fill="#2a94f4" opacity="0.1"/>
    <g id="Grupo_379" data-name="Grupo 379" transform="translate(159.262 441.381)">
      <path id="Caminho_1093" data-name="Caminho 1093" d="M239.045,821.559l-.04-1.31c.286-.009,28.847-.884,50.442-1.748l.052,1.31C267.9,820.675,239.331,821.55,239.045,821.559Z" transform="translate(-239.005 -818.501)" fill="#3a386e"/>
    </g>
    <g id="Grupo_380" data-name="Grupo 380" transform="translate(239.398 439.841)">
      <rect id="Retângulo_166" data-name="Retângulo 166" width="37.109" height="1.311" transform="translate(0 1.533) rotate(-2.367)" fill="#3a386e"/>
    </g>
    <g id="Grupo_381" data-name="Grupo 381" transform="translate(362.307 432.584)">
      <path id="Caminho_1094" data-name="Caminho 1094" d="M703.7,802.737l-.037-1.31c.189-.006,18.97-.556,29.269-3.057l.309,1.274C722.81,802.178,703.892,802.732,703.7,802.737Z" transform="translate(-703.665 -798.37)" fill="#3a386e"/>
    </g>
    <g id="Grupo_382" data-name="Grupo 382" transform="translate(447.611 431.194)">
      <path id="Caminho_1095" data-name="Caminho 1095" d="M932.33,799.4c-.227-.036-22.77-3.623-33.345-2.767l-.106-1.307c10.733-.87,32.727,2.63,33.658,2.779Z" transform="translate(-898.879 -795.188)" fill="#3a386e"/>
    </g>
  </g>
</svg>
