<svg xmlns="http://www.w3.org/2000/svg" width="463.424" height="407.916" viewBox="0 0 463.424 407.916">
  <g id="remote-team" transform="translate(-30.903 -54.448)">
    <path id="Caminho_173" data-name="Caminho 173" d="M172.063,76.028c53.019-34.941,127.527-27.818,174.4,24.044,25.627,28.366,36.036,67.385,62.637,95.143,29.949,31.227,65.742,61.6,79.316,104.213,14.427,45.289,1.765,97.212-30.5,131.849-39.262,42.123-96.969,29.462-151.51,28.792C83.068,457.27-82.929,308.194,128.3,124.422,145.949,108.96,154.532,87.533,172.063,76.028Z" transform="translate(0 0)" fill="#cce9ff"/>
    <path id="Caminho_174" data-name="Caminho 174" d="M702.944,310.8c-1.157.365-7.244,4.87-7.244,4.87l-7.183,4.626-.3-2.618s-2.922-5.844-6.513-5.6c0,0,4.322,5.3,4.87,8.826s.791,5.965.791,5.965h0l-4.748,4.687,7.913,10.166,18.566-13.879S704.1,310.431,702.944,310.8Z" transform="translate(-254.644 -100.302)" fill="#dba17b"/>
    <path id="Caminho_175" data-name="Caminho 175" d="M710.336,310.8l-3.226,25.871-12.9.3L691.1,310.8Z" transform="translate(-258.322 -100.305)" fill="#3a386e"/>
    <path id="Caminho_176" data-name="Caminho 176" d="M711.649,307.174H687.3v-2.557h2.313V300.6l19.784,2.922.061,1.461h2.191v2.5" transform="translate(-256.835 -96.314)" fill="#0e538c"/>
    <path id="Caminho_177" data-name="Caminho 177" d="M715.923,331.649c4.5.426-1.157-11.931-1.157-11.931s-12.174-.852-12.3-.183-.061,1.765.913,2.009,8.583,1.278,8.583,1.278-7.913.365-7.792,1.217c.244,1.278,1.157,1.4,3.531,1.765,2.009.3,6.392.426,6.392.426s-8.339.183-8.157.73-.365,2.252,2.5,1.826C714.949,327.935,715.923,331.649,715.923,331.649Z" transform="translate(-262.753 -103.623)" fill="#dba17b"/>
    <path id="Caminho_178" data-name="Caminho 178" d="M613.784,421.3s12.357,87.351,6.635,105.917a246.08,246.08,0,0,0-7.974,35.306l-28.731-8.4s9.5-43.706,10.957-52.106c1.4-8.4-13.27-76.638-13.27-76.638Z" transform="translate(-215.399 -143.542)" fill="#0b4870"/>
    <path id="Caminho_179" data-name="Caminho 179" d="M585.928,425.44,572.353,565.871H544.9s8.887-148.649,7.3-149.928C550.622,414.787,585.928,425.44,585.928,425.44Z" transform="translate(-201.117 -141.412)" fill="#0b4870"/>
    <path id="Caminho_180" data-name="Caminho 180" d="M625.69,291s2.922,47.115,9.192,45.41c6.331-1.644,23.253-13.94,23.253-13.94l10.287,11.322s-31.349,34.88-44.254,20.636C611.324,340.124,625.69,291,625.69,291Z" transform="translate(-230.044 -92.558)" fill="#0b4870"/>
    <path id="Caminho_181" data-name="Caminho 181" d="M602.505,689.631l1.887-9.5L584.365,672.1,581.2,686.222l1.1.182c4.5,2.07,26.358,12.174,29.766,12.479C615.836,699.249,602.505,689.631,602.505,689.631Z" transform="translate(-215.32 -241.675)" fill="#0b4870"/>
    <g id="Grupo_17" data-name="Grupo 17" transform="translate(327.756 309.716)">
      <path id="Caminho_182" data-name="Caminho 182" d="M530.4,473.8l2.191,3.165a32.846,32.846,0,0,0,3.591,5.357,8.788,8.788,0,0,0,2.374,2.13,16.254,16.254,0,0,0,3.591,1.765,1.239,1.239,0,0,1,.426,2.313c-1.035.426-4.322-.183-7.487-2.618-3.165-2.374-1.7,3.652-1.157,5.9.487,2.191,1.7,9.131,1.157,9.861-.791,1.035-2.07.3-2.5-1.887-.426-2.252-2.252-8.826-3.409-8.461-1.157.3,1.522,11.566,1.522,11.566s.974,2.313-.365,2.739c-2.374.73-4.383-11.444-4.5-12.6-.122-.791-1.4-.487-1.217.365.183.913,2.922,11.14.548,11.931-1.887.609-1.7-9.983-3.47-11.809s.73,8.035-1.1,8.522c-.67.183-1.217.244-1.826-5.661-.609-6.026.365-22.523.365-22.523l11.444.122" transform="translate(-518.571 -473.8)" fill="#ffe3ca"/>
    </g>
    <path id="Caminho_183" data-name="Caminho 183" d="M589.41,234.324c-.244-1.887.73-9.74.73-9.74s7.183-.548,7.852-7.609c.67-7.122.73-23.557.73-23.557L585.879,186.6l-14.731,10.409L567.8,204.8l4.383,18.566v9.313Z" transform="translate(-210.077 -51.708)" fill="#dba17b"/>
    <path id="Caminho_184" data-name="Caminho 184" d="M598.513,246.77a17.969,17.969,0,0,1-9.313-3.47s1.948,5.3,9.131,5.235Z" transform="translate(-218.451 -73.894)" fill="#c68c6b"/>
    <path id="Caminho_185" data-name="Caminho 185" d="M562.988,208.235a55.989,55.989,0,0,1,3.1,10.653c1.035,1.948,1.4-4.261,1.4-4.261s.913-5.965.061-8.279c0,0-3.652,1.157-4.444-5.357-.426-3.226,4.444-4.748,5.783-.852l3.044.3s.243-12.174,7.244-9.922c0,0,5.052,3.1,8.1,1.217s2.8-2.557,2.8-2.557,1.461,3.226,5.357,1.1,4.383-5.844,3.044-7.609c-.791-1.035-1.522-2.191-2.8-2.435a3.723,3.723,0,0,0-3.47,1.278,3.312,3.312,0,0,0-1.157-4.444,5.468,5.468,0,0,0-4.87-.243,14.9,14.9,0,0,0-4.2,2.8,6.18,6.18,0,0,0-11.931.974,5.356,5.356,0,0,0-6.391-1.217,7.578,7.578,0,0,0-3.9,5.539,12.23,12.23,0,0,0,.974,6.879,4.015,4.015,0,0,0-4.992,1.278,5.42,5.42,0,0,0-.3,5.357,8.624,8.624,0,0,0,3.957,3.835,3.535,3.535,0,0,0-.852,4.322,3.485,3.485,0,0,0,4.078,1.583" transform="translate(-205.022 -47.351)" fill="#0e538c"/>
    <path id="Caminho_186" data-name="Caminho 186" d="M527.8,282.519s4.931-22.705,28.732-20.331l21.792,2.191a22.972,22.972,0,0,1,12.844,24.166c-2.07,17.836-3.1,34.149-2.557,37.254.548,3.165,5.783,31.227,4.2,33.175-15.705,19.114-55.82-11.383-55.82-11.383Z" transform="translate(-194.426 -81.216)" fill="#3a386e"/>
    <path id="Caminho_187" data-name="Caminho 187" d="M560.836,262.161,555.3,394.8l-16.5-8.948,1.7-117.665S544.948,260.578,560.836,262.161Z" transform="translate(-198.73 -81.189)" fill="#0e538c"/>
    <path id="Caminho_188" data-name="Caminho 188" d="M518.5,395.883l5.661-110.848A32.867,32.867,0,0,1,534.57,268.6V397.344Z" transform="translate(-190.787 -83.793)" fill="#0e538c"/>
    <path id="Caminho_189" data-name="Caminho 189" d="M603.3,264.843s14.853,7.366,14.183,32.262c-.73,24.9,8.948,95.265,8.948,95.265l12.418-2.5s-14.366-66.716-14.975-78.4c-.609-11.931.426-28.792-7.609-40.419C610.483,262.713,603.3,264.843,603.3,264.843Z" transform="translate(-223.968 -82.228)" fill="#0e538c"/>
    <path id="Caminho_190" data-name="Caminho 190" d="M571.467,262.3s-4.87,10.957-4.383,14.914c.487,4.018,2.191,12.418,2.191,12.418s-3.591,2.191-3.287,4.078c.244,1.887,3.1,31.714,3.1,31.714Z" transform="translate(-209.361 -81.328)" fill="#0b4870"/>
    <g id="Grupo_18" data-name="Grupo 18" transform="translate(343.783 207.999)">
      <path id="Caminho_191" data-name="Caminho 191" d="M544.9,412.313c1.522-26.784,1.157-78.768,2.678-105.613" transform="translate(-544.9 -306.7)" fill="#0b4870"/>
    </g>
    <path id="Caminho_192" data-name="Caminho 192" d="M605.953,667.962c-.244-.122,5.052-20.149,5.052-20.149L593.413,642.7,589.7,661.449Z" transform="translate(-218.646 -230.171)" fill="#dba17b"/>
    <rect id="Retângulo_7" data-name="Retângulo 7" width="20.027" height="15.705" transform="translate(346.766 424.52)" fill="#dba17b"/>
    <path id="Caminho_193" data-name="Caminho 193" d="M570.836,696.1l-1.826-9.5H547.4l2.252,14,1.157.061c4.931.243,28.975,1.522,32.262.548C586.845,700.053,570.836,696.1,570.836,696.1Z" transform="translate(-202.095 -247.349)" fill="#0b4870"/>
    <g id="Grupo_19" data-name="Grupo 19" transform="translate(154.167 140.614)">
      <path id="Caminho_194" data-name="Caminho 194" d="M278.75,196l5.113,17.166a6.528,6.528,0,0,1,.426,2.374c-.061,2.435-2.313,4.322-4.687,4.748a15.864,15.864,0,0,1-7.122-.852c-.609,2.435-3.531,3.47-6.026,3.957a55.124,55.124,0,0,1-33.054-4.139,91.618,91.618,0,0,0,10.653-20.392c8.7.365,17.409.791,26.114,1.157a12.793,12.793,0,0,0,4.565-.365,4.145,4.145,0,0,0,2.861-3.287" transform="translate(-233.4 -196)" fill="#0e538c"/>
    </g>
    <path id="Caminho_195" data-name="Caminho 195" d="M120.96,309.246l-2.557-2.983a33.392,33.392,0,0,1-4.444-4.931,10.277,10.277,0,0,1-1.522-2.922,13.233,13.233,0,0,1-.852-4.018,1.26,1.26,0,0,0-2.191-.974c-.73.913-.852,4.383.73,8.1s-4.078.791-6.148-.3c-2.07-1.035-8.644-3.957-9.5-3.591-1.217.548-.852,1.948,1.278,2.983s8.157,4.444,7.609,5.478c-.609,1.035-11.079-4.383-11.079-4.383s-2.07-1.522-2.8-.3c-1.339,2.191,10.287,7.183,11.383,7.609.791.3.183,1.522-.67,1.1-.852-.365-10.348-5.661-11.748-3.47-1.035,1.7,9.5,4.2,10.835,6.392s-7.792-2.678-8.766-1.035c-.365.609-.548,1.157,5.174,3.165,5.783,2.07,22.462,5.235,22.462,5.235l2.678-11.444" transform="translate(-22.491 -93.333)" fill="#ff957e"/>
    <path id="Caminho_196" data-name="Caminho 196" d="M180.815,275.3s-9.5,27.453-12.418,27.7c-20.027,1.826-41.819-6.818-41.819-6.818L121.1,311.641s56.733,25.384,68.907.913c12.966-25.931,12.3-30.01,12.3-30.01Z" transform="translate(-35.292 -86.415)" fill="#fcd2b1"/>
    <path id="Caminho_197" data-name="Caminho 197" d="M221.3,494.537c10.166,46.689,77,90.091,77,90.091l11.383-13.94s-53.75-47.906-56-69.211c-2.313-21.305,15.522-54.724,15.522-54.724L250.7,438.9Z" transform="translate(-74.499 -150.428)" fill="#0b4870"/>
    <path id="Caminho_198" data-name="Caminho 198" d="M253,219.658c.3-1.948-.426-9.983-.426-9.983s-7.365-.791-7.792-8.1,0-24.105,0-24.105L258.17,170.9,272.9,182.04,270.649,218.5Z" transform="translate(-83.611 -45.565)" fill="#ffe3ca"/>
    <path id="Caminho_199" data-name="Caminho 199" d="M271.256,184.667s-12.053-1.157-14.122-12.053l-13.027,12.053s-3.957-8.1,3.287-15.583,12.174-5.965,15.035-5.965c2.617,0,16.009,2.861,19.966,18.018.3,1.1.548,3.835.73,5.052Z" transform="translate(-83.001 -42.471)" fill="#0e538c"/>
    <path id="Caminho_200" data-name="Caminho 200" d="M257.8,232.587a18.08,18.08,0,0,0,9.679-3.287s-2.191,5.357-9.5,5.052Z" transform="translate(-88.78 -68.416)" fill="#fcd2b1"/>
    <path id="Caminho_201" data-name="Caminho 201" d="M223.431,331.829a31.257,31.257,0,0,0,.913,6.209l51.741,14.914s3.713-23.375-5.722-36.4c-4.322-5.966-3.348-14.366-1.583-21.549l6.087-24.531L266.711,247.4l-32.566,2.191s-18.87-1.887-25.444,23.071l12.113,18.2.122,6.878Z" transform="translate(-69.569 -75.498)" fill="#3a386e"/>
    <path id="Caminho_202" data-name="Caminho 202" d="M259.534,371.1c.548,0,9.922,21,1.461,33.48-.791,1.157-2.739,4.018-5.357,8.1-12.54,19.236-41.149,64.463-42.123,71.1-1.157,8.035-24.288,92.343-24.288,92.343L172,573.378l14.061-95.63,23.01-97.517Z" transform="translate(-55.209 -123.9)" fill="#0e538c"/>
    <path id="Caminho_203" data-name="Caminho 203" d="M258.1,177.183s-2.678,5.174-1.522,9.07L244.891,189.3C244.891,189.235,242.212,174.443,258.1,177.183Z" transform="translate(-83.663 -47.891)" fill="#0e538c"/>
    <path id="Caminho_204" data-name="Caminho 204" d="M300.427,198.987s1.339,16.8-11.627,19.783l.852-20.27Z" transform="translate(-100.91 -56.365)" fill="#0e538c"/>
    <path id="Caminho_205" data-name="Caminho 205" d="M156.608,309.079l-29.036,12.235-47.541,1.035L56.9,283.087l48.88-3.287,21.183,37.984,29.462-11.444Z" transform="translate(-10.172 -88.176)" fill="#3a386e"/>
    <path id="Caminho_206" data-name="Caminho 206" d="M304,247.4" transform="translate(-106.858 -75.498)" fill="#ffd584"/>
    <path id="Caminho_207" data-name="Caminho 207" d="M206.857,280.5,198.7,300.405l18.262,9.07,1.7-17.409Z" transform="translate(-65.656 -88.45)" fill="#3a386e"/>
    <path id="Caminho_208" data-name="Caminho 208" d="M265.635,245,259,247.861l1.339,13.392,8.4-15.035Z" transform="translate(-89.25 -74.559)" fill="#ffe3ca"/>
    <g id="Grupo_20" data-name="Grupo 20" transform="translate(148.201 213.416)">
      <path id="Caminho_209" data-name="Caminho 209" d="M223.6,315.6" transform="translate(-223.6 -315.6)" fill="none" stroke="#ffecd3" stroke-miterlimit="10" stroke-width="0.1"/>
    </g>
    <g id="Grupo_21" data-name="Grupo 21" transform="translate(103.222 438.521)">
      <path id="Caminho_210" data-name="Caminho 210" d="M161.7,703.4s-15.157,4.018-11.383,5.174,30.01-1.7,30.01-1.7l.852-2.983Z" transform="translate(-149.708 -692.443)" fill="#0e538c"/>
      <path id="Caminho_211" data-name="Caminho 211" d="M188.027,699.827l5.357-14.427H170.13l-.73,10.957Z" transform="translate(-157.413 -685.4)" fill="#0e538c"/>
    </g>
    <g id="Grupo_22" data-name="Grupo 22" transform="translate(214.795 408.937)">
      <path id="Caminho_212" data-name="Caminho 212" d="M346.792,669.14s-3.835,15.218-.974,12.479c2.8-2.739,13.148-27.027,13.148-27.027l-2.191-2.191Z" transform="translate(-337.601 -642.904)" fill="#0b4870"/>
      <path id="Caminho_213" data-name="Caminho 213" d="M354.305,648.487,344.261,636.8,333,657.07l9.192,5.966Z" transform="translate(-333 -636.8)" fill="#0b4870"/>
    </g>
    <path id="Caminho_214" data-name="Caminho 214" d="M292.481,209.938a8.836,8.836,0,0,1,.365-3.591,3.3,3.3,0,0,1,2.617-2.252,2.949,2.949,0,0,1,2.983,2.374A3.581,3.581,0,0,1,296.621,210a4.775,4.775,0,0,1-4.078.122" transform="translate(-102.339 -58.55)" fill="#ffe3ca"/>
    <path id="Caminho_215" data-name="Caminho 215" d="M276.239,332.8s-.67-67.385,1.7-72.5c0,0,2.5-12.661,12.174-12.9l-4.322.365s-8.766-.609-11.322,16.618c-2.5,17.227-2.374,68.968-2.374,68.968Z" transform="translate(-94.375 -75.498)" fill="#0e538c"/>
    <path id="Caminho_216" data-name="Caminho 216" d="M244.819,336.586S242.2,259.157,244.271,251h-2.617s-2.313,6.635-1.887,25.2c.3,11.14,0,60.385,0,60.385Z" transform="translate(-81.704 -76.907)" fill="#0e538c"/>
    <path id="Caminho_217" data-name="Caminho 217" d="M181.082,335.2s-12.661,8.035-15.461,7.974c-2.739-.061-10.713-.243-9.861.852s9.861,2.617,9.861,2.617Z" transform="translate(-48.829 -109.853)" fill="#ffe3ca"/>
    <path id="Caminho_218" data-name="Caminho 218" d="M188.335,331.815s59.959,16.131,68.177-9.922c8.7-27.636,8.826-20.453,8.826-20.453L246.529,283.3s-10.1,31.9-12.966,32.627c-15.766,4.018-33.662,1.461-39.993.3-.73-.609-1.522-1.278-2.5-2.191a9.183,9.183,0,0,1-1.948-2.617,14.409,14.409,0,0,1-1.461-3.835,1.276,1.276,0,0,0-2.313-.67c-.548.974-.183,4.444,2.009,7.852,0,0-14.3,9.192-15.461,11.383Z" transform="translate(-55.169 -89.545)" fill="#ffe3ca"/>
    <path id="Caminho_219" data-name="Caminho 219" d="M292.966,247.4s13.7,2.617,14.244,24.166a84.889,84.889,0,0,1-8.157,38.045L275.8,297.5l17.166-50.1" transform="translate(-95.823 -75.498)" fill="#3a386e"/>
    <path id="Caminho_220" data-name="Caminho 220" d="M456.416,589.992H393.6a5.3,5.3,0,0,1-5.3-5.3h0a5.3,5.3,0,0,1,5.3-5.3h62.759a5.3,5.3,0,0,1,5.3,5.3h0A5.21,5.21,0,0,1,456.416,589.992Z" transform="translate(-139.842 -205.403)" fill="#d3d3d3"/>
    <g id="Grupo_23" data-name="Grupo 23" transform="translate(267.008 381.119)">
      <rect id="Retângulo_8" data-name="Retângulo 8" width="5.357" height="54.054" transform="translate(5.146 70.385) rotate(-90)" fill="#0b4870"/>
      <path id="Caminho_221" data-name="Caminho 221" d="M428.895,702.251a5.089,5.089,0,1,1-5.844-4.2A5.018,5.018,0,0,1,428.895,702.251Z" transform="translate(-418.774 -632.918)" fill="#0b4870"/>
      <rect id="Retângulo_9" data-name="Retângulo 9" width="5.357" height="67.203" transform="translate(29.234)" fill="#0b4870"/>
      <path id="Caminho_222" data-name="Caminho 222" d="M517.695,702.251a5.089,5.089,0,1,1-5.844-4.2A5.018,5.018,0,0,1,517.695,702.251Z" transform="translate(-453.52 -632.918)" fill="#0b4870"/>
    </g>
    <path id="Caminho_223" data-name="Caminho 223" d="M485.208,526.1H425.919a6.138,6.138,0,0,1-5.783-7.913l28.305-97.639a6.046,6.046,0,0,1,5.783-4.444h59.289a6.138,6.138,0,0,1,5.783,7.913l-28.305,97.639A5.976,5.976,0,0,1,485.208,526.1Z" transform="translate(-152.199 -141.507)" fill="#d3d3d3"/>
    <path id="Caminho_224" data-name="Caminho 224" d="M476.7,526.1h-51.68a6.138,6.138,0,0,1-5.783-7.913l28.305-97.639a6.046,6.046,0,0,1,5.783-4.444H505a6.138,6.138,0,0,1,5.783,7.913l-28.305,97.639A5.976,5.976,0,0,1,476.7,526.1Z" transform="translate(-151.847 -141.507)" fill="#f2f2f2"/>
    <path id="Caminho_225" data-name="Caminho 225" d="M483.416,589.992H420.6a5.3,5.3,0,0,1-5.3-5.3h0a5.3,5.3,0,0,1,5.3-5.3h62.759a5.3,5.3,0,0,1,5.3,5.3h0A5.21,5.21,0,0,1,483.416,589.992Z" transform="translate(-150.407 -205.403)" fill="#d3d3d3"/>
    <path id="Caminho_226" data-name="Caminho 226" d="M432.94,460.6,419,497.671l3.287,7.244,18.809-3.287L446.453,462Z" transform="translate(-151.855 -158.919)" fill="#fcd2b1"/>
    <path id="Caminho_227" data-name="Caminho 227" d="M447.153,431s-11.018,5.783-13.453,24.775l14.548,7.974Z" transform="translate(-157.607 -147.337)" fill="#2a94f4"/>
    <path id="Caminho_228" data-name="Caminho 228" d="M465.045,418.161l-17.348,7.3L434,486.4l45.776,18.018,24.41-69.516s-3.957-14.488-26.845-18.2Z" transform="translate(-157.724 -141.742)" fill="#2a94f4"/>
    <path id="Caminho_229" data-name="Caminho 229" d="M542.8,496.338a57.047,57.047,0,0,0-.73-6.392l-7.548-48.271a10.126,10.126,0,1,0-19.418,5.6l8.948,41.454Z" transform="translate(-189.219 -148.394)" fill="#ffe3ca"/>
    <path id="Caminho_230" data-name="Caminho 230" d="M509.628,517.157,458.557,513.2,456,522.209l49.185,16.618a11.188,11.188,0,0,0,14.731-11.383h0A11.112,11.112,0,0,0,509.628,517.157Z" transform="translate(-166.332 -179.501)" fill="#ffe3ca"/>
    <path id="Caminho_231" data-name="Caminho 231" d="M526.091,432.539s6.513,2.8,9.313,19.723l-23.01,7.061S497.36,442.461,513.43,431.2Z" transform="translate(-185.9 -147.416)" fill="#2a94f4"/>
    <path id="Caminho_232" data-name="Caminho 232" d="M433.609,520.235c1.887,4.992,11.322,5.235,16.375,3.348,4.992-1.887,10.166-4.748,8.279-9.8-1.887-4.992-10.226-7.974-15.7-6.757C435.922,508.547,431.721,515.182,433.609,520.235Z" transform="translate(-157.393 -176.978)" fill="#ffe3ca"/>
    <path id="Caminho_233" data-name="Caminho 233" d="M456.162,534.426,419.7,529.739l.548-4.139,36.462,4.687a1.985,1.985,0,0,1,1.765,2.313h0A2.139,2.139,0,0,1,456.162,534.426Z" transform="translate(-152.129 -184.352)" fill="#f2f2f2"/>
    <path id="Caminho_234" data-name="Caminho 234" d="M389.812,499.995l-48.332-6.209a6.138,6.138,0,0,1-5.357-5.3l-5.052-35.062a4.724,4.724,0,0,1,5.3-5.357l44.376,5.722a4.134,4.134,0,0,1,3.591,3.531Z" transform="translate(-117.432 -153.999)" fill="#f2f2f2"/>
    <path id="Caminho_235" data-name="Caminho 235" d="M314.545,685.5,302,690.674l-7.913.609a8.161,8.161,0,0,0-7.426,6.452l-.365,1.644,42.976,5.357.852-17.288Z" transform="translate(-99.932 -246.918)" fill="#0b4870"/>
    <path id="Caminho_236" data-name="Caminho 236" d="M348.283,675.24l4.2-18.809-15.522-2.13L332.7,673.292Z" transform="translate(-118.087 -234.71)" fill="#ffe3ca"/>
    <path id="Caminho_237" data-name="Caminho 237" d="M439.591,548.279s-1.217,10.409-19.905,11.809H374.763l-21.183,59.107L331.3,615.6l22.279-86.8,51.072,5.661Z" transform="translate(-117.539 -185.604)" fill="#0b4870"/>
    <path id="Caminho_238" data-name="Caminho 238" d="M253.371,625.538l-13.453-2.009-7.122-3.591a8.332,8.332,0,0,0-9.74,1.7L221.9,622.86l34.088,26.662,9.618-14.366Z" transform="translate(-74.733 -220.923)" fill="#0e538c"/>
    <path id="Caminho_239" data-name="Caminho 239" d="M285.957,629.753,297.644,614.9l-12.3-9.8L273.6,620.074Z" transform="translate(-94.963 -215.459)" fill="#ffe3ca"/>
    <path id="Caminho_240" data-name="Caminho 240" d="M374.33,523.028,339.694,512.68c-1.461-.426-2.861-.974-4.322-1.461-2.983-1.157-10.531-2.739-16.375,6.209-7.487,11.5-37.5,54.724-37.5,54.724l18.322,13.513,39.993-50.95a17.8,17.8,0,0,1,14.427-7.365l30.923-.061Z" transform="translate(-98.054 -178.372)" fill="#0e538c"/>
    <path id="Caminho_241" data-name="Caminho 241" d="M481.59,365.935c.609-1.157,11.322-20.27,1.522-25.079,0,0-1.278-10.1-12.54-9.009s-8.218,4.383-15.4,2.739-13.94,2.07-13.392,8.1,5.113,8.583,13.392,7.122a48.566,48.566,0,0,1,14.853-.365l6.939,2.009Z" transform="translate(-160.756 -108.508)" fill="#3a386e"/>
    <g id="Grupo_24" data-name="Grupo 24" transform="translate(304.521 253.835)">
      <path id="Caminho_242" data-name="Caminho 242" d="M498.053,406.288,497.2,382l-16.8,5.965,1.339,19.479c.3,4.5,2.8,8.035,7.3,7.731l1.4-.061A8.361,8.361,0,0,0,498.053,406.288Z" transform="translate(-480.4 -382)" fill="#ffe3ca"/>
    </g>
    <path id="Caminho_243" data-name="Caminho 243" d="M496.014,387.5s3.165,20.27-14.122,21.427l-.791-9.618Z" transform="translate(-176.153 -130.317)" fill="#fcd2b1"/>
    <path id="Caminho_244" data-name="Caminho 244" d="M471.2,390.958h.609a15.606,15.606,0,0,0,14.853-16.375l-.852-17.653a4.032,4.032,0,0,0-4.261-3.835l-20.575.974a7.256,7.256,0,0,0-6.879,7.548l.67,14.427A15.788,15.788,0,0,0,471.2,390.958Z" transform="translate(-165.584 -116.853)" fill="#ffe3ca"/>
    <path id="Caminho_245" data-name="Caminho 245" d="M501.1,376.133a5.273,5.273,0,1,0,4.992-5.539A5.3,5.3,0,0,0,501.1,376.133Z" transform="translate(-183.976 -123.697)" fill="#ffe3ca"/>
    <path id="Caminho_246" data-name="Caminho 246" d="M481.263,355.757l1.035,19.662a4.981,4.981,0,0,1-2.131,4.565c-.913.67-1.644,1.522-3.287,1.278-4.687-.67-2.5-4.139-12.053-3.652-8.7.487-8.035,5.3-8.035,5.3s1.7,9.192,13.635,9.618,17.9-7.122,16.5-17.166L485.767,354.6Z" transform="translate(-166.638 -117.443)" fill="#3a386e"/>
    <path id="Caminho_247" data-name="Caminho 247" d="M455.1,356.17a38.789,38.789,0,0,0,13.635-1.1c8.035-2.009,14.427,4.5,14.427,4.5s1.7,2.983,2.131,2.922,2.861-1.035,2.861-1.035l-.122-9.07-5.9-4.626-16.375-.67-9.679,2.13Z" transform="translate(-165.98 -114.509)" fill="#3a386e"/>
  </g>
</svg>
