<svg xmlns="http://www.w3.org/2000/svg" xmlns:xlink="http://www.w3.org/1999/xlink" width="175.402" height="101.331" viewBox="0 0 175.402 101.331">
  <defs>
    <linearGradient id="linear-gradient" y1="0.5" x2="1" y2="0.5" gradientUnits="objectBoundingBox">
      <stop offset="0" stop-color="#c5e9fa"/>
      <stop offset="1" stop-color="#c4f4ea"/>
    </linearGradient>
  </defs>
  <g id="Layer_2" data-name="Layer 2" transform="translate(0.002 0.002)">
    <g id="Layer_1" data-name="Layer 1" transform="translate(-0.002 -0.002)">
      <path id="Caminho_527" data-name="Caminho 527" d="M167.3,61.3c-6.2,16.051-17.854,30.113-34.042,36.293a58.805,58.805,0,0,1-6.439,2.039,50.423,50.423,0,0,1-34.832-3.445c-4.519-2.279-8.639-5.291-13.174-7.537S69.1,84.934,64.16,86.043c-4.25.955-7.836,3.691-11.446,6.128-8.511,5.746-18.745,10.294-28.823,8.32-4.637-.907-9.2-3.419-11.357-7.619-4.76-9.284,4.217-20.323,2.4-30.59C13.77,55.711,8.456,50.79,5.152,44.99A30.818,30.818,0,0,1,6.8,12.6,30.829,30.829,0,0,1,36.881.481c13.682,2.572,24.026,14.151,37.33,18.248a37.151,37.151,0,0,0,25.3-1.575C112.349,11.7,129.988,3.348,144.436,4.709a30.8,30.8,0,0,1,20.29,9.957c6.41,7.35,8.332,17.786,7.263,27.478A76.839,76.839,0,0,1,167.3,61.3Z" transform="translate(-1.146 0.002)" fill="url(#linear-gradient)"/>
      <path id="Caminho_528" data-name="Caminho 528" d="M1226.009,497.734a3.589,3.589,0,0,1-.846-.1,3.538,3.538,0,1,1,.846.1Zm0-5.48a1.922,1.922,0,0,0-.453,3.788h0a1.92,1.92,0,1,0,.453-3.788Z" transform="translate(-1055.732 -423.735)" fill="#e7f6ff"/>
      <circle id="Elipse_6" data-name="Elipse 6" cx="1.545" cy="1.545" r="1.545" transform="translate(163.68 78.525) rotate(-76.37)" fill="#e7f6ff"/>
      <path id="Caminho_529" data-name="Caminho 529" d="M33.151,495.012a3.559,3.559,0,1,1,.155,0Zm0-5.479h-.08a1.922,1.922,0,1,0,.083,0Z" transform="translate(-25.623 -421.35)" fill="#e7f6ff"/>
      <circle id="Elipse_7" data-name="Elipse 7" cx="1.545" cy="1.545" r="1.545" transform="translate(3.314 76.613) rotate(-2.47)" fill="#e7f6ff"/>
      <path id="Caminho_530" data-name="Caminho 530" d="M686.552,73.246a3.554,3.554,0,1,1,2.035-.642A3.554,3.554,0,0,1,686.552,73.246Zm-.011-5.478a1.929,1.929,0,1,0,.337.03A1.929,1.929,0,0,0,686.541,67.768Z" transform="translate(-589.838 -57.115)" fill="#e7f6ff"/>
      <circle id="Elipse_8" data-name="Elipse 8" cx="1.545" cy="1.545" r="1.545" transform="matrix(0.819, -0.574, 0.574, 0.819, 86.419, 14.292)" fill="#e7f6ff"/>
      <rect id="Retângulo_50" data-name="Retângulo 50" width="6.067" height="6.067" transform="translate(97.298 14.341)" fill="none"/>
      <rect id="Retângulo_51" data-name="Retângulo 51" width="6.067" height="6.067" transform="translate(97.298 14.341)" fill="none"/>
      <path id="Caminho_531" data-name="Caminho 531" d="M839.66,724.13" transform="translate(-725.136 -625.363)" fill="#426572"/>
      <path id="Caminho_532" data-name="Caminho 532" d="M1120.652,178.777a5.655,5.655,0,0,0-5.655-5.655c-.125,0-.25,0-.372.012q.012-.184.012-.372a5.655,5.655,0,1,0-11.124,1.438,5.655,5.655,0,1,0-4.448,10.119,11.509,11.509,0,0,0,17.936-.254A5.656,5.656,0,0,0,1120.652,178.777Z" transform="translate(-945.25 -144.315)" fill="#fff"/>
      <path id="Caminho_533" data-name="Caminho 533" d="M26.111,79.083a5.655,5.655,0,0,0-5.654-5.66c-.125,0-.25,0-.372.012q.012-.184.012-.372A5.655,5.655,0,1,0,8.973,74.5,5.655,5.655,0,1,0,4.525,84.619a5.655,5.655,0,0,0,9.385,1.9,5.655,5.655,0,0,0,8.546-2.155,5.656,5.656,0,0,0,3.654-5.283Z" transform="translate(0.002 -58.214)" fill="#fff"/>
      <path id="Caminho_534" data-name="Caminho 534" d="M439.039,731.7H357.68V729.93h81.359a.887.887,0,1,1,0,1.773Z" transform="translate(-308.895 -630.372)" fill="#426572"/>
      <path id="Caminho_535" data-name="Caminho 535" d="M293.891,731.7h-4.974a.887.887,0,1,1,0-1.773h4.974a.887.887,0,1,1,0,1.773Z" transform="translate(-248.744 -630.372)" fill="#426572"/>
      <path id="Caminho_536" data-name="Caminho 536" d="M255.211,731.7h-1.585a.887.887,0,1,1,0-1.773h1.585a.887.887,0,1,1,0,1.773Z" transform="translate(-218.268 -630.372)" fill="#426572"/>
      <path id="Caminho_537" data-name="Caminho 537" d="M1005.006,731.7H980V729.93h25.006a.887.887,0,1,1,0,1.773Z" transform="translate(-846.334 -630.372)" fill="#426572"/>
      <path id="Caminho_538" data-name="Caminho 538" d="M67.658,731.7H42.65V729.93H67.658a.887.887,0,0,1,0,1.773Z" transform="translate(-36.833 -630.372)" fill="#426572"/>
      <rect id="Retângulo_52" data-name="Retângulo 52" width="24.551" height="23.732" rx="11.866" transform="translate(73.276 73.856)" fill="#e8edf7"/>
      <rect id="Retângulo_53" data-name="Retângulo 53" width="24.551" height="7.502" transform="translate(73.276 83.676)" fill="#c1cede"/>
      <path id="Caminho_539" data-name="Caminho 539" d="M552.482,562.859H531.205a2.455,2.455,0,0,1-2.455-2.455V539.945a2.455,2.455,0,0,1,2.455-2.455h21.277a2.455,2.455,0,0,1,2.455,2.455V560.4A2.455,2.455,0,0,1,552.482,562.859Zm-21.277-23.732a.818.818,0,0,0-.818.818V560.4a.818.818,0,0,0,.818.818h21.277a.818.818,0,0,0,.818-.818V539.945a.818.818,0,0,0-.818-.818Z" transform="translate(-456.632 -464.18)" fill="#426572"/>
      <path id="Caminho_540" data-name="Caminho 540" d="M296.832,85.272v63.014a6.82,6.82,0,0,1-5.069,6.59h0a6.812,6.812,0,0,1-1.744.225H179.53a6.82,6.82,0,0,1-6.82-6.82V85.268a6.79,6.79,0,0,1,1.007-3.568c.086-.136.177-.273.273-.409a6.828,6.828,0,0,1,2.976-2.343h0a6.76,6.76,0,0,1,2.557-.5H290.008a6.82,6.82,0,0,1,6.824,6.822Z" transform="translate(-149.153 -67.75)" fill="#e8edf7"/>
      <path id="Caminho_541" data-name="Caminho 541" d="M278.887,152.8H168.408a7.638,7.638,0,0,1-7.638-7.638V82.145a7.605,7.605,0,0,1,2.046-5.2c.087-.1.185-.2.306-.311a7.6,7.6,0,0,1,5.287-2.126H278.887a7.638,7.638,0,0,1,7.638,7.638v63.014a7.63,7.63,0,0,1-7.638,7.638ZM168.408,76.144a5.966,5.966,0,0,0-4.153,1.672c-.094.09-.169.166-.236.239a5.978,5.978,0,0,0-1.609,4.092V145.16a6,6,0,0,0,6,6H278.889a5.993,5.993,0,0,0,6-6V82.147a6,6,0,0,0-6-6Z" transform="translate(-138.842 -64.347)" fill="#426572"/>
      <rect id="Retângulo_54" data-name="Retângulo 54" width="115.798" height="68.742" rx="29.87" transform="translate(27.042 15.07)" fill="#c1cede"/>
      <path id="Caminho_542" data-name="Caminho 542" d="M218.077,126.49H324.5a2.3,2.3,0,0,1,2.3,2.3V182H215.78V128.787A2.3,2.3,0,0,1,218.077,126.49Z" transform="translate(-186.349 -109.237)" fill="#f1f6fe"/>
      <path id="Caminho_543" data-name="Caminho 543" d="M312.058,531.49v6.974a4.075,4.075,0,0,1-4.074,4.074H200.334a4.074,4.074,0,0,1-4.074-4.074V531.49h2.391v.273H309.667v-.273Z" transform="translate(-169.491 -458.998)" fill="#e8edf7"/>
      <rect id="Retângulo_55" data-name="Retângulo 55" width="115.525" height="2.455" transform="translate(27.106 72.219)" fill="#c1cede"/>
      <rect id="Retângulo_56" data-name="Retângulo 56" width="115.116" height="1.637" transform="translate(27.383 71.674)" fill="#426572"/>
      <rect id="Retângulo_57" data-name="Retângulo 57" width="86.746" height="45.283" rx="12" transform="translate(40.881 22.026)" fill="#fff"/>
      <path id="Caminho_544" data-name="Caminho 544" d="M302.821,169.4h85.655v-5.753l-1.637-2.158H304.458l-2.728,2.158V169.4Z" transform="translate(-260.576 -139.464)" fill="#e2f2ff"/>
      <path id="Caminho_545" data-name="Caminho 545" d="M381.658,202.409H298.185a2.455,2.455,0,0,1-2.455-2.455V157.945a2.455,2.455,0,0,1,2.455-2.455h83.473a2.455,2.455,0,0,1,2.455,2.455v42.009A2.455,2.455,0,0,1,381.658,202.409Zm-83.473-45.283a.818.818,0,0,0-.818.818v42.009a.818.818,0,0,0,.818.818h83.473a.818.818,0,0,0,.818-.818V157.945a.818.818,0,0,0-.818-.818Z" transform="translate(-255.394 -134.282)" fill="#426572"/>
      <rect id="Retângulo_58" data-name="Retângulo 58" width="43.057" height="5.047" rx="2.523" transform="translate(63.592 94.724)" fill="#e8edf7"/>
      <path id="Caminho_546" data-name="Caminho 546" d="M503.8,696.173H464.015a2.455,2.455,0,0,1-2.455-2.455v-1.773a2.455,2.455,0,0,1,2.455-2.455H503.8a2.455,2.455,0,0,1,2.455,2.455v1.773A2.455,2.455,0,0,1,503.8,696.173Zm-39.783-5.047a.818.818,0,0,0-.818.818v1.773a.818.818,0,0,0,.818.818H503.8a.818.818,0,0,0,.818-.818v-1.773a.818.818,0,0,0-.818-.818Z" transform="translate(-398.606 -595.448)" fill="#426572"/>
      <circle id="Elipse_9" data-name="Elipse 9" cx="1.091" cy="1.091" r="1.091" transform="translate(45.043 25.198)" fill="#cadce8"/>
      <circle id="Elipse_10" data-name="Elipse 10" cx="1.091" cy="1.091" r="1.091" transform="translate(48.316 25.198)" fill="#cadce8"/>
      <circle id="Elipse_11" data-name="Elipse 11" cx="1.091" cy="1.091" r="1.091" transform="translate(51.59 25.198)" fill="#cadce8"/>
      <rect id="Retângulo_59" data-name="Retângulo 59" width="68.197" height="2.182" rx="1.091" transform="translate(56.364 25.198)" fill="#cadce8"/>
      <rect id="Retângulo_60" data-name="Retângulo 60" width="77.744" height="15.549" rx="7.774" transform="translate(45.998 33.484)" fill="#87d6fe"/>
      <path id="Caminho_547" data-name="Caminho 547" d="M407.166,258.676H332.7a2.455,2.455,0,0,1-2.455-2.455V243.945a2.455,2.455,0,0,1,2.455-2.455h74.471a2.455,2.455,0,0,1,2.455,2.455V256.22A2.455,2.455,0,0,1,407.166,258.676ZM332.7,243.127a.818.818,0,0,0-.818.818V256.22a.818.818,0,0,0,.818.818h74.471a.818.818,0,0,0,.818-.818V243.945a.818.818,0,0,0-.818-.818Z" transform="translate(-285.197 -208.552)" fill="#426572"/>
      <rect id="Retângulo_61" data-name="Retângulo 61" width="23.297" height="8.593" rx="4.296" transform="translate(46.564 53.806)" fill="#a8ef9e"/>
      <path id="Caminho_548" data-name="Caminho 548" d="M355.72,399.72H335.7a2.455,2.455,0,0,1-2.455-2.455v-5.319a2.455,2.455,0,0,1,2.455-2.455H355.72a2.455,2.455,0,0,1,2.455,2.455v5.319A2.455,2.455,0,0,1,355.72,399.72ZM335.7,391.127a.818.818,0,0,0-.818.818v5.319a.818.818,0,0,0,.818.818H355.72a.818.818,0,0,0,.818-.818v-5.319a.818.818,0,0,0-.818-.818Z" transform="translate(-287.788 -336.366)" fill="#426572"/>
      <rect id="Retângulo_62" data-name="Retângulo 62" width="23.297" height="8.593" rx="4.296" transform="translate(73.231 53.806)" fill="#a8ef9e"/>
      <path id="Caminho_549" data-name="Caminho 549" d="M551.24,399.72H531.215a2.455,2.455,0,0,1-2.455-2.455v-5.319a2.455,2.455,0,0,1,2.455-2.455H551.24a2.455,2.455,0,0,1,2.455,2.455v5.319A2.455,2.455,0,0,1,551.24,399.72Zm-20.024-8.593a.818.818,0,0,0-.818.818v5.319a.818.818,0,0,0,.818.818H551.24a.818.818,0,0,0,.818-.818v-5.319a.818.818,0,0,0-.818-.818Z" transform="translate(-456.64 -336.366)" fill="#426572"/>
      <rect id="Retângulo_63" data-name="Retângulo 63" width="23.297" height="8.593" rx="4.296" transform="translate(99.899 53.806)" fill="#a8ef9e"/>
      <path id="Caminho_550" data-name="Caminho 550" d="M746.76,399.72H726.735a2.455,2.455,0,0,1-2.455-2.455v-5.319a2.455,2.455,0,0,1,2.455-2.455H746.76a2.455,2.455,0,0,1,2.455,2.455v5.319A2.455,2.455,0,0,1,746.76,399.72Zm-20.024-8.593a.818.818,0,0,0-.818.818v5.319a.818.818,0,0,0,.818.818H746.76a.818.818,0,0,0,.818-.818v-5.319a.818.818,0,0,0-.818-.818Z" transform="translate(-625.493 -336.366)" fill="#426572"/>
      <path id="Caminho_551" data-name="Caminho 551" d="M304.8,172.869H197.152a4.9,4.9,0,0,1-4.892-4.892V107.382a4.9,4.9,0,0,1,4.892-4.892H304.8a4.9,4.9,0,0,1,4.892,4.892v60.593a4.9,4.9,0,0,1-4.892,4.894ZM197.152,104.127a3.26,3.26,0,0,0-3.256,3.256v60.593a3.26,3.26,0,0,0,3.256,3.256H304.8a3.26,3.26,0,0,0,3.256-3.256V107.382a3.26,3.26,0,0,0-3.256-3.256Z" transform="translate(-166.037 -88.511)" fill="#426572"/>
      <path id="Caminho_552" data-name="Caminho 552" d="M111.12,192.39a1.609,1.609,0,0,0,.682.15h-.682Z" transform="translate(-95.964 -166.149)" fill="#606060" opacity="0.1"/>
      <path id="Caminho_557" data-name="Caminho 557" d="M1006.24,513.49" transform="translate(-868.995 -443.453)" fill="#426572"/>
      <rect id="Retângulo_67" data-name="Retângulo 67" width="37.081" height="22.249" rx="11.124" transform="translate(134.501 93.588) rotate(-90)" fill="#fff"/>
      <path id="Caminho_558" data-name="Caminho 558" d="M1008.377,419.443V452.9a1.818,1.818,0,0,1-1.806,1.813H987.943a1.818,1.818,0,0,1-1.813-1.813v-1.208h17.112a1.818,1.818,0,0,0,1.813-1.82V417.63h1.517A1.818,1.818,0,0,1,1008.377,419.443Z" transform="translate(-851.628 -360.668)" fill="#dee6f1"/>
      <path id="Caminho_559" data-name="Caminho 559" d="M999.485,447.078H980.36a2.359,2.359,0,0,1-1.379-.449,2.384,2.384,0,0,1-1-1.937V410.73a2.346,2.346,0,0,1,.207-.968,2.381,2.381,0,0,1,2.173-1.412h19.126a2.4,2.4,0,0,1,2.208,1.5l.067.136v.048a2.345,2.345,0,0,1,.1.7v33.962a2.391,2.391,0,0,1-2.046,2.356A2.305,2.305,0,0,1,999.485,447.078ZM980.36,410a.745.745,0,0,0-.682.443.722.722,0,0,0-.064.3V444.7a.746.746,0,0,0,.315.6.732.732,0,0,0,.428.136h19.126a.66.66,0,0,0,.1,0,.748.748,0,0,0,.645-.737V410.744a.711.711,0,0,0-.041-.24l-.064-.136a.748.748,0,0,0-.638-.366Z" transform="translate(-844.59 -352.653)" fill="#426572"/>
      <rect id="Retângulo_68" data-name="Retângulo 68" width="13.596" height="1.637" transform="translate(138.681 68.616)" fill="#426572"/>
      <rect id="Retângulo_69" data-name="Retângulo 69" width="13.596" height="1.637" transform="translate(138.681 64.083)" fill="#426572"/>
      <rect id="Retângulo_70" data-name="Retângulo 70" width="13.596" height="1.637" transform="translate(138.681 73.752)" fill="#426572"/>
      <path id="Caminho_560" data-name="Caminho 560" d="M811.407,560.308h21.05a.409.409,0,0,0,0-.818h-21.05A.409.409,0,0,0,811.407,560.308Z" transform="translate(-700.394 -483.179)" fill="#fff"/>
      <path id="Caminho_561" data-name="Caminho 561" d="M751.737,560.308h5.479a.409.409,0,0,0,0-.818h-5.479A.409.409,0,0,0,751.737,560.308Z" transform="translate(-648.863 -483.179)" fill="#fff"/>
    </g>
  </g>
</svg>
