<svg xmlns="http://www.w3.org/2000/svg" width="511.995" height="444.697" viewBox="0 0 511.995 444.697">
  <g id="startup" transform="translate(-20 -50)">
    <g id="Grupo_414" data-name="Grupo 414" transform="translate(20.985 180.46)">
      <g id="Grupo_413" data-name="Grupo 413" transform="translate(0 108.799)">
        <path id="Caminho_1230" data-name="Caminho 1230" d="M504.457,600.984a23.611,23.611,0,0,0-13.1,3.988,24.868,24.868,0,0,0-36.381-20.332V584A48.009,48.009,0,0,0,373.5,549.588a11.578,11.578,0,1,0-11.323,13.932,12.11,12.11,0,0,0,1.378-.1,47.7,47.7,0,0,0-4.578,20.529v.591l-83.2-20.972h0l-.1.049-.148-.049v.049l-83.2,20.972V584a48.589,48.589,0,0,0-4.578-20.529,12.983,12.983,0,0,0,1.378.1,11.559,11.559,0,1,0-11.323-13.932,48.009,48.009,0,0,0-81.476,34.412v.64a24.868,24.868,0,0,0-36.381,20.332,23.733,23.733,0,0,0-13.1-3.988C33.126,600.984,22,612.9,22,627.568v1.083A80.154,80.154,0,0,0,102.147,708.8H456.261a73.032,73.032,0,0,0,73.058-73.058v-8.172C529.318,612.9,518.192,600.984,504.457,600.984Z" transform="translate(-22 -536)" fill="#f2f2f2"/>
      </g>
      <path id="Caminho_1231" data-name="Caminho 1231" d="M372.7,315H359.406c-5.415,34.953-66.461,156.06-159.506,156.06H532.2C439.159,471.06,378.114,349.953,372.7,315Z" transform="translate(-112.319 -315)" fill="#f2f2f2"/>
    </g>
    <path id="Caminho_1232" data-name="Caminho 1232" d="M526.875,911.516H25.12A5.148,5.148,0,0,1,20,906.4V876.12A5.148,5.148,0,0,1,25.12,871H526.875a5.148,5.148,0,0,1,5.12,5.12V906.4A5.116,5.116,0,0,1,526.875,911.516Z" transform="translate(0 -416.819)" fill="#f7f7f7"/>
    <g id="Grupo_419" data-name="Grupo 419" transform="translate(153.906 264.698)">
      <path id="Caminho_1233" data-name="Caminho 1233" d="M537.144,511.9c.394-4.677,1.575-10.929,0-14.818a14.019,14.019,0,0,0-7.828-7.828c-3.1-1.182-7.434-3.5-11.323-3.1s-9.748,4.283-11.717,6.252-4.677,8.96-4.677,11.717c0,2.708,2.363,6.252,3.1,8.566s0,8.172,5.071,10.535,5.858,4.283,12.5,2.708,12.9-5.071,13.292-6.646S537.144,511.9,537.144,511.9Z" transform="translate(-398.413 -486.109)" fill="#0e538c"/>
      <path id="Caminho_1234" data-name="Caminho 1234" d="M501.669,556.2h0a37.294,37.294,0,0,1,37.169,37.169V655.1a4.707,4.707,0,0,1-4.677,4.677H469.177A4.707,4.707,0,0,1,464.5,655.1V593.369A37.262,37.262,0,0,1,501.669,556.2Z" transform="translate(-379.578 -521.694)" fill="#e2e2e2"/>
      <rect id="Retângulo_171" data-name="Retângulo 171" width="244.182" height="6.892" transform="translate(0 109.09)" fill="#dcf2ff"/>
      <rect id="Retângulo_172" data-name="Retângulo 172" width="209.081" height="95.556" transform="translate(17.575 115.982)" fill="#b6e7ff"/>
      <path id="Caminho_1235" data-name="Caminho 1235" d="M536.138,613.793l-5.957-31.606c-1.231-9.157-31.95-16.787-31.95-16.787h-8.665s-30.867,8.172-32.1,17.329l-7.68,31.458c-1.92,14.277,9.945,13.243,22.744,17.427l17.083,5.612h8.665l17.083-5.612C528.114,627.43,538.108,628.07,536.138,613.793Z" transform="translate(-372.005 -526.365)" fill="#3a386e"/>
      <path id="Caminho_1236" data-name="Caminho 1236" d="M539.389,614.6v.246l-1.132,48.246a3.474,3.474,0,0,1-2.215.788H473.322a1.845,1.845,0,0,1-.542-.049L471.5,614.6Z" transform="translate(-383.132 -551.344)" fill="#2a94f4"/>
      <path id="Caminho_1237" data-name="Caminho 1237" d="M521.9,553.6l2.609,13.046,6.449,11.274,5.366-11.274,2.117-13.243Z" transform="translate(-408.72 -520.273)" fill="#fcd2b1"/>
      <path id="Caminho_1238" data-name="Caminho 1238" d="M539.538,516.214c0,14.178-2.462,19.741-11.323,22.991a10.958,10.958,0,0,1-6.991.049c-8.714-2.56-11.224-9.009-11.224-23.04,0-9.009,5.268-11.914,13.44-11.914S539.538,507.2,539.538,516.214Z" transform="translate(-402.678 -495.345)" fill="#ffe3ca"/>
      <ellipse id="Elipse_163" data-name="Elipse 163" cx="2.954" cy="5.268" rx="2.954" ry="5.268" transform="matrix(0.995, -0.102, 0.102, 0.995, 104.185, 21.432)" fill="#ffe3ca"/>
      <ellipse id="Elipse_164" data-name="Elipse 164" cx="5.268" cy="2.954" rx="5.268" ry="2.954" transform="matrix(0.102, -0.995, 0.995, 0.102, 133.461, 31.343)" fill="#ffe3ca"/>
      <path id="Caminho_1239" data-name="Caminho 1239" d="M537.755,617.8l-1.772,42.437a3.488,3.488,0,0,1-3.5,3.5H469.768a1.845,1.845,0,0,1-.542-.049,3.5,3.5,0,0,1-2.954-3.446L464.5,617.8a3.509,3.509,0,0,1,3.5-3.5h66.264a5.416,5.416,0,0,1,.886.1,2.845,2.845,0,0,1,.689.246A3.672,3.672,0,0,1,537.755,617.8Z" transform="translate(-379.578 -551.191)" fill="#2a94f4"/>
      <circle id="Elipse_165" data-name="Elipse 165" cx="6.597" cy="6.597" r="6.597" transform="translate(114.854 81.225)" fill="#fff"/>
      <g id="Grupo_416" data-name="Grupo 416" transform="translate(39.827 82.308)">
        <path id="Caminho_1240" data-name="Caminho 1240" d="M382.2,691.8H377.38a4.5,4.5,0,0,1-4.48-4.48V672.9h13.784v14.424A4.5,4.5,0,0,1,382.2,691.8Z" transform="translate(-372.9 -663.251)" fill="#3a386e"/>
        <path id="Caminho_1241" data-name="Caminho 1241" d="M386.426,661.275a1.4,1.4,0,0,1-.64-.2,2.581,2.581,0,0,1-.492-.542,2.692,2.692,0,0,1-.394-1.428,2.263,2.263,0,0,1,.64-1.477c.345-.394.64-.64.788-.837a1.274,1.274,0,0,0,.345-.542,3.424,3.424,0,0,0,.1-.788,11.271,11.271,0,0,0-.443-2.166,3.885,3.885,0,0,1,1.132.689,2.624,2.624,0,0,1,.788,1.132,2.932,2.932,0,0,1,.246,1.477,1.814,1.814,0,0,1-.246.837,3.494,3.494,0,0,1-.492.689,9.334,9.334,0,0,1-.886.788,2,2,0,0,0-.443.492,2.1,2.1,0,0,0-.2.837A1.325,1.325,0,0,0,386.426,661.275Z" transform="translate(-378.992 -653.3)" fill="#3a386e" opacity="0.59"/>
        <g id="Grupo_415" data-name="Grupo 415" transform="translate(12.061 13.509)">
          <path id="Caminho_1242" data-name="Caminho 1242" d="M397.5,688.2v-1.182c1.772,0,3-.542,3.5-1.575a2.267,2.267,0,0,0-.3-2.462,3.057,3.057,0,0,0-3.1-1.034l-.2-1.132a4.339,4.339,0,0,1,4.283,1.477,3.482,3.482,0,0,1,.394,3.692C401.634,686.825,400.5,688.2,397.5,688.2Z" transform="translate(-397.4 -680.74)" fill="#3a386e"/>
        </g>
      </g>
      <g id="Grupo_417" data-name="Grupo 417" transform="translate(184.712 71.675)">
        <path id="Caminho_1243" data-name="Caminho 1243" d="M674.363,649.374l-2.806.542L668.8,634.8l.886-3.1,1.92,2.609Z" transform="translate(-668.012 -631.7)" fill="#2a94f4"/>
        <path id="Caminho_1244" data-name="Caminho 1244" d="M696.057,655.468l-2.757-.689,3.643-14.868,2.117-2.511.689,3.2Z" transform="translate(-680.451 -634.594)" fill="#dcf2ff"/>
        <path id="Caminho_1245" data-name="Caminho 1245" d="M693.655,651.814l-2.855-.345,1.772-15.261,1.772-2.708,1.083,3.052Z" transform="translate(-679.182 -632.614)" fill="#80d5ff"/>
        <path id="Caminho_1246" data-name="Caminho 1246" d="M686.006,651.1l-.2,5.021-.492,11.717-.492,12.9h-16.1l-.64-12.9-.64-11.717L667.2,651.1Z" transform="translate(-667.2 -641.549)" fill="#3a386e"/>
        <path id="Caminho_1247" data-name="Caminho 1247" d="M686.063,661.3l-.492,11.717H668.34L667.7,661.3Z" transform="translate(-667.454 -646.728)" fill="#2a94f4"/>
      </g>
      <g id="Grupo_418" data-name="Grupo 418" transform="translate(105.495 1.478)">
        <path id="Caminho_1248" data-name="Caminho 1248" d="M506.688,506.386c-.935-.64.1-3.249-.148-4.431a4.361,4.361,0,0,1,1.182-3.545c2.462-2.855,6.1-3.988,9.649-4.234s7.089.2,10.584-.148c3.545-.345,7.188-1.674,9.452-4.726a1.772,1.772,0,0,1,1.772.1,21.164,21.164,0,0,1,2.855,4.775,7.625,7.625,0,0,1,.1,5.612c-.985,2.265-3.889,3.938-6.006,4.726C536.128,504.417,516.731,513.032,506.688,506.386Z" transform="translate(-506.288 -489.112)" fill="#0e538c"/>
      </g>
      <path id="Caminho_1249" data-name="Caminho 1249" d="M560.3,516.275l4.283,8.96,2.363-10.535Z" transform="translate(-428.215 -500.625)" fill="#0e538c"/>
      <path id="Caminho_1250" data-name="Caminho 1250" d="M511.42,521.14c-.788.788-1.969,8.96-1.969,8.96l-3.151-9.6Z" transform="translate(-400.799 -503.569)" fill="#0e538c"/>
      <rect id="Retângulo_173" data-name="Retângulo 173" width="208.884" height="3.348" transform="translate(17.674 116.13)" fill="#80d5ff"/>
    </g>
    <g id="Grupo_421" data-name="Grupo 421" transform="translate(244.835 50)">
      <path id="Caminho_1251" data-name="Caminho 1251" d="M489.451,256.3,476.7,272.694l20.283,26.24.049-18.264Z" transform="translate(-476.7 -154.738)" fill="#3a386e"/>
      <path id="Caminho_1252" data-name="Caminho 1252" d="M564.331,256.4l12.7,16.394L556.7,299.033V280.72Z" transform="translate(-517.316 -154.789)" fill="#3a386e"/>
      <path id="Caminho_1253" data-name="Caminho 1253" d="M537.125,299.7l-.739,7.532H523.242L522.7,299.7Z" transform="translate(-500.054 -176.772)" fill="#0e538c"/>
      <path id="Caminho_1254" data-name="Caminho 1254" d="M513.484,50S529.632,73.187,535,99.821l.3,1.477c.1.492.2.985.246,1.477a80.488,80.488,0,0,1,1.182,13.341c0,21.514-6.7,45.784-13.489,59.815h-19.4c-6.794-14.08-13.735-38.35-13.735-59.864a81.431,81.431,0,0,1,1.182-13.341c.1-.492.2-.985.246-1.477l.3-1.477C497.288,73.187,513.484,50,513.484,50Z" transform="translate(-483.503 -50)" fill="#cce9ff"/>
      <g id="Grupo_420" data-name="Grupo 420" transform="translate(7.828)">
        <path id="Caminho_1255" data-name="Caminho 1255" d="M515.007,50s16.148,23.187,21.514,49.821l.3,1.477a37.846,37.846,0,0,1-21.858,7.138,38.38,38.38,0,0,1-21.858-7.188l.3-1.477C498.811,73.187,515.007,50,515.007,50Z" transform="translate(-492.854 -50)" fill="#3a386e"/>
        <path id="Caminho_1256" data-name="Caminho 1256" d="M493.142,151.1l-.3,1.477c-.1.492-.2.985-.246,1.477a41.061,41.061,0,0,0,9.944,5.021,36.909,36.909,0,0,0,12.16,2.068,37.947,37.947,0,0,0,12.16-2.018,41.061,41.061,0,0,0,9.945-5.021c-.1-.492-.148-.985-.246-1.477l-.3-1.477a35.455,35.455,0,0,1-43.126-.049Z" transform="translate(-492.6 -101.328)" fill="#3a386e"/>
      </g>
      <path id="Caminho_1257" data-name="Caminho 1257" d="M499.7,100.449C501.768,92.72,512.8,67.514,516.734,62c-1.526,5.169-14.474,36.037-12.406,38.449A16.82,16.82,0,0,1,499.7,100.449Z" transform="translate(-488.377 -56.092)" fill="#fff"/>
      <path id="Caminho_1258" data-name="Caminho 1258" d="M537.269,256.4l-.049,34.166-2.56,8.418-2.56-8.418.049-34.166Z" transform="translate(-504.826 -154.789)" fill="#3a386e"/>
    </g>
    <ellipse id="Elipse_166" data-name="Elipse 166" cx="17.5" cy="18" rx="17.5" ry="18" transform="translate(489 297.397)" fill="#f2f2f2"/>
    <ellipse id="Elipse_167" data-name="Elipse 167" cx="4.5" cy="4" rx="4.5" ry="4" transform="translate(452 299.397)" fill="#f2f2f2"/>
    <circle id="Elipse_168" data-name="Elipse 168" cx="10" cy="10" r="10" transform="translate(461 261.397)" fill="#f2f2f2"/>
    <circle id="Elipse_169" data-name="Elipse 169" cx="17" cy="17" r="17" transform="translate(43 273.397)" fill="#f2f2f2"/>
    <ellipse id="Elipse_170" data-name="Elipse 170" cx="4.5" cy="4" rx="4.5" ry="4" transform="translate(91 299.397)" fill="#f2f2f2"/>
    <circle id="Elipse_171" data-name="Elipse 171" cx="10" cy="10" r="10" transform="translate(87 244.397)" fill="#f2f2f2"/>
    <g id="Grupo_423" data-name="Grupo 423" transform="translate(402.323 365.514)">
      <path id="Caminho_1259" data-name="Caminho 1259" d="M882.677,868.444c-8.025,0-11.421-6.449-12.8-13.243a55.118,55.118,0,0,1-.394-15.9h26.387s.049.3.1.886C896.412,845.06,898.037,868.444,882.677,868.444Z" transform="translate(-833.397 -766.239)" fill="#b6e7ff"/>
      <path id="Caminho_1260" data-name="Caminho 1260" d="M896.287,838.334c0,.591-5.908,1.034-13.194,1.034s-13.194-.443-13.194-1.034,5.908-1.034,13.194-1.034S896.287,837.743,896.287,838.334Z" transform="translate(-833.814 -765.224)" fill="#85ddff"/>
      <path id="Caminho_1261" data-name="Caminho 1261" d="M830,690.9s13.883,21.169,22.252,34.067c8.32,12.9,10.535,15.606,11.52,19.791s1.871,19.544,1.871,19.544h1.083s.689-13-.591-17.28-.788-5.957-.2-10.437,1.378-11.618-3.151-16.591-3.348-9.846-4.923-13.1c-1.575-3.3-13.883-7.237-15.508-10.634C840.831,692.866,833.889,690.8,830,690.9Z" transform="translate(-813.557 -690.893)" fill="#3a386e"/>
      <path id="Caminho_1262" data-name="Caminho 1262" d="M830,690.9s4.381,4.972,7.335,6.646c3,1.674,4.381.2,6.646,4.283s2.363,5.858,4.48,7.926c2.068,2.068,4.578,2.166,4.775,6.745a28.324,28.324,0,0,1-.985,8.468S830.886,691.983,830,690.9Z" transform="translate(-813.557 -690.897)" fill="#fff" opacity="0.26"/>
      <path id="Caminho_1263" data-name="Caminho 1263" d="M845.436,785.789h-.985s-.3-6.745-3-10.043c-1.723-2.117-9.058-4.529-16.344-7.385a67.1,67.1,0,0,1-10.978-5.218c-8.468-5.366-16.492-22.646-17.181-25.747a10.692,10.692,0,0,1-.345-2.166h0c0-.837.443-.935,1.132-1.772.345-.394,1.378-.246,2.609.1a15.179,15.179,0,0,1,8.615,6.892c1.772,3.052,4.578,6.843,8.025,7.778,5.957,1.575,5.465,2.56,7.68,8.665,2.215,6.055,7.729,7.04,14.671,14.178C846.323,778.257,845.436,785.789,845.436,785.789Z" transform="translate(-796.6 -712.383)" fill="#3a386e"/>
      <path id="Caminho_1264" data-name="Caminho 1264" d="M825.1,770.432a67.115,67.115,0,0,1-10.978-5.218c-8.468-5.366-16.492-22.646-17.181-25.747a10.693,10.693,0,0,1-.345-2.166c0,.2.394,2.954,4.825,4.775,4.578,1.871,5.465,1.871,6.055,4.775.591,2.855,1.083,5.957,3.5,6.548,2.363.591,3.889-2.068,5.76,2.265,1.871,4.382,2.806,5.858,4.529,6.449s3.052-.3,3.446,3.1C824.907,767.281,825.055,769.2,825.1,770.432Z" transform="translate(-796.6 -714.454)" fill="#fff" opacity="0.26"/>
      <g id="Grupo_422" data-name="Grupo 422" transform="translate(36.48 73.947)">
        <path id="Caminho_1265" data-name="Caminho 1265" d="M883.5,869.358c-8.025,0-11.421-6.449-12.8-13.243,7.877-3,17.821-7.778,26.043-15.015C897.235,845.974,898.86,869.358,883.5,869.358Z" transform="translate(-870.7 -841.1)" fill="#cce9ff"/>
      </g>
    </g>
    <g id="Grupo_425" data-name="Grupo 425" transform="translate(63.372 345.179)">
      <path id="Caminho_1266" data-name="Caminho 1266" d="M178.307,862.453c9.649,0,13.735-7.729,15.311-15.9a66.733,66.733,0,0,0,.492-19.052H162.5s-.049.394-.1,1.034C161.766,834.392,159.846,862.453,178.307,862.453Z" transform="translate(-135.477 -739.913)" fill="#b6e7ff"/>
      <path id="Caminho_1267" data-name="Caminho 1267" d="M162.9,826.331c0,.689,7.089,1.231,15.8,1.231s15.8-.542,15.8-1.231-7.089-1.231-15.8-1.231S162.9,825.642,162.9,826.331Z" transform="translate(-135.922 -738.695)" fill="#85ddff"/>
      <path id="Caminho_1268" data-name="Caminho 1268" d="M108.1,649.594s16.689,25.354,26.683,40.861,12.6,18.708,13.834,23.68c1.182,5.021,2.265,23.483,2.265,23.483h.738s-.246-15.655-1.182-20.923c-.886-5.12.049-6.941.788-12.308s1.674-13.932-3.742-19.889-3.988-11.766-5.908-15.7-16.689-8.714-18.56-12.751C121.1,651.957,112.728,649.446,108.1,649.594Z" transform="translate(-108.1 -649.587)" fill="#3a386e"/>
      <path id="Caminho_1269" data-name="Caminho 1269" d="M108.1,649.6s5.218,5.957,8.812,7.975,5.218.246,7.975,5.12,2.855,7.04,5.366,9.551,5.465,2.609,5.711,8.074a33.62,33.62,0,0,1-1.182,10.141S109.183,650.88,108.1,649.6Z" transform="translate(-108.1 -649.594)" fill="#fff" opacity="0.26"/>
      <path id="Caminho_1270" data-name="Caminho 1270" d="M154.578,787.551h-.738s-.246-5.071-2.215-7.532c-1.28-1.575-6.794-3.4-12.258-5.563a49.253,49.253,0,0,1-8.221-3.938c-6.351-4.037-12.406-17.034-12.9-19.348a6.719,6.719,0,0,1-.246-1.625h0c0-.64.345-.738.837-1.329.246-.3,1.034-.2,1.969.1a11.242,11.242,0,0,1,6.449,5.169c1.329,2.314,3.446,5.169,6.006,5.858,4.48,1.182,4.086,1.92,5.76,6.5,1.625,4.529,5.809,5.317,11.028,10.683C155.218,781.89,154.578,787.551,154.578,787.551Z" transform="translate(-113.126 -699.57)" fill="#3a386e"/>
      <path id="Caminho_1271" data-name="Caminho 1271" d="M139.266,776.11a49.248,49.248,0,0,1-8.221-3.938c-6.351-4.037-12.406-17.034-12.9-19.348a6.719,6.719,0,0,1-.246-1.625c0,.148.3,2.215,3.594,3.594,3.446,1.428,4.086,1.428,4.529,3.594s.837,4.48,2.609,4.923,2.9-1.575,4.332,1.723,2.117,4.382,3.4,4.825,2.314-.246,2.56,2.314C139.118,773.7,139.217,775.175,139.266,776.11Z" transform="translate(-113.075 -701.176)" fill="#fff" opacity="0.26"/>
      <path id="Caminho_1272" data-name="Caminho 1272" d="M203.367,752.635h.886s1.723-31.409,4.135-34.313c1.526-1.871,6.6-5.268,13.1-7.828a64.394,64.394,0,0,0,9.748-4.628c7.532-4.775,14.671-20.135,15.261-22.892a10.693,10.693,0,0,0,.3-1.92h0c0-.738-.394-.837-1.034-1.575-.3-.345-1.231-.246-2.314.1a13.427,13.427,0,0,0-7.68,6.154c-1.575,2.708-4.086,6.1-7.138,6.942-5.317,1.428-4.874,2.314-6.794,7.68-1.969,5.415-6.892,6.252-13.046,12.652C202.579,719.306,203.367,752.635,203.367,752.635Z" transform="translate(-156.45 -664.654)" fill="#3a386e"/>
      <path id="Caminho_1273" data-name="Caminho 1273" d="M240.1,712.44a64.393,64.393,0,0,0,9.748-4.628c7.532-4.775,14.671-20.135,15.261-22.892a10.693,10.693,0,0,0,.3-1.92c0,.2-.394,2.609-4.283,4.234-4.037,1.674-4.874,1.674-5.366,4.234-.542,2.56-.985,5.317-3.1,5.809-2.117.542-3.446-1.871-5.12,2.018s-2.462,5.218-4.037,5.76c-1.526.542-2.708-.246-3.052,2.757C240.3,709.584,240.149,711.357,240.1,712.44Z" transform="translate(-175.116 -666.551)" fill="#fff" opacity="0.26"/>
      <g id="Grupo_424" data-name="Grupo 424" transform="translate(26.525 88.621)">
        <path id="Caminho_1274" data-name="Caminho 1274" d="M178.285,863.52c9.649,0,13.735-7.729,15.311-15.9-9.452-3.594-21.366-9.354-31.261-18.018C161.743,835.458,159.823,863.52,178.285,863.52Z" transform="translate(-161.979 -829.6)" fill="#cce9ff"/>
      </g>
    </g>
  </g>
</svg>
