<svg xmlns="http://www.w3.org/2000/svg" width="427.165" height="435.912" viewBox="0 0 427.165 435.912">
  <g id="support-team" transform="translate(-145.2 -39.289)">
    <path id="Caminho_624" data-name="Caminho 624" d="M182.322,410.848c.932,2.3,1.962,4.61,3.089,6.816,16.771,32.905,50.8,53.649,87.093,57.376,29.031,2.942,57.277-6.522,81.552-21.969,24.225-15.4,43.645-37.073,70.567-48.352,37.956-15.84,80.277-28.344,110.043-61.887,33.837-38.1,46.881-95.871,30.944-144.616-15.5-47.568-66.938-62.966-106.9-83.906C386.864,76.6,287.364,51.54,212.579,95.822c-89.594,53.011-73.313,173.352-44.92,256.866C174.133,371.715,174.918,392.213,182.322,410.848Z" transform="translate(0 -16.806)" fill="#cce9ff" opacity="0.37"/>
    <path id="Caminho_625" data-name="Caminho 625" d="M259.987,294.9l-.147-.932h-.932c-18.144,0-24.029-5.836-24.078-5.885l-.785-.883-.785.883c-.049.049-5.885,5.885-24.078,5.885h-.932l-.147.932c-.049.294-3.874,29.521,25.451,44.527l.49.245.49-.245C263.959,324.421,259.987,295.193,259.987,294.9Zm-4.414,18.1c-3.629,10.494-10.887,18.635-21.577,24.225-10.69-5.59-17.948-13.731-21.577-24.225a43.385,43.385,0,0,1-2.3-16.82c15.1-.2,21.822-4.217,23.882-5.885,2.06,1.618,8.778,5.689,23.882,5.885A43.3,43.3,0,0,1,255.574,312.994Z" transform="translate(-31.961 -126.338)" fill="#3a386e"/>
    <g id="Grupo_85" data-name="Grupo 85" transform="translate(240.482 96.376)">
      <path id="Caminho_626" data-name="Caminho 626" d="M355.83,190.321l-1.03-2.7a12.7,12.7,0,0,1-2.7-.637l-2.109,1.962-6.081-4.364,1.177-2.648a11.8,11.8,0,0,1-1.471-2.354l-2.893-.1-1.226-7.4,2.7-1.03a12.7,12.7,0,0,1,.638-2.7l-1.962-2.109,4.364-6.13,2.648,1.177a11.8,11.8,0,0,1,2.354-1.471l.1-2.893,7.4-1.226,1.03,2.7a12.7,12.7,0,0,1,2.7.637l2.109-1.962,6.081,4.364-1.177,2.648a11.8,11.8,0,0,1,1.471,2.354l2.893.1,1.226,7.4-2.7,1.03a16.608,16.608,0,0,1-.637,2.7l1.962,2.109-4.364,6.13-2.648-1.177a11.8,11.8,0,0,1-2.354,1.471l-.1,2.893Zm-4.217-5.689.588.245a11.661,11.661,0,0,0,3.433.785l.637.049.883,2.3,4.07-.687.1-2.452.588-.245a14.534,14.534,0,0,0,2.991-1.863l.49-.392,2.256,1.03,2.4-3.335-1.716-1.814.245-.588a11.662,11.662,0,0,0,.785-3.433l.049-.638,2.3-.883-.687-4.07-2.452-.1-.245-.588a14.534,14.534,0,0,0-1.863-2.991l-.392-.49,1.03-2.256-3.335-2.4-1.814,1.667-.589-.245a11.66,11.66,0,0,0-3.433-.785l-.637-.049-.883-2.3-4.07.687-.1,2.452-.588.245a14.535,14.535,0,0,0-2.991,1.863l-.49.392-2.256-1.03-2.4,3.335,1.716,1.814-.245.588a11.662,11.662,0,0,0-.785,3.433l-.049.637-2.3.883.687,4.07,2.452.1.245.588a14.537,14.537,0,0,0,1.863,2.991l.392.49-1.03,2.256,3.335,2.4Zm5.1-3.433a8.161,8.161,0,1,1,4.757-14.81,8.159,8.159,0,0,1-3.335,14.712C357.6,181.151,357.154,181.2,356.713,181.2Zm0-14.27a6.088,6.088,0,0,0-3.531,11.034h0a6.083,6.083,0,0,0,7.062-9.906A6.281,6.281,0,0,0,356.713,166.93Z" transform="translate(-339.5 -155.7)" fill="#3a386e"/>
    </g>
    <g id="Grupo_86" data-name="Grupo 86" transform="translate(454.635 133.498)">
      <path id="Caminho_627" data-name="Caminho 627" d="M813.47,308.832l-2.3-6.032a32.766,32.766,0,0,1-7.209-1.667l-4.708,4.414-12.75-9.072,2.648-5.885a32.944,32.944,0,0,1-3.923-6.277l-6.424-.2-2.6-15.447,6.032-2.3a32.764,32.764,0,0,1,1.667-7.209l-4.414-4.708,9.072-12.75,5.885,2.648a32.941,32.941,0,0,1,6.277-3.923l.2-6.424,15.447-2.6,2.3,6.032a32.769,32.769,0,0,1,7.209,1.667l4.708-4.414,12.75,9.072-2.648,5.885a32.943,32.943,0,0,1,3.923,6.277l6.424.2,2.6,15.447-6.032,2.3a32.77,32.77,0,0,1-1.667,7.209l4.414,4.708-9.072,12.75-5.885-2.648a32.941,32.941,0,0,1-6.277,3.923l-.2,6.424Zm-10.2-10.838.785.294a30.694,30.694,0,0,0,8.14,1.863l.883.1,2.109,5.492,10.985-1.863.2-5.885.785-.343a29.88,29.88,0,0,0,7.111-4.462l.638-.539,5.394,2.4,6.473-9.072-4.021-4.315.294-.785a30.7,30.7,0,0,0,1.863-8.14l.049-.883,5.492-2.109-1.863-10.985-5.885-.2-.343-.785a29.882,29.882,0,0,0-4.463-7.111l-.539-.638,2.4-5.394-9.072-6.473-4.315,4.021-.785-.294a30.7,30.7,0,0,0-8.14-1.863l-.883-.049-2.109-5.492-10.985,1.863-.2,5.885-.785.343a29.883,29.883,0,0,0-7.111,4.463l-.637.539-5.394-2.4-6.375,9.072,4.021,4.315-.294.785a30.7,30.7,0,0,0-1.863,8.14l-.049.883-5.492,2.109,1.864,10.985,5.885.2.343.785a29.879,29.879,0,0,0,4.463,7.111l.539.638-2.4,5.394,9.072,6.473Zm11.573-10.1a17.78,17.78,0,1,1,14.516-7.454A17.83,17.83,0,0,1,814.843,287.893Zm.049-32.807a15.052,15.052,0,1,0,12.26,23.784,15.225,15.225,0,0,0,2.6-11.23,15.1,15.1,0,0,0-14.859-12.554Z" transform="translate(-776.2 -231.4)" fill="#3a386e"/>
    </g>
    <path id="Caminho_628" data-name="Caminho 628" d="M296.954,512.577c-2.354-6.62-5.051-14.074-2.06-21.724,4.021-10.3-4.512-15.594-12.015-20.351-6.473-4.021-12.554-7.846-10.494-14.172,2.256-6.865,2.109-12.162-.441-15.643-2.158-2.942-5.983-4.512-11.083-4.463-4.07.049-7.7-4.953-11.573-10.2-4.561-6.179-9.219-12.554-15.1-11.132a3.47,3.47,0,0,0-2.354,1.765c-2.06,3.874,1.177,13.093,4.659,22.9,3.727,10.592,7.993,22.558,5.2,27.658-3.04,5.59,2.452,10.69,8.288,16.134,6.179,5.738,13.191,12.26,11.328,20.449-1.765,7.65-2.158,10.494-1.079,12.162.834,1.324,2.55,1.618,5.149,2.109a53.744,53.744,0,0,1,6.767,1.618c11.818,3.678,15.251,11.328,15.3,11.426l.147.343.343-.049c5.688-.883,9.023-2.5,10.592-5.1.1-.147.147-.294.245-.441C300.436,522.384,298.818,517.824,296.954,512.577Z" transform="translate(-43.82 -191.308)" fill="#3a386e"/>
    <path id="Caminho_629" data-name="Caminho 629" d="M237.981,548.117c1.962,3.04,3.384,5.689,3.237,9.415-.1,3.482-.637,6.914-.932,10.347-.049.736-.1,1.422-.147,2.109-.981-.834-1.913-1.667-2.893-2.5a12.4,12.4,0,0,0-1.373-.049c1.373,1.128,2.8,2.354,4.168,3.58-.147,2.4-.2,4.806-.2,7.209,0,1.422-.049,2.942.049,4.364-1.275-.785-2.6-1.569-3.825-2.354a91.006,91.006,0,0,0-10.151-5.737c-2.109-.883-4.463-1.667-6.718-2.4-5.885-1.913-11.916-3.874-13.927-8.042-1.03-2.158-.932-4.757.294-7.9,3.089-8.091.2-9.464-4.659-11.818a35.147,35.147,0,0,1-13.142-9.857c-2.109-2.55-3.972-4.757-5.639-6.669-4.953-5.836-7.7-9.023-7.356-10.887a2.131,2.131,0,0,1,.834-1.226,5.127,5.127,0,0,1,.932-.588c1.863-1.03,3.727-.245,5.836.637,2.844,1.177,6.326,2.7,11.181.2,3.825-1.962,8.091-3.776,10.641-2.3,1.765.981,2.8,3.531,3.138,7.7a3.606,3.606,0,0,0,1.275,2.8c1.079.785,2.746.687,4.659.294h0a9.893,9.893,0,0,0,5.1,3.433c2.893,1.03,5.051,1.962,7.16,4.315A128.1,128.1,0,0,1,237.981,548.117Z" transform="translate(-15.055 -241.462)" fill="#2a94f4"/>
    <path id="Caminho_630" data-name="Caminho 630" d="M235.72,566.907c-2.942-1.962-5.492-6.718-7.944-11.328-3.335-6.277-6.816-12.75-11.573-12.6-7.65.2-14.466-8.827-14.565-8.876l-.638.49c.294.392,7.16,9.415,15.2,9.219,4.266-.1,7.65,6.13,10.838,12.211,2.5,4.659,5.1,9.514,8.189,11.622,1.863,1.226,5.3,3.727,9.366,6.914v-1.03A95.849,95.849,0,0,0,235.72,566.907Z" transform="translate(-28.436 -252.161)" fill="#fff"/>
    <path id="Caminho_631" data-name="Caminho 631" d="M786.8,553.213s4.414-10.985-3.629-26.579c-8.091-15.594-14.614-13.192,4.855-25.206s.1-49.774,16.673-54.58,30.944-65.957,43.547-58.16-4.217,37.76,4.806,46.783c8.974,9.023,10.2,20.449-8.386,29.718s13.191,44.674-12.015,55.463S814.7,573.76,786.8,553.213Z" transform="translate(-321.084 -177.708)" fill="#3a386e"/>
    <g id="Grupo_87" data-name="Grupo 87" transform="translate(472.978 245.993)">
      <path id="Caminho_632" data-name="Caminho 632" d="M814.043,601.934c-.049-.147-2.746-14.172,5.836-32.317,8.729-18.488,12.9-38.692,11.181-54.09-.932-8.337,4.413-11.573,9.563-14.712,5.1-3.089,10.347-6.326,10.053-14.516-.245-7.4,2.893-24.765,2.991-25.5l1.128.2c-.049.2-3.237,18-2.991,25.255.294,8.876-5.247,12.26-10.592,15.5-5.1,3.089-9.857,6.032-9.023,13.633,1.765,15.545-2.452,35.995-11.279,54.678-8.386,17.8-5.787,31.483-5.738,31.63Z" transform="translate(-813.604 -460.8)" fill="#fff"/>
    </g>
    <path id="Caminho_633" data-name="Caminho 633" d="M905.618,561.041c7.013-3.335,14.467-1.814,10.592,5.2s-9.661,7.552-8.582,13.093,3.923,11.573-5.2,15.1c-9.121,3.482-13.388,2.893-18.929,13.142-5.59,10.249-7.5,17.85-17.065,15.4-9.563-2.5-1.618-15.1,3.335-20.4a21.585,21.585,0,0,0,6.62-15.938c-.1-10.249-4.315-17.115,8.925-16.428C898.556,570.8,900.861,563.3,905.618,561.041Z" transform="translate(-365.263 -265.028)" fill="#0e538c"/>
    <g id="Grupo_88" data-name="Grupo 88" transform="translate(499.653 302.633)">
      <path id="Caminho_634" data-name="Caminho 634" d="M868,638.776c.392-1.324,9.612-33.052,17.164-36.485,7.7-3.531,11.867-12.75,13.682-17.9,2.354-6.718,12.407-8.042,12.8-8.091l.147,1.128c-.1,0-9.759,1.275-11.867,7.307-2.256,6.522-6.571,15.055-14.27,18.586-7.062,3.237-16.428,35.455-16.526,35.8Z" transform="translate(-868 -576.3)" fill="#fff"/>
    </g>
    <path id="Caminho_635" data-name="Caminho 635" d="M310.069,548.71c-15.1-3.776-15.3-11.917-15.5-19.763-.147-6.424-.294-12.5-8.484-16.232-10.838-4.953-11.083-14.123-11.328-22.215-.2-6.032-.343-11.72-4.855-14.81-10.838-7.4-20.008-25.353-20.106-25.549l.834-.441c.1.2,9.121,17.9,19.812,25.206,4.9,3.335,5.1,9.268,5.247,15.545.245,8.189.49,16.722,10.789,21.381,8.68,3.972,8.876,10.641,9.023,17.066.2,7.846.392,15.3,14.81,18.88Z" transform="translate(-53.305 -209.15)" fill="#fff"/>
    <g id="Grupo_146" data-name="Grupo 146" transform="translate(209.343 148.553)">
      <g id="Grupo_89" data-name="Grupo 89" transform="translate(27.069)">
        <path id="Caminho_636" data-name="Caminho 636" d="M331.2,445.849H579.288V266.759a4.657,4.657,0,0,0-4.659-4.659H335.859a4.657,4.657,0,0,0-4.659,4.659Z" transform="translate(-331.2 -262.1)" fill="#f7f7f7"/>
      </g>
      <g id="Grupo_90" data-name="Grupo 90" transform="translate(35.832 8.981)">
        <rect id="Retângulo_90" data-name="Retângulo 90" width="230.09" height="141.379" transform="translate(230.09 141.379) rotate(180)" fill="#0b4870" stroke="#fff" stroke-miterlimit="10" stroke-width="0.5"/>
      </g>
      <path id="Caminho_637" data-name="Caminho 637" d="M551.157,582.7H303.168L276,684.161H578.276Z" transform="translate(-276 -425.481)" fill="#f2f2f2"/>
      <path id="Caminho_638" data-name="Caminho 638" d="M347.67,619h15.251c.637,0,1.128.49.981,1.03l-1.471,6.62a.974.974,0,0,1-.981.687h-15.5a.908.908,0,0,1-.981-1.079l1.716-6.62A1,1,0,0,1,347.67,619Z" transform="translate(-311.136 -443.98)" fill="#0b4870" stroke="#fff" stroke-miterlimit="10" stroke-width="0.5"/>
      <path id="Caminho_639" data-name="Caminho 639" d="M393.965,619H405.49l-1.52,8.386H392.2Z" transform="translate(-335.217 -443.98)" fill="#0b4870" stroke="#fff" stroke-miterlimit="10" stroke-width="0.5"/>
      <path id="Caminho_640" data-name="Caminho 640" d="M429.522,619h11.524l-1.177,8.386H428.1Z" transform="translate(-353.512 -443.98)" fill="#0b4870" stroke="#fff" stroke-miterlimit="10" stroke-width="0.5"/>
      <path id="Caminho_641" data-name="Caminho 641" d="M465.128,619h11.524l-.883,8.386H464Z" transform="translate(-371.807 -443.98)" fill="#0b4870" stroke="#fff" stroke-miterlimit="10" stroke-width="0.5"/>
      <path id="Caminho_642" data-name="Caminho 642" d="M500.685,619h11.524l-.539,8.386H499.9Z" transform="translate(-390.102 -443.98)" fill="#0b4870" stroke="#fff" stroke-miterlimit="10" stroke-width="0.5"/>
      <path id="Caminho_643" data-name="Caminho 643" d="M536.241,619h11.524l-.2,8.386H535.8Z" transform="translate(-408.397 -443.98)" fill="#0b4870" stroke="#fff" stroke-miterlimit="10" stroke-width="0.5"/>
      <path id="Caminho_644" data-name="Caminho 644" d="M800.711,619H783.4l1.863,8.386h17.6Z" transform="translate(-534.577 -443.98)" fill="#0b4870" stroke="#fff" stroke-miterlimit="10" stroke-width="0.5"/>
      <path id="Caminho_645" data-name="Caminho 645" d="M759.724,619H748.2l1.52,8.386H761.49Z" transform="translate(-516.638 -443.98)" fill="#0b4870" stroke="#fff" stroke-miterlimit="10" stroke-width="0.5"/>
      <path id="Caminho_646" data-name="Caminho 646" d="M724.524,619H713l1.177,8.386h11.769Z" transform="translate(-498.7 -443.98)" fill="#0b4870" stroke="#fff" stroke-miterlimit="10" stroke-width="0.5"/>
      <path id="Caminho_647" data-name="Caminho 647" d="M689.224,619H677.7l.883,8.386h11.769Z" transform="translate(-480.711 -443.98)" fill="#0b4870" stroke="#fff" stroke-miterlimit="10" stroke-width="0.5"/>
      <path id="Caminho_648" data-name="Caminho 648" d="M654.024,619H642.5l.539,8.386h11.769Z" transform="translate(-462.773 -443.98)" fill="#0b4870" stroke="#fff" stroke-miterlimit="10" stroke-width="0.5"/>
      <path id="Caminho_649" data-name="Caminho 649" d="M618.824,619H607.3l.2,8.386h11.769Z" transform="translate(-444.834 -443.98)" fill="#0b4870" stroke="#fff" stroke-miterlimit="10" stroke-width="0.5"/>
      <path id="Caminho_650" data-name="Caminho 650" d="M572,619h11.524l.147,8.386H572Z" transform="translate(-426.845 -443.98)" fill="#0b4870" stroke="#fff" stroke-miterlimit="10" stroke-width="0.5"/>
      <path id="Caminho_651" data-name="Caminho 651" d="M338.263,648.8h24.029l-1.373,8.631H336.4Z" transform="translate(-306.781 -459.167)" fill="#0b4870" stroke="#fff" stroke-miterlimit="10" stroke-width="0.5"/>
      <path id="Caminho_652" data-name="Caminho 652" d="M795.418,648.8H765.7l1.667,8.631h30.355Z" transform="translate(-525.557 -459.167)" fill="#0b4870" stroke="#fff" stroke-miterlimit="10" stroke-width="0.5"/>
      <path id="Caminho_653" data-name="Caminho 653" d="M741.167,648.8H729.3l1.324,8.631h12.162Z" transform="translate(-507.007 -459.167)" fill="#0b4870" stroke="#fff" stroke-miterlimit="10" stroke-width="0.5"/>
      <path id="Caminho_654" data-name="Caminho 654" d="M704.767,648.8H692.9l.981,8.631h12.162Z" transform="translate(-488.457 -459.167)" fill="#0b4870" stroke="#fff" stroke-miterlimit="10" stroke-width="0.5"/>
      <path id="Caminho_655" data-name="Caminho 655" d="M668.367,648.8H656.5l.687,8.631H669.3Z" transform="translate(-469.907 -459.167)" fill="#0b4870" stroke="#fff" stroke-miterlimit="10" stroke-width="0.5"/>
      <path id="Caminho_656" data-name="Caminho 656" d="M631.967,648.8H620.1l.343,8.631h12.113Z" transform="translate(-451.357 -459.167)" fill="#0b4870" stroke="#fff" stroke-miterlimit="10" stroke-width="0.5"/>
      <path id="Caminho_657" data-name="Caminho 657" d="M330.456,680.1h24.618l-1.814,8.582H328.2Z" transform="translate(-302.602 -475.117)" fill="#0b4870" stroke="#fff" stroke-miterlimit="10" stroke-width="0.5"/>
      <path id="Caminho_658" data-name="Caminho 658" d="M393.767,680.1h12.309l-1.422,8.582H392.1Z" transform="translate(-335.166 -475.117)" fill="#0b4870" stroke="#fff" stroke-miterlimit="10" stroke-width="0.5"/>
      <path id="Caminho_659" data-name="Caminho 659" d="M431.773,680.1h92.242l.343,8.582H430.4Z" transform="translate(-354.684 -475.117)" fill="#0b4870" stroke="#fff" stroke-miterlimit="10" stroke-width="0.5"/>
      <path id="Caminho_660" data-name="Caminho 660" d="M633.9,680.1h12.309l.687,8.582H634.341Z" transform="translate(-458.39 -475.117)" fill="#0b4870" stroke="#fff" stroke-miterlimit="10" stroke-width="0.5"/>
      <path id="Caminho_661" data-name="Caminho 661" d="M671.5,680.1h12.309l1.03,8.582H672.285Z" transform="translate(-477.551 -475.117)" fill="#0b4870" stroke="#fff" stroke-miterlimit="10" stroke-width="0.5"/>
      <path id="Caminho_662" data-name="Caminho 662" d="M709.2,680.1h12.309l1.324,8.582h-12.5Z" transform="translate(-496.764 -475.117)" fill="#0b4870" stroke="#fff" stroke-miterlimit="10" stroke-width="0.5"/>
      <path id="Caminho_663" data-name="Caminho 663" d="M746.8,680.1h12.309l1.667,8.582h-12.5Z" transform="translate(-515.925 -475.117)" fill="#0b4870" stroke="#fff" stroke-miterlimit="10" stroke-width="0.5"/>
      <path id="Caminho_664" data-name="Caminho 664" d="M784.4,680.1h24.617l2.256,8.582H786.214Z" transform="translate(-535.086 -475.117)" fill="#0b4870" stroke="#fff" stroke-miterlimit="10" stroke-width="0.5"/>
      <path id="Caminho_665" data-name="Caminho 665" d="M595.718,648.8H583.9v8.631h12.015Z" transform="translate(-432.909 -459.167)" fill="#0b4870" stroke="#fff" stroke-miterlimit="10" stroke-width="0.5"/>
      <path id="Caminho_666" data-name="Caminho 666" d="M558.86,648.8H546.943l-.343,8.631h12.162Z" transform="translate(-413.901 -459.167)" fill="#0b4870" stroke="#fff" stroke-miterlimit="10" stroke-width="0.5"/>
      <path id="Caminho_667" data-name="Caminho 667" d="M522.1,648.8H510.187l-.687,8.631h12.162Z" transform="translate(-394.994 -459.167)" fill="#0b4870" stroke="#fff" stroke-miterlimit="10" stroke-width="0.5"/>
      <path id="Caminho_668" data-name="Caminho 668" d="M485.346,648.8H473.43l-1.03,8.631h12.162Z" transform="translate(-376.088 -459.167)" fill="#0b4870" stroke="#fff" stroke-miterlimit="10" stroke-width="0.5"/>
      <path id="Caminho_669" data-name="Caminho 669" d="M448.59,648.8H436.673l-1.373,8.631h12.162Z" transform="translate(-357.181 -459.167)" fill="#0b4870" stroke="#fff" stroke-miterlimit="10" stroke-width="0.5"/>
      <path id="Caminho_670" data-name="Caminho 670" d="M411.884,648.8H399.967l-1.667,8.631h12.113Z" transform="translate(-338.325 -459.167)" fill="#0b4870" stroke="#fff" stroke-miterlimit="10" stroke-width="0.5"/>
      <path id="Caminho_671" data-name="Caminho 671" d="M351.6,600.554l1.962-7.454h5.59l-1.814,7.454Z" transform="translate(-314.527 -430.781)" fill="#0b4870" stroke="#fff" stroke-miterlimit="10" stroke-width="0.5"/>
      <path id="Caminho_672" data-name="Caminho 672" d="M376.565,593.1h11.181l-1.52,7.454H374.8Z" transform="translate(-326.35 -430.781)" fill="#0b4870" stroke="#fff" stroke-miterlimit="10" stroke-width="0.5"/>
      <path id="Caminho_673" data-name="Caminho 673" d="M411.171,593.1h11.181l-1.275,7.454H409.7Z" transform="translate(-344.135 -430.781)" fill="#0b4870" stroke="#fff" stroke-miterlimit="10" stroke-width="0.5"/>
      <path id="Caminho_674" data-name="Caminho 674" d="M445.677,593.1h11.181l-.981,7.454H444.5Z" transform="translate(-361.87 -430.781)" fill="#0b4870" stroke="#fff" stroke-miterlimit="10" stroke-width="0.5"/>
      <path id="Caminho_675" data-name="Caminho 675" d="M480.183,593.1h11.181l-.687,7.454H479.3Z" transform="translate(-379.604 -430.781)" fill="#0b4870" stroke="#fff" stroke-miterlimit="10" stroke-width="0.5"/>
      <path id="Caminho_676" data-name="Caminho 676" d="M514.688,593.1h11.181l-.392,7.454H514.1Z" transform="translate(-397.338 -430.781)" fill="#0b4870" stroke="#fff" stroke-miterlimit="10" stroke-width="0.5"/>
      <path id="Caminho_677" data-name="Caminho 677" d="M549.194,593.1h11.181l-.1,7.454H548.9Z" transform="translate(-415.073 -430.781)" fill="#0b4870" stroke="#fff" stroke-miterlimit="10" stroke-width="0.5"/>
      <path id="Caminho_678" data-name="Caminho 678" d="M583.7,593.1h11.181l.2,7.454H583.7Z" transform="translate(-432.807 -430.781)" fill="#0b4870" stroke="#fff" stroke-miterlimit="10" stroke-width="0.5"/>
      <path id="Caminho_679" data-name="Caminho 679" d="M617.9,593.1h11.181l.49,7.454H618.194Z" transform="translate(-450.236 -430.781)" fill="#0b4870" stroke="#fff" stroke-miterlimit="10" stroke-width="0.5"/>
      <path id="Caminho_680" data-name="Caminho 680" d="M652.1,593.1h11.23l.736,7.454H652.688Z" transform="translate(-467.665 -430.781)" fill="#0b4870" stroke="#fff" stroke-miterlimit="10" stroke-width="0.5"/>
      <path id="Caminho_681" data-name="Caminho 681" d="M686.4,593.1h11.181l1.079,7.454H687.283Z" transform="translate(-485.144 -430.781)" fill="#0b4870" stroke="#fff" stroke-miterlimit="10" stroke-width="0.5"/>
      <path id="Caminho_682" data-name="Caminho 682" d="M720.6,593.1h11.181l1.373,7.454H721.777Z" transform="translate(-502.573 -430.781)" fill="#0b4870" stroke="#fff" stroke-miterlimit="10" stroke-width="0.5"/>
      <path id="Caminho_683" data-name="Caminho 683" d="M754.8,593.1h11.181l1.667,7.454H756.271Z" transform="translate(-520.002 -430.781)" fill="#0b4870" stroke="#fff" stroke-miterlimit="10" stroke-width="0.5"/>
      <path id="Caminho_684" data-name="Caminho 684" d="M789,593.1h11.181l1.962,7.454H790.765Z" transform="translate(-537.431 -430.781)" fill="#0b4870" stroke="#fff" stroke-miterlimit="10" stroke-width="0.5"/>
      <path id="Caminho_685" data-name="Caminho 685" d="M570.38,797.5H283.9a7.89,7.89,0,0,1-7.9-7.9H578.276A7.89,7.89,0,0,1,570.38,797.5Z" transform="translate(-276 -530.92)" fill="#d3d3d3"/>
      <path id="Caminho_686" data-name="Caminho 686" d="M578.739,719.49a3.726,3.726,0,0,0-3.629-3.089H512.1a3.687,3.687,0,0,0-3.629,3.089l-3.923,23.784a3.7,3.7,0,0,0,3.629,4.315h70.812a3.673,3.673,0,0,0,3.629-4.315Z" transform="translate(-392.44 -493.616)" fill="#d3d3d3"/>
      <g id="Grupo_145" data-name="Grupo 145" transform="translate(51.344 20.989)">
        <g id="Grupo_91" data-name="Grupo 91">
          <rect id="Retângulo_91" data-name="Retângulo 91" width="25.647" height="2.648" fill="#f7f7f7"/>
        </g>
        <g id="Grupo_92" data-name="Grupo 92" transform="translate(32.856 19.763)">
          <rect id="Retângulo_92" data-name="Retângulo 92" width="18.488" height="2.648" fill="#f7f7f7"/>
        </g>
        <g id="Grupo_93" data-name="Grupo 93" transform="translate(54.237 19.763)">
          <rect id="Retângulo_93" data-name="Retângulo 93" width="12.26" height="2.648" fill="#f7f7f7"/>
        </g>
        <g id="Grupo_94" data-name="Grupo 94" transform="translate(0.294 69.488)">
          <rect id="Retângulo_94" data-name="Retângulo 94" width="12.26" height="2.648" fill="#f7f7f7"/>
        </g>
        <g id="Grupo_95" data-name="Grupo 95" transform="translate(68.949 19.763)">
          <rect id="Retângulo_95" data-name="Retângulo 95" width="29.669" height="2.648" fill="#f7f7f7"/>
        </g>
        <g id="Grupo_96" data-name="Grupo 96" transform="translate(0.294 59.533)">
          <rect id="Retângulo_96" data-name="Retângulo 96" width="19.076" height="2.648" fill="#f7f7f7"/>
        </g>
        <g id="Grupo_97" data-name="Grupo 97" transform="translate(26.873 79.345)">
          <rect id="Retângulo_97" data-name="Retângulo 97" width="11.622" height="2.648" fill="#f7f7f7"/>
        </g>
        <g id="Grupo_98" data-name="Grupo 98" transform="translate(0.294 79.345)">
          <rect id="Retângulo_98" data-name="Retângulo 98" width="23.048" height="2.648" fill="#f7f7f7"/>
        </g>
        <g id="Grupo_99" data-name="Grupo 99" transform="translate(0.294 89.251)">
          <rect id="Retângulo_99" data-name="Retângulo 99" width="12.701" height="2.648" fill="#f7f7f7"/>
        </g>
        <g id="Grupo_100" data-name="Grupo 100" transform="translate(30.649)">
          <rect id="Retângulo_100" data-name="Retângulo 100" width="18.193" height="2.648" fill="#f7f7f7"/>
        </g>
        <g id="Grupo_101" data-name="Grupo 101" transform="translate(30.649 29.669)">
          <rect id="Retângulo_101" data-name="Retângulo 101" width="18.193" height="2.648" fill="#f7f7f7"/>
        </g>
        <g id="Grupo_102" data-name="Grupo 102" transform="translate(21.528 39.525)">
          <rect id="Retângulo_102" data-name="Retângulo 102" width="7.797" height="2.648" fill="#f7f7f7"/>
        </g>
        <g id="Grupo_103" data-name="Grupo 103" transform="translate(13.78 49.578)">
          <rect id="Retângulo_103" data-name="Retângulo 103" width="17.458" height="2.648" fill="#f7f7f7"/>
        </g>
        <g id="Grupo_104" data-name="Grupo 104" transform="translate(33.886 49.578)">
          <rect id="Retângulo_104" data-name="Retângulo 104" width="24.127" height="2.648" fill="#f7f7f7"/>
        </g>
        <g id="Grupo_105" data-name="Grupo 105" transform="translate(0.294 39.623)">
          <rect id="Retângulo_105" data-name="Retângulo 105" width="18.193" height="2.648" fill="#f7f7f7"/>
        </g>
        <g id="Grupo_106" data-name="Grupo 106" transform="translate(0.294 49.578)">
          <rect id="Retângulo_106" data-name="Retângulo 106" width="10.789" height="2.648" fill="#f7f7f7"/>
        </g>
        <g id="Grupo_107" data-name="Grupo 107" transform="translate(33.003 39.623)">
          <rect id="Retângulo_107" data-name="Retângulo 107" width="10.2" height="2.648" fill="#f7f7f7"/>
        </g>
        <g id="Grupo_108" data-name="Grupo 108" transform="translate(0.637 99.108)">
          <rect id="Retângulo_108" data-name="Retângulo 108" width="10.2" height="2.648" fill="#f7f7f7"/>
        </g>
        <g id="Grupo_109" data-name="Grupo 109" transform="translate(0.245 19.763)">
          <rect id="Retângulo_109" data-name="Retângulo 109" width="18.193" height="2.648" fill="#f7f7f7"/>
        </g>
        <g id="Grupo_110" data-name="Grupo 110" transform="translate(16.33 69.488)">
          <rect id="Retângulo_110" data-name="Retângulo 110" width="18.193" height="2.648" fill="#f7f7f7"/>
        </g>
        <g id="Grupo_111" data-name="Grupo 111" transform="translate(16.575 89.251)">
          <rect id="Retângulo_111" data-name="Retângulo 111" width="18.193" height="2.648" fill="#f7f7f7"/>
        </g>
        <g id="Grupo_112" data-name="Grupo 112" transform="translate(48.892 89.251)">
          <rect id="Retângulo_112" data-name="Retângulo 112" width="18.193" height="2.648" fill="#f7f7f7"/>
        </g>
        <g id="Grupo_113" data-name="Grupo 113" transform="translate(0.245 29.669)">
          <rect id="Retângulo_113" data-name="Retângulo 113" width="25.942" height="2.648" fill="#f7f7f7"/>
        </g>
        <g id="Grupo_114" data-name="Grupo 114" transform="translate(121.813)">
          <rect id="Retângulo_114" data-name="Retângulo 114" width="18.193" height="2.648" fill="#f7f7f7"/>
        </g>
        <g id="Grupo_115" data-name="Grupo 115" transform="translate(56.983 99.108)">
          <rect id="Retângulo_115" data-name="Retângulo 115" width="18.193" height="2.648" fill="#f7f7f7"/>
        </g>
        <g id="Grupo_116" data-name="Grupo 116" transform="translate(145.645)">
          <rect id="Retângulo_116" data-name="Retângulo 116" width="12.162" height="2.648" fill="#f7f7f7"/>
        </g>
        <g id="Grupo_117" data-name="Grupo 117" transform="translate(186.887 9.906)">
          <rect id="Retângulo_117" data-name="Retângulo 117" width="12.162" height="2.648" fill="#f7f7f7"/>
        </g>
        <g id="Grupo_118" data-name="Grupo 118" transform="translate(53.747)">
          <rect id="Retângulo_118" data-name="Retângulo 118" width="23.195" height="2.648" fill="#f7f7f7"/>
        </g>
        <g id="Grupo_119" data-name="Grupo 119" transform="translate(144.076 9.906)">
          <rect id="Retângulo_119" data-name="Retângulo 119" width="23.195" height="2.648" fill="#f7f7f7"/>
        </g>
        <g id="Grupo_120" data-name="Grupo 120" transform="translate(115.634 19.763)">
          <rect id="Retângulo_120" data-name="Retângulo 120" width="23.195" height="2.648" fill="#f7f7f7"/>
        </g>
        <g id="Grupo_121" data-name="Grupo 121" transform="translate(85.475 29.669)">
          <rect id="Retângulo_121" data-name="Retângulo 121" width="23.195" height="2.648" fill="#f7f7f7"/>
        </g>
        <g id="Grupo_122" data-name="Grupo 122" transform="translate(141.722 19.763)">
          <rect id="Retângulo_122" data-name="Retângulo 122" width="16.477" height="2.648" fill="#f7f7f7"/>
        </g>
        <g id="Grupo_123" data-name="Grupo 123" transform="translate(94.057)">
          <rect id="Retângulo_123" data-name="Retângulo 123" width="23.195" height="2.648" fill="#f7f7f7"/>
        </g>
        <g id="Grupo_124" data-name="Grupo 124" transform="translate(67.625 29.669)">
          <rect id="Retângulo_124" data-name="Retângulo 124" width="13.584" height="2.648" fill="#f7f7f7"/>
        </g>
        <g id="Grupo_125" data-name="Grupo 125" transform="translate(56.983 69.635)">
          <rect id="Retângulo_125" data-name="Retângulo 125" width="13.584" height="2.648" fill="#f7f7f7"/>
        </g>
        <g id="Grupo_126" data-name="Grupo 126" transform="translate(81.208)">
          <rect id="Retângulo_126" data-name="Retângulo 126" width="8.484" height="2.648" fill="#f7f7f7"/>
        </g>
        <g id="Grupo_127" data-name="Grupo 127" transform="translate(53.747 29.669)">
          <rect id="Retângulo_127" data-name="Retângulo 127" width="8.484" height="2.648" fill="#f7f7f7"/>
        </g>
        <g id="Grupo_128" data-name="Grupo 128" transform="translate(172.862 9.906)">
          <rect id="Retângulo_128" data-name="Retângulo 128" width="8.484" height="2.648" fill="#f7f7f7"/>
        </g>
        <g id="Grupo_129" data-name="Grupo 129" transform="translate(0 9.906)">
          <rect id="Retângulo_129" data-name="Retângulo 129" width="13.29" height="2.648" fill="#f7f7f7"/>
        </g>
        <g id="Grupo_130" data-name="Grupo 130" transform="translate(35.455 59.582)">
          <rect id="Retângulo_130" data-name="Retângulo 130" width="10.494" height="2.648" fill="#f7f7f7"/>
        </g>
        <g id="Grupo_131" data-name="Grupo 131" transform="translate(16.575 9.906)">
          <rect id="Retângulo_131" data-name="Retângulo 131" width="4.266" height="2.648" fill="#f7f7f7"/>
        </g>
        <g id="Grupo_132" data-name="Grupo 132" transform="translate(104.551 9.906)">
          <rect id="Retângulo_132" data-name="Retângulo 132" width="35.455" height="2.648" fill="#f7f7f7"/>
        </g>
        <g id="Grupo_133" data-name="Grupo 133" transform="translate(70.567 89.251)">
          <rect id="Retângulo_133" data-name="Retângulo 133" width="35.455" height="2.648" fill="#f7f7f7"/>
        </g>
        <g id="Grupo_134" data-name="Grupo 134" transform="translate(23.98 9.906)">
          <rect id="Retângulo_134" data-name="Retângulo 134" width="4.364" height="2.648" fill="#f7f7f7"/>
        </g>
        <g id="Grupo_135" data-name="Grupo 135" transform="translate(89.692 9.906)">
          <rect id="Retângulo_135" data-name="Retângulo 135" width="11.573" height="2.648" fill="#f7f7f7"/>
        </g>
        <g id="Grupo_136" data-name="Grupo 136" transform="translate(101.314 19.763)">
          <rect id="Retângulo_136" data-name="Retângulo 136" width="11.573" height="2.648" fill="#f7f7f7"/>
        </g>
        <g id="Grupo_137" data-name="Grupo 137" transform="translate(41.683 99.108)">
          <rect id="Retângulo_137" data-name="Retângulo 137" width="11.573" height="2.648" fill="#f7f7f7"/>
        </g>
        <g id="Grupo_138" data-name="Grupo 138" transform="translate(61.985 9.906)">
          <rect id="Retângulo_138" data-name="Retângulo 138" width="24.667" height="2.648" fill="#f7f7f7"/>
        </g>
        <g id="Grupo_139" data-name="Grupo 139" transform="translate(38.986 69.635)">
          <rect id="Retângulo_139" data-name="Retângulo 139" width="14.417" height="2.648" fill="#f7f7f7"/>
        </g>
        <g id="Grupo_140" data-name="Grupo 140" transform="translate(38.103 89.251)">
          <rect id="Retângulo_140" data-name="Retângulo 140" width="7.209" height="2.648" fill="#f7f7f7"/>
        </g>
        <g id="Grupo_141" data-name="Grupo 141" transform="translate(49.971 9.906)">
          <rect id="Retângulo_141" data-name="Retângulo 141" width="8.484" height="2.648" fill="#f7f7f7"/>
        </g>
        <g id="Grupo_142" data-name="Grupo 142" transform="translate(21.43 19.763)">
          <rect id="Retângulo_142" data-name="Retângulo 142" width="8.484" height="2.648" fill="#f7f7f7"/>
        </g>
        <g id="Grupo_143" data-name="Grupo 143" transform="translate(23.097 59.582)">
          <rect id="Retângulo_143" data-name="Retângulo 143" width="8.484" height="2.648" fill="#f7f7f7"/>
        </g>
        <g id="Grupo_144" data-name="Grupo 144" transform="translate(31.973 9.906)">
          <rect id="Retângulo_144" data-name="Retângulo 144" width="14.81" height="2.648" fill="#f7f7f7"/>
        </g>
      </g>
    </g>
    <g id="Grupo_149" data-name="Grupo 149" transform="translate(409.706 195.721)">
      <g id="Grupo_148" data-name="Grupo 148">
        <g id="Grupo_147" data-name="Grupo 147">
          <path id="Caminho_687" data-name="Caminho 687" d="M691.7,361.872s4.315,7.307,6.13,8.484c2.452,1.618.932,3.237-.245,3.286-1.177,0-7.16.441-8.484-1.079s-1.962-5.983-3.187-7.16-2.5-5.836.588-6.964C689.2,357.41,691.7,361.872,691.7,361.872Z" transform="translate(-684.58 -358.285)" fill="#ffb750"/>
        </g>
      </g>
    </g>
    <g id="Grupo_152" data-name="Grupo 152" transform="translate(411.366 195.925)">
      <g id="Grupo_151" data-name="Grupo 151">
        <g id="Grupo_150" data-name="Grupo 150">
          <path id="Caminho_688" data-name="Caminho 688" d="M691.513,358.9s4.953,8.582,5.787,9.808c.834,1.275-1.618,1.275-3.138.687s-5.345-6.718-5.885-7.846a4.133,4.133,0,0,1-.1-2.844Z" transform="translate(-687.965 -358.7)" fill="#ffe3ca"/>
        </g>
      </g>
    </g>
    <g id="Grupo_155" data-name="Grupo 155" transform="translate(409.912 200.681)">
      <g id="Grupo_154" data-name="Grupo 154">
        <g id="Grupo_153" data-name="Grupo 153">
          <path id="Caminho_689" data-name="Caminho 689" d="M685,368.4l1.177,8.778.588.049-.2-6.326Z" transform="translate(-685 -368.4)" fill="#ffb750"/>
        </g>
      </g>
    </g>
    <g id="Grupo_158" data-name="Grupo 158" transform="translate(366.875 195.757)">
      <g id="Grupo_157" data-name="Grupo 157">
        <g id="Grupo_156" data-name="Grupo 156">
          <path id="Caminho_690" data-name="Caminho 690" d="M604.38,361.909s4.315,7.307,6.13,8.484c2.452,1.618.932,3.237-.245,3.286-1.177,0-7.16.441-8.484-1.079s-1.962-5.983-3.187-7.16-2.55-5.983.588-6.964C601.928,357.594,604.38,361.909,604.38,361.909Z" transform="translate(-597.239 -358.357)" fill="#ffb750"/>
        </g>
      </g>
    </g>
    <g id="Grupo_161" data-name="Grupo 161" transform="translate(368.604 195.925)">
      <g id="Grupo_160" data-name="Grupo 160">
        <g id="Grupo_159" data-name="Grupo 159">
          <path id="Caminho_691" data-name="Caminho 691" d="M604.558,358.9s4.659,8.533,5.541,9.808c.834,1.275-1.618,1.275-3.139.687s-5.345-6.718-5.885-7.846a4.133,4.133,0,0,1-.1-2.844Z" transform="translate(-600.765 -358.7)" fill="#ffe3ca"/>
        </g>
      </g>
    </g>
    <g id="Grupo_164" data-name="Grupo 164" transform="translate(367.15 200.681)">
      <g id="Grupo_163" data-name="Grupo 163">
        <g id="Grupo_162" data-name="Grupo 162">
          <path id="Caminho_692" data-name="Caminho 692" d="M597.8,368.4l1.128,8.778.638.049-.2-6.326Z" transform="translate(-597.8 -368.4)" fill="#ffb750"/>
        </g>
      </g>
    </g>
    <g id="Grupo_167" data-name="Grupo 167" transform="translate(354.89 126.709)">
      <g id="Grupo_166" data-name="Grupo 166" transform="translate(0 0)">
        <g id="Grupo_165" data-name="Grupo 165">
          <path id="Caminho_693" data-name="Caminho 693" d="M572.8,223.609l39.035,17.8a7.53,7.53,0,0,1,4.855,6.277c1.52,15.1,12.8,39.035,12.8,39.035,3.629,1.765,3.335.245,3.335.245-2.3-7.356-5.051-37.564-6.081-49.676-.2-2.55-.343-4.315-.392-4.9,0-.392-.441-.883-1.177-1.471-5.345-4.364-27.413-13.339-27.413-13.339C581.333,217.136,572.8,223.609,572.8,223.609Z" transform="translate(-572.8 -217.556)" fill="#ffe3ca"/>
        </g>
      </g>
    </g>
    <g id="Grupo_170" data-name="Grupo 170" transform="translate(347.373 123.936)">
      <g id="Grupo_169" data-name="Grupo 169">
        <g id="Grupo_168" data-name="Grupo 168">
          <path id="Caminho_694" data-name="Caminho 694" d="M557.633,228.377c1.226,10.543,16.281,9.366,16.281,9.366h18.242s-4.806,10.69-6.669,19.665c-1.962,9.563-6.62,26.432-6.62,26.432s.294.588,3.629.245c0,0,14.319-28.541,19.812-35.749,1.177-1.52,4.561-9.955,5.149-14.957.2-1.667.1-2.991-.539-3.531s-2.109-1.52-4.021-2.746c-5.738-3.629-15.643-9.17-21.185-10.4-7.4-1.667-19.125-4.806-19.125-4.806S556.407,217.834,557.633,228.377Z" transform="translate(-557.472 -211.9)" fill="#ffe3ca"/>
        </g>
      </g>
    </g>
    <g id="Grupo_171" data-name="Grupo 171" transform="translate(358.158 39.289)">
      <path id="Caminho_695" data-name="Caminho 695" d="M581.247,59.106s-2.746-5.2-1.422-10.69c1.324-5.541,6.473-11.034,13.976-8.484s13.584,8.337,9.072,15.1c-4.512,6.718,4.07,9.808,1.864,13s-1.373,6.571-.441,7.307,3.923,3.384,3.58,6.571c-.343,3.138-14.565-9.17-14.565-9.17S585.612,57.1,581.247,59.106Z" transform="translate(-579.464 -39.289)" fill="#0e538c"/>
    </g>
    <g id="Grupo_172" data-name="Grupo 172" transform="translate(352.536 122.89)">
      <path id="Caminho_696" data-name="Caminho 696" d="M598.306,212.285s-1.128,5.492-30.306-1.422C568,210.863,577.759,207.626,598.306,212.285Z" transform="translate(-568 -209.768)" fill="#eb4747"/>
    </g>
    <g id="Grupo_174" data-name="Grupo 174" transform="translate(346.259 73.01)">
      <g id="Grupo_173" data-name="Grupo 173" transform="translate(0 0)">
        <path id="Caminho_697" data-name="Caminho 697" d="M561.134,160.547c-.441.883-.883,1.716-1.373,2.6,10.641.294,21.332.638,31.973.932-1.667-5.639-1.128-13.29-.834-19.076.343-7.111,4.266-12.015,3.874-19.174,2.109.343,2.452.392,4.561.736-3.237-9.219-4.315-13.78-14.368-17.311a18.36,18.36,0,0,0-8.925-1.079c-11.622.981-15.1,1.079-20.841,11.622,8.925,1.422,7.454,4.61,10.151,13.535,1.324,4.315,2.7,9.17,2.011,13.731C566.675,151.524,561.134,156.477,561.134,160.547Z" transform="translate(-555.2 -108.052)" fill="#fff"/>
      </g>
    </g>
    <g id="Grupo_176" data-name="Grupo 176" transform="translate(366.909 63.784)">
      <g id="Grupo_175" data-name="Grupo 175">
        <path id="Caminho_698" data-name="Caminho 698" d="M601.129,101.872c-4.757-.883-3.727-3.531-3.727-3.531s.2-1.471.294-3.384c0-.49.049-.981.049-1.52a18.959,18.959,0,0,0-.147-2.354c-.392-3.188,8.631-1.275,8.631-1.275s-.539,6.473.736,8.386C608.191,100.156,605.886,102.8,601.129,101.872Z" transform="translate(-597.308 -89.24)" fill="#ffe3ca"/>
      </g>
    </g>
    <g id="Grupo_178" data-name="Grupo 178" transform="translate(361.658 72.009)">
      <g id="Grupo_177" data-name="Grupo 177">
        <path id="Caminho_699" data-name="Caminho 699" d="M586.6,106.888s9.612,11.083,13.142,13.633c0,0,4.07-3.678,1.569-13.388C601.312,107.133,596.7,104.779,586.6,106.888Z" transform="translate(-586.6 -106.01)" fill="#ffe3ca"/>
      </g>
    </g>
    <g id="Grupo_179" data-name="Grupo 179" transform="translate(359.714 44.428)">
      <path id="Caminho_700" data-name="Caminho 700" d="M584.875,51.549s-5,9.612-.049,18.684,14.663-3.972,15.251-5.492c.638-1.52,3.972-10.2-2.648-12.8C590.808,49.293,586.3,48.95,584.875,51.549Z" transform="translate(-582.637 -49.768)" fill="#ffe3ca"/>
    </g>
    <g id="Grupo_180" data-name="Grupo 180" transform="translate(367.297 65.874)">
      <path id="Caminho_701" data-name="Caminho 701" d="M602.366,93.5s-.883,1.913-4.266,3.629c0-.49.049-.981.049-1.52A7.848,7.848,0,0,0,602.366,93.5Z" transform="translate(-598.1 -93.5)" fill="#fcd2b1"/>
    </g>
    <g id="Grupo_181" data-name="Grupo 181" transform="translate(311.343 116.531)">
      <path id="Caminho_702" data-name="Caminho 702" d="M493.856,197.143s-2.354,1.03-3.482.588a10.143,10.143,0,0,0-3.384-.588c-.736,0-3.04-.834-2.991.1.049.883,3.727,1.52,4.463,1.814s-2.256,1.913-2.55,2.648,3.138,5.541,5.051,4.168,2.942-4.119,3.335-4.315,1.422-.932,1.422-.932Z" transform="translate(-483.998 -196.8)" fill="#ffe3ca"/>
    </g>
    <g id="Grupo_182" data-name="Grupo 182" transform="translate(307.99 120.993)">
      <path id="Caminho_703" data-name="Caminho 703" d="M482.82,205.9s-5.541,4.61-5.639,5.247.2.932.736.49c.539-.392,5.492-4.315,5.492-4.315s-5.541,6.571-5.738,7.062c-.1.294.441.883.736.687s6.228-6.375,6.228-6.375-5.2,6.13-5.2,6.62a.6.6,0,0,0,1.03.392c.441-.441,5.59-5.836,5.59-5.836s-3.482,4.708-3.237,5.149c.147.245.589.785,1.422-.441s3.188-3.972,3.188-3.972Z" transform="translate(-477.162 -205.9)" fill="#ffe3ca"/>
    </g>
    <g id="Grupo_184" data-name="Grupo 184" transform="translate(347.373 123.936)">
      <g id="Grupo_183" data-name="Grupo 183">
        <path id="Caminho_704" data-name="Caminho 704" d="M590.244,237.694h-16.33s-15.055,1.226-16.281-9.366c-1.226-10.543,4.953-16.428,4.953-16.428s7.944,2.109,14.908,3.776a52.711,52.711,0,0,1,12.554-1.079s29.423,9.71,28.541,14.859C618.588,229.5,606.279,222.934,590.244,237.694Z" transform="translate(-557.472 -211.9)" fill="#0e538c"/>
      </g>
    </g>
    <g id="Grupo_185" data-name="Grupo 185" transform="translate(369.504 130.997)">
      <path id="Caminho_705" data-name="Caminho 705" d="M602.6,226.79l31.189-.49-15.742,7.993Z" transform="translate(-602.6 -226.3)" fill="#f2f2f2"/>
    </g>
    <g id="Grupo_186" data-name="Grupo 186" transform="translate(363.227 124.524)">
      <path id="Caminho_706" data-name="Caminho 706" d="M605.787,216.042a26.735,26.735,0,0,1-15.594.245L589.8,213.1l17.7.981Z" transform="translate(-589.8 -213.1)" fill="#fff"/>
    </g>
    <g id="Grupo_187" data-name="Grupo 187" transform="translate(369.504 131.488)">
      <path id="Caminho_707" data-name="Caminho 707" d="M618.047,234.8,602.6,228.82V227.3l16.673,5.983Z" transform="translate(-602.6 -227.3)" fill="#d3d3d3"/>
    </g>
    <g id="Grupo_190" data-name="Grupo 190" transform="translate(318.491 72.2)">
      <g id="Grupo_188" data-name="Grupo 188" transform="translate(57.878 0.981)">
        <path id="Caminho_708" data-name="Caminho 708" d="M619.3,164.206a1.552,1.552,0,0,0,2.158,1.52l1.814-.785a1.287,1.287,0,0,0,.785-1.373c-.736-4.708-2.354-23.048,0-26.236a11.13,11.13,0,0,0,1.716-3.089c1.569,4.021,3.482,9.219,4.266,12.015l14.712,19.616,4.953,1.275c-6.179-14.859-11.132-22.7-11.132-22.7-.981-2.6-3.727-10.445-6.179-17.409-1.569-4.413-2.942-8.484-3.727-10.641a4.814,4.814,0,0,0-2.158-2.648c-2.3-1.373-6.081-3.531-9.514-5.2h-.049a2.392,2.392,0,0,0-.343-.147h0c6.571,9.857,4.021,37.858,2.7,55.806Z" transform="translate(-616.6 -108.4)" fill="#3a386e"/>
      </g>
      <g id="Grupo_189" data-name="Grupo 189">
        <path id="Caminho_709" data-name="Caminho 709" d="M534.827,108.165c-2.109.343-7.307,5.394-10.053,10.494-3.139,5.836-6.375,12.456-8.778,14.614-4.413,4.021-16.82,18.193-17.409,17.85a34.968,34.968,0,0,0,3.874,4.413c.245.1,20.351-17.36,22.313-20.008,1.814-2.5,6.718-13.093,8.189-12.848h0a78.445,78.445,0,0,1,3.58,9.759c.049.1.049.2.1.294,1.177,3.923,1.079,8.239.441,13.044-.49,3.629-3.187,9.563-4.806,12.456a2.052,2.052,0,0,0,.049,1.52h0a1.185,1.185,0,0,0,.539.638L538.8,162.6l1.373.49a2.939,2.939,0,0,0,2.844-.392,2.9,2.9,0,0,0,1.226-2.06c1.324-10.1,2.991-20.449,4.315-24.323A36.84,36.84,0,0,0,546.3,106.4S536.691,107.479,534.827,108.165Z" transform="translate(-498.576 -106.4)" fill="#3a386e"/>
      </g>
    </g>
    <g id="Grupo_191" data-name="Grupo 191" transform="translate(384.951 113.687)">
      <path id="Caminho_710" data-name="Caminho 710" d="M634.1,216.3l9.268-25.3,29.865.49-8.827,23.342Z" transform="translate(-634.1 -191)" fill="#3a386e"/>
    </g>
    <g id="Grupo_192" data-name="Grupo 192" transform="translate(403.237 122.515)">
      <path id="Caminho_711" data-name="Caminho 711" d="M671.933,211.355c-.932,1.814-.638,3.825.638,4.413,1.275.638,2.991-.343,3.923-2.158s.638-3.825-.638-4.413C674.581,208.56,672.816,209.541,671.933,211.355Z" transform="translate(-671.388 -209.003)" fill="#f2f0f0"/>
    </g>
    <path id="Caminho_712" data-name="Caminho 712" d="M608.3,80.327c-2.207-3.335-3.776-5.983-3.972-10.74-.147-3.138-.834-7.4-2.991-9.514,2.256-5.885-.392-7.65-1.471-9.563-1.324-2.4-11.132-8.189-15.006-2.109a17.823,17.823,0,0,0-2.5,12.358c.392-3.335,3.825-7.846,3.825-7.846.539,3.482,7.748,9.17,10.887,11.475a.372.372,0,0,0-.1.2c-1.765,2.55.441,5.1.834,7.8s-7.4,9.955,1.275,13.584C607.757,89.644,610.5,83.612,608.3,80.327Z" transform="translate(-222.658 -3.272)" fill="#0e538c"/>
    <g id="Grupo_194" data-name="Grupo 194" transform="translate(185.265 322.093)">
      <g id="Grupo_193" data-name="Grupo 193" transform="translate(0 37.992)">
        <path id="Caminho_713" data-name="Caminho 713" d="M278.9,696.076s-.2,2.06-9.808,2.06-23.588-2.5-23.588-2.5l22.313-2.158S276.395,693.035,278.9,696.076Z" transform="translate(-236.379 -693.454)" fill="#0e538c"/>
        <path id="Caminho_714" data-name="Caminho 714" d="M244.946,698.407c-5.443,0-7.748,2.8-9.906,3.678s-4.315,2.207-4.315,2.158c1.226-2.4,2.942-2.452,3.825-3.237s.638-.392-1.275-.539c-1.079-.1-3.04,1.913-4.413,3.04a4.8,4.8,0,0,1-1.962,1.03,26.044,26.044,0,0,1,3.188-3.629,29.2,29.2,0,0,1,5.492-3.874c1.177-.49,4.806-.589,7.356-.245C245.878,697.181,248.869,698.407,244.946,698.407Z" transform="translate(-226.9 -695.05)" fill="#0e538c"/>
        <path id="Caminho_715" data-name="Caminho 715" d="M237.452,697.7s-4.168,1.079-4.9,1.667c-.49.392-2.648,2.7-2.648,2.7a5.113,5.113,0,0,0,2.452-1.128A41.293,41.293,0,0,1,237.452,697.7Z" transform="translate(-228.429 -695.618)" fill="#0e538c"/>
      </g>
      <path id="Caminho_716" data-name="Caminho 716" d="M285.269,690.2s10.494.687,9.759,7.16c-.392,3.678-2.8,4.953-5.983,4.659-5.885-.49-12.554-1.373-12.554-1.373L273.5,690.592Z" transform="translate(-250.648 -653.804)" fill="#0e538c"/>
      <path id="Caminho_717" data-name="Caminho 717" d="M299.387,653.26l10.3-33.2s1.52-4.855,4.021-3.972c3.58,1.324,1.814,5.3,1.52,7.65-.637,4.806-.2,6.914-3.531,18.488-2.06,7.16-3.825,15.4-5.59,20.106-1.226,3.237-3.335-1.422-6.522-2.7C293.6,657.232,299.387,653.26,299.387,653.26Z" transform="translate(-262.559 -615.981)" fill="#0e538c"/>
    </g>
    <path id="Caminho_718" data-name="Caminho 718" d="M302.955,571.917a10.793,10.793,0,0,0,13.976,6.669,11.374,11.374,0,0,0,6.718-14.319,10.793,10.793,0,0,0-13.976-6.669A11.374,11.374,0,0,0,302.955,571.917Z" transform="translate(-80.077 -263.791)" fill="#0e538c"/>
    <path id="Caminho_719" data-name="Caminho 719" d="M273.71,562.6a9.871,9.871,0,0,0,13.976,2.648l-.638-5.541a10.655,10.655,0,0,0,2.55-14.466l-2.158-3.187a9.871,9.871,0,0,0-13.976-2.648l-2.06,1.471a10.655,10.655,0,0,0-2.55,14.467Z" transform="translate(-62.111 -253.933)" fill="#0e538c"/>
    <path id="Caminho_720" data-name="Caminho 720" d="M271.823,557.1a19.245,19.245,0,0,0,1.814,2.256c4.512,4.9,10.543,6.767,14.368,4.757a31.628,31.628,0,0,0,5.59,5.787c2.109,1.716,7.5,2.4,7.5,2.4,3.138,3.433-8.631,23.49-9.465,23.392-1.716-.147-3.923-11.23-2.3-15.251.736-1.815,1.913-3.972,1.569-4.953-1.226-3.384-2.942-2.8-2.942-2.8s-2.256,2.648-4.021,2.55c-1.814-.147-4.953-2.991-5.1-3.04a7.827,7.827,0,0,1-1.471-1.618l-4.708-7.062A7.661,7.661,0,0,1,271.823,557.1Z" transform="translate(-64.344 -263.882)" fill="#ffe3ca"/>
    <path id="Caminho_721" data-name="Caminho 721" d="M323.821,666.474s-3.825,4.61-5,5.1c-1.569.687-6.375-.785-6.375-.785s-1.275-21.136-2.746-29.374-3.629-10.4-3.727-13c-.147-4.168-3.629-5.836-3.04-9.072s1.618-14.81,1.962-13.29c2.991,13.142,6.669,2.207,7.5.49C312.836,605.616,323.821,666.474,323.821,666.474Z" transform="translate(-80.347 -288.762)" fill="#f2f0f0"/>
    <path id="Caminho_722" data-name="Caminho 722" d="M304.845,598.114s-4.659,5.1-4.315,7.111c.294,2.011-2.011,8.288.294,17.016,2.6,9.955,3.972,16.722,4.463,23.244s-1.716,12.5-.834,20.5c.687,6.277,2.109,6.62,2.109,6.62a4.877,4.877,0,0,0,4.757-1.765c1.962-2.4-.981-23.784-1.962-29.08-.981-5.345-4.119-17.8-4.953-21.479a41.49,41.49,0,0,1-.785-10.445,43.256,43.256,0,0,1,1.324-9.317C304.992,600.272,305.237,597.526,304.845,598.114Z" transform="translate(-78.78 -284.742)" fill="#0e538c"/>
    <path id="Caminho_723" data-name="Caminho 723" d="M325.879,590.588a13.681,13.681,0,0,0,17.752,8.435,14.433,14.433,0,0,0,8.533-18.193,13.681,13.681,0,0,0-17.752-8.435A14.413,14.413,0,0,0,325.879,590.588Z" transform="translate(-91.673 -271.233)" fill="#0e538c"/>
    <path id="Caminho_724" data-name="Caminho 724" d="M260.308,868.2l2.6,20.743-11.279,5.345-6.228,1.373,11.083-8.582-3.629-18.733Z" transform="translate(-51.063 -422.422)" fill="#fcbaa2"/>
    <path id="Caminho_725" data-name="Caminho 725" d="M260.616,911.74l-2.452.638-1.667-1.52-9.023,4.512-7.993,1.913a1.615,1.615,0,0,1,.147-.981c.981-1.324,6.62-4.217,6.62-4.217s.1,1.912.883,1.962,7.7-3.58,9.317-4.561c2.746-1.716,3.286-2.844,3.482-2.7C260.518,907.081,260.616,911.74,260.616,911.74Z" transform="translate(-48.036 -442.08)" fill="#0e538c"/>
    <path id="Caminho_726" data-name="Caminho 726" d="M191.711,807.158l-8.974,17.654-12.358-.588-6.179-1.814,13.682-2.3,7.454-15.1Z" transform="translate(-9.683 -390.215)" fill="#fcbaa2"/>
    <path id="Caminho_727" data-name="Caminho 727" d="M178.689,845.022l-2.452-.589-.785-2.158-11.132-.147-6.62-1.569a6.5,6.5,0,0,1,1.275-1.128c1.471-.638,6.718-.932,6.718-.932s-.539,1.52.147,1.913c.687.441,8.337.686,10.2.539,3.237-.245,4.168-.932,4.266-.736C180.65,840.9,178.689,845.022,178.689,845.022Z" transform="translate(-6.37 -407.287)" fill="#0e538c"/>
    <path id="Caminho_728" data-name="Caminho 728" d="M277.1,701.7l-6.669,2.991.049,9.17-45.949-7.5s-4.364-1.422-7.16,5.787c-3.972,10.2-14.074,41.928-14.074,41.928l6.375,6.914,20.057-35.847s41.095,19.959,54.629,15.643c5.2-1.667,9.17-11.181,8.435-20.793a125.587,125.587,0,0,0-2.06-14.466Z" transform="translate(-29.608 -337.572)" fill="#ffb750"/>
    <path id="Caminho_729" data-name="Caminho 729" d="M293.13,761.183l-32.905-2.452,2.844,52.57-9.71.343-7.16-61.593s1.913-9.17,8.189-7.8C260.716,743.677,275.918,755.74,293.13,761.183Z" transform="translate(-51.471 -358.167)" fill="#ffb750"/>
    <path id="Caminho_730" data-name="Caminho 730" d="M353.739,694.909s-17.262-19.37-21.724-30.306c-5.345-13.093-4.9-29.521-5.885-34.965-1.814-10-4.021-29.423-4.413-31.826a8.933,8.933,0,0,1,1.079-5.1s-1.128-7.258,2.109-6.473a53.444,53.444,0,0,1,10.887,4.463c3.04,1.373,9.268,37.956,9.612,39.721,1.275,6.375,5.934,12.162,9.268,18.1,7.846,14.074,9.857,30.7,9.857,30.7S363.547,691.378,353.739,694.909Z" transform="translate(-89.914 -278.701)" fill="#2a94f4"/>
    <g id="Grupo_195" data-name="Grupo 195" transform="translate(199.045 361.921)">
      <path id="Caminho_731" data-name="Caminho 731" d="M311.1,700.829s-.147,2.354-11.132,1.814c-10.985-.588-27.069-4.266-27.069-4.266l25.451-1.177S308.11,697.249,311.1,700.829Z" transform="translate(-264.122 -697.2)" fill="#ffe3ca"/>
      <path id="Caminho_732" data-name="Caminho 732" d="M272.409,700.293c-5.247-.1-7.5,2.6-9.563,3.433a38.126,38.126,0,0,0-4.168,2.06c1.177-2.3,2.844-2.354,3.727-3.089.834-.736.638-.343-1.226-.539-1.079-.1-2.942,1.814-4.266,2.893a3.973,3.973,0,0,1-1.912.981,24.584,24.584,0,0,1,3.089-3.531,26.647,26.647,0,0,1,5.3-3.678c1.128-.441,4.61-.49,7.111-.1C273.292,699.116,276.185,700.391,272.409,700.293Z" transform="translate(-255 -697.841)" fill="#ffe3ca"/>
      <path id="Caminho_733" data-name="Caminho 733" d="M265.058,699.3s-4.021.981-4.708,1.52c-.49.392-2.55,2.6-2.55,2.6a5.185,5.185,0,0,0,2.354-1.079A53.806,53.806,0,0,1,265.058,699.3Z" transform="translate(-256.427 -698.27)" fill="#ffe3ca"/>
    </g>
    <path id="Caminho_734" data-name="Caminho 734" d="M332.9,690.382l16.281-8.582s.049,10.4.147,14.368,1.765,9.563-1.373,10.4-4.757.392-1.52,2.3c3.237,1.863,2.5,3.825,1.275,5.443s4.119,18.1,2.844,19.027c-5.051-6.375-10.494-14.27-12.848-20.008C334.714,705.878,333.538,697.345,332.9,690.382Z" transform="translate(-95.654 -327.431)" fill="#0e538c"/>
    <path id="Caminho_735" data-name="Caminho 735" d="M329.025,641.121l-.638-33.15s.049-10.347.245-13.388c.2-3.138,5.541.539,5.541.539s7.5,10.151,7.65,34.621c.1,16.379-.785,24.912-8.337,24.225-7.013-.638-15.006-1.716-15.006-1.716L315,643.18Z" transform="translate(-86.532 -282.338)" fill="#2a94f4"/>
    <g id="Grupo_196" data-name="Grupo 196" transform="translate(172.367 336.395)">
      <path id="Caminho_736" data-name="Caminho 736" d="M281.951,717.99,225.9,710.977l.147-1.177,56.051,7.013Z" transform="translate(-213.493 -678.095)" fill="#d3d3d3"/>
      <path id="Caminho_737" data-name="Caminho 737" d="M244.49,680.726a1.57,1.57,0,0,1-1.618,1.52l-28.737-3.58c-.785-.1-1.765-.834-2.452-3.286L200.6,646.693c.147-1.177,1.079-1.765,1.863-1.471l29.374,4.61a2.786,2.786,0,0,1,1.618,2.256Z" transform="translate(-200.6 -645.147)" fill="#d3d3d3"/>
      <path id="Caminho_738" data-name="Caminho 738" d="M253.448,715.682l.294.049,28.05,3.531a9.954,9.954,0,0,1-4.708.343l-23.49-2.942-.294-.049-23.49-2.942A11.3,11.3,0,0,1,225.3,712.2Z" transform="translate(-213.187 -679.318)" fill="#d3d3d3"/>
    </g>
    <path id="Caminho_739" data-name="Caminho 739" d="M329.586,650.846l-.638-33.15a31.748,31.748,0,0,1,1.471-5.3c.245,3.629,1.913,29.767,2.109,33.2.245,3.727,3.286,4.119,3.923,5.345.687,1.177.1,1.422-2.158.981-2.207-.49-1.422-.1-.932,1.079.49,1.226-.736.883-5.051-.687-3.138-1.128-9.17,0-12.211.687Z" transform="translate(-87.093 -292.064)" fill="#0e538c"/>
    <path id="Caminho_740" data-name="Caminho 740" d="M713.493,522.434c-5.394,1.422-15.349,6.424-17.458,15.006-3.138,12.9,3.139,31.777-6.767,50.314-3.188,5.885,54.776,13.829,54.776,13.829l11.181-65.124s-13.976-14.123-16.82-15.1C732.471,519.393,724.282,519.589,713.493,522.434Z" transform="translate(-277.199 -245.006)" fill="#cce9ff"/>
    <path id="Caminho_741" data-name="Caminho 741" d="M811.413,553.457c2.011,5.2,7.111,36.142,1.422,43.448-.638.834,2.942,2.158,2.3,5.983-.1.638-1.177,3.727-1.177,3.727l-4.61,1.226L799.3,596.219s4.07-6.326,9.415-30.306C810.285,558.851,810.971,552.28,811.413,553.457Z" transform="translate(-333.337 -261.956)" fill="#2a94f4"/>
    <path id="Caminho_742" data-name="Caminho 742" d="M727.99,623.964s4.855,12.8,16.575,16.232c2.011.589,3.286,2.844,2.3,3.58-1.275.932-2.942,1.128-5.885,1.128-6.13,0-14.466-1.962-20.2-7.748-8.533-8.533-11.23-12.456-10.347-16.722C711.219,616.069,727.99,623.964,727.99,623.964Z" transform="translate(-287.969 -295.487)" fill="#fcd2b1"/>
    <path id="Caminho_743" data-name="Caminho 743" d="M702.573,542.19c-2.5,4.217-3.923,10.985-3.874,20.694,0,7.5,6.277,19.812,7.209,23.588.147.637.539,3.335.539,3.335l6.915,7.062,13.878-9.759-4.217-6.718-1.275.147a24.179,24.179,0,0,1-.588-5.149c.2-1.422-3.825-20.792-5.836-33.2C714.195,534.981,705.025,538.022,702.573,542.19Z" transform="translate(-282.069 -254.072)" fill="#2a94f4"/>
    <path id="Caminho_744" data-name="Caminho 744" d="M727.465,622.516l4.07-1.275,1.667-.441a3.135,3.135,0,0,0,1.079,1.961l-3.187.392-3.678,1.177L723.1,627.42Z" transform="translate(-294.504 -296.344)" fill="#0e538c"/>
    <path id="Caminho_745" data-name="Caminho 745" d="M777.562,659.911l7.062-2.011s2.011,2.8,1.618,3.482,0,4.806,0,4.806l-3.433,3.04-2.8-.981s-.2-1.275.736-1.373c.981-.147-.638-.834-1.128-1.128C779.131,665.4,775.061,663.245,777.562,659.911Z" transform="translate(-321.848 -315.251)" fill="#fcd2b1"/>
    <path id="Caminho_746" data-name="Caminho 746" d="M755.948,509.421a4.5,4.5,0,0,0,2.648,5.688l4.021,1.471a4.277,4.277,0,0,0,5.492-2.746l3.58-10.592a4.575,4.575,0,0,0-2.648-5.738l-4.021-1.471a4.277,4.277,0,0,0-5.492,2.746Z" transform="translate(-311.12 -232.631)" fill="#ff957e"/>
    <path id="Caminho_747" data-name="Caminho 747" d="M773.71,515.833a2.777,2.777,0,0,1-3.433,2.011l-12.113-3.482a2.96,2.96,0,0,1-1.962-3.58l4.953-18.586a2.777,2.777,0,0,1,3.433-2.011l12.113,3.433a2.96,2.96,0,0,1,1.961,3.58Z" transform="translate(-311.327 -229.726)" fill="#fcd2b1"/>
    <path id="Caminho_748" data-name="Caminho 748" d="M781.562,491.116h0a5.814,5.814,0,0,1-.49-4.168A3.925,3.925,0,0,0,777.2,481.8c-1.177-.049-5.149,1.863-7.258,2.5s-1.913-.2-5.738-.883c-2.55-.49-3.138.932-4.021,2.893-.883,2.011-.981,9.661-.981,9.661.343.49.883.883,1.226.49s1.716-6.522,2.844-8.337c1.079-1.814,5.492,1.079,7.9,2.5,2.354,1.422,4.462,1.667,8.239.883a3.178,3.178,0,0,1,.834,1.275c0,.49-1.079,3.972-1.079,3.972a10.46,10.46,0,0,0,2.7-2.354A4.027,4.027,0,0,0,781.562,491.116Z" transform="translate(-312.901 -225.507)" fill="#3a386e"/>
    <path id="Caminho_749" data-name="Caminho 749" d="M759.525,517.23a.939.939,0,0,1-1.128.687l-2.6-.736a.961.961,0,0,1-.638-1.177l1.324-4.953a.939.939,0,0,1,1.128-.687l2.6.736a.961.961,0,0,1,.638,1.177Z" transform="translate(-310.823 -240.048)" fill="#fcd2b1"/>
    <path id="Caminho_750" data-name="Caminho 750" d="M757.852,514.8s-1.962,7.307-2.6,9.759c-.589,2.207-1.03,7.307,10.985,10.74,7.111,2.01,8.287-3.482,8.778-5.247a17.236,17.236,0,0,0-.588-6.816c0-.049-.785,3.04-.785,3.04a5.96,5.96,0,0,0-4.07-4.315c-5.443-1.569-7.6,1.422-9.955.637C757.754,521.96,757.215,518.429,757.852,514.8Z" transform="translate(-310.769 -242.326)" fill="#3a386e"/>
    <path id="Caminho_751" data-name="Caminho 751" d="M776.767,535.916,780.494,537a.883.883,0,0,0,1.128-.687l.147-.539-5.541-1.569-.147.539A1.009,1.009,0,0,0,776.767,535.916Z" transform="translate(-321.494 -252.212)" fill="#fcd2b1"/>
    <path id="Caminho_752" data-name="Caminho 752" d="M782.777,663.119c-1.716,4.953-31.924,23.146-42.075,22.068l-30.551,1.52c-25.942-3.286-38.25-45.067-38.25-45.067,1.03-10.494,26.628,4.708,35.749,9.415,14.417,7.454,23.588,7.846,23.588,7.846,9.661,1.03,20.841-6.718,33.052-6.964C777.677,651.595,785.523,655.321,782.777,663.119Z" transform="translate(-268.412 -305.12)" fill="#0b4870"/>
    <g id="Grupo_199" data-name="Grupo 199" transform="translate(447.966 322.445)">
      <path id="Caminho_753" data-name="Caminho 753" d="M762.6,676.554h0v-1.373l52.521-.981v1.373l-.147.245c-.638,1.177-1.864,1.373-3.237,1.422l-45.7.883c-1.373.049-2.6-.147-3.286-1.275Z" transform="translate(-762.6 -646.003)" fill="#d3d3d3"/>
      <path id="Caminho_754" data-name="Caminho 754" d="M775.66,677.779h0l-.147.245a1.967,1.967,0,0,1-.736.687l-7.993.147c-1.324.049-2.5-.1-3.187-1.03l-.147-.2-.049-.049v-.638l12.162-.245Z" transform="translate(-763.008 -647.277)" fill="#d3d3d3"/>
      <g id="Grupo_197" data-name="Grupo 197" transform="translate(19.714 28.59)">
        <path id="Caminho_755" data-name="Caminho 755" d="M802.849,676.422l26.236-.49V675l-26.285.539Z" transform="translate(-802.8 -675)" fill="#d3d3d3"/>
      </g>
      <g id="Grupo_198" data-name="Grupo 198" transform="translate(12.946)">
        <path id="Caminho_756" data-name="Caminho 756" d="M789,645.584l6.326-26.873a1.779,1.779,0,0,1,1.52-1.324l36.877-.687a.957.957,0,0,1,.932,1.275l-6.326,26.873Z" transform="translate(-789 -616.7)" fill="#d3d3d3"/>
      </g>
    </g>
    <path id="Caminho_757" data-name="Caminho 757" d="M735.812,734.175c3.629.638,6.424-3.727,6.424-3.727l9.415-7.65-2.011-5.2L731.3,726.133S732.134,733.538,735.812,734.175Z" transform="translate(-298.683 -345.675)" fill="#fcd2b1"/>
    <path id="Caminho_758" data-name="Caminho 758" d="M720.244,736.6a11.12,11.12,0,0,1-.687,2.452c-.687,2.011-1.569,2.7-2.452,2.991-3.531,1.079-6.032.539-14.466,2.207s-10.985.392-13.437-3.629.1-7.209,4.217-7.5c5.934-.441,9.268.245,12.358-.245,3.237-.49,3.433-1.275,5.345-2.5,1.765-1.128,3.433,5.639,1.765,7.209C711.368,738.951,719.018,739.147,720.244,736.6Z" transform="translate(-276.741 -352.118)" fill="#ffb750"/>
    <path id="Caminho_759" data-name="Caminho 759" d="M718.475,744.628c-3.482,1.079-6.032.539-14.466,2.207s-10.985.392-13.437-3.629a4.874,4.874,0,0,1-.539-4.806c-1.864,1.324-2.5,3.629-.834,6.375,2.452,4.021,5,5.3,13.437,3.629s10.985-1.128,14.467-2.207a3.24,3.24,0,0,0,1.961-1.814A3,3,0,0,1,718.475,744.628Z" transform="translate(-276.737 -356.275)" fill="#fff"/>
    <path id="Caminho_760" data-name="Caminho 760" d="M753.4,743.4v-.1c0,.049-.049.1-.1.147A.152.152,0,0,1,753.4,743.4Z" transform="translate(-309.895 -358.772)" fill="#e9d6b8"/>
    <g id="Grupo_200" data-name="Grupo 200" transform="translate(423.563 380.115)">
      <path id="Caminho_761" data-name="Caminho 761" d="M714.584,742.148c-.245.1-.49-.441-.589-1.177a21.243,21.243,0,0,0-.981-4.512c-.245-.736-.245-1.373.049-1.471s.785.441.981,1.177a20.678,20.678,0,0,1,.932,4.462C715.075,741.363,714.829,742.05,714.584,742.148Z" transform="translate(-712.837 -734.645)" fill="#fff"/>
      <path id="Caminho_762" data-name="Caminho 762" d="M719.838,741.666c-.294.049-.539-.441-.638-1.128a18.154,18.154,0,0,0-.981-4.217c-.245-.687-.245-1.275.1-1.324.294-.049.785.49,1.03,1.177a21.23,21.23,0,0,1,.932,4.168C720.329,741.029,720.133,741.617,719.838,741.666Z" transform="translate(-715.492 -734.653)" fill="#fff"/>
      <path id="Caminho_763" data-name="Caminho 763" d="M725.229,741.214c-.294.049-.588-.49-.686-1.226a23.831,23.831,0,0,0-1.128-4.365c-.245-.736-.245-1.324.049-1.324.343,0,.834.539,1.079,1.275a19.868,19.868,0,0,1,1.079,4.315C725.72,740.577,725.524,741.165,725.229,741.214Z" transform="translate(-718.137 -734.3)" fill="#fff"/>
    </g>
    <path id="Caminho_764" data-name="Caminho 764" d="M741.8,697.259s64.584-27.511,68.262-27.56c12.456-.1,9.612,12.946,3.286,19.125-7.454,7.258-64.143,20.547-64.143,20.547Z" transform="translate(-304.034 -321.264)" fill="#0e538c"/>
    <path id="Caminho_765" data-name="Caminho 765" d="M775.654,709.659,758,692.3l7.552-7.7,19.223,20.989Z" transform="translate(-312.29 -328.858)" fill="#fcd2b1"/>
    <path id="Caminho_766" data-name="Caminho 766" d="M734.78,661.313s-44.871-42.615-47.862-43.89c-10.249-4.315-16.575,7.4-16.232,11.475.49,5.247,46.048,47.911,46.048,47.911Z" transform="translate(-267.787 -294.145)" fill="#0e538c"/>
    <g id="Grupo_202" data-name="Grupo 202" transform="translate(460.148 373.242)">
      <path id="Caminho_767" data-name="Caminho 767" d="M820.866,729.169c1.03.981,1.226,3.972,1.226,3.972s-14.957,5.885-20.2,5.983a24.6,24.6,0,0,1-6.179-1.226c-.392-.1-1.324-1.177-1.716-1.275-.736-.2-.883.49-1.471.294a18.668,18.668,0,0,1-2.8-1.079c-3.187-6.964-2.109-10.4-2.109-10.4s6.865,2.06,5.688.441c-2.5-3.433,4.708-6.914,6.277-5.1C806.056,728.09,817.825,726.276,820.866,729.169Z" transform="translate(-787.442 -720.286)" fill="#ffb750"/>
      <path id="Caminho_768" data-name="Caminho 768" d="M822.748,741.4c-4.61,1.913-14.27,5.787-16.183,5.934-7.9.588-13.388-2.3-17.066-4.021.343.981.736,2.109,1.275,3.286a16.331,16.331,0,0,0,2.8,1.079c.638.2.785-.539,1.471-.294.392.1,1.275,1.177,1.716,1.275a27.038,27.038,0,0,0,6.179,1.226c5.247-.1,20.2-5.983,20.2-5.983A8.875,8.875,0,0,0,822.748,741.4Z" transform="translate(-788.491 -731.046)" fill="#fff"/>
      <g id="Grupo_201" data-name="Grupo 201" transform="translate(9.628 3.283)">
        <path id="Caminho_769" data-name="Caminho 769" d="M827.481,731.868c.147.294-.441.589-1.275.785a27.29,27.29,0,0,0-5.051,1.569c-.834.343-1.569.441-1.667.147s.441-.834,1.275-1.177a26.647,26.647,0,0,1,5-1.52C826.55,731.426,827.334,731.573,827.481,731.868Z" transform="translate(-813.395 -729.308)" fill="#fff"/>
        <path id="Caminho_770" data-name="Caminho 770" d="M820.785,729.423c.147.294-.441.687-1.275.932a27.907,27.907,0,0,0-4.9,2.011c-.785.392-1.52.539-1.618.245s.441-.932,1.226-1.324a25.615,25.615,0,0,1,4.855-1.912C819.9,729.031,820.687,729.129,820.785,729.423Z" transform="translate(-810.082 -728.089)" fill="#fff"/>
        <path id="Caminho_771" data-name="Caminho 771" d="M814.541,727.235c.1.294-.441.736-1.226,1.03a30.133,30.133,0,0,0-4.708,2.354c-.736.49-1.422.638-1.52.294-.1-.294.392-.981,1.177-1.471a27.385,27.385,0,0,1,4.659-2.3C813.707,726.892,814.443,726.941,814.541,727.235Z" transform="translate(-807.075 -726.98)" fill="#fff"/>
      </g>
    </g>
  </g>
</svg>
