<svg xmlns="http://www.w3.org/2000/svg" width="52" height="39.619" viewBox="0 0 52 39.619"><path d="M48.9,7.429H39.619a2.383,2.383,0,0,1-2.476-2.476V3.714C37.143,2.157,35.422,0,32.19,0H19.848C16.214,0,14.9,2.221,14.9,3.714V4.945a2.444,2.444,0,0,1-2.515,2.484H3.1a3.1,3.1,0,0,0-3.1,3.1V32.81a3.1,3.1,0,0,0,3.1,3.1h7.429a.619.619,0,1,0,0-1.238H3.1A1.859,1.859,0,0,1,1.238,32.81V17.333h9.9a16.1,16.1,0,1,0,29.711,0h9.908V32.81A1.859,1.859,0,0,1,48.9,34.667H40.238a.619.619,0,1,0,0,1.238H48.9a3.1,3.1,0,0,0,3.1-3.1V10.524A3.1,3.1,0,0,0,48.9,7.429ZM26,38.381A14.857,14.857,0,1,1,40.857,23.524,14.874,14.874,0,0,1,26,38.381ZM40.548,16.1a.607.607,0,0,0-.255.058,16.069,16.069,0,0,0-28.585,0,.607.607,0,0,0-.255-.058H1.238V10.524A1.859,1.859,0,0,1,3.1,8.667h9.286a3.627,3.627,0,0,0,3.753-3.714V3.714c0-1,.989-2.476,3.714-2.476H32.19c2.593,0,3.714,1.639,3.714,2.476V4.952a3.581,3.581,0,0,0,3.714,3.714H48.9a1.859,1.859,0,0,1,1.857,1.857V16.1Z" fill="#3b0e26"/><path d="M11.048,5.714a.619.619,0,0,0,.619-.619V3.857A1.859,1.859,0,0,0,9.81,2H4.857A1.859,1.859,0,0,0,3,3.857V5.1a.619.619,0,1,0,1.238,0V3.857a.62.62,0,0,1,.619-.619H9.81a.62.62,0,0,1,.619.619V5.1A.619.619,0,0,0,11.048,5.714Z" transform="translate(0.714 0.476)" fill="#3b0e26"/><path d="M23.143,10A11.143,11.143,0,1,0,34.286,21.143,11.156,11.156,0,0,0,23.143,10Zm0,21.048a9.9,9.9,0,1,1,9.9-9.9A9.916,9.916,0,0,1,23.143,31.048Z" transform="translate(2.857 2.381)" fill="#3b0e26"/></svg>