<svg xmlns="http://www.w3.org/2000/svg" width="52" height="52" viewBox="0 0 52 52"><path d="M0,26A26,26,0,1,0,26,0,26.03,26.03,0,0,0,0,26ZM26,1.625A24.375,24.375,0,1,1,1.625,26,24.4,24.4,0,0,1,26,1.625Z" fill="#3b0e26"/><path d="M24.125,45.25A21.125,21.125,0,1,0,3,24.125,21.149,21.149,0,0,0,24.125,45.25ZM22.5,4.708v2.48a.813.813,0,0,0,1.625,0V4.625A19.515,19.515,0,0,1,43.542,22.5H41.061a.813.813,0,0,0,0,1.625h2.564a19.522,19.522,0,0,1-19.5,19.5V41.062a.813.813,0,0,0-1.625,0v2.48A19.515,19.515,0,0,1,4.625,24.125H7.189a.813.813,0,0,0,0-1.625H4.708A19.509,19.509,0,0,1,22.5,4.708Z" transform="translate(1.875 1.875)" fill="#3b0e26"/><path d="M9.7,31.933a.813.813,0,0,0,.474-.153L19.3,25.222a4.8,4.8,0,0,0,1.15.151,4.831,4.831,0,0,0,4.734-5.991L31.852,10.1a.813.813,0,0,0-1.134-1.136l-9.389,6.749a4.81,4.81,0,0,0-.884-.089,4.851,4.851,0,0,0-4.781,5.8l-6.625,9.22a.812.812,0,0,0,.66,1.287ZM17.2,20.5a3.25,3.25,0,1,1,3.25,3.25A3.253,3.253,0,0,1,17.2,20.5Zm10.439-7.316-3.229,4.493a4.916,4.916,0,0,0-1.287-1.246ZM16.392,23.2A4.919,4.919,0,0,0,17.6,24.44l-4.342,3.122Z" transform="translate(5.554 5.508)" fill="#3b0e26"/></svg>