<svg xmlns="http://www.w3.org/2000/svg" width="270.419" height="442.729" viewBox="0 0 270.419 442.729"><g transform="translate(-409.47 -159.219)"><path d="M573.8,319.438c1.622,4.682,10.238,15.354,23.917,20.044l44.262,9.621c0-1.031.038-2.055.09-3.075,4.476,1.995,11.334.753,13.551,1.129l-13.483-2.085c.647-9.519,3.324-18.61,3.693-27.948.049-1.246-42.651-9.9-47.522-11.932-2.161-.9-8.326-15.339-11.936-25.261l14.559-8.7-5.721-10.509h0l17.315-10.916a86.813,86.813,0,0,0,8.018-6.824l9.143,2c.03,0,2.044.169,2.289.169,3.113,0,3.911-2.42,4.427-5.153l5.157-37.264c.674-6.775,1.954-9.7-4.408-10.351L618.886,189.4c-4.024-.489-4.916,4.769-4.893,4.773l-3.275,20.748c-4.366-.3-11.258,2.183-12.745,6.726a33.378,33.378,0,0,0-1.882,12.659l-10.848,8.153-.753-1.385-5.755,3.764c-4.995-20.428-18.914-9.087-23.924-4.517,1.476-6.023,3.459-13.336,3.459-15.809,0-.331,14.989-3.945,14.823-12.576-.279-14.62-4.852-25.332-10.656-31.129,5.3-4.257,8.992-9.034,8.025-13.856-2.635-13.08-26.153-1.186-33.323,10.953-2.326,3.933-3.557,14.68.523,17.149h0a63.6,63.6,0,0,0-.6,7.483c-.207,7.69-.753,18.041-1.619,22.679-8.544-5.27-21.553-2.526-31.961,16.622h0c2.578-4.415-29.887-30.218-51.986,9.139-.583,1.046-5.093,8.044-10.7,16.716h0c-9.677,14.966-22.637,34.927-24.406,37.961-10.438,17.883-2.673,27.628,10.7,27.926l40.31.9h0c-3.967,11.349-6.625,20.066-6.557,22.938l5.311.064a63.157,63.157,0,0,0-.553,28.291h0c2.657,13.321,8.657,24.308,12.38,31.11l-.068.045h.094c.5.915.964,1.754,1.366,2.511l.026.44-1.487-2.951L437.495,533.863c-2.691,5.823-15.079,22.02-16.694,27.376-4.14-1.1-7.08,9.666-1.987,10.7,7.788,1.588,2.375-2.029,4.37,4.348.689,2.206,10.713,1.159,10.016,1.3-3.534,10.208,10.163,5.876,9.884,6.839-3.309,12.045,11.947,4.061,10.743,6.583-3.113,6.512,4.965,7.125,6.693,6.4,7.212-2.977,1.95,1.765,4.859,3.245,10.231,5.195,13.57-2.612,13.807-2.669,1.268,6.192,15.662,3.09,11.94-6.474,3.512-20.552-16.98-18.9-18.132-20.221-3.064-3.523-6.324-12.824-3.154-22.453l-1.668-.753,36.135-78.827-2.014-3.964h.109l45.007,89.713c-.418.5-.662,1.355.753,3.425,4.114,11.736,4.272,24.489,7.664,29.36-1.129,1.065-.124,10.539,1.381,10.863,5.507,1.2,6.824-6.836,8.352-2.13.847,2.6,5.191.173,6.4-.851,3.851-3.241,2.119-4.863,4.186-3.06,5.575,4.863,9.23-3.922,9.286-3.945,3.61,2.01.794,2.9,7.212,1.732,5.646-1.031,7.242-5.974,7.566-5.544,2.432,3.2,8.074,2.082,9.689-.753,2.157-3.817.836-2.537,1.754-2.176,3.764,1.479,4.141,1.268,7.731-.809,1.743-1.005,2.7-3.873,2.8-3.907.512,1.412,4.212,1.735,5.458,1.423a6.44,6.44,0,0,0,4.927-6.342l-1.189-4.092c1-1.129-9.071-19.351-27.4-15.056-18.1,4.246-19.912-5.251-22.927-7.284l-16.3-50.932h0L530.325,387.3a86.315,86.315,0,0,0,11.149-.847c.023,4.517.045,8.955.045,13.174V386.45a40.039,40.039,0,0,0,10.163-2.748l-10.163.245V365.729c3.508.094,7.069.151,10.716.151l-10.716-.294V358.4l19.5.233c.023,0,11.1-43.456,16.543-73.43l3.606-2.153ZM610.131,218.61l-.184,1.174a24.5,24.5,0,0,1-2.635,3.256c-.467.471-1.024,1.427-1.724,1.667C605.813,224.459,608.286,221.241,610.131,218.61ZM479.4,419.484c.256.482.493.933.7,1.348l9.41,18.79h-.173l-9.948-19.731A3.687,3.687,0,0,0,479.4,419.484ZM491.069,591.63c-.516.621-2.281.851-4.427.892a14.24,14.24,0,0,0,4.408-.892ZM501.9,464.461l-12.211-24.218h.173l12.15,24.214Zm39.572-98.883-14.676-.406c4.818.2,9.681.406,14.657.538-.045,5.887-.023,12.086,0,18.222l-12.117.29-.4-1.242L510.574,374.8l-.519-10.091c-.192-.03-.275,3.734-.256,9.745l-21.978-9.787c3.655-.169,7.235-.252,10.765-.271l-12.12-.331-14.68-6.538,69.76.866c-.045,2.307-.075,4.716-.094,7.182Z" transform="translate(-1.296 -1.269)" fill="#ff6259"/><path d="M1059.767,670.926l1.588-9.41-6.617.23-6-4.1-7-.4-.617,10.163C1042.4,672.01,1055.943,673.335,1059.767,670.926Z" transform="translate(-393.891 -310.561)" fill="#fff"/><path d="M1038.23,530.41l-1.506,6.489-3.35,5.044,3.764.523.064,9.173c-.851-.218-2.051-.489-3.892-.813l7.453,7.284,5.168,9.437a4.506,4.506,0,0,0,.094,4.193c.248.516-3.275,2.778-1.882,5.8.621,1.34,1.844,1.634,6.023,3.832,3.482,1.841,12.542.583,12.15-4.923a4.207,4.207,0,0,1,1.129-2.913,4.434,4.434,0,0,0,.772-1.013h0a7.061,7.061,0,0,0,1.412-4.174,13.855,13.855,0,0,1,.753-4.479,5.652,5.652,0,0,0,.271-.933c.105-.376.211-.775.316-1.25.79-3.5-1.555-5.951-5.1-7.528l1.506-8.051,4.483.621L1066,540.517l.237-6.429Zm9.9,35.428a3.764,3.764,0,0,0-1.882,1.231,2.609,2.609,0,0,1,1.882-1.231Z" transform="translate(-389.021 -231.471)" fill="#ff6259"/><path d="M934,432.093a3.3,3.3,0,0,0-.523-.343Z" transform="translate(-326.768 -169.948)" fill="#fff"/><path d="M989,466.811l7.189,4.705C995.324,467.982,994.609,464.391,989,466.811Z" transform="translate(-361.39 -191.319)" fill="#ff6259"/><path d="M1015.372,485.363l-7.242-4.743C1008.962,483.974,1009.963,487.279,1015.372,485.363Z" transform="translate(-373.319 -200.423)" fill="#ff6259"/><path d="M642.8,700.991l11.469.312,16.731.44C661.613,701.367,652.387,700.93,642.8,700.991Z" transform="translate(-145.502 -337.84)" fill="#fff"/><path d="M477.064,426.875c-3.764-.8-3.275-1.912-5.469,1.167-3.011,4.223-7.995,13.208-7.995,13.208.158.753,2.752.41,3.523,1Z" transform="translate(-33.755 -166.364)" fill="#ff6259"/><path d="M917.394,496.558l-1.645,7.035-3.956,5.955,4.333.6.053,7.528c-.614-.139-1.363-.3-2.289-.467.079-.937.147-1.882.184-2.819.041-1.061.049-1.314-25.219-7.069-10.133-2.311-20.608-4.7-22.788-5.6-.9-.376-3.791-5.5-8.029-15.839-1.182-2.88-2.3-5.774-3.26-8.375l-.678.4-.67.4-4.076,2.435-.9.535-.9.534-7.031,34.682-.041.207.068.2c1.667,4.81,10.539,15.772,24.4,20.522l45.282,9.851v-.96c0-.659,0-1.317.038-1.976a20,20,0,0,0,5.575.832l-.617,10.253.034.124c.422,1.506,1.92,2.808,4.329,3.745a25.821,25.821,0,0,0,8.861,1.506c2.748,0,5.225-.425,6.606-1.291l.294-.185L937,549.582a10.122,10.122,0,0,0,3.237-1.317,5.174,5.174,0,0,0,2.586-4.859,3.349,3.349,0,0,1,.952-2.341,5.239,5.239,0,0,0,.87-1.163h0a7.792,7.792,0,0,0,1.506-4.517,12.979,12.979,0,0,1,.674-4.246l.023-.079a6.322,6.322,0,0,0,.267-.907c.105-.376.215-.805.324-1.295a6.022,6.022,0,0,0-1.4-5.537,11.213,11.213,0,0,0-3.587-2.635l1.268-6.734,4.942.685-2.149-7.212.26-7Zm26.635,15.9-5.522-.753-17.085-2.394-3.764-.523-.753-.105-.775-.109-1.675-.23,2.563-3.858,28.148,3.719,1.366,4.581Zm1.156-10.694-.177,4.893L917.469,503l1.107-4.731Zm-34.829,40.965a126.782,126.782,0,0,1,1.829-13.551c.591-3.41,1.186-6.907,1.558-10.427,1.028.192,1.818.376,2.447.512v.512c.162,2.526,4.2,4.517,11.992,5.891,1.438.256,2.887.459,4.268.625,2.074.659,5.6,2.56,6.945,4.8a2.923,2.923,0,0,1,.2,3.034,2.454,2.454,0,0,1-1.381,1.344c-1.283.4-3.166-.61-4.987-1.585-1.7-.907-3.448-1.841-5.036-1.818v-.075c-.166.034-.324.071-.478.117a3.35,3.35,0,0,0-.5.113,3.455,3.455,0,0,0-1.814,1.411,4.075,4.075,0,0,0-.459.708,5.265,5.265,0,0,0,0,4.445c-.083.109-.2.245-.3.376-.753.911-2.055,2.469-1.822,4.434a26.5,26.5,0,0,0-3.053,0C917.033,543.673,913.216,543.8,910.355,542.724Zm12.711,1.8c.026.079.06.158.094.237h-.135Zm18.222-1.02a3.676,3.676,0,0,1-1.882,3.455c-2.635,1.731-7.088,1.814-9.132.753-1-.531-1.848-.956-2.526-1.3-2.206-1.11-2.793-1.43-3.135-2.172-.723-1.562.215-2.883,1.231-4.1l.169-.2a16.744,16.744,0,0,0,10.261,3.764,14.029,14.029,0,0,0,2.511-.226,11.644,11.644,0,0,0,2.533-.753A3.764,3.764,0,0,0,941.288,543.507Zm3.309-8.172a6.918,6.918,0,0,1-1.818,4.487l-.169.218a8.089,8.089,0,0,1-4.114,1.912c-1.916.354-6.911.693-12.075-3.681a3.748,3.748,0,0,1-.113-3.248c0-.034.041-.068.06-.105h.03a3.824,3.824,0,0,1,.226-.376,2.978,2.978,0,0,1,1.415-.933c1.2-.117,2.857.753,4.464,1.626,1.713.915,3.47,1.852,5.089,1.852a3.652,3.652,0,0,0,1.084-.158,3.764,3.764,0,0,0,2.13-1.811v.049a9.685,9.685,0,0,0,3.873-1.4c-.038.459-.068.971-.083,1.57Zm.294-11a4.517,4.517,0,0,1,1.058,4.186c-.083.376-.166.693-.249,1h0a1.621,1.621,0,0,1-.038.222c-.1.346-.192.659-.282.952-.455,1.084-1.487,2.206-3.945,2.785a4.664,4.664,0,0,0-.693-3.188,11.745,11.745,0,0,0-3.813-3.58c1.822.132,3.173.181,3.647.181h.158l.595-.041.862-4.558a9.282,9.282,0,0,1,2.7,2.044Z" transform="translate(-268.78 -198.477)" fill="#342f38"/><path d="M632.056,571v-.109l-1.129-3.956a4.491,4.491,0,0,0-.783-2.7l-.034-.113h-.026c-.147-.282-.316-.587-.516-.922-.986-1.656-10.129-16.061-27.03-12.1-13.89,3.26-17.733-1.7-20.277-4.984a11.508,11.508,0,0,0-1.81-2.021L530.094,386.755a88.021,88.021,0,0,0,9.335-.708c.023,4.284.041,8.349.041,12.3h1.543c0-4.02,0-8.157-.041-12.523a43.016,43.016,0,0,0,8.194-2.082l-7.415,23.379,1.472.463,15.662-49.475h1.178l.23-.23c.162-.162.237-.237,3.312-12.828,1.686-6.885,4.227-17.477,6.775-28.837q4.231-18.82,6.606-31.829l-.888.531-.888.531-31.957,19.1C529.7,312.068,519.434,315.8,512.219,315.8a13.162,13.162,0,0,1-7.57-2.021c-7.991-5.413-6.086-20.326-4.246-34.765a141.335,141.335,0,0,0,1.506-16.9h1.543a144.743,144.743,0,0,1-1.532,17.1c-1.78,13.969-3.625,28.411,3.58,33.29,6.128,4.14,18.218,1.11,36.967-9.3l32.45-19.389.647-.376.06-.034.828-.493.885-.531,1.848-1.1.9-.538.9-.534,3.124-1.863.674-.4.674-.406,13.118-7.837-5.356-9.839.422.681.437-.275.655-.414.181-.113,16.709-10.539.056-.038a88.026,88.026,0,0,0,7.784-6.6l8.857,1.938h.06l.474.038c1.069.087,1.641.128,1.807.128,4.1,0,4.807-3.764,5.187-5.782L641,201.562c.083-.851.181-1.641.267-2.375.376-3.124.64-5.379-.583-6.911-.854-1.065-2.322-1.656-4.758-1.9l-18.275-2.981c-3.79-.459-5.42,3.316-5.748,5.375a.414.414,0,0,0,0,.064l-3.166,20.051c-4.72-.038-11.292,2.635-12.824,7.284a33.636,33.636,0,0,0-1.923,12.512l-9.787,7.355-.169.128-.625.467-.455.343-.034-.064-4.615,3.011-.674.444-.678.44-7.415,4.848-.7.459-31.995,20.936a.64.64,0,0,1-.4.2l-4.223.975,3.361-2.2v.019l.632-.346a25.1,25.1,0,0,0,5.093-3.425L576.584,243.2l.666-.437.662-.433c-1.57-5.706-4-9.286-7.291-10.679-5.465-2.319-11.827,1.912-15.756,5.187.094-.376.184-.734.279-1.1,1.246-4.965,2.428-9.674,2.593-12.007l.572-.2c3.568-1.265,14.42-5.112,14.27-12.888-.271-14.251-4.577-24.96-10.268-31.057,5.13-4.261,8.612-9.079,7.619-14.048a7.21,7.21,0,0,0-6.184-6.169c-8.213-1.389-22.893,7.283-28.562,16.878-2.45,4.14-3.685,14.7.358,17.906a66.631,66.631,0,0,0-.557,7.1c-.252,9.245-.8,17.273-1.415,21.474A16.392,16.392,0,0,0,528.333,221c-9.267-1.4-18.444,4.92-25.716,17.285-.045-.09-.1-.181-.151-.275-2.146-3.715-10.916-10.6-22.423-10.6h-.184c-8.255.053-20.217,3.9-30.331,21.914-.425.753-3.011,4.78-6.572,10.317-.636-.158-1.129-.316-1.536-.448-2.066-.678-2.533-.312-4.208,2.04-3.011,4.212-7.837,12.915-8.04,13.283l-.139.248.056.282c.2.967,1.332,1.084,2.428,1.2.177.019.418.041.651.075-8.262,12.768-16.351,25.283-17.744,27.666-6.557,11.236-5.413,18.094-3.3,21.869,2.518,4.517,7.724,7.065,14.654,7.22l39.252.877c-3.805,10.965-6.324,19.34-6.256,22.208v.753l5.078.06c-6.071,25.257,5.808,47.458,11.94,58.652L435.465,532.3c-1.167,2.507-4.167,6.986-7.34,11.729-4.656,6.952-8.021,12.094-9.162,15.1a3.256,3.256,0,0,0-1.942.6c-2.115,1.438-3.452,5.27-2.861,8.224a4.046,4.046,0,0,0,3.184,3.478,21.248,21.248,0,0,0,3.312.463,8.215,8.215,0,0,0,.474,3.361c.508,1.622,3.418,2.191,9.7,1.882q-.819,3.167.576,4.961c1.9,2.417,6.158,2.014,8.7,1.773l.7-.06c-.568,2.563-.3,4.4.8,5.6,1.942,2.108,5.872,1.363,8.469.873.486-.09,1.039-.2,1.46-.252-1.058,2.635-.286,4.291.591,5.217,1.939,2.051,5.925,2.221,7.363,1.63a8.682,8.682,0,0,1,2.981-.907,5,5,0,0,1-.068.666c-.135.975-.376,2.612,1.3,3.459a15.141,15.141,0,0,0,6.775,1.852,8.793,8.793,0,0,0,7.2-3.606,4.928,4.928,0,0,0,3.011,2.119,9.128,9.128,0,0,0,8.737-2.6,7.236,7.236,0,0,0,1.163-7.671c.919-5.571.169-10.091-2.228-13.434-3.742-5.221-10.509-6.3-14.149-6.873a14.159,14.159,0,0,1-2.01-.4c-3.038-3.553-5.947-12.561-2.955-21.651l.215-.651-1.592-.753,35.2-76.753,42.158,84.014c-.6,1.235.215,2.729.956,3.821a109.158,109.158,0,0,1,3.854,16.057c1.009,5.454,1.882,10.193,3.606,12.982-.753,1.98-.124,7.05.467,9.154.433,1.506.937,2.258,1.645,2.432a5.868,5.868,0,0,0,1.268.139c2.522,0,4.174-1.739,5.217-2.838a7.618,7.618,0,0,1,.9-.862,3.5,3.5,0,0,1,.4.915,2.307,2.307,0,0,0,1.6,1.585c2.187.621,5.364-1.506,6.023-2.085a10.407,10.407,0,0,0,2.812-3.388l.376.316a5.467,5.467,0,0,0,4.75,1.566c2.552-.523,4.359-3.124,5.352-5a5.716,5.716,0,0,1,1.129,1.009c1.046,1.129,1.6,1.174,5.895.376a11.184,11.184,0,0,0,7.427-5.164,6.29,6.29,0,0,0,4.807,1.551,6.919,6.919,0,0,0,5.552-3.083c.44-.783.753-1.359.949-1.777,3.824,1.506,4.494,1.25,8.255-.922a7.648,7.648,0,0,0,2.635-3.222,8.862,8.862,0,0,0,5.432.821A7.2,7.2,0,0,0,632.056,571Zm-47.9-328.981.625-.467.169-.128,10.6-7.95v-.376a32.789,32.789,0,0,1,1.844-12.421c1.235-3.764,6.994-6.162,11.115-6.222.267,0,.523,0,.775.019a2.834,2.834,0,0,1,.508.045c-.169.294-.406.662-.685,1.077s-.64.945-1.013,1.472c-1.72,2.435-3.986,5.417-4.385,5.9l-1.75,2.119,2.6-.9a4,4,0,0,0,1.626-1.393c.143-.177.279-.346.376-.459.271-.267.549-.58.832-.911s.644-.779.975-1.216.662-.9,1-1.385c1.841-2.635,3.8-6,5.6-9.083,2-3.422,4.491-7.682,5.27-8.044.952-.327,2.2-.6,2.755,0,.67.708.553,2.661-.252,5.2a34.477,34.477,0,0,0-2.966,5.27c-1.645,3.252-3.9,7.705-5.153,8.409l.753,1.348c1.547-.866,3.369-4.3,5.774-9.06.5-.982,1-1.98,1.457-2.831l.429.2.35-.644c3.279-6.041,5.27-7.2,6.354-7.1a.99.99,0,0,1,.892.474c1.039,1.882-2.074,8.059-3.388,10.7-.5,1.005-.877,1.743-1.028,2.176-1.826,3.632-5.507,10.63-6.26,11.292a.64.64,0,0,1,.218-.1l.35,1.506c.376-.087.726-.173,2.861-4l-.591,1.814,4.822-9.858c1.479-3.011,2.289-3.444,2.45-3.5.4.376.877,2.906-.177,8.424-1.223,6.4-3.764,12.4-10.916,19.49-.215.215-.433.429-.659.644l-.677.644a88.972,88.972,0,0,1-6.866,5.748l-16.6,10.453-.038.023-1.566-2.541-7.25-11.7-1.276-2.066Zm37.355-45.169c-.241.478-.805,1.216-1.306,1.317-2.123.433-1.159-2-.9-2.755.941-2.706,3.512-1.178,2.206,1.449Zm.113,378.795-.263-.723-.723.26c-.331.117-.433.354-.61.753-.312.7-1.129,2.548-2.311,3.222-3.489,2.014-3.647,2.108-7,.787a.779.779,0,0,0-.674-.576.8.8,0,0,0-.839.58,21.634,21.634,0,0,1-1.265,2.484,5.44,5.44,0,0,1-4.314,2.3,4.582,4.582,0,0,1-4.084-1.622.817.817,0,0,0-.685-.328c-.493,0-.753.376-1.129.96a9.736,9.736,0,0,1-6.5,4.622c-3.847.7-3.99.617-4.476.087a7.927,7.927,0,0,0-2.221-1.735l-.35-.192-.376.173a.866.866,0,0,0-.422.478c-1.31,2.718-2.985,4.468-4.6,4.8a3.981,3.981,0,0,1-3.425-1.216c-.787-.685-1.186-1.028-1.75-.918s-.753.523-.945.937a8.9,8.9,0,0,1-2.5,3.038c-.933.783-3.41,2.123-4.615,1.777a.753.753,0,0,1-.557-.576c-.286-.881-.693-1.8-1.524-1.995s-1.57.523-2.36,1.355c-1.163,1.227-2.612,2.744-4.965,2.258-.8-.779-1.532-6.263-1.314-8.62a2.932,2.932,0,0,1,.169-.839h.049l.858-.245,73.121-20.891.192.659.237.813.23.8.817,2.812a5.669,5.669,0,0,1-4.34,5.458c-1.295.339-4.276-.173-4.547-.922ZM570.81,546.2c-.056-8.473-.064-18.741,0-27.056l7.965,24.884Zm-1.54.418-2.951.805c-4.088-1.393-9.693-1.035-14.409-.73-1.6.1-3.128.2-4.464.222-1.276-4.675-1.216-13.95-1.1-23.887,2.386.158,4.844.376,7.284.576,4.735.406,9.632.824,13.694.824v-1.543c-4,0-8.657-.4-13.551-.817-2.473-.211-4.972-.425-7.4-.583.12-10.1.226-20.465-1.035-27.064,3.011.105,6.023.184,9.237.184,2.635,0,5.386-.053,8.341-.177l6.422,20.063c-.147,9.011-.147,21.937-.079,32.138Zm-88.693-97.324c-.459-4.8-.817-8.6-.911-10.009,2.526.147,5.36.3,8.39.448l11.767,23.45c-6.775-.331-12.839-.655-18.041-.964C481.4,458.005,480.992,453.654,480.578,449.291ZM478.963,393.7q.056-4.562.1-9.309c7.212.068,15.015.636,22.671,1.193l6.147.44c.117,6.448.29,13.415.508,20.089.041,1.246.087,2.563.135,3.937-11.172-.6-22.825.143-29.691,3.388C478.8,406.832,478.88,400.351,478.963,393.7Zm.147-18.357c0-1.747.113-3.444.226-5.085a25.042,25.042,0,0,0,0-5.955,28.17,28.17,0,0,0,3.655.068c8.657-.538,16.8-.55,24.884-.35-.124,1.348-.207,4.6-.135,12.888.023,2.383.056,4.923.1,7.566l-6.023-.429c-7.682-.561-15.508-1.129-22.769-1.2q.064-3.681.064-7.5Zm29.556-11.13.026-.173h.561a.753.753,0,0,1-.587.173Zm1.393,74.871c-7.212-.26-14.544-.565-21.019-.873l-9.546-18.979c-.184-.376-.376-.772-.617-1.193,0-.956-.023-1.908-.03-2.857,6.437-3.388,18.35-4.141,29.736-3.531.32,8.548.8,18.9,1.46,27.433Zm-31.129-17.548,8.322,16.588c-2.774-.135-5.36-.275-7.682-.407C479.238,432.089,479.038,426.737,478.929,421.539Zm10.916,18.275c6.32.3,13.389.595,20.326.843.565,6.8,1.261,12.222,2.1,14.258.523,1.265.753,4.927.911,8.887l-3.764-.169q-4.058-.181-7.841-.376Zm50.74,7.359c.181,5.27.4,11.488.678,17.718-7.005-.226-16.276-.576-26.533-1.02-.154-4.223-.414-8.051-1.031-9.546-.7-1.69-1.366-6.4-1.972-13.615,10.863.376,21.282.632,27.926.632h.726C540.442,443.107,540.513,445.094,540.585,447.172Zm-27.35,18.2c.038,1.265.068,2.533.1,3.738.162,6.5.263,8.349.678,8.959l1.28-.87.03.057c-.256-.617-.354-4.637-.444-8.183-.03-1.193-.06-2.42-.094-3.632,9.873.433,19.314.79,26.552,1.016.478,10.325,1.129,20.5,2.127,26.349l-3.952-.166c-5.044-.218-10.265-.444-16.163-.444v1.543c5.868,0,11.066.226,16.1.44l4.31.181c1.3,6.4,1.2,16.852,1.077,27.03-5.386-.3-10.31-.275-13.709.715L502.4,464.856C506,465.044,509.636,465.213,513.235,465.371Zm31.8,27.5c-1-5.7-1.671-15.937-2.157-26.371,4.4.128,7.844.2,9.892.2h1.261l8.39,26.217C555.957,493.173,550.447,493.075,545.038,492.876Zm-2.228-27.937c-.282-6.26-.5-12.512-.681-17.819q-.119-3.388-.207-5.789c1.747-.019,3.1-.068,3.952-.143l7.675,23.988c-1.656.011-5.45-.071-10.739-.237Zm2.582-25.257c-.813.06-2.01.094-3.531.109a49.375,49.375,0,0,0-.376-5.868l-1.472.463c.094.376.2,2.454.32,5.413-6.538,0-17.39-.264-28.72-.659-.557-7.076-1.054-16.336-1.464-27.41a110.653,110.653,0,0,1,21.184,3.226l.422-1.483a112.076,112.076,0,0,0-21.666-3.327c-.038-1.058-.075-2.127-.109-3.214-.252-7.494-.425-14.6-.534-20.8,5.8.376,11.563.685,17.025.685h2.01Zm-15.809-54.444-1.2-3.764-1.468.5,1.061,3.312c-5.9.064-12.207-.256-18.572-.681-.181-10.882-.154-18.707,0-20.518,4.893.136,9.787.346,14.755.561s10.02.429,15.207.572c-.041,6.256,0,12.847.023,19.31a86.551,86.551,0,0,1-9.8.711Zm20.164-3.388a38.551,38.551,0,0,1-8.8,2.424c-.034-6.376-.064-12.869-.023-19.031,3.29.079,6.632.132,10.039.132v-1.543c-3.388,0-6.738-.053-10.027-.135,0-1.976.041-3.915.075-5.8l16.265.2ZM425.81,331.532c-6.361-.139-11.1-2.424-13.34-6.433-2.748-4.893-1.611-11.94,3.286-20.326,1.381-2.364,9.523-14.955,17.808-27.764h0l.617-.952.937-1.445c1.634-2.529,3.252-5.025,4.788-7.4.41,0,.832.019,1.28.019,3.252,0,7.506-.256,11.966-.527,4.6-.275,9.365-.561,13.129-.561h2.108c5.563,0,15.7-.026,22.208.376l.806.053.55.041c-2.864,7.667-6.023,16.035-9.154,24.154-.753,1.969-1.506,3.922-2.258,5.846-4.141,10.735-8.059,20.6-10.848,27.3l-.263.06-.489.12-.358.083-.162.324v.034c-2.808,5.646-3.207,7.284-3.117,7.9Zm18.753-71.518c3.425-5.315,5.883-9.154,6.309-9.915,9.753-17.371,21.154-21.079,28.983-21.128h.2c10.75,0,19.159,6.5,21.079,9.832.471.813.463,1.253.376,1.389l-.068.143a.335.335,0,0,1-.019.056c-.542,1.611-1.246,3.632-2.082,5.981-1.78,4.984-4.167,11.511-6.866,18.711l-.519-.041-.806-.06c-6.459-.433-16.667-.414-22.792-.4h-2.082c-3.809,0-8.593.286-13.219.565s-8.932.542-12.151.516l3.011-4.69.632-.979Zm46.2,61.6a63.737,63.737,0,0,1-22.584,9.58l-.576.113-.376.072-.23.049a64.649,64.649,0,0,1,2.635-5.947h.057l.181-.041.937-.233c11.556-2.97,21.211-9,27.421-17.142a57.218,57.218,0,0,0,2.258,5.3A47.566,47.566,0,0,1,490.759,321.617Zm72.726-160.726a5.711,5.711,0,0,1,4.931,4.954c.862,4.3-2.413,8.657-7.216,12.644l-.629.508c-.2.162-.407.324-.614.482-6.73,5.206-15.809,9.636-21,12.177l-1.585.779-.839.414-.094.049a3.793,3.793,0,0,1-.6-.647c-2.4-3.282-1.284-11.9.674-15.214,4.942-8.364,17.541-16.272,25.347-16.272A9.788,9.788,0,0,1,563.485,160.891ZM535.7,217.352c.376-4.4.67-10.253.828-16.043a65.243,65.243,0,0,1,.553-6.994c.715-.376,1.573-.779,2.552-1.257,5.7-2.782,14.706-7.182,21.455-12.455a27.349,27.349,0,0,1,3.068,3.956c3.011,4.664,6.632,12.982,6.881,26.145.128,6.662-9.933,10.231-13.242,11.4-1.246.444-1.581.561-1.581,1.159,0,1.912-1.306,7.11-2.567,12.132-.279,1.129-.557,2.213-.817,3.267-.279.256-.534.493-.753.7-.32.3-.651.606-.753.67-.35.241-1.848.03-3.113-.188a5.1,5.1,0,0,0-.147-.493c-.1-.263-.241-.629-4.009-2.688l-.644-.35-.019.03a20.287,20.287,0,0,0-8.417-12.764c.245-1.411.486-3.4.723-6.241Zm3.858,39.376c1.216-4.141,2.522-8.571,3.388-12.241.064-.256.12-.508.177-.753s.12-.535.177-.794c.169-.79.312-1.532.422-2.206.045-.267.083-.523.113-.772s.064-.523.087-.753.041-.565.045-.817c.376.218.775.44,1.129.655l.606.376a11.15,11.15,0,0,1,.964.636q.049.158.09.339a6.4,6.4,0,0,1,.128.809,18.249,18.249,0,0,1-.053,3.263c-.026.26-.053.523-.083.794s-.06.508-.094.753a56.983,56.983,0,0,1-3.086,12.293c-.452,1.088-.753,1.987-1.054,2.782-.93,2.6-1.34,3.764-4.28,5.646-.478.312-1.02.644-1.645,1.005.365-2.168,1.788-7,2.97-11.033ZM431.671,274.694c-.222-.023-.531-.056-.787-.1,1.2-2.138,5.1-9,7.585-12.482a7.654,7.654,0,0,1,1.415-1.69c.143-.068.4,0,1.058.222.3.1.677.218,1.129.346l-9,13.927A8.413,8.413,0,0,0,431.671,274.694ZM465.45,356.97l74.017.911c-.038,1.882-.06,3.813-.075,5.782-5.168-.147-10.208-.376-15.15-.572-13.769-.591-26.774-1.152-41.326-.252a28.912,28.912,0,0,1-4.189-.12,2.38,2.38,0,0,0-.553-.546c-.836-.583-1.991-.546-3.516.1l-.583-.072a65.307,65.307,0,0,0-7.5-.659v1.543a63.988,63.988,0,0,1,7.31.647c1.284.158,2.586.316,3.851.444.376,1.238.218,3.644.06,5.989-.109,1.592-.23,3.388-.23,5.191q0,3.817-.034,7.5a88.976,88.976,0,0,0-12.6.779,62.123,62.123,0,0,1,.519-26.65Zm-.215,28.159a88.444,88.444,0,0,1,12.286-.753q-.038,4.743-.1,9.3c-.087,6.926-.166,13.675-.124,20.582-.117.072-.233.143-.346.218-3.621-6.61-9.094-16.927-11.714-29.334Zm11.575,32.3.523.971c.087,6.151.29,12.482.689,19.2-3.5-.215-6.282-.414-7.984-.591Zm-7.287,21.079c1.743.2,4.747.418,8.59.655v.132c.087,1.389.433,5.051.915,10.114.335,3.531.753,7.95,1.186,12.685-9.384-.576-15.749-1.092-18.331-1.506Zm-8.142,23.556c2.721.467,9.828,1.024,18.986,1.585.881,9.787,1.773,20.608,2.063,27.666a242.011,242.011,0,0,0-25.291-2.236c-.534-3.922-1.261-6.869-2.225-8.307Zm-7.152,20.7a28.675,28.675,0,0,1,1.389,6.312,32.061,32.061,0,0,0-3.636.188Zm-2.819,8.153a23.557,23.557,0,0,1,4.4-.3,249.348,249.348,0,0,1,1,27.478c-6-.467-12.331-.99-14.3-1.378ZM442,518.155c1.551.376,5.27.727,14.793,1.468-.094,7.811-.4,15.41-.809,21.271l-18.82-8.725Zm39.146,80.792a3.168,3.168,0,0,1-2.481-2.386l-.158-.775-.772.181c-.331.075-.474.3-.67.6-2.737,4.272-6.982,4.987-12.617,2.127-.617-.316-.617-.809-.471-1.882.105-.753.222-1.592-.448-2.115a1.63,1.63,0,0,0-1.028-.3,10.671,10.671,0,0,0-3.553,1.016c-.824.343-4.167.309-5.646-1.261-.888-.937-.9-2.319-.049-4.107a1.084,1.084,0,0,0-.064-1.189c-.508-.662-1.506-.471-3.346-.124-2.258.425-5.687,1.073-7.046-.4-.824-.888-.9-2.571-.237-4.995a.858.858,0,0,0-.166-.775c-.376-.444-.922-.376-2.379-.256-2.085.2-5.966.561-7.344-1.193-.685-.87-.753-2.258-.147-4.141l.3-.064-.09-.711c-.094-.719-.719-.685-1.378-.647-8.221.463-8.687-.719-8.7-.753-.772-2.462-.3-3.105-.309-3.105l.561-.376-.591-1.2-.64.2s-.843.248-3.975-.376a2.549,2.549,0,0,1-1.98-2.258c-.467-2.326.61-5.556,2.213-6.644a1.983,1.983,0,0,1,.662-.3,1.536,1.536,0,0,1,.772.023,2.135,2.135,0,0,1,.591.275c.241.154.493.309.753.463,1.747,1.043,3.885,2.055,6.132,3.117a76.518,76.518,0,0,1,10.916,5.932c2.225,1.539,4.679,3.418,7.276,5.405,3.629,2.778,7.615,5.827,11.725,8.5a48.151,48.151,0,0,0,13.524,6.482,21.042,21.042,0,0,0,5.27.727c.474,0,1.408.06,2.492.128,3.124.2,5.646.312,7.581.267a11.828,11.828,0,0,0,3.824-.542,5.486,5.486,0,0,1-1.107,5.345,7.747,7.747,0,0,1-7.216,2.115Zm-14.638-53.16-9.034-4.182c.44-5.917.775-13.746.877-21.832l1.159.09c7.4.568,15.026,1.156,18.1,1.671Zm11.782-25.709c-2.925-.553-10.577-1.129-18.647-1.762l-1.261-.1a240.869,240.869,0,0,0-1.039-27.572,241.041,241.041,0,0,1,25.152,2.258c.094,3.124.034,5.27-.248,5.91l1.408.636c.343-.753.448-3.011.376-6.331,2.552.376,4.694.753,6.139,1.073Zm12.527-27.335c-1.464-.339-3.885-.753-6.839-1.182-.237-6.629-1.043-16.675-2.044-27.79,5.7.342,12.109.685,18.7,1.013l1.566,3.12Zm41.029,30.775c3.2-.858,7.863-.87,12.986-.576-.128,10.494-.192,20.277,1.329,25l.753-.237v.753c1.506,0,3.275-.113,5.142-.233a55.542,55.542,0,0,1,11.217.03L546.562,552.8Z" transform="translate(0 0)" fill="#342f38"/><path d="M986.2,465.083c.685-5.989-1.058-10.848-4.777-13.332a9.67,9.67,0,0,0-10.11-.3c-3.32,1.848-5.725,2.469-7.152,1.848-1.483-.647-1.976-2.635-2.5-4.773-.565-2.289-1.148-4.656-3.169-5.5-1.761-.734-4.193-.12-7.66,1.935-1.22.726-2.13.982-2.706.753-.775-.3-1.186-1.6-1.622-2.974-.8-2.529-1.882-5.992-6.455-5.018-1.735.376-2.925.327-3.538-.124s-.753-1.558-.873-2.8c-.154-1.709-.346-3.832-2.4-4.893l-.708,1.37c1.212.629,1.4,1.8,1.573,3.662.132,1.476.271,3.011,1.506,3.9,1.013.753,2.53.869,4.777.376,3.034-.647,3.764,1.088,4.66,3.975.527,1.664,1.069,3.388,2.545,3.949,1.065.406,2.353.128,4.046-.877,2.925-1.739,5.04-2.356,6.271-1.837,1.306.546,1.773,2.439,2.258,4.445.565,2.281,1.2,4.867,3.388,5.819,1.942.847,4.649.237,8.514-1.912a8.134,8.134,0,0,1,8.5.237c3.222,2.153,4.716,6.482,4.1,11.876Z" transform="translate(-326.176 -168.794)"/><path d="M1028.944,474.392l1.543-.034c-.124-5.458-2.258-13.347-7.874-17.627a13.216,13.216,0,0,0-11.624-2.172l-.1.034c-5.725,2.326-6.775.376-8.368-2.571-1.634-3.03-3.67-6.8-11.45-5.815l.192,1.532c6.738-.851,8.341,2.134,9.9,5.018,1.619,3.011,3.29,6.1,10.257,3.286a11.576,11.576,0,0,1,10.261,1.92C1026.528,461.65,1028.82,468.874,1028.944,474.392Z" transform="translate(-362.681 -178.863)"/></g></svg>