<svg xmlns="http://www.w3.org/2000/svg" width="40.573" height="52.062" viewBox="0 0 40.573 52.062"><g transform="translate(0 -0.282)"><path d="M20.286,35.469A17.234,17.234,0,1,0,3.052,18.234,17.253,17.253,0,0,0,20.286,35.469Zm0-32.827A15.593,15.593,0,1,1,4.693,18.234,15.611,15.611,0,0,1,20.286,2.641Z" transform="translate(1.957 0.461)" fill="#342f38"/><path d="M10.335,28a3.209,3.209,0,0,0-3.283,3.283v2.462a.821.821,0,0,0,.821.821h19.7a.821.821,0,0,0,.821-.821V31.406A3.31,3.31,0,0,0,25.107,28Zm16.414,3.406v1.518H8.693V31.283a1.57,1.57,0,0,1,1.641-1.641H25.107A1.669,1.669,0,0,1,26.748,31.406Z" transform="translate(4.523 17.778)" fill="#342f38"/><path d="M21.428,40.818c0,.01,0,.016,0,.026v2.633a.821.821,0,1,0,1.641,0V40.844c0-.011-.007-.021-.007-.033a21.971,21.971,0,0,0,14.178-5.878l1.937,1.935a.821.821,0,1,0,1.16-1.16l-2.5-2.5a.821.821,0,0,0-1.16,0A20.518,20.518,0,0,1,7.65,4.187a.821.821,0,0,0,0-1.16l-2.5-2.5a.821.821,0,0,0-1.16,1.16L5.92,3.619a22.157,22.157,0,0,0,.57,30.745A21.986,21.986,0,0,0,21.428,40.818Z" transform="translate(0 0)" fill="#342f38"/></g></svg>