<svg xmlns="http://www.w3.org/2000/svg" width="65.614" height="49.992" viewBox="0 0 65.614 49.992"><path d="M60.927,0A4.669,4.669,0,0,0,57.82,8.169L44.072,30.089a4.63,4.63,0,0,0-5.318,1.1L24.58,22.218A4.643,4.643,0,0,0,25,20.309a4.687,4.687,0,1,0-7.742,3.524L6.482,40.979a4.643,4.643,0,0,0-1.8-.361A4.736,4.736,0,1,0,7.8,41.824L18.581,24.655a4.617,4.617,0,0,0,5.127-1.139L37.89,32.5a4.688,4.688,0,1,0,7.482-1.539L59.135,9.014A4.685,4.685,0,1,0,60.927,0ZM7.811,45.3A3.124,3.124,0,1,1,4.687,42.18,3.128,3.128,0,0,1,7.811,45.3Zm12.5-21.871a3.124,3.124,0,1,1,3.124-3.124A3.128,3.128,0,0,1,20.309,23.434ZM42.18,37.494A3.124,3.124,0,1,1,45.3,34.369,3.128,3.128,0,0,1,42.18,37.494ZM60.927,7.811a3.124,3.124,0,1,1,3.124-3.124A3.128,3.128,0,0,1,60.927,7.811Z" fill="#342f38"/></svg>