<svg xmlns="http://www.w3.org/2000/svg" width="131.869" height="88.71" viewBox="0 0 131.869 88.71"><path d="M213.665,156.158,203.56,133.213l.409,5.523-16.359-.272v1.725l1.249,5.341,17.058,7.308h0Z" transform="translate(-119.918 -85.148)" fill="#342f38" fill-rule="evenodd"/><path d="M126.872,103.891l-13.8-24.454-12.523-.732-2.334,3.2-3.194-1.012V99.5l3.44.543h0l28.411,4.483Z" transform="translate(-60.736 -50.307)" fill="#342f38" fill-rule="evenodd"/><path d="M125.734,56.314l2.524,4.473,1.613-11.507-8.7-4.4-7.808,10.709Z" transform="translate(-72.46 -28.688)" fill="#342f38" fill-rule="evenodd"/><path d="M173.613,153.112,176,157.219l1.23-.233.9.428-.86-3.726Z" transform="translate(-110.972 -97.868)" fill="#342f38" fill-rule="evenodd"/><path d="M136.764,152.744l3.322-.629-2.747-4.727-17.376-2.742.589,1.345Z" transform="translate(-76.679 -92.456)" fill="#342f38" fill-rule="evenodd"/><path d="M190.135,118.945l-21-4.3,5.858,10.383,15.489.259Z" transform="translate(-108.11 -73.277)" fill="#342f38" fill-rule="evenodd"/><path d="M296.021,212.569l13.843,9.322-.3-.439-3.4-5Z" transform="translate(-189.213 -135.872)" fill="#342f38" fill-rule="evenodd"/><path d="M272.347,165.984l-13.267-19.1h0l-6.318-9.1-15.875-3.659,9.7,22.181h0l6.064,2.321h0l19.383,7.417Z" transform="translate(-151.416 -85.735)" fill="#342f38" fill-rule="evenodd"/><path d="M164.333,167.249h0l-.329-.14,0-.019-1.553-.742-6.131,1.162-5.5-2.292.984,2.382,22.681,9.2h0l7.712,3.128-1.649-5.77-16.2-6.906Z" transform="translate(-96.395 -105.605)" fill="#342f38" fill-rule="evenodd"/><path d="M151.824,189.042l.738-3.028-18.922-9.477,8.569,8.858h0l3.971,3.647Z" transform="translate(-85.421 -112.84)" fill="#342f38" fill-rule="evenodd"/><path d="M155.841,177.4l1.02,2.47,18.206,9.119,1-3.386Z" transform="translate(-99.612 -113.394)" fill="#342f38" fill-rule="evenodd"/><path d="M232.7,112.7l-2.762.738v.622l12.222,2.886h0l-8.17-10.473-5.02-.391h0Z" transform="translate(-146.351 -67.807)" fill="#342f38" fill-rule="evenodd"/><path d="M79.859,79.965l-6.124-1.941h0l1.747,12.234,4.377,4.2Z" transform="translate(-47.131 -49.872)" fill="#342f38" fill-rule="evenodd"/><path d="M111.944,151.3l2.285,1.144.314.157h0l7.417,3.715-2.746-6.65-9.685-4.034-1.238-2.83-3.734-.589v5.39l7.388,3.7Z" transform="translate(-66.831 -90.902)" fill="#342f38" fill-rule="evenodd"/><path d="M167.451,210.425h-6.268l-3.124-2.869,6.547,12.757,4.424-4.162Z" transform="translate(-101.03 -132.667)" fill="#342f38" fill-rule="evenodd"/><path d="M196.319,208.6l-7.61-3.812-.749,3.079,2,7.244h0l1.04,3.771.2.728,6.187-5.748-1.068-5.263Z" transform="translate(-120.141 -130.896)" fill="#342f38" fill-rule="evenodd"/><path d="M283.537,208.017l11.1,11.731V217Z" transform="translate(-181.234 -132.962)" fill="#342f38" fill-rule="evenodd"/><path d="M348.476,230.3l-4.866-3.664-4.733-.592Z" transform="translate(-216.607 -144.485)" fill="#342f38" fill-rule="evenodd"/><path d="M318.706,191.163l4.186.524h0l2.918.366-4.351-11.331-14.606-6.874h-.178Z" transform="translate(-196.024 -111.122)" fill="#342f38" fill-rule="evenodd"/><path d="M158.134,72.12l2.955,5.238,22.768,4.668,1.221-.325-5.1-9.046h0l-2.687-4.768-17.338-8.762Z" transform="translate(-101.078 -37.791)" fill="#342f38" fill-rule="evenodd"/><path d="M58.383,26.044l11.775,3.734,11.519-15.8h0L64.207,0,53.9.859,53.67.945l6.815,7.642-8.422,9.225.116.233,6.2,8Z" transform="translate(-33.278)" fill="#342f38" fill-rule="evenodd"/><path d="M25.11,11.286l-6.28-7.044L0,11.3l18.037,7.731Z" transform="translate(0 -2.711)" fill="#342f38" fill-rule="evenodd"/></svg>