<svg xmlns="http://www.w3.org/2000/svg" width="1069" height="451.426" viewBox="0 0 1069 451.426"><g transform="translate(-741 -4557)"><g transform="translate(741.036 4557.01)"><path d="M404.44,442.6h1.82V418.65c-.63.3-1.24.57-1.82.84Z" fill="#342f38"/><path d="M197.18,294.69c-1.66.33-3.31.63-4.95.91-2.08.35-4.14.65-6.2.89h65.01c-.06-.31-.12-.61-.18-.89s-.12-.61-.18-.91Z" fill="#342f38"/><path d="M296.13,402.17l-.89.07c-5.93.44-13.26,1.11-19.75,1.67l-8.9.77-.89.08-.89.08c-.05,1.42-.09,2.91-.09,4.32l.89-.05.89-.05,2.33-.12c1.9-.1,3.69-.19,4.17-.24,4.56-.48,11.62-.8,16.78-1.03,1.96-.09,3.66-.17,4.74-.23l.96-.06.91-.04.89-.04v-.5q-.045-.975-.09-2.19c-.05-.91-.09-1.75-.14-2.51Z" fill="#342f38"/><path d="M381.61,382.91c1.49-.94,2.9-1.82,3.25-2.08A140.408,140.408,0,0,1,400.11,371l.81-.42c.28-.14.55-.27.82-.4-.52-.95-1.11-2.1-1.73-3.28l-.68-1.31-.81.44-.81.44-24.34,12.88-.82.44-.81.44c1.33,1.75,2.67,3.68,3.86,5.34l.59.83c.22-.15.44-.32.76-.5l.77-.5C378.68,384.75,379.94,383.94,381.61,382.91Z" fill="#342f38"/><path d="M265.74,402.92l.89-.08,8.66-.75c6.49-.57,13.79-1.21,19.77-1.67l.89-.07.92-.07c4.06-.31,7.3-.51,8.9-.51,1.6-4.8,1-49.58.6-79.43-.07-5.12-.13-9.97-.19-14.38v-2.25c0-.98-.01-1.94-.03-2.87-.03-1.42-.1-2.86-.19-4.3l-.07-.89c0-.3-.04-.61-.07-.91-.99-11.88-4.15-23.71-10.68-28.03-3.06-2.02-6.67-2.14-10.78-.37l-.11.04h-.12c-3.38.52-12.78,3.88-16.8,5.43l-3.81,1.46c-4.49,1.73-9.13,3.52-13.87,5.31.45,3.76,1.31,8.45,2.52,14.4.12.58.23,1.16.34,1.74.06.3.12.6.18.91l.17.89q.72,3.765,1.34,7.62l.15.89.15.91c4.99,31.86,5.5,66.62,5.51,97.4.96-.05,2.67-.19,4.8-.36Z" fill="#342f38"/><path d="M396.88,364.83l.81-.45.8-.42,4.79-2.54a17.261,17.261,0,0,0-1.04-2.9c-.22-.52-.48-1.13-.8-1.82-2.58-5.68-8.59-17.58-22.44-42.52-1.49-2.7-3.03-5.46-4.6-8.25l-.51-.91-.51-.89c-1.41-2.52-2.84-5.05-4.29-7.62l-.52-.89-.52-.91c-10.76-18.99-22.22-38.74-31.34-53.95-.47-.79-.94-1.58-1.4-2.36-2.39-4.06-4.68-7.92-7.83-11.25-.52-.55-1.06-1.08-1.63-1.6-6.01-5.45-15.13-9.09-32.48-9.09h-.24c-14.61.03-44.08.18-73.82.39h-1.98c-14.3.1-28.58.23-41.22.36l.05-.89.03-.45h-.4l-.15-.45c-.89-2.63-1.91-5.49-2.96-8.49-4-11.44-8.56-24.41-11.12-33.76-.56-2.03-2.7-8.12-5.01-14.53l44.1,17.69c1.3,3.25,8.9,22.21,15.87,38.68h1.98c-6.28-14.76-13.14-31.81-15.49-37.66a79.2,79.2,0,0,0,9.58,3.56c35.21,11.51,46.55,5.42,49.86-1.71,3.17-6.83.14-17.75-8.32-29.97a112.388,112.388,0,0,0-31.68-30.16c-3.45-2.13-7.71-5.17-12.64-8.69-10.3-7.35-23.11-16.5-35.29-22.02-7.28-3.3-13.56-4.96-18.93-4.99V81.54a3.246,3.246,0,0,0-3.25-3.23l-10.19.05c0-.02.01-.03.01-.05a2.074,2.074,0,0,0-.13-.73c0-.03-.01-.07-.01-.13-.06-.7-.13-1.37-.15-2.09-.02-.68-.04-1.33-.01-1.94.18,0,.35.01.53.01,6.57,0,10.85-5.27,8.41-14.11a24.182,24.182,0,0,0,.73-9.58c-.44-4.62-2.1-10.1-3.85-15.91l-.14-.45c-.47-1.57-.97-3.23-1.46-4.91a15.551,15.551,0,0,0,4.69-1.97c10.43-7.06,3.1-25.25-8.07-18.92C141.77,1,127.73-3.09,120.56,2.91a24.9,24.9,0,0,0-3.34.25C110.06-.74,96.43,4.8,97.19,14.71c-5.14,0-7,11.83.47,14.78.34,6.11,2.54,12.53,4.55,18.01.34,1.72.7,3.42,1.1,5.01a30.876,30.876,0,0,0,2.36,5.88,6.857,6.857,0,0,1,.06.75c.09-.05.17-.1.27-.15a31.211,31.211,0,0,0,2.02,3.24c2.92,3.8,3.45,11.13,3.75,16.3l-11.3.06a3.25,3.25,0,0,0-3.11,2.43c-12.64-1.9-25.68,7.88-38.98,19.19-4.39,3.73-9.65,7.76-14.29,11.31-4.77,3.66-8.9,6.82-11.43,9.12C10.16,141.04-.5,157.03-.02,169.54c.23,5.84,2.98,10.84,8.16,14.86,7.41,5.75,17.2,9.11,27.79,11.07-9.7.99-19.25,4.18-25.23,11.39C3.07,216.02,2.25,243.64.91,289.4c-.23,7.98-.48,16.22-.77,25.09V442.63H2V358.55H83.12V442.6h1.82V314.46c0-1.9,0-4.83-.07-8.53h167.8c-.04-.31-.1-.61-.15-.91s-.09-.61-.14-.89H84.85c-.03-2.31-.08-4.86-.13-7.62h75.1q-1.5-.24-2.97-.54c-.57-.12-1.13-.24-1.69-.37-1.21-.28-2.39-.59-3.56-.91H84.68c-.25-11.57-.73-26.23-1.58-40.49-2.52-42.33-6.34-50.16-9.15-51.65-1.01-1.89-5.23-3.44-8.61-4.42,5.51.12,10.84.12,15.79.11,7.46,0,13.94-.03,19.03.39l3.98,20.28.45-.16a3.25,3.25,0,0,1,.42-.11c.2-.05.49-.11.89-.19l-3.85-19.67L90.46,139.49c-.04-.36-.24-1.33-1.08-5.5l-.97-4.98v.17c-.72-3.59-1.43-7.22-1.43-7.78H85.15c0,.89.98,5.78,2.36,12.54.29,1.43.59,2.88.8,3.97-.48,1.78-10.71,8.84-16.23,12.66-2.98,2.07-5.61,3.88-6.95,4.96l-4-.06c-8.8-.12-19.76-.26-23.91-1.7l-.6,1.73c4.43,1.53,15.55,1.68,24.47,1.8,1.3,0,2.55.03,3.72.05a9.388,9.388,0,0,0,2.85.19c1.45,0,3.46.02,5.73.03,6.26,0,16.46.05,18.8.35l7.59,38.82c-5.08-.38-11.42-.37-18.69-.36-8.41,0-17.96.03-27.54-.62-2.04-.25-4.19-.45-6.4-.54-14.36-1.47-28.24-4.79-37.86-12.25-4.74-3.67-7.25-8.22-7.46-13.5C1.38,157.7,12.13,141.73,33.82,122c2.47-2.25,6.57-5.39,11.31-9.02,4.66-3.56,9.93-7.61,14.35-11.37C67.02,95.2,75.75,88.09,84.12,84.7a24.471,24.471,0,0,1,13.06-1.84l.14,25.83a3.246,3.246,0,0,0,3.25,3.23l21.82-.12.03-.06.33-.85.33-.85.01-.02-22.46.1a1.421,1.421,0,0,1-1.43-1.42l-.13-25.44V81.85a1.359,1.359,0,0,1,.09-.48,1.432,1.432,0,0,1,1.33-.96l12.27-.06c.04,0,.07.02.1.02s.07-.02.11-.02h1.81l24.63-.13h1.82l11.18-.06a1.419,1.419,0,0,1,1.42,1.42v3.76l.04,7.39v.96a1.878,1.878,0,0,1,1.79-1.51l-.04-6.92c11.82.06,26.73,8.53,39.98,17.42a.847.847,0,0,0-.15.3v.12c-.59.83-.17,1.73.28,1.71,1.19-.05,1.69-.41,1.78-.83,3.97,2.7,7.76,5.41,11.24,7.89,4.96,3.56,9.24,6.59,12.74,8.76a110.657,110.657,0,0,1,31.17,29.62c8.09,11.67,11.08,21.94,8.19,28.17-4.24,9.13-21.16,9.4-47.64.74-8.22-2.67-9.6-3.56-10.18-3.94a3.161,3.161,0,0,0-1.49-.54h-.1l-6.11-2.46c1.44-.9-1.19-3.13-1.67-1.52v.12a1.507,1.507,0,0,0-.26.61l-27.79-11.17a46.246,46.246,0,0,0,5.05-5.14,44.409,44.409,0,0,1,4.05-4.18c4.53-3.11,9.32-9.5,13.16-14.63,2.29-3.06,4.45-5.95,5.83-7.09,7.65,3.79,17.89,8.57,20.36,8.99,0,.48.28.84.56.83,3.96-.17.33-3.72-.27-1.85l-.04-.77c-2.05-.11-24.43-10.77-28.14-13.19l-.64-.42-2.23,2.4-.02-.03-.51.55c-6.81-2.79-11.87-8.59-16.5-16.77-.27-.47-.94-2.25-1.65-4.12-1.56-4.1-3.5-9.21-4.89-11.01a4.109,4.109,0,0,0-2.8-1.88c-.06,0-.13-.01-.19-.01a2.686,2.686,0,0,0-1.08.23,1.887,1.887,0,0,0-1.79,1.51l.05,10.18a5.815,5.815,0,0,1-.75,1.36,4.515,4.515,0,0,1-3.56,1.74h-.13c-.11,0-.23.01-.35.01-3.98,0-11.31-2.16-17.24-3.91-3.79-1.11-7.06-2.08-9.22-2.46a6.545,6.545,0,0,0-1.12-.1,3.08,3.08,0,0,0-3.33,2.33c-.42,2.21,2.94,4.41,6.28,6.75a15.818,15.818,0,0,0-.67,4.58,19.418,19.418,0,0,0,2.1,9c2.78,5.01,6.09,10.06,11.22,12.87a30.225,30.225,0,0,0,6.72,2.62c2.84.76,15.49,4.68,20.78,6.65l-.05.05c.02.01.05.02.07.03l-9.28,10.08c-.92-2.57-1.84-5.09-2.67-7.33a1.182,1.182,0,0,0-.48-1.34c-1.1-3.04-1.99-5.49-2.07-5.78l-.89.22-.89.09c0,.19,0,.23,2.15,6.1-.31.73.07,1.42.45,1.4h.05c.89,2.4,1.9,5.25,2.95,8.16l-.4.45.65.26c2.46,6.82,4.93,13.79,5.51,15.92,2.58,9.41,7.14,22.42,11.16,33.89.98,2.78,1.91,5.44,2.76,7.9.1.31.21.61.31.89s.21.61.31.89c-19.54.21-34.89.45-39.85.68-18.89.89-25.9,1.88-28.27,2.32l-.45.09c0,.85,0,1.71.04,2.6.05,2.07.16,4.25.34,6.51,1.92,24.03,11.96,56.65,51.04,64.76.89.19,1.83.36,2.76.51a75.936,75.936,0,0,0,11.07.91h2.18a115.015,115.015,0,0,0,12.71-.91c19.99-2.52,41.76-9.85,61.8-17.35l.89-.33.89-.33c4.57-1.73,9.06-3.46,13.4-5.13l3.8-1.47c3.21-1.24,13.16-4.87,17.06-5.51a15.541,15.541,0,0,1,6.05-1.34,11.352,11.352,0,0,1,6.43,1.96c5.05,3.34,8.23,10.64,10.01,19.06.33,1.57.61,3.18.85,4.8.28,1.88.49,3.79.65,5.69,0,.3.05.61.07.91l.07.89c.09,1.46.16,2.9.19,4.33q.03,1.395.03,2.76v.06a2.316,2.316,0,0,0,.06.45,5.735,5.735,0,0,0,.28.89c.11.28.24.58.4.91,1.73,3.64,6.42,10.35,12.72,18.63.59.78,1.2,1.58,1.82,2.38,6.89,8.95,15.39,19.44,23.98,29.76.51.61,1.01,1.22,1.52,1.82,6.42,7.69,12.82,15.22,18.58,21.89l3.24-1.72.82-.45.82-.45ZM73.4,155.75H71.27c-.89-.06-1.98-.11-3.17-.14,1.34-.97,3.11-2.19,5.04-3.52,8.43-5.84,13.41-9.45,15.62-11.78l3.08,15.77C89.68,155.88,84.85,155.78,73.4,155.75Zm9.72,158.73v42.25H2V314.51q.15-4.365.28-8.56H83.05C83.09,309.64,83.12,312.57,83.12,314.48Zm-.1-10.35H2.69v-7.62h80.2C82.95,299.27,82.99,301.82,83.02,304.13ZM46.97,197.04q3.18.33,6.38.54a77.218,77.218,0,0,1,8.29,1.44h.02c7.65,1.78,10.55,3.76,10.7,4.39l.11.49.48.17c1.64.57,5.74,6.6,8.33,50.22.85,14.24,1.34,28.86,1.58,40.39H2.62q.075-2.67.15-5.25c1.29-43.81,2.14-72.75,9.34-81.42C19.96,198.59,34.46,196.45,46.97,197.04ZM145.65,33.96l.14.45c1.72,5.71,3.35,11.1,3.77,15.52a21.4,21.4,0,0,1-.91,9.46,11.6,11.6,0,0,1-4.35,1.45c-4.87.72-20.41-.25-23.19-7.4-2.16-5.61-6.17-22.93.8-22.93,2.36,0,4.59-.03,6.56-.09a92.357,92.357,0,0,0,15.7-1.5C144.66,30.66,145.17,32.36,145.65,33.96ZM113.8,78.52c-.31-5.43-.85-13.21-4.15-17.49a28.334,28.334,0,0,1-1.92-3.09c4.43-3.12,5-6.95,2.97-6.86-3.1.12-5.61-2.54-6.83-5.77-.28-1.51-.54-3.03-.8-4.51A6.244,6.244,0,0,1,106,35.23c2.51-1.41,4.31-.5,5.79.85,3.69,5.58,3.6,17.28,5.08,24.56,1.73,8.45,12.07,12.24,23,12.74-.04.71-.02,1.42,0,2.11.02.71.09,1.41.15,2.16a2.31,2.31,0,0,0,.13.65.309.309,0,0,0,.01.09Zm52.28,65.18c-5.11-2-19.08-6.3-21.72-7a27.963,27.963,0,0,1-6.28-2.44,19.1,19.1,0,0,1-4.79-3.83c3.13,1.26,7.68,2.83,10.92,2.83a7.228,7.228,0,0,0,1.6-.16,1,1,0,1,0-.45-1.95c-3.4.78-11.74-2.63-14.67-4.02a.037.037,0,0,1-.03-.01,56.7,56.7,0,0,1-3.02-4.94,12.18,12.18,0,0,1-.85-1.91c3.8,1.95,12.2,5.9,17.99,5.9a10.466,10.466,0,0,0,1.14-.06,1,1,0,1,0-.21-1.99c-6.12.64-17.48-5.33-19.59-6.47a27.547,27.547,0,0,1-.33-3.57,11.938,11.938,0,0,1,.41-3.24c3.12,1.66,11.3,5.71,16.93,5.71a1,1,0,0,0,0-2c-5.91,0-15.47-5.18-16.98-6.02a2.084,2.084,0,0,0-.54-.61l-.57-.4c-1.38-.96-5.05-3.53-4.9-4.3.13-.61.82-.74,1.37-.74a4.423,4.423,0,0,1,.78.07c2.02.35,5.17,1.28,8.83,2.35l.17.05c6.01,1.78,13.5,3.99,17.81,3.99.12,0,.24,0,.36-.01h.12a6.483,6.483,0,0,0,5.16-2.54,7.486,7.486,0,0,0,1.01-1.84,1.992,1.992,0,0,0,.13-.72l-.05-9.68a.076.076,0,0,0,.04-.01,2.382,2.382,0,0,0,.58-.16.545.545,0,0,1,.22-.05,2.1,2.1,0,0,1,1.33.94,1.768,1.768,0,0,0,.12.17c1.22,1.57,3.26,6.94,4.6,10.49l.06.17a43.828,43.828,0,0,0,1.72,4.23c5.13,9.05,10.4,14.53,16.79,17.35l-13.85,14.95C166.98,142.75,166.52,143.24,166.08,143.7Zm.5,2.39c.01-.01,18.5-19.64,18.09-19.66l1.16-1.26c1.18.67,3.4,1.82,6.1,3.18a69.047,69.047,0,0,0-5.54,6.87c-3.77,5.02-8.45,11.27-12.74,14.24a39.819,39.819,0,0,0-4.36,4.45c-1.72,1.89-4.31,4.73-4.96,5.03a.566.566,0,0,1,.26-.03l-.08.94-7.73-3.11Z" fill="#342f38"/><path d="M148.02,87.95a2.014,2.014,0,0,0,1.82-1.94v-.06a1.47,1.47,0,0,0-.31-.81,1.722,1.722,0,0,0-1.05-.65,2.142,2.142,0,0,0-2.22.95,1.718,1.718,0,0,0-.27,1.03l.03.15a1.469,1.469,0,0,0,.39.81A1.886,1.886,0,0,0,148.02,87.95Z" fill="#342f38"/><path d="M474.67,371.64c-1.63-2.63-4.92-3.19-9.52-1.63-4.52,1.54-12.27,1.21-21.26.82-5.89-.26-12.46-.53-19-.33l.04-.04a7.8,7.8,0,0,1,1.08-.72l.37-.2c.58-.32,1.14-.63,1.66-.93,7.66-4.48,9.34-8.2,8.35-10.13-.94-1.78-3.71-1.85-7.06-.13a17.024,17.024,0,0,0-5.94,5.15c.51-6.64-1.72-10.37-4.1-11.62a3.771,3.771,0,0,0-4.67.7c-1.91,2.05-2.38,6.81,2.04,14.02a13.5,13.5,0,0,1,.94,2c.05.1.08.2.12.3a8.942,8.942,0,0,0,.42.93,2.8,2.8,0,0,0,.72.92,31.769,31.769,0,0,1-5.68-.54,13.87,13.87,0,0,0-6.95.17c-.56.17-1.17.37-1.82.63-.55.22-1.13.47-1.75.77-.27.12-.54.26-.83.4l-.81.41a139.224,139.224,0,0,0-15.1,9.74c-.41.29-1.7,1.1-3.35,2.14-1.09.69-2.55,1.6-3.78,2.39-.27.17-.53.34-.77.5l-.77.5-.29.2c1.16,1.55,3.25,4.65,5.78,8.4,5.19,7.66,14.77,21.8,16.96,22.98.98-.34,2.67-1.04,4.69-1.96.59-.27,1.2-.55,1.82-.85,1.39-.66,2.84-1.4,4.27-2.17,6.26-3.39,7.6-5.2,7.6-5.65-.05-.16-.24-.65-.41-1.07-1.57-3.9-3.08-8.19-1.14-9.73,1.43-1.13,3.94-.3,8.14,2.67,1.19.85,5.4,1.18,20.22-6.16,9.56-4.73,19.9-10.83,26.08-14.47,1.87-1.1,3.36-1.98,4.29-2.5C475.73,377.03,476.12,373.97,474.67,371.64Zm-53.95-3.13a2.474,2.474,0,0,0-.11.36,3.348,3.348,0,0,0-.11.55l-.28-.36a2.748,2.748,0,0,1-.28.19,2.33,2.33,0,0,1-.2-.34c-.14-.29-.3-.68-.44-.99a14.848,14.848,0,0,0-1.08-2.28c-3.62-5.93-3.74-10.21-2.24-11.81a1.962,1.962,0,0,1,2.49-.32c1.84.96,4.45,4.96,2.53,13.84C420.88,367.84,420.79,368.22,420.72,368.51Zm3.54.18-.44.33a2.755,2.755,0,0,1-.39.28.585.585,0,0,1,.5.05l-.79.3-.84.32a2.465,2.465,0,0,0,.33.62c-.5.01-1.02.05-1.52.08a2,2,0,0,0,.24-.19l-.11-.14h.17c.44,0,.67-.17.86-.65a4.218,4.218,0,0,0,.21-.69,1.553,1.553,0,0,0,.08-.23,16.8,16.8,0,0,1,7.6-8.79c2.55-1.3,4.31-1.21,4.6-.65.47.89-1.29,4.39-9.62,8.8C424.85,368.3,424.55,368.48,424.26,368.69Z" fill="#342f38"/><path d="M350.99,438.22c-14.62-4.96-22.39-7.64-27.69-10.48-.65-.34-1.25-.69-1.82-1.04a34.117,34.117,0,0,1-7.94-6.83l.14-.07.73-.33.86-.41a42.974,42.974,0,0,0,6.21-3.56v9.01c.57.38,1.18.76,1.82,1.13V414.07c2.4-2.08,3.43-4.04,2.75-5.57a2.821,2.821,0,0,0-2.75-1.49v-48.5h23.14l-1.52-1.82H323.3V329.96c-.63-.81-1.24-1.6-1.82-2.36v79.64a13.968,13.968,0,0,0-2.51.84,20.682,20.682,0,0,0-6.84,4.93c1.63-6.67.24-10.68-1.91-12.27a3.872,3.872,0,0,0-2.58-.8,3.568,3.568,0,0,0-1.01.21,4.054,4.054,0,0,0-1.03.54l-.13.09a4.827,4.827,0,0,0-.85.84,9.356,9.356,0,0,0-1.7,6.08,7.389,7.389,0,0,0,.04.94c.04.32.06.65.1,1a15.572,15.572,0,0,0-5.72-.53l-.89.04-.89.05-.92.05c-1.09.07-2.79.14-4.77.23-5.14.24-12.17.56-16.67,1.03-.53.06-2.18.14-4.27.25l-2.42.12-.89.05-.89.05c-1.27.07-2.42.15-3.11.21.08,1.91.04,5.69,0,10.29-.11,9.18-.31,26.12.89,28.37a100.8,100.8,0,0,0,12.64.89c9,.07,10.26-1.17,10.4-1.36.06-.19.19-.8.31-1.33.83-3.85,1.88-8.08,3.75-9.48a2.381,2.381,0,0,1,1.42-.5,3.086,3.086,0,0,1,2.34,1.36c.56.68.99,2.19,1.66,4.59a40.752,40.752,0,0,0,1.22,3.96c.48,1.19,3.61,3.22,19.13,3.42,10.28.13,22.14-.57,30.81-1.08,4.22-.25,7.56-.44,9.26-.44.58-.03,2.63-1.84,2.95-4.24C358.7,442.54,356.18,440,350.99,438.22Zm-27.68-29.38c.63.05.99.22,1.08.42v-.01c.15.34-.09,1.14-1.08,2.27Zm-13.12,4.36q-.135.51-.3,1.05c-.11.36-.21.67-.33,1.02a28.455,28.455,0,0,0-4.45-4.53c-.08-.43-.16-.85-.22-1.26h0c-.05-.38-.09-.74-.12-1.1-.22-3.09.57-5.21,1.81-6.16a1.992,1.992,0,0,1,2.54-.03C310.48,403.21,311.96,406.59,310.19,413.2Zm2.74,4.96c-.24.11-.45.22-.64.32q-.54-.615-1.11-1.29c.16-.25.34-.51.53-.78s.36-.49.57-.74a19.226,19.226,0,0,1,7.42-5.92v-.01a12.548,12.548,0,0,1,1.78-.63v4.11a37.4,37.4,0,0,1-7.48,4.45c-.28.13-.57.26-.86.4Z" fill="#342f38"/><path d="M333.46,207.96c11.31-13.59,36.45-12.04,49.51-8.99,7.65,1.78,10.55,3.76,10.68,4.39l.11.49.48.16c1.64.57,5.74,6.6,8.33,50.22.84,14.24,1.33,28.86,1.58,40.39H370.14l.52.91.52.89h32.23v7.62H375.47l.51.89.51.91h27.86c.05,3.69.07,6.62.07,8.53v42.24h-1.01c.3.69.55,1.3.76,1.82h.25v.66c.93,2.47.72,2.9.58,3.19l-.13.27-.44.24v6.13a15.294,15.294,0,0,1,1.82-.57V314.46c0-8.13-.33-34.83-1.84-60.29-2.52-42.33-6.34-50.16-9.15-51.65-1.33-2.52-8.45-4.45-11.6-5.21a84.356,84.356,0,0,0-13.14-1.97c.08-1.34.14-2.56.2-3.75.14-2.67.27-5.11.47-7.77q3.93,1.665,8.74,3.31c6.64,2.27,16.71,4.85,22.72,6.4,2.7.69,4.84,1.25,5.39,1.44a7.022,7.022,0,0,0,2.22.45,2.217,2.217,0,0,0,1.82-.75c1.63-1.99-1.04-6.71-5.53-14.26a85.061,85.061,0,0,1-4.53-8.21c-1.88-4.37-5.34-9.97-9.4-16.46-7.54-12.09-16.91-27.14-18.09-38.95-.64-6.39-4.11-11.57-9.27-13.88a12.18,12.18,0,0,0-12.31,1.02,13.16,13.16,0,0,0-4.89,8.01c-2.6,2.23-5.54,5.43-5.34,7.08a1.559,1.559,0,0,0,1.73,1.3h3.39A139.169,139.169,0,0,1,348,144.3c-.83,14.6-1.41,24.88,12.46,33.94.37,5.78,1.13,14.1,1.39,16.91-11.23.39-22.9,3.35-29.81,11.67-2.67,3.22-4.52,8.72-5.83,16.49q.84.72,1.62,1.47C329.12,216.75,330.88,211.06,333.46,207.96Zm21.57-91.06c-.71,1.04-3.19,1.44-5.56,1.58l-.92.04-.89.02c-.89,0-1.7-.01-2.28-.02h-.76a15.035,15.035,0,0,1,3.04-3.75c.33-.33.67-.65,1.01-.96s.72-.64,1.07-.93a12.747,12.747,0,0,1,1.78-1.31c.28.27.57.52.85.77a9.054,9.054,0,0,1,2.67,3.22C355.34,116.31,355.19,116.68,355.03,116.9Zm14.36,66.14c-.23,2.93-.37,5.54-.52,8.45-.07,1.19-.13,2.42-.2,3.74-1.59-.09-3.28-.12-4.96-.1h-.01c-.23-2.46-.91-9.95-1.33-15.68A68.189,68.189,0,0,0,369.39,183.04Z" fill="#342f38"/><path d="M51.14,131.7a1.224,1.224,0,0,0-.59.46,5.537,5.537,0,0,0-.12.69c0,1.85,2.85,1.29,2.32-.42A1.259,1.259,0,0,0,51.14,131.7Z" fill="#342f38"/><path d="M84.14,110.21a1.224,1.224,0,0,0-.59.46,4.157,4.157,0,0,0-.12.69c0,1.85,2.85,1.29,2.32-.42A1.259,1.259,0,0,0,84.14,110.21Z" fill="#342f38"/><path d="M201.57,121.15a1.235,1.235,0,0,0-2.19-.28,5.58,5.58,0,0,0-.13.69C199.25,123.42,202.1,122.86,201.57,121.15Z" fill="#342f38"/><path d="M167.45,171.99a1.224,1.224,0,0,0-.59.46,5.382,5.382,0,0,0-.12.7c0,1.85,2.85,1.29,2.32-.42A1.256,1.256,0,0,0,167.45,171.99Z" fill="#342f38"/><path d="M196.91,196.56a1.224,1.224,0,0,0-.59.46,5.4,5.4,0,0,0-.13.7c0,1.85,2.85,1.29,2.32-.42A1.241,1.241,0,0,0,196.91,196.56Z" fill="#342f38"/><path d="M127.22,156.41a1.257,1.257,0,0,0-1.6-.74,1.224,1.224,0,0,0-.59.46,5.58,5.58,0,0,0-.13.69C124.9,158.68,127.75,158.12,127.22,156.41Z" fill="#342f38"/><path d="M24.51,161.2a1.3,1.3,0,0,0-.6.46,5.4,5.4,0,0,0-.13.7c0,1.85,2.85,1.29,2.32-.42A1.234,1.234,0,0,0,24.51,161.2Z" fill="#342f38"/><path d="M73.76,179.09a1.245,1.245,0,0,0-1.6-.74,1.224,1.224,0,0,0-.59.46,5.385,5.385,0,0,0-.12.7C71.44,181.36,74.32,180.8,73.76,179.09Z" fill="#342f38"/><path d="M130.21,133.07a1.253,1.253,0,0,0-1.6-.74,1.224,1.224,0,0,0-.59.46,4.157,4.157,0,0,0-.12.69C127.89,135.34,130.74,134.79,130.21,133.07Z" fill="#342f38"/><path d="M137.97,201.39a1.257,1.257,0,0,0-1.6-.74,1.224,1.224,0,0,0-.59.46,5.58,5.58,0,0,0-.13.69C135.65,203.66,138.5,203.11,137.97,201.39Z" fill="#342f38"/><path d="M61.1,188.92a1.245,1.245,0,0,0-1.6-.74,1.224,1.224,0,0,0-.59.46,5.537,5.537,0,0,0-.12.69C58.78,191.19,61.63,190.63,61.1,188.92Z" fill="#342f38"/><path d="M72.57,129.95v.12c-.59.83-.16,1.73.28,1.71C76.82,131.61,73.15,128.03,72.57,129.95Z" fill="#342f38"/><path d="M243.25,151.51c3.98-.17.3-3.75-.27-1.83v.12C242.38,150.63,242.81,151.53,243.25,151.51Z" fill="#342f38"/><path d="M56.69,167.07v.12c-.59.83-.16,1.73.28,1.71C60.94,168.73,57.26,165.15,56.69,167.07Z" fill="#342f38"/><path d="M205.51,155.79v.12c-.59.83-.16,1.73.28,1.71C209.76,157.45,206.09,153.87,205.51,155.79Z" fill="#342f38"/><path d="M160.84,199.81v.12c-.59.83-.16,1.73.28,1.71C165.08,201.47,161.41,197.89,160.84,199.81Z" fill="#342f38"/><path d="M65.49,148.49v.12c-.59.83-.17,1.73.28,1.71C69.74,150.15,66.07,146.57,65.49,148.49Z" fill="#342f38"/><path d="M169.64,181.23v.12c-.59.83-.16,1.73.28,1.71C173.89,182.89,170.21,179.31,169.64,181.23Z" fill="#342f38"/><path d="M46.62,114.27v.12c-.59.83-.16,1.73.28,1.71C50.86,115.93,47.18,112.35,46.62,114.27Z" fill="#342f38"/><path d="M248,165.83c3.98-.17.3-3.75-.27-1.83v.12C247.13,164.95,247.56,165.85,248,165.83Z" fill="#342f38"/><path d="M79.61,92.78v.12c-.59.83-.16,1.73.28,1.71C83.86,94.45,80.18,90.86,79.61,92.78Z" fill="#342f38"/><path d="M121.09,138.24v.11c-.59.83-.16,1.73.28,1.71C125.34,139.91,121.66,136.33,121.09,138.24Z" fill="#342f38"/><path d="M84.24,189.17c3.97-.17.3-3.75-.28-1.83v.12C83.37,188.28,83.8,189.19,84.24,189.17Z" fill="#342f38"/><path d="M44.82,182v.12c-.59.83-.16,1.73.28,1.71C49.07,183.66,45.4,180.08,44.82,182Z" fill="#342f38"/><path d="M16.88,180.84c3.97-.17.3-3.75-.28-1.83v.12C16.03,179.95,16.44,180.86,16.88,180.84Z" fill="#342f38"/><path d="M112.99,143.42v.12c-.59.83-.16,1.73.28,1.71C117.23,145.08,113.56,141.5,112.99,143.42Z" fill="#342f38"/><path d="M120.75,211.76v.12c-.59.83-.16,1.73.28,1.71C125,213.41,121.33,209.83,120.75,211.76Z" fill="#342f38"/><path d="M15.09,150.51v.12c-.59.83-.16,1.73.28,1.71C19.34,152.18,15.66,148.58,15.09,150.51Z" fill="#342f38"/><path d="M111.47,114.93v.12c-.59.83-.17,1.73.28,1.71C115.72,116.59,112.04,112.99,111.47,114.93Z" fill="#342f38"/><path d="M119.25,183.26v.12c-.59.83-.16,1.73.28,1.71C123.48,184.91,119.81,181.33,119.25,183.26Z" fill="#342f38"/><path d="M2.73,169.49l.12.04c.65.78,1.63.61,1.73.18C5.46,165.82,1.03,168.42,2.73,169.49Z" fill="#342f38"/><path d="M99.12,133.9l.12.04c.64.78,1.62.61,1.73.18C101.84,130.23,97.42,132.83,99.12,133.9Z" fill="#342f38"/><path d="M185.06,181.64c.65.79,1.63.61,1.73.18.89-3.88-3.56-1.28-1.84-.22Z" fill="#342f38"/><path d="M227.62,177.4l.12.04c.65.79,1.63.61,1.73.18C230.34,173.74,225.92,176.34,227.62,177.4Z" fill="#342f38"/><path d="M62.54,114.49c-1.16.24-.5,3.42,1.5,1.78C64.69,115.75,64.69,114.05,62.54,114.49Z" fill="#342f38"/><path d="M234.44,136.01c.65-.53.65-2.22-1.49-1.78C231.78,134.47,232.44,137.64,234.44,136.01Z" fill="#342f38"/><path d="M179.32,115.84c.65-.53.65-2.23-1.49-1.78C176.66,114.3,177.33,117.48,179.32,115.84Z" fill="#342f38"/><path d="M168.19,149.03c.65-.53.65-2.22-1.5-1.78C165.52,147.47,166.18,150.65,168.19,149.03Z" fill="#342f38"/><path d="M28.32,131.18c-1.16.24-.5,3.42,1.49,1.78C30.46,132.44,30.47,130.74,28.32,131.18Z" fill="#342f38"/><path d="M254.67,176.09c.65-.53.65-2.22-1.49-1.78C252.02,174.54,252.67,177.72,254.67,176.09Z" fill="#342f38"/><path d="M170.58,98.57c.65-.53.65-2.23-1.49-1.78C167.92,97.03,168.58,100.21,170.58,98.57Z" fill="#342f38"/><path d="M186.59,211.16c.65-.53.65-2.22-1.49-1.78C183.93,209.62,184.59,212.79,186.59,211.16Z" fill="#342f38"/><path d="M133.96,165.71c.65-.53.65-2.22-1.49-1.78C131.31,164.15,131.96,167.34,133.96,165.71Z" fill="#342f38"/><path d="M102.79,155.15c-1.16.24-.5,3.42,1.5,1.78C104.94,156.41,104.94,154.71,102.79,155.15Z" fill="#342f38"/><path d="M46.66,151.61c-1.16.24-.5,3.42,1.49,1.78C48.8,152.87,48.81,151.17,46.66,151.61Z" fill="#342f38"/><path d="M76.18,107.35c.65-.53.65-2.23-1.49-1.78C73.52,105.79,74.18,108.99,76.18,107.35Z" fill="#342f38"/><path d="M195.49,140.33c-1.16.24-.5,3.41,1.49,1.78C197.63,141.58,197.63,139.89,195.49,140.33Z" fill="#342f38"/><path d="M152.3,186.14c.65-.53.65-2.22-1.49-1.78C149.64,184.59,150.3,187.77,152.3,186.14Z" fill="#342f38"/><path d="M82.09,166.38c-1.16.24-.5,3.42,1.5,1.78C84.24,167.65,84.24,165.93,82.09,166.38Z" fill="#342f38"/><path d="M232.42,156.89c.65-.53.65-2.22-1.49-1.78C229.76,155.34,230.42,158.52,232.42,156.89Z" fill="#342f38"/></g><g transform="translate(1306.6 4612.996)"><rect width="14.8" height="2.15" transform="translate(81.52 177.199) rotate(-9.462)" fill="#342f38"/><rect width="14.85" height="2.15" transform="translate(88.559 193.807) rotate(-43.014)" fill="#342f38"/><rect width="2.15" height="8.38" transform="translate(89.478 167.343) rotate(-74.199)" fill="#342f38"/><rect width="12.7" height="2.15" transform="translate(101.945 201.198) rotate(-74.05)" fill="#342f38"/><path d="M128.44,378.22a10.019,10.019,0,0,1-1.48-1.19c-.04-4.88-2.66-49.68-5.89-86.06l12.92,3.32.52-2.1-13.66-3.51c-.14-1.54-.28-3.06-.42-4.57h14.55v-2.16H120.25c-.12-1.18-.23-2.35-.34-3.49l14.45-3.98-.59-2.06-14.1,3.88c-.71-6.99-1.43-13.3-2.15-18.48-1.14-8.13-3.84-13.38-7.24-14.05-1.13-.22-3.31-.09-5.26,3.27q-2.16,3.72-3.94,7.63a15.183,15.183,0,0,1-.86,1.71c-1.86.03-4.46-.08-8-.23l-2.32-.1.04.21a20.6,20.6,0,0,0-2.2.5q-.525.15-1.05.33c-3.93,1.34-7.06,3.76-8.37,6.59l-1.96-.9c1.6-3.47,5.26-6.31,9.86-7.81.35-.11.69-.22,1.05-.32s.7-.18,1.05-.26c-.06-.44-.11-.89-.16-1.31-.49-4.2-1.17-9.98-4.73-10.89-3.42-.85-8.09,3.27-14.71,12.95-4.73,6.94-22.07,35.47-36.75,64.91q-7.8,15.645-12.91,28.07l.26.04a12.428,12.428,0,0,0-.08,2.44,12.7,12.7,0,0,0,.3,2.13,17.657,17.657,0,0,0,3.9,7.71,17.158,17.158,0,0,0,13.09,5.92v2.16a19.269,19.269,0,0,1-14.71-6.67A20.443,20.443,0,0,1,18.29,356c-.08-.21-.16-.43-.23-.64-.11-.31-.21-.62-.3-.95a17.276,17.276,0,0,1-.44-1.89,16.73,16.73,0,0,1-.22-1.87,38.952,38.952,0,0,1,.08-9.71c1.72-13.61,9.58-28.78,17.19-43.45,7.98-15.39,15.51-29.92,16.6-42.93.58-6.93-2.63-10.4-6.1-10.76-4.06-.41-8.69,3.24-9.66,11.04-1.54,12.38-8.68,25.09-16.24,38.54-7.03,12.51-14.29,25.44-17.41,38.94C-2,347.72.51,361.61,9.24,374.79c.3.46.61.92.92,1.37q-1.7,9.885.81,14.65c1.58,2.96,4.28,4.45,8.12,4.44H123.84l-1.69-.18c.03-.27.05-.57.06-.89s0-.7,0-1.05c-.1-2.82-.9-6.65-3.08-9.28a7.344,7.344,0,0,0-5.26-2.76l-1.21-.09.23-1.19c.04-.22,4.17-21.84.23-35.47-2.2-7.62-4.66-11.22-8.19-12.03a7.68,7.68,0,0,0-5.92,1.05c-2.31,1.48-3.9,4.09-4.62,7.55l-2.1-.44c1.05-5.1,3.61-7.67,5.56-8.93a9.823,9.823,0,0,1,7.56-1.34c5.54,1.27,8.06,7.55,9.79,13.54,3.61,12.48.84,30.64,0,35.36a9.481,9.481,0,0,1,5.58,3.38c2.43,2.92,3.49,7.18,3.59,10.65v1.05c0,.32-.04.74-.07,1.05,6.48,0,10.57,0,10.92.03l1.05.05.07-1.05C137.01,384.43,131.44,380.38,128.44,378.22Z" fill="#342f38"/><path d="M322.92,209.74a3.576,3.576,0,0,1-.69-.86l-.03-.05a1.746,1.746,0,0,1-.2-1.39,1.107,1.107,0,0,1,.14-.29l-1.8-1.17a3.668,3.668,0,0,0-.1,3.68l.09.18a4.655,4.655,0,0,0,.53.78,6.248,6.248,0,0,0,.75.79,8.252,8.252,0,0,0,5.43,1.99h.3v-2.16h-.3a5.914,5.914,0,0,1-4.12-1.5Z" fill="#342f38"/><path d="M328.88,184.99c1.8,1.25,4.05,2.8,7.55.59,2.16-1.37,3.28-1.58,3.99-1.32a2.177,2.177,0,0,1,.88.62l.1.11a5.77,5.77,0,0,0,.68.63,2.02,2.02,0,0,0,1.42.43l-.17-2v-.15a.11.11,0,0,1,.08,0,2.851,2.851,0,0,1-.44-.41l-.32-.32a4.961,4.961,0,0,0-.85-.66c-1.28-.78-3.15-.9-6.52,1.23-2.3,1.45-3.51.61-5.18-.53-2.87-1.99-5.64-3.18-10.6,2.24l1.58,1.46C325.19,182.43,326.74,183.5,328.88,184.99Z" fill="#342f38"/><path d="M354.14,218.38c-1.14,1.89-1.97,4.05,1.23,7.88l1.66-1.38c-2.49-2.98-1.81-4.1-1.05-5.4,1.09-1.8,1.68-3.52-2.05-6.19l-1.26,1.75C355.1,216.78,354.84,217.22,354.14,218.38Z" fill="#342f38"/><path d="M337.94,234.49a.742.742,0,0,1-.23.4,2.353,2.353,0,0,1-1.58.72v2.16a4.479,4.479,0,0,0,3.15-1.41,2.725,2.725,0,0,0,.79-2.04Z" fill="#342f38"/><path d="M317.23,233.56v.53h2.16v-.15c-.06-3.02-1.96-8.04-5.36-9.51l-.86,1.98C315.33,227.34,317.03,230.87,317.23,233.56Z" fill="#342f38"/><path d="M350.21,203.77a18.962,18.962,0,0,1,2.49-3.15l-.53-.53-1-1a22.785,22.785,0,0,0-3.99,5.59l1.91,1C349.45,205.01,349.82,204.37,350.21,203.77Z" fill="#342f38"/><path d="M371.18,172.67h.32l-.2-2.16a1.426,1.426,0,0,1-.73-.14,3.2,3.2,0,0,1-.89-.61,8.6,8.6,0,0,1-.78-.82c-.3-.35-.6-.72-.91-1.11l-.22-.27c-.32-.39-.65-.8-1-1.19a10.211,10.211,0,0,0-1.25-1.21,4.584,4.584,0,0,0-3.93-1.09l.16.79.22,1.08.05.23a2.915,2.915,0,0,1,2.63,1.05,20.1,20.1,0,0,1,1.66,1.91c.49.62.99,1.24,1.52,1.79a8.28,8.28,0,0,0,.82.75,5.4,5.4,0,0,0,.91.58,3.518,3.518,0,0,0,1.62.42Z" fill="#342f38"/><path d="M387.68,191.84v.43h2.16v-.34a4.025,4.025,0,0,0-.16-1.58c-2.54-6.58-1.62-7.13-1.01-7.49,1.98-1.18,2.02-2.84.16-7.12l-1.98.86c1.05,2.41,1.21,3.46,1.17,3.92,0,.22,0,.23-.46.49-2.05,1.22-2.6,3.12.11,10.12A4.19,4.19,0,0,1,387.68,191.84Z" fill="#342f38"/><path d="M372.87,142.61c1.61,2.8,3.83,6.64,7.36,6.64v-2.16c-2.27,0-4.11-3.22-5.47-5.56-.33-.56-.64-1.1-.92-1.55l-1.81,1.16C372.29,141.56,372.58,142.07,372.87,142.61Z" fill="#342f38"/><path d="M376.98,210.16a6.674,6.674,0,0,1-1.23.44l.41,2.1a8.318,8.318,0,0,0,1.68-.57c1.15-.53,2.02-.88,3.99.53q.4.285.9.69a4.906,4.906,0,0,0,.44.31,3.33,3.33,0,0,0,1.17.48,3.17,3.17,0,0,0,.61.07,3.5,3.5,0,0,0,2.1-.75c1.34-1.05,2.33-3.15,1.65-4.67-.24-.53-1.02-1.7-3.2-1.28l.41,2.1c.53-.09.78-.03.81.04a2.433,2.433,0,0,1-.98,2.1,1.182,1.182,0,0,1-1.63-.05l-.18-.14a11.188,11.188,0,0,0-1.26-.91,8.7,8.7,0,0,0-1.31-.7A4.963,4.963,0,0,0,376.98,210.16Z" fill="#342f38"/><path d="M405.68,202.72a4.167,4.167,0,0,1,.09,1.11l2.16-.05a3.272,3.272,0,0,0-.78-2.63c-1.46-1.25-1.24-1.52-.8-2.07a1.973,1.973,0,0,0-.37-3.24l-1.28,1.74.06.04c-.03.05-.07.09-.09.13C403.69,198.92,403.07,200.46,405.68,202.72Z" fill="#342f38"/><path d="M391.94,164.3v-2.16c-1.63,0-1.99-.26-2.06-.38-.03-.04-.24-.42.32-1.79l-2-.82c-.44,1.05-.92,2.63-.12,3.81S390.4,164.3,391.94,164.3Z" fill="#342f38"/><path d="M369.13,185.12v2.16a2.807,2.807,0,0,1,2.66,1.19,1.5,1.5,0,0,1,.15,1.24.5.5,0,0,1,.19-.13l.69,2.04a2.479,2.479,0,0,0,1.29-2.93C373.84,187.04,372.35,185.12,369.13,185.12Z" fill="#342f38"/><path d="M352.49,149.83a9.019,9.019,0,0,0-.38,1.35c-.29,1.14-.79,3.05-1.05,3.78l2.03.7c.28-.81.77-2.7,1.09-3.95.14-.53.25-.95.28-1.05l-1.02-.35Z" fill="#342f38"/><path d="M332.17,169.77v-1.13l.21-1-.49-.1c-1.4-.31-2.5-.53-3.35-.72-1.22-.25-1.91-.38-2.2-.4l-.05.53-.15,1.64c.36.03,2.14.4,5.26,1.08A3.317,3.317,0,0,0,332.17,169.77Z" fill="#342f38"/><path d="M363.64,104.06h2.16a10.909,10.909,0,0,1,.16-1.5,7.951,7.951,0,0,0-.23-4.35l-2.02.75a6.025,6.025,0,0,1,.12,3.26,10.538,10.538,0,0,0-.19,1.84Z" fill="#342f38"/><path d="M292.08,132.31l.03.05.97-.47,1.05-.25a1.433,1.433,0,0,0-.14-.34c-.88-1.68-.82-2.47-.73-2.63.04-.06.26-.14.7-.13l.07-2.16a2.711,2.711,0,0,0-2.6,1.14C290.77,128.62,290.98,130.22,292.08,132.31Z" fill="#342f38"/><path d="M357.08,121.86l-1.15,1.82a6.843,6.843,0,0,1,2.37,2.47c.24.36.53.77.84,1.21l1.73-1.28c-.29-.39-.53-.76-.77-1.11A8.819,8.819,0,0,0,357.08,121.86Z" fill="#342f38"/><path d="M333.49,364.48c-9.5-6.19-11.68-23.25-14.98-49.07l-.08-.68c-.25-1.91-1.67-11.04-3.46-22.6-1.82-11.67-4.28-27.48-6.19-40.13l63.1-.98c.22.53.45,1.01.69,1.58,1.84,4.09,4.1,8.8,6.34,13.34-.28,1.58-.62,3.5-1,5.67-2.49,14.13-7.54,42.87-8.52,46.77a1.3,1.3,0,0,0-.23.9,1.084,1.084,0,0,0,1.05,1.01,1,1,0,0,0,1.05-.7c4.28-2.29,48.72-5.78,61.96-6.25h1.14l2.58,23.65c-24.8,9.13-64.64,23.65-77.48,27.47C347.27,368.1,339.03,368.1,333.49,364.48ZM286.07,227.43l-.99-.22-.28.98c-1.53,5.42,5.14,73.01,7.03,86.05l-27.3,4.73c-4.9-15.71-15.81-53.47-23.12-79.3l12.09-10.63c12.61-11.1,28.42-24.97,43.49-38.36,2.4,15.07,4.6,29.37,6.25,40.27C293.23,229.01,286.2,227.46,286.07,227.43Zm-54.89,18.39c-1.66,1.48-2.74,2.47-3.11,2.84a.982.982,0,0,1-.56-.07c-1.03-.31-3.68-1.77-9.98-8.12-3.15-3.18-6.1-6.48-7.64-8.23l-.48-.55c.74-.79,2.06-2.22,3.79-4.05,3.74-3.95,9.4-9.83,15.24-15.51l1.11-1.05,1.14-1.1.64-.61.98-.92,1.01-.95c1.61-1.51,3.21-2.96,4.73-4.3,9.14-8.01,18.35-17.92,27.52-28.77.37-.45.75-.89,1.12-1.34l1.12-1.34c7.2-8.63,14.37-17.8,21.48-27.05l.89-1.16.88-1.16c2.43-3.15,4.86-6.32,7.26-9.51q4.5-5.91,8.87-11.61l.66-.86.66-.85q4.725-6.15,9.3-11.88c.53-.67,1.06-1.34,1.58-2s1.07-1.34,1.66-2.05q3.42-4.2,6.72-8.05l.76-.88.76-.87,1.37-1.58a7.8,7.8,0,0,1,1.64-.58c1.26.1,3.15.86,5.52,2.63A38.827,38.827,0,0,1,350.62,113a33.52,33.52,0,0,1-3.89,28.49c-1.47,2.33-11.15,11.48-24.31,23.44l-1.24,1.12-1.28,1.21c-6.57,5.95-13.9,12.5-21.43,19.2-.32.28-.63.57-.95.85l-.96.86c-15.73,13.98-32.18,28.43-44.5,39.26l-11.32,9.94-.89.79-.89.79c-3.26,2.86-5.89,5.21-7.79,6.91Zm-65.3-42.83c-.38-1.72-.78-3.73-1.14-5.76a89.855,89.855,0,0,1-1.5-11.33,6.926,6.926,0,0,1,.7-.18c3.88-.87,16.86-2.33,29.48-3.76,23.54-2.63,52.84-5.95,59.33-8.99,10.17-4.73,20.91-25.1,29.54-41.46,1.32-2.5,2.57-4.87,3.75-7.05a23.6,23.6,0,0,0,.43,4.89c.74,3.86,1.51,8.03,2.3,12.41-8.07,10.51-16.22,20.96-24.4,30.65-3.68.82-7.32,1.69-10.83,2.63-17.64,4.77-23.08,18.58-22.46,31.49q-1.77,1.665-3.55,3.39c-23.25.12-47.82-1.25-59.18-2.1l-1.08-.08a21.29,21.29,0,0,1-1.39-4.75Zm127.18-90.13a19.58,19.58,0,0,1,9.01-5.08c.36-.1.72-.18,1.09-.26l.73-.15.39-.07a50.215,50.215,0,0,0,15.49-5.46c-1.09,1.33-2.19,2.7-3.3,4.08-.53.63-1.01,1.26-1.51,1.9l-1.5,1.89q-3.27,4.14-6.62,8.5l-.38.49c-1.45-.9-1.79-1.53-1.83-2.02a2.071,2.071,0,0,1,.03-.5,1.913,1.913,0,0,0-.33-1.68c-.61-.71-1.73-.93-5.02-.96v2.15c.57,0,1.05,0,1.43.03a11.908,11.908,0,0,1,1.79.16,4.725,4.725,0,0,0-.05.75,3.206,3.206,0,0,0,.35,1.46,6.224,6.224,0,0,0,2.32,2.32c-2.79,3.63-5.62,7.36-8.5,11.12-2.02,2.65-4.04,5.29-6.07,7.95-.67-3.68-1.32-7.21-1.96-10.51a18.926,18.926,0,0,1,.67-10.25,16.726,16.726,0,0,1,1.83-3.54c.25-.36.53-.71.79-1.05a13.011,13.011,0,0,1,1.09-1.25Zm4.77-17.49c-.3-.48-.62-1-1.01-1.52a8.751,8.751,0,0,0-.72-.89,8.135,8.135,0,0,0-.89-.87,7.022,7.022,0,0,0-3.62-1.61,22.374,22.374,0,0,1-16.95-11.97c-1.96-3.68-3.15-8.33-4.43-13.28-.48-1.87-.97-3.76-1.51-5.65l.33.15-.65-1.24c-.32-1.08-.66-2.14-1.05-3.21-.12-.34-.24-.67-.37-1.01s-.25-.68-.38-1.01-.27-.71-.42-1.05a16.055,16.055,0,0,1-1.24-6.56l-.19-.19c-.3-.31-.58-.62-.86-.92l-.29-.32c-.22-.26-.44-.51-.65-.77l-.39-.48c-3.53-4.54-4.4-8.75-2.93-13.42l2.05.65c-1.14,3.62-.61,6.89,1.83,10.44.06.1.12.18.18.27.19.27.4.53.62.82l.07.09c.26.33.53.65.83.98q.915,1.05,2.04,2.13l.06.05a39.544,39.544,0,0,0,7.88,5.45c.49.24.98.46,1.5.67l.26.11c.46.18.91.36,1.35.53,22.7,9.46,23.22,26.54,23.44,33.93.06,2.1.1,3.36.82,3.87a1.277,1.277,0,0,0,.49.22,2.743,2.743,0,0,0,.7.09,6.211,6.211,0,0,0,1.99-.42,30.155,30.155,0,0,0,4.09-1.86c1.31-.68,2.88-1.58,4.77-2.7.82-.49,1.71-1.04,2.66-1.63.99-.62,2.05-1.29,3.2-2.03,2,4.28,4.2,8.44,5.94,11.73.09.16.17.33.26.49-3.38,4.56-11.59,9.76-23.18,11.86l-.33.07c-.91-1.68-1.82-3.41-2.51-4.73-1.18-2.23-2.21-4.18-2.84-5.19Zm48.35-14.99c12.34.84,28.23,22.77,48.56,67.01-6.31-8.56-12.76-17.07-19.12-24.85,2.45-.46,2.36-1.66,2.04-5.95l-2.15.16a24.071,24.071,0,0,1,.12,3.6c-.12.03-.31.06-.47.09-.3.05-.66.12-1.09.23-10.3-12.4-20.29-22.68-28.95-27.85l.49-.04.99.39c.03-.09.19-.48.4-1.05.89-2.26,1.85-4.73,2.04-5.4l-2.07-.59c-.18.64-1.4,3.72-1.98,5.2-.26.65-.39.98-.45,1.18-4.58-2.63-8.78-3.78-12.42-3.01h-.16c4.64-6.24,8.93-9.12,13.48-9.12l.72.03Zm90.74,120.4,1.43-.82.45.68c2.39,3.65,5.58,8.5,8.33,13.1.34.57.67,1.13,1,1.69,3.26,5.61,4.2,8.18,4.46,9.33a2.1,2.1,0,0,1,.06.79L452,226c-.4.27-.86.59-1.37.94l-.9.62-.89.62-1.88,1.31c-3.39,2.38-7.95,5.57-13.1,9.08l-.92.62-.92.62-1.05.72-.91-2.02a7.944,7.944,0,0,0-10.48-3.97h0a7.928,7.928,0,0,0-3.96,10.48l1.39,3.15.48,1.05.04.1-1.58,1c-10.43,6.53-20.91,12.43-28.27,14.9-.77-1.71-2.44-4.55-4.85-8.59l-.18-.29c-.22-.36-.44-.74-.67-1.12l-.85-1.44c-.53-.92-1.11-1.89-1.69-2.89l-.61-1.05c-.21-.35-.4-.71-.6-1.05a72.831,72.831,0,0,1-4-7.88,4.869,4.869,0,0,1-.53-2.14l.07-.05a1.267,1.267,0,0,1,.13-.11l.17-.14.19-.15.2-.16.22-.16.24-.17.25-.18.27-.19.27-.19.3-.21.3-.21.33-.22.32-.22.36-.24.35-.23.38-.25.36-.24.42-.28.37-.23.46-.3.39-.25.48-.3.42-.27.5-.32.41-.26.55-.35.4-.25.36-.22.24-.15.42-.26.48-.3.13-.08c.16-.09.32-.19.47-.29l.53-.32.08-.05.53-.33.57-.35.53-.33.6-.37.47-.28.71-.43.43-.26.75-.45.53-.32.68-.41.53-.31.74-.45.4-.25.84-.53.47-.28.82-.49.39-.23.91-.53.37-.22.93-.56.43-.25.87-.53.53-.32.81-.48.45-.27.88-.53.47-.28.88-.53.53-.29.82-.48.56-.33.83-.48.32-.18,1.05-.6.44-.25.92-.53.29-.17c4.2-2.45,8.32-4.86,12.13-7.06l.95-.55.94-.53c4.68-2.71,8.77-5.06,11.7-6.74l.64-.37.93-.53.57-.33Zm21.72,42.46-1.28.87-.99.69-3.32,2.32c-10.26,7.19-31.09,21.78-47.26,30.32a85.368,85.368,0,0,1-12.02,5.43c-.83-1.96-2.76-5.89-5.74-11.89-.48-.96-1-2-1.54-3.1l.86-.26c8-2.44,19.66-9.04,31.12-16.29a7.9,7.9,0,0,0,14.24-1.19v-.05a10.273,10.273,0,0,0,.32-1.08,8.044,8.044,0,0,0,.16-1.08,7.941,7.941,0,0,0-.67-3.84l-.69-1.52.95-.64.92-.62.92-.62c5.2-3.54,9.88-6.83,13.56-9.4l1.58-1.09.89-.62.9-.63,1.36-.94c3.42,7.41,5.92,13.65,5.72,15.26Zm-68.2,41.44c-.82-1.96-2.76-5.89-5.74-11.89-1.05-2.1-2.27-4.56-3.55-7.17-.27-.53-.53-1.09-.8-1.65s-.53-1.09-.8-1.65c-1.87-3.85-3.75-7.82-5.32-11.33-.16-.36-.33-.72-.48-1.05s-.32-.72-.47-1.05c-1.78-4.1-2.95-7.27-2.85-8.34.3-.26.7-.56,1.18-.91a12.359,12.359,0,0,0,.69,2.24c.53,1.62,1.39,3.85,2.73,6.93l.47,1.05.4.89.08.18c1.22,2.71,2.63,5.67,4.07,8.68.26.53.53,1.08.78,1.61s.53,1.09.8,1.64c1.53,3.15,3.07,6.24,4.46,9.04,2.8,5.62,5.26,10.51,5.86,12.19a10.993,10.993,0,0,1-1.51.59ZM262.07,175.2a260.617,260.617,0,0,1-25.44,26.36c-1.11.97-2.26,2-3.41,3.07.04-11.48,5.39-23.25,20.9-27.44Q258.02,176.125,262.07,175.2Zm43.58,57.33c-.05-.37-.11-.75-.17-1.14l-.19-1.22c-.07-.48-.14-.97-.22-1.46-1.67-10.98-3.83-25.02-6.18-39.72l2.81-2.49a22.449,22.449,0,0,0,1.21,1.99c.88,1.34,1.88,2.85,1.88,4.09h2.15c0-1.89-1.19-3.68-2.23-5.26A12.037,12.037,0,0,1,303.4,185c7.08-6.31,13.87-12.41,19.94-17.92l1.28-1.17,1.22-1.11c5.66-5.17,10.59-9.75,14.43-13.42l5.54,12.98.45,1.05.47,1.11,2.73,6.4.48,1.13.48,1.12,6.72,15.73.53,1.27.53,1.27,17.45,40.88a69.752,69.752,0,0,0-6.83,4.73c-.82.72-1.19,2.03,2.1,9.86l-9.33.15c.48-1.58,1.21-3.86,1.34-4.15l-.98-.45-.83-.69a52.755,52.755,0,0,0-1.79,5.32l-50.89.79h-.18c-.32-2.19-1.19-8.04-2.42-16.22Zm119.2,3.89a5.734,5.734,0,0,1,3.22,3.01l1.05,2.35.45,1,.45,1,.53,1.18a5.8,5.8,0,0,1,.47,2.99,5.609,5.609,0,0,1-.23,1.08c-.03.11-.07.23-.11.34a5.116,5.116,0,0,1-.35.75,5.776,5.776,0,0,1-7.87,2.2,5.685,5.685,0,0,1-2.11-2.05l-.06-.11c-.08-.15-.16-.3-.23-.46l-.23-.53v-.03l-.45-1v-.04l-1.79-3.97a5.772,5.772,0,0,1,2.89-7.62h0a5.661,5.661,0,0,1,4.37-.09Zm-40.46,27.19a20.773,20.773,0,0,1,1.61,3.28h0c-.51-1.06-1.04-2.15-1.61-3.28Zm22.79-87.64a2.8,2.8,0,0,0-1.58.29,3.751,3.751,0,0,0-1.58,2.63c-.22.79-.38,1.32-.7,1.44l.7,2.03c1.43-.49,1.8-1.89,2.1-2.92.14-.53.31-1.15.53-1.27a1.533,1.533,0,0,1,.97.09l.23-.73q5.865,14.13,12.17,30.41c-6.1,3.45-13.34,7.65-20.46,11.86l-.09-.24c-.75-1.95-1.05-2.72.4-4.37l.1-.05v-.05l.06-.07-.16-.15-.75-1.7-.53.23-.15.17c-2.52,2.76-1.81,4.62-.98,6.77.07.19.15.38.22.58-4.27,2.52-8.46,5.02-12.28,7.36l-1.09.66-1.13.69c-2.04,1.25-3.94,2.42-5.66,3.51L359.53,191l-.53-1.27-.53-1.27-6.5-15.24-.48-1.12-.48-1.12-1.9-4.46-.47-1.11-.45-1.05-6.28-14.59a61.156,61.156,0,0,0,6.65-7.1,35.473,35.473,0,0,0,4.12-30.28A41.29,41.29,0,0,0,339.12,92.6c-.2-.16-.41-.3-.61-.45,6.6,2.1,15.24,9.02,25.79,20.64,2.51,2.75,5.04,5.68,7.59,8.72-.22.11-.45.23-.68.37-1.88,1.05-1.42,3.03-1.16,4.2a3.767,3.767,0,0,1,.17,1.1.25.25,0,0,1,.04-.07l1.66,1.37a3.177,3.177,0,0,0,.23-2.89c-.31-1.36-.25-1.63.12-1.84a10.32,10.32,0,0,1,1.05-.53c8.65,10.48,17.41,22.31,25.7,33.74q3.945,8.925,8.14,19.01Zm-1.21-9.41c12.73,17.66,21.22,29.27,26.58,34.16-2.28,1.3-6.05,3.46-10.66,6.12q-8.94-22.98-16.94-41.71ZM121.92,199.42l.28.05c.43.07.89.13,1.36.17.33,0,.65.04.98.04a9.551,9.551,0,0,0,1.41-.1c.8-.14,2.1-.24,3.49-.34s2.7-.21,3.77-.35c.53-.07,1.14-.16,1.79-.25l.26-.04c.68-.1,1.41-.2,2.13-.3,1.46-.2,2.89-.38,3.89-.45h.04c2.66.05,4.69.67,5.3,1.61a1.563,1.563,0,0,1,.11,1.41,21.848,21.848,0,0,1-3.12.64,21.54,21.54,0,0,0-3.63.78c-.61.17-1.24.31-1.87.42-.53.11-1.25.24-2.1.39-1.91.34-4.66.8-8.59,1.43l-.53.09-.39-.08a7.53,7.53,0,0,1-1.58-.53C122.64,202.95,122.2,200.99,121.92,199.42Zm6.2,7.2c3.68-.59,6.53-1.05,8.58-1.43.86-.15,1.58-.29,2.17-.41a15.712,15.712,0,0,0,1.8-.43,18.293,18.293,0,0,1,3.27-.69,25.977,25.977,0,0,0,3.02-.59,5.545,5.545,0,0,1,0,1.99,4.62,4.62,0,0,0-.05.48,1.311,1.311,0,0,0,0,.28c-.34.45-3.2,1.25-5.96,1.96-.83.21-1.64.41-2.38.59l-1.05.26c-.72.17-1.38.36-2.02.53-2.63.75-4.28,1.21-6.31-.25-.15-.11-.3-.23-.45-.35a1.68,1.68,0,0,1-.61-1.39,2.047,2.047,0,0,1-.01-.55Zm-14.85-30.36c-.53.3-1.43-.23-1.95-1.19s-.53-1.98.05-2.28,1.42.23,1.95,1.18.47,1.99-.05,2.29Zm4.8,16.25a5,5,0,0,1,.53-1.21,4.072,4.072,0,0,1,.76-.94c.88.91,1.35,1.46,1.65,1.81.55.65.86.96,1.75.89a5.422,5.422,0,0,1,.57,0,74.944,74.944,0,0,0,11.79-.58l.48-.06a15.454,15.454,0,0,1,1.67-.14c2.63-.06,4.5.6,4.77.98.46.75.24,1.21-1.11,2.37l-.11.09c-.99.08-2.24.23-3.53.4l-2.15.3-.44.06-1.78.25c-1.01.14-2.35.24-3.64.34-1.43.11-2.79.21-3.68.36a10.463,10.463,0,0,1-3.44-.17c-.56-.11-1.05-.23-1.45-.33h0a1.331,1.331,0,0,0-.34-.1,1.309,1.309,0,0,1-.27-.06l-.29-.07a3.311,3.311,0,0,1-.67-.29,2.541,2.541,0,0,1-1.28-1.99v-.16a4.558,4.558,0,0,1,.17-1.76Zm40.56,16.48-.1-.17c-4.32-7.13-8.2-13.74-11.32-19.06-1.63-2.77-3.09-5.26-4.38-7.44,1.27-1.24,2.2-2.39,2.28-3.55.05-.67.13-1.31.2-1.93a13.792,13.792,0,0,0-1.05-8.49c-1.2-2.7-.65-4.46.03-5.47a3.44,3.44,0,0,1,1.73-1.39c2.27,2.63,3.15,5.89,4.42,10.72.19.69.38,1.42.59,2.19,2.1,7.68,5.78,9.34,8.47,10.56a12.486,12.486,0,0,1,1.63.83c.03,3.72,2.18,17.67,3.95,22.27-2,.32-4.23.64-6.48.92Zm23.67,45.87c.58-.49,3.2-.91,5.47-1.16-1.05,1.1-2.03,2.35-3.07,3.64-.49.61-1,1.24-1.52,1.88l-.53-.2a23.108,23.108,0,0,1-2.29-.97c.67-.95,1.27-2.02,1.88-3.1Zm-8.83,11.36.06-.23a5.976,5.976,0,0,0,.18-.84,1.582,1.582,0,0,1,.7.47,2.439,2.439,0,0,0,.96.75l-.53.32c-.74.43-1.36.77-1.87,1.05.19-.52.33-1.03.47-1.52Zm39.42,6.5c-3.55,3.68-8.05,6.47-10.05,6.18a.87.87,0,0,1-.71-.47,1.582,1.582,0,0,0-1.5-.88,6.8,6.8,0,0,0-2.13.53c-.92.33-2.19.78-2.78.45a1.789,1.789,0,0,1-.62-1.21,1.267,1.267,0,0,0-.59-.82c-.59-.33-1.18-.11-2.06.22-1.32.49-3.32,1.23-4.7.1a2.973,2.973,0,0,1-.99-2.72c.32-.18.88-.45,1.36-.68a22.308,22.308,0,0,0,4.95-2.94l.16-.07-.89-1.96-.46.21-.12.12a19.281,19.281,0,0,1-4.56,2.71c-.33.15-.6.29-.86.41h0a1.165,1.165,0,0,0-1.22-.03c-5.99,3.37-11.53,5.35-14.12,5.04a6.414,6.414,0,0,1-5.22-3.6,5.775,5.775,0,0,1-.11-5.26c.82-1.36,1.39-2.36,1.82-3.15a31.5,31.5,0,0,1,4.12-.12,4.29,4.29,0,0,1-.13.6l-.06.23a6.414,6.414,0,0,1-1.3,2.81c-1.05.99-.58,1.77-.41,1.99.68.9,1.73.75,6.25-1.87a27.671,27.671,0,0,0,5.3-4.03,9.423,9.423,0,0,0,1.45-1.3c.2-.24.39-.45.55-.62a6.37,6.37,0,0,0,.95-1.34c.75-.88,1.45-1.75,2.1-2.59a28.392,28.392,0,0,1,5.08-5.42l.6-.43-.36-1.42-.72-.09c-.08,0-9.29.24-10.51,2.42l-.08.14a31.887,31.887,0,0,1-2.1,3.39c-1.39-.37-3.07-.78-4.7-1.09.75-2.72,1.68-5.95,1.91-6.45,3.23-6.7,4.12-7.36,11.99-8.56a94.247,94.247,0,0,0,14.25-3.36l.37-.12c1.73-.53,3.78-2.01,6.18-4.04,3.68,4.27,13.14,14.72,18.18,16.82-4.36,7.45-12.6,21.18-13.54,22.24Zm87.96-166.78c-.22-.62-3.76-10.5-6.36-11.26-2.67-.77-9.19-2.54-9.19-2.54L265.85,95.9v.02c-.02.21-.17,1.88-.44,4.5-1.16,11.24-4.09,36.69-9.59,44.95-2.39,3.58,3.12,4.46,3.12,4.46s6.78,1.07,10.79.03a4.106,4.106,0,0,0,2.59-1.56c2.23-3.68,14.12-27.64,14.12-27.64l6.36-9.65,8.06-5.04A.077.077,0,0,0,300.85,105.94Zm1.4-25.19v.02c-.02.21-.17,1.88-.44,4.5-1.16,11.24-4.57,39.93-9.59,44.95-2.75,2.76,3.12,4.46,3.12,4.46s6.78,1.07,10.79.03c0,0,35.19-9.54,41.22-17.68s.42-66.74.42-66.74Zm35,10.04M503.4,323.08l-.82-.4c-.68-.36-8.45-2.65-13.4-3.99-7.11-1.91-11.47-5.78-15.68-9.46-3.32-2.94-6.45-5.71-10.72-7.44-5.99-2.42-12.49-.64-18.77,1.1a50.082,50.082,0,0,1-9.46,2l-1.12.07.69,6.27h-.99c-5.33.2-20.42,1.18-34.85,2.51-16.59,1.52-23.46,2.66-26.41,3.46.15-.75.33-1.68.52-2.77.53-2.86,1.33-7.02,2.3-12.36,1.76-9.75,3.82-21.49,5.33-30.06.17-.98.33-1.9.48-2.77l2.25,4.53c3.04,6.12,5.66,11.39,5.99,12.57l.3,1.05,1.05-.32c4.65-1.43,10.56-4.27,16.93-7.81,16.02-8.48,36.17-22.6,47.24-30.34,2.53-1.78,4.54-3.16,5.75-4,.91-.6,2.39-1.57-5.43-18.39,1.15-2.58-2.58-9.64-14.01-27.04L439,197.11l-.89.53-2.4,1.37-.05-.07-.87.53-.33.18c-5.4-4.64-15.43-18.54-26.8-34.3-2.22-3.09-4.5-6.24-6.83-9.42q-1.575-3.555-3.1-6.94c-21.51-47.3-37.87-69.75-51.5-70.68-8.05-.53-13.97,6.46-18.3,13.14-1.65-3.11-3.79-7.19-5.73-11.37,1.58-1.05,3.33-2.21,5.22-3.49,10.1-6.86,19.7-13.97,19.8-14.04l.3-.23.09-.37c3.79-14.89-9.18-46.29-32.31-56.87C304.95.35,295.45-1.06,286.25.79c-8.62,1.74-17.26,6.41-26.43,14.3-5.78,4.96-10.98,14.37-9.62,24.22.71,5.12,3.48,12.02,12.3,17.31.2,1.69.57,4.03,1,6.83,1.44,9.25,3.96,25.41,2.35,32.45v.02c-.02.21-.17,1.88-.44,4.5a4.517,4.517,0,0,0,1.26.13,35.17,35.17,0,0,0,4.79-.48c3.68-.52,8.19-1.45,12.78-2.57,2.72-.66,6.31-1.58,10.25-2.82a18.51,18.51,0,0,1,1.4,2.01c.56.9,1.57,2.82,2.73,5.04.83,1.61,1.57,3,2.23,4.21a.077.077,0,0,1,.01.03,20.861,20.861,0,0,0-11.62,8.1,18.52,18.52,0,0,0-2.02,3.84c-2.03,3.46-4.36,7.88-6.94,12.76-3.15,5.98-6.76,12.82-10.55,19.19-5.88,9.87-12.22,18.62-18,21.32-6.04,2.77-35.16,6.07-58.55,8.7-21.81,2.45-28.63,3.35-30.86,4.14a15.448,15.448,0,0,0-1.94-1c-2.42-1.1-5.44-2.46-7.28-9.17-.21-.75-.4-1.48-.58-2.17-1.36-5.07-2.35-8.74-5.1-11.81-.67-.75-1.93-.7-3.23.15-2.16,1.4-3.96,4.66-1.91,9.23a11.808,11.808,0,0,1,.86,7.36c-.08.64-.16,1.32-.21,2.04a4.3,4.3,0,0,1-1.27,1.79c-.95-1.57-1.77-2.9-2.48-3.98s-1.27-1.99-1.85-2.92c-4.64-7.36-7.7-12.22-16.29-9.98-1.74.44-6.37,1.64-9.99,2.34-2.81.53-4.61,1.7-5.35,3.43-1.28,3.01.91,6.83,3.27,10.48,1.89,2.92,4.4,7.05,7.16,11.65a6.852,6.852,0,0,0-.42,3.32,4.733,4.733,0,0,0,3.68,4.11h.04l.19.06c.05.2.1.49.15.72.32,1.81.97,5.38,5.35,6.79l.88,1.45a3.731,3.731,0,0,0,1.32,2.34l.21.16c1.86,3.03,3.49,5.59,4.67,7.29,2.04,2.91,5.57,7.97,11.53,7.97a11.81,11.81,0,0,0,3.12-.44c1.48-.4,3.52-.76,5.31-1.05,1.46-.22,2.91-.52,4.34-.88,2.06-.64,4.33-1.49,5.17-3.66.76-1.99.16-4.68-1.91-8.56,3.43-.46,6.25-.92,7.16-1.05,10.31.81,34.38,2.2,57.75,2.2h.67c-9.46,9.34-18.05,18.67-18.17,18.8l-.65.7.33.38c-2.17,1.83-4.03,3.19-5.42,3.61l-.37.12a93.509,93.509,0,0,1-13.94,3.29c-8.54,1.32-10.07,2.42-13.6,9.75-.33.67-1.25,3.93-1.78,5.81-.12.45-.24.86-.34,1.23a12.075,12.075,0,0,0-2.55-.09,15.229,15.229,0,0,1-3.57-.11,27.171,27.171,0,0,0-9.3.38,23.756,23.756,0,0,1-3.15.26c-3.55.16-7.96.36-9.24,3.61-.28.54-.59,1.07-.92,1.58-1.8,2.95-2.53,4.34-1.92,5.35a1.381,1.381,0,0,0,1.21.65h.11a21.483,21.483,0,0,0,4.35-.86c2.27-.62,4.24-1.15,6.75-.31.98.33,2.95.07,6.97-.52,1.32-.19,2.97-.43,4.67-.63-.29.53-.64,1.1-1.05,1.78a7.889,7.889,0,0,0,0,7.29,8.622,8.622,0,0,0,6.91,4.79c3.87.46,10.42-2.62,13.86-4.45a4.921,4.921,0,0,0,1.8,3.93c2.34,1.9,5.25.81,6.8.24h.08a3.19,3.19,0,0,0,1.39,1.68c1.44.82,3.15.2,4.55-.29a9.655,9.655,0,0,1,1.19-.37,2.971,2.971,0,0,0,2.14,1.31,5.444,5.444,0,0,0,.57.03c3.25,0,8.07-3.46,11.34-6.87.79-.82,5.87-9.23,8.84-14.19,2.63-4.36,4.37-7.31,5.54-9.33a1.938,1.938,0,0,0,.79-.5c.72-.73,4.4-4,10.03-8.97,2.86,10.09,6.24,21.89,9.59,33.5,4.25,14.72,7.93,27.23,10.64,36.26,1.57,5.21,2.66,8.8,3.45,11.3-.29,11.96-3.22,36.22-21.25,47.64a7.9,7.9,0,0,0-1,.92,81.538,81.538,0,0,1-8.93,7.67c-4.47,3.19-6.21,5.42-5.62,7.23.64,2.02,3.83,2.25,6.17,2.25,1.17,0,2.57,0,4.12.05,1.97.02,4.16.05,6.48.05,11.2,0,25.22-.69,30.03-5.78.52-.55,1.73-1.92,3.38-3.81,3.68-4.2,11.7-13.33,14.87-16.09.08,6.31.49,23.36.53,23.89l.05.99,6.81.2.22-.84c.36-1.43.37-6.04.33-12.4v-3.68c0-7.63,2.63-14.8,5.14-21.75,1.79-4.92,3.49-9.57,4.02-13.91.76-6.2-1.8-9.79-4.52-13.6a30.063,30.063,0,0,1-4.29-7.56l-.3-.86-5.57.91c-2-13.1-7.78-74.51-7.19-84.08,2.46.52,8.73,1.86,16.81,3.43,1.62,10.73,2.63,17.67,2.67,17.9l.14.93h.22c1.48,9.9,3.56,23.3,6.22,40.43,1.8,11.56,3.22,20.65,3.46,22.52l.09.68c3.37,26.42,5.6,43.87,15.93,50.61a20.8,20.8,0,0,0,11.68,3.05,57.419,57.419,0,0,0,16.07-2.78c12.9-3.81,52.74-18.39,77.58-27.5h.04c3.25,1.49,6.24,2.75,8.88,3.87,14.26,6.05,20.25,8.58,23.22,24.76-.3.3-.83.81-1.34,1.3-2.84,2.73-7.58,7.29-8.93,10.76-2.06,5.15-2.41,6.25-1.87,7.2a1.877,1.877,0,0,0,1.48.86c1.58.25,7.65.49,13.75.49h2.85c14.83-.2,15.15-1.74,15.36-2.76l.87-4.24c2.71-13.09,3.72-17.99,3.1-22.17-1.95-13.14-10.1-25.58-14.02-31.57-.25-.39-.52-.77-.73-1.13,3.1.62,7.88,1.41,10.87,1.88,10.52,1.67,10.52,1.67,10.96,1.1l.44-.53-.28-.57a17.278,17.278,0,0,1,.87-4.38Z" fill="#342f38"/></g></g></svg>