<svg xmlns="http://www.w3.org/2000/svg" width="475.723" height="451.426" viewBox="0 0 475.723 451.426"><g transform="translate(0.036 0.01)"><path d="M404.44,442.6h1.82V418.65c-.63.3-1.24.57-1.82.84Z" fill="#342f38"/><path d="M197.18,294.69c-1.66.33-3.31.63-4.95.91-2.08.35-4.14.65-6.2.89h65.01c-.06-.31-.12-.61-.18-.89s-.12-.61-.18-.91Z" fill="#342f38"/><path d="M296.13,402.17l-.89.07c-5.93.44-13.26,1.11-19.75,1.67l-8.9.77-.89.08-.89.08c-.05,1.42-.09,2.91-.09,4.32l.89-.05.89-.05,2.33-.12c1.9-.1,3.69-.19,4.17-.24,4.56-.48,11.62-.8,16.78-1.03,1.96-.09,3.66-.17,4.74-.23l.96-.06.91-.04.89-.04v-.5q-.045-.975-.09-2.19c-.05-.91-.09-1.75-.14-2.51Z" fill="#342f38"/><path d="M381.61,382.91c1.49-.94,2.9-1.82,3.25-2.08A140.408,140.408,0,0,1,400.11,371l.81-.42c.28-.14.55-.27.82-.4-.52-.95-1.11-2.1-1.73-3.28l-.68-1.31-.81.44-.81.44-24.34,12.88-.82.44-.81.44c1.33,1.75,2.67,3.68,3.86,5.34l.59.83c.22-.15.44-.32.76-.5l.77-.5C378.68,384.75,379.94,383.94,381.61,382.91Z" fill="#342f38"/><path d="M265.74,402.92l.89-.08,8.66-.75c6.49-.57,13.79-1.21,19.77-1.67l.89-.07.92-.07c4.06-.31,7.3-.51,8.9-.51,1.6-4.8,1-49.58.6-79.43-.07-5.12-.13-9.97-.19-14.38v-2.25c0-.98-.01-1.94-.03-2.87-.03-1.42-.1-2.86-.19-4.3l-.07-.89c0-.3-.04-.61-.07-.91-.99-11.88-4.15-23.71-10.68-28.03-3.06-2.02-6.67-2.14-10.78-.37l-.11.04h-.12c-3.38.52-12.78,3.88-16.8,5.43l-3.81,1.46c-4.49,1.73-9.13,3.52-13.87,5.31.45,3.76,1.31,8.45,2.52,14.4.12.58.23,1.16.34,1.74.06.3.12.6.18.91l.17.89q.72,3.765,1.34,7.62l.15.89.15.91c4.99,31.86,5.5,66.62,5.51,97.4.96-.05,2.67-.19,4.8-.36Z" fill="#342f38"/><path d="M396.88,364.83l.81-.45.8-.42,4.79-2.54a17.261,17.261,0,0,0-1.04-2.9c-.22-.52-.48-1.13-.8-1.82-2.58-5.68-8.59-17.58-22.44-42.52-1.49-2.7-3.03-5.46-4.6-8.25l-.51-.91-.51-.89c-1.41-2.52-2.84-5.05-4.29-7.62l-.52-.89-.52-.91c-10.76-18.99-22.22-38.74-31.34-53.95-.47-.79-.94-1.58-1.4-2.36-2.39-4.06-4.68-7.92-7.83-11.25-.52-.55-1.06-1.08-1.63-1.6-6.01-5.45-15.13-9.09-32.48-9.09h-.24c-14.61.03-44.08.18-73.82.39h-1.98c-14.3.1-28.58.23-41.22.36l.05-.89.03-.45h-.4l-.15-.45c-.89-2.63-1.91-5.49-2.96-8.49-4-11.44-8.56-24.41-11.12-33.76-.56-2.03-2.7-8.12-5.01-14.53l44.1,17.69c1.3,3.25,8.9,22.21,15.87,38.68h1.98c-6.28-14.76-13.14-31.81-15.49-37.66a79.2,79.2,0,0,0,9.58,3.56c35.21,11.51,46.55,5.42,49.86-1.71,3.17-6.83.14-17.75-8.32-29.97a112.388,112.388,0,0,0-31.68-30.16c-3.45-2.13-7.71-5.17-12.64-8.69-10.3-7.35-23.11-16.5-35.29-22.02-7.28-3.3-13.56-4.96-18.93-4.99V81.54a3.246,3.246,0,0,0-3.25-3.23l-10.19.05c0-.02.01-.03.01-.05a2.074,2.074,0,0,0-.13-.73c0-.03-.01-.07-.01-.13-.06-.7-.13-1.37-.15-2.09-.02-.68-.04-1.33-.01-1.94.18,0,.35.01.53.01,6.57,0,10.85-5.27,8.41-14.11a24.182,24.182,0,0,0,.73-9.58c-.44-4.62-2.1-10.1-3.85-15.91l-.14-.45c-.47-1.57-.97-3.23-1.46-4.91a15.551,15.551,0,0,0,4.69-1.97c10.43-7.06,3.1-25.25-8.07-18.92C141.77,1,127.73-3.09,120.56,2.91a24.9,24.9,0,0,0-3.34.25C110.06-.74,96.43,4.8,97.19,14.71c-5.14,0-7,11.83.47,14.78.34,6.11,2.54,12.53,4.55,18.01.34,1.72.7,3.42,1.1,5.01a30.876,30.876,0,0,0,2.36,5.88,6.857,6.857,0,0,1,.06.75c.09-.05.17-.1.27-.15a31.211,31.211,0,0,0,2.02,3.24c2.92,3.8,3.45,11.13,3.75,16.3l-11.3.06a3.25,3.25,0,0,0-3.11,2.43c-12.64-1.9-25.68,7.88-38.98,19.19-4.39,3.73-9.65,7.76-14.29,11.31-4.77,3.66-8.9,6.82-11.43,9.12C10.16,141.04-.5,157.03-.02,169.54c.23,5.84,2.98,10.84,8.16,14.86,7.41,5.75,17.2,9.11,27.79,11.07-9.7.99-19.25,4.18-25.23,11.39C3.07,216.02,2.25,243.64.91,289.4c-.23,7.98-.48,16.22-.77,25.09V442.63H2V358.55H83.12V442.6h1.82V314.46c0-1.9,0-4.83-.07-8.53h167.8c-.04-.31-.1-.61-.15-.91s-.09-.61-.14-.89H84.85c-.03-2.31-.08-4.86-.13-7.62h75.1q-1.5-.24-2.97-.54c-.57-.12-1.13-.24-1.69-.37-1.21-.28-2.39-.59-3.56-.91H84.68c-.25-11.57-.73-26.23-1.58-40.49-2.52-42.33-6.34-50.16-9.15-51.65-1.01-1.89-5.23-3.44-8.61-4.42,5.51.12,10.84.12,15.79.11,7.46,0,13.94-.03,19.03.39l3.98,20.28.45-.16a3.25,3.25,0,0,1,.42-.11c.2-.05.49-.11.89-.19l-3.85-19.67L90.46,139.49c-.04-.36-.24-1.33-1.08-5.5l-.97-4.98v.17c-.72-3.59-1.43-7.22-1.43-7.78H85.15c0,.89.98,5.78,2.36,12.54.29,1.43.59,2.88.8,3.97-.48,1.78-10.71,8.84-16.23,12.66-2.98,2.07-5.61,3.88-6.95,4.96l-4-.06c-8.8-.12-19.76-.26-23.91-1.7l-.6,1.73c4.43,1.53,15.55,1.68,24.47,1.8,1.3,0,2.55.03,3.72.05a9.388,9.388,0,0,0,2.85.19c1.45,0,3.46.02,5.73.03,6.26,0,16.46.05,18.8.35l7.59,38.82c-5.08-.38-11.42-.37-18.69-.36-8.41,0-17.96.03-27.54-.62-2.04-.25-4.19-.45-6.4-.54-14.36-1.47-28.24-4.79-37.86-12.25-4.74-3.67-7.25-8.22-7.46-13.5C1.38,157.7,12.13,141.73,33.82,122c2.47-2.25,6.57-5.39,11.31-9.02,4.66-3.56,9.93-7.61,14.35-11.37C67.02,95.2,75.75,88.09,84.12,84.7a24.471,24.471,0,0,1,13.06-1.84l.14,25.83a3.246,3.246,0,0,0,3.25,3.23l21.82-.12.03-.06.33-.85.33-.85.01-.02-22.46.1a1.421,1.421,0,0,1-1.43-1.42l-.13-25.44V81.85a1.359,1.359,0,0,1,.09-.48,1.432,1.432,0,0,1,1.33-.96l12.27-.06c.04,0,.07.02.1.02s.07-.02.11-.02h1.81l24.63-.13h1.82l11.18-.06a1.419,1.419,0,0,1,1.42,1.42v3.76l.04,7.39v.96a1.878,1.878,0,0,1,1.79-1.51l-.04-6.92c11.82.06,26.73,8.53,39.98,17.42a.847.847,0,0,0-.15.3v.12c-.59.83-.17,1.73.28,1.71,1.19-.05,1.69-.41,1.78-.83,3.97,2.7,7.76,5.41,11.24,7.89,4.96,3.56,9.24,6.59,12.74,8.76a110.657,110.657,0,0,1,31.17,29.62c8.09,11.67,11.08,21.94,8.19,28.17-4.24,9.13-21.16,9.4-47.64.74-8.22-2.67-9.6-3.56-10.18-3.94a3.161,3.161,0,0,0-1.49-.54h-.1l-6.11-2.46c1.44-.9-1.19-3.13-1.67-1.52v.12a1.507,1.507,0,0,0-.26.61l-27.79-11.17a46.246,46.246,0,0,0,5.05-5.14,44.409,44.409,0,0,1,4.05-4.18c4.53-3.11,9.32-9.5,13.16-14.63,2.29-3.06,4.45-5.95,5.83-7.09,7.65,3.79,17.89,8.57,20.36,8.99,0,.48.28.84.56.83,3.96-.17.33-3.72-.27-1.85l-.04-.77c-2.05-.11-24.43-10.77-28.14-13.19l-.64-.42-2.23,2.4-.02-.03-.51.55c-6.81-2.79-11.87-8.59-16.5-16.77-.27-.47-.94-2.25-1.65-4.12-1.56-4.1-3.5-9.21-4.89-11.01a4.109,4.109,0,0,0-2.8-1.88c-.06,0-.13-.01-.19-.01a2.686,2.686,0,0,0-1.08.23,1.887,1.887,0,0,0-1.79,1.51l.05,10.18a5.815,5.815,0,0,1-.75,1.36,4.515,4.515,0,0,1-3.56,1.74h-.13c-.11,0-.23.01-.35.01-3.98,0-11.31-2.16-17.24-3.91-3.79-1.11-7.06-2.08-9.22-2.46a6.545,6.545,0,0,0-1.12-.1,3.08,3.08,0,0,0-3.33,2.33c-.42,2.21,2.94,4.41,6.28,6.75a15.818,15.818,0,0,0-.67,4.58,19.418,19.418,0,0,0,2.1,9c2.78,5.01,6.09,10.06,11.22,12.87a30.225,30.225,0,0,0,6.72,2.62c2.84.76,15.49,4.68,20.78,6.65l-.05.05c.02.01.05.02.07.03l-9.28,10.08c-.92-2.57-1.84-5.09-2.67-7.33a1.182,1.182,0,0,0-.48-1.34c-1.1-3.04-1.99-5.49-2.07-5.78l-.89.22-.89.09c0,.19,0,.23,2.15,6.1-.31.73.07,1.42.45,1.4h.05c.89,2.4,1.9,5.25,2.95,8.16l-.4.45.65.26c2.46,6.82,4.93,13.79,5.51,15.92,2.58,9.41,7.14,22.42,11.16,33.89.98,2.78,1.91,5.44,2.76,7.9.1.31.21.61.31.89s.21.61.31.89c-19.54.21-34.89.45-39.85.68-18.89.89-25.9,1.88-28.27,2.32l-.45.09c0,.85,0,1.71.04,2.6.05,2.07.16,4.25.34,6.51,1.92,24.03,11.96,56.65,51.04,64.76.89.19,1.83.36,2.76.51a75.936,75.936,0,0,0,11.07.91h2.18a115.015,115.015,0,0,0,12.71-.91c19.99-2.52,41.76-9.85,61.8-17.35l.89-.33.89-.33c4.57-1.73,9.06-3.46,13.4-5.13l3.8-1.47c3.21-1.24,13.16-4.87,17.06-5.51a15.541,15.541,0,0,1,6.05-1.34,11.352,11.352,0,0,1,6.43,1.96c5.05,3.34,8.23,10.64,10.01,19.06.33,1.57.61,3.18.85,4.8.28,1.88.49,3.79.65,5.69,0,.3.05.61.07.91l.07.89c.09,1.46.16,2.9.19,4.33q.03,1.395.03,2.76v.06a2.316,2.316,0,0,0,.06.45,5.735,5.735,0,0,0,.28.89c.11.28.24.58.4.91,1.73,3.64,6.42,10.35,12.72,18.63.59.78,1.2,1.58,1.82,2.38,6.89,8.95,15.39,19.44,23.98,29.76.51.61,1.01,1.22,1.52,1.82,6.42,7.69,12.82,15.22,18.58,21.89l3.24-1.72.82-.45.82-.45ZM73.4,155.75H71.27c-.89-.06-1.98-.11-3.17-.14,1.34-.97,3.11-2.19,5.04-3.52,8.43-5.84,13.41-9.45,15.62-11.78l3.08,15.77C89.68,155.88,84.85,155.78,73.4,155.75Zm9.72,158.73v42.25H2V314.51q.15-4.365.28-8.56H83.05C83.09,309.64,83.12,312.57,83.12,314.48Zm-.1-10.35H2.69v-7.62h80.2C82.95,299.27,82.99,301.82,83.02,304.13ZM46.97,197.04q3.18.33,6.38.54a77.218,77.218,0,0,1,8.29,1.44h.02c7.65,1.78,10.55,3.76,10.7,4.39l.11.49.48.17c1.64.57,5.74,6.6,8.33,50.22.85,14.24,1.34,28.86,1.58,40.39H2.62q.075-2.67.15-5.25c1.29-43.81,2.14-72.75,9.34-81.42C19.96,198.59,34.46,196.45,46.97,197.04ZM145.65,33.96l.14.45c1.72,5.71,3.35,11.1,3.77,15.52a21.4,21.4,0,0,1-.91,9.46,11.6,11.6,0,0,1-4.35,1.45c-4.87.72-20.41-.25-23.19-7.4-2.16-5.61-6.17-22.93.8-22.93,2.36,0,4.59-.03,6.56-.09a92.357,92.357,0,0,0,15.7-1.5C144.66,30.66,145.17,32.36,145.65,33.96ZM113.8,78.52c-.31-5.43-.85-13.21-4.15-17.49a28.334,28.334,0,0,1-1.92-3.09c4.43-3.12,5-6.95,2.97-6.86-3.1.12-5.61-2.54-6.83-5.77-.28-1.51-.54-3.03-.8-4.51A6.244,6.244,0,0,1,106,35.23c2.51-1.41,4.31-.5,5.79.85,3.69,5.58,3.6,17.28,5.08,24.56,1.73,8.45,12.07,12.24,23,12.74-.04.71-.02,1.42,0,2.11.02.71.09,1.41.15,2.16a2.31,2.31,0,0,0,.13.65.309.309,0,0,0,.01.09Zm52.28,65.18c-5.11-2-19.08-6.3-21.72-7a27.963,27.963,0,0,1-6.28-2.44,19.1,19.1,0,0,1-4.79-3.83c3.13,1.26,7.68,2.83,10.92,2.83a7.228,7.228,0,0,0,1.6-.16,1,1,0,1,0-.45-1.95c-3.4.78-11.74-2.63-14.67-4.02a.037.037,0,0,1-.03-.01,56.7,56.7,0,0,1-3.02-4.94,12.18,12.18,0,0,1-.85-1.91c3.8,1.95,12.2,5.9,17.99,5.9a10.466,10.466,0,0,0,1.14-.06,1,1,0,1,0-.21-1.99c-6.12.64-17.48-5.33-19.59-6.47a27.547,27.547,0,0,1-.33-3.57,11.938,11.938,0,0,1,.41-3.24c3.12,1.66,11.3,5.71,16.93,5.71a1,1,0,0,0,0-2c-5.91,0-15.47-5.18-16.98-6.02a2.084,2.084,0,0,0-.54-.61l-.57-.4c-1.38-.96-5.05-3.53-4.9-4.3.13-.61.82-.74,1.37-.74a4.423,4.423,0,0,1,.78.07c2.02.35,5.17,1.28,8.83,2.35l.17.05c6.01,1.78,13.5,3.99,17.81,3.99.12,0,.24,0,.36-.01h.12a6.483,6.483,0,0,0,5.16-2.54,7.486,7.486,0,0,0,1.01-1.84,1.992,1.992,0,0,0,.13-.72l-.05-9.68a.076.076,0,0,0,.04-.01,2.382,2.382,0,0,0,.58-.16.545.545,0,0,1,.22-.05,2.1,2.1,0,0,1,1.33.94,1.768,1.768,0,0,0,.12.17c1.22,1.57,3.26,6.94,4.6,10.49l.06.17a43.828,43.828,0,0,0,1.72,4.23c5.13,9.05,10.4,14.53,16.79,17.35l-13.85,14.95C166.98,142.75,166.52,143.24,166.08,143.7Zm.5,2.39c.01-.01,18.5-19.64,18.09-19.66l1.16-1.26c1.18.67,3.4,1.82,6.1,3.18a69.047,69.047,0,0,0-5.54,6.87c-3.77,5.02-8.45,11.27-12.74,14.24a39.819,39.819,0,0,0-4.36,4.45c-1.72,1.89-4.31,4.73-4.96,5.03a.566.566,0,0,1,.26-.03l-.08.94-7.73-3.11Z" fill="#342f38"/><path d="M148.02,87.95a2.014,2.014,0,0,0,1.82-1.94v-.06a1.47,1.47,0,0,0-.31-.81,1.722,1.722,0,0,0-1.05-.65,2.142,2.142,0,0,0-2.22.95,1.718,1.718,0,0,0-.27,1.03l.03.15a1.469,1.469,0,0,0,.39.81A1.886,1.886,0,0,0,148.02,87.95Z" fill="#342f38"/><path d="M474.67,371.64c-1.63-2.63-4.92-3.19-9.52-1.63-4.52,1.54-12.27,1.21-21.26.82-5.89-.26-12.46-.53-19-.33l.04-.04a7.8,7.8,0,0,1,1.08-.72l.37-.2c.58-.32,1.14-.63,1.66-.93,7.66-4.48,9.34-8.2,8.35-10.13-.94-1.78-3.71-1.85-7.06-.13a17.024,17.024,0,0,0-5.94,5.15c.51-6.64-1.72-10.37-4.1-11.62a3.771,3.771,0,0,0-4.67.7c-1.91,2.05-2.38,6.81,2.04,14.02a13.5,13.5,0,0,1,.94,2c.05.1.08.2.12.3a8.942,8.942,0,0,0,.42.93,2.8,2.8,0,0,0,.72.92,31.769,31.769,0,0,1-5.68-.54,13.87,13.87,0,0,0-6.95.17c-.56.17-1.17.37-1.82.63-.55.22-1.13.47-1.75.77-.27.12-.54.26-.83.4l-.81.41a139.224,139.224,0,0,0-15.1,9.74c-.41.29-1.7,1.1-3.35,2.14-1.09.69-2.55,1.6-3.78,2.39-.27.17-.53.34-.77.5l-.77.5-.29.2c1.16,1.55,3.25,4.65,5.78,8.4,5.19,7.66,14.77,21.8,16.96,22.98.98-.34,2.67-1.04,4.69-1.96.59-.27,1.2-.55,1.82-.85,1.39-.66,2.84-1.4,4.27-2.17,6.26-3.39,7.6-5.2,7.6-5.65-.05-.16-.24-.65-.41-1.07-1.57-3.9-3.08-8.19-1.14-9.73,1.43-1.13,3.94-.3,8.14,2.67,1.19.85,5.4,1.18,20.22-6.16,9.56-4.73,19.9-10.83,26.08-14.47,1.87-1.1,3.36-1.98,4.29-2.5C475.73,377.03,476.12,373.97,474.67,371.64Zm-53.95-3.13a2.474,2.474,0,0,0-.11.36,3.348,3.348,0,0,0-.11.55l-.28-.36a2.748,2.748,0,0,1-.28.19,2.33,2.33,0,0,1-.2-.34c-.14-.29-.3-.68-.44-.99a14.848,14.848,0,0,0-1.08-2.28c-3.62-5.93-3.74-10.21-2.24-11.81a1.962,1.962,0,0,1,2.49-.32c1.84.96,4.45,4.96,2.53,13.84C420.88,367.84,420.79,368.22,420.72,368.51Zm3.54.18-.44.33a2.755,2.755,0,0,1-.39.28.585.585,0,0,1,.5.05l-.79.3-.84.32a2.465,2.465,0,0,0,.33.62c-.5.01-1.02.05-1.52.08a2,2,0,0,0,.24-.19l-.11-.14h.17c.44,0,.67-.17.86-.65a4.218,4.218,0,0,0,.21-.69,1.553,1.553,0,0,0,.08-.23,16.8,16.8,0,0,1,7.6-8.79c2.55-1.3,4.31-1.21,4.6-.65.47.89-1.29,4.39-9.62,8.8C424.85,368.3,424.55,368.48,424.26,368.69Z" fill="#342f38"/><path d="M350.99,438.22c-14.62-4.96-22.39-7.64-27.69-10.48-.65-.34-1.25-.69-1.82-1.04a34.117,34.117,0,0,1-7.94-6.83l.14-.07.73-.33.86-.41a42.974,42.974,0,0,0,6.21-3.56v9.01c.57.38,1.18.76,1.82,1.13V414.07c2.4-2.08,3.43-4.04,2.75-5.57a2.821,2.821,0,0,0-2.75-1.49v-48.5h23.14l-1.52-1.82H323.3V329.96c-.63-.81-1.24-1.6-1.82-2.36v79.64a13.968,13.968,0,0,0-2.51.84,20.682,20.682,0,0,0-6.84,4.93c1.63-6.67.24-10.68-1.91-12.27a3.872,3.872,0,0,0-2.58-.8,3.568,3.568,0,0,0-1.01.21,4.054,4.054,0,0,0-1.03.54l-.13.09a4.827,4.827,0,0,0-.85.84,9.356,9.356,0,0,0-1.7,6.08,7.389,7.389,0,0,0,.04.94c.04.32.06.65.1,1a15.572,15.572,0,0,0-5.72-.53l-.89.04-.89.05-.92.05c-1.09.07-2.79.14-4.77.23-5.14.24-12.17.56-16.67,1.03-.53.06-2.18.14-4.27.25l-2.42.12-.89.05-.89.05c-1.27.07-2.42.15-3.11.21.08,1.91.04,5.69,0,10.29-.11,9.18-.31,26.12.89,28.37a100.8,100.8,0,0,0,12.64.89c9,.07,10.26-1.17,10.4-1.36.06-.19.19-.8.31-1.33.83-3.85,1.88-8.08,3.75-9.48a2.381,2.381,0,0,1,1.42-.5,3.086,3.086,0,0,1,2.34,1.36c.56.68.99,2.19,1.66,4.59a40.752,40.752,0,0,0,1.22,3.96c.48,1.19,3.61,3.22,19.13,3.42,10.28.13,22.14-.57,30.81-1.08,4.22-.25,7.56-.44,9.26-.44.58-.03,2.63-1.84,2.95-4.24C358.7,442.54,356.18,440,350.99,438.22Zm-27.68-29.38c.63.05.99.22,1.08.42v-.01c.15.34-.09,1.14-1.08,2.27Zm-13.12,4.36q-.135.51-.3,1.05c-.11.36-.21.67-.33,1.02a28.455,28.455,0,0,0-4.45-4.53c-.08-.43-.16-.85-.22-1.26h0c-.05-.38-.09-.74-.12-1.1-.22-3.09.57-5.21,1.81-6.16a1.992,1.992,0,0,1,2.54-.03C310.48,403.21,311.96,406.59,310.19,413.2Zm2.74,4.96c-.24.11-.45.22-.64.32q-.54-.615-1.11-1.29c.16-.25.34-.51.53-.78s.36-.49.57-.74a19.226,19.226,0,0,1,7.42-5.92v-.01a12.548,12.548,0,0,1,1.78-.63v4.11a37.4,37.4,0,0,1-7.48,4.45c-.28.13-.57.26-.86.4Z" fill="#342f38"/><path d="M333.46,207.96c11.31-13.59,36.45-12.04,49.51-8.99,7.65,1.78,10.55,3.76,10.68,4.39l.11.49.48.16c1.64.57,5.74,6.6,8.33,50.22.84,14.24,1.33,28.86,1.58,40.39H370.14l.52.91.52.89h32.23v7.62H375.47l.51.89.51.91h27.86c.05,3.69.07,6.62.07,8.53v42.24h-1.01c.3.69.55,1.3.76,1.82h.25v.66c.93,2.47.72,2.9.58,3.19l-.13.27-.44.24v6.13a15.294,15.294,0,0,1,1.82-.57V314.46c0-8.13-.33-34.83-1.84-60.29-2.52-42.33-6.34-50.16-9.15-51.65-1.33-2.52-8.45-4.45-11.6-5.21a84.356,84.356,0,0,0-13.14-1.97c.08-1.34.14-2.56.2-3.75.14-2.67.27-5.11.47-7.77q3.93,1.665,8.74,3.31c6.64,2.27,16.71,4.85,22.72,6.4,2.7.69,4.84,1.25,5.39,1.44a7.022,7.022,0,0,0,2.22.45,2.217,2.217,0,0,0,1.82-.75c1.63-1.99-1.04-6.71-5.53-14.26a85.061,85.061,0,0,1-4.53-8.21c-1.88-4.37-5.34-9.97-9.4-16.46-7.54-12.09-16.91-27.14-18.09-38.95-.64-6.39-4.11-11.57-9.27-13.88a12.18,12.18,0,0,0-12.31,1.02,13.16,13.16,0,0,0-4.89,8.01c-2.6,2.23-5.54,5.43-5.34,7.08a1.559,1.559,0,0,0,1.73,1.3h3.39A139.169,139.169,0,0,1,348,144.3c-.83,14.6-1.41,24.88,12.46,33.94.37,5.78,1.13,14.1,1.39,16.91-11.23.39-22.9,3.35-29.81,11.67-2.67,3.22-4.52,8.72-5.83,16.49q.84.72,1.62,1.47C329.12,216.75,330.88,211.06,333.46,207.96Zm21.57-91.06c-.71,1.04-3.19,1.44-5.56,1.58l-.92.04-.89.02c-.89,0-1.7-.01-2.28-.02h-.76a15.035,15.035,0,0,1,3.04-3.75c.33-.33.67-.65,1.01-.96s.72-.64,1.07-.93a12.747,12.747,0,0,1,1.78-1.31c.28.27.57.52.85.77a9.054,9.054,0,0,1,2.67,3.22C355.34,116.31,355.19,116.68,355.03,116.9Zm14.36,66.14c-.23,2.93-.37,5.54-.52,8.45-.07,1.19-.13,2.42-.2,3.74-1.59-.09-3.28-.12-4.96-.1h-.01c-.23-2.46-.91-9.95-1.33-15.68A68.189,68.189,0,0,0,369.39,183.04Z" fill="#342f38"/><path d="M51.14,131.7a1.224,1.224,0,0,0-.59.46,5.537,5.537,0,0,0-.12.69c0,1.85,2.85,1.29,2.32-.42A1.259,1.259,0,0,0,51.14,131.7Z" fill="#342f38"/><path d="M84.14,110.21a1.224,1.224,0,0,0-.59.46,4.157,4.157,0,0,0-.12.69c0,1.85,2.85,1.29,2.32-.42A1.259,1.259,0,0,0,84.14,110.21Z" fill="#342f38"/><path d="M201.57,121.15a1.235,1.235,0,0,0-2.19-.28,5.58,5.58,0,0,0-.13.69C199.25,123.42,202.1,122.86,201.57,121.15Z" fill="#342f38"/><path d="M167.45,171.99a1.224,1.224,0,0,0-.59.46,5.382,5.382,0,0,0-.12.7c0,1.85,2.85,1.29,2.32-.42A1.256,1.256,0,0,0,167.45,171.99Z" fill="#342f38"/><path d="M196.91,196.56a1.224,1.224,0,0,0-.59.46,5.4,5.4,0,0,0-.13.7c0,1.85,2.85,1.29,2.32-.42A1.241,1.241,0,0,0,196.91,196.56Z" fill="#342f38"/><path d="M127.22,156.41a1.257,1.257,0,0,0-1.6-.74,1.224,1.224,0,0,0-.59.46,5.58,5.58,0,0,0-.13.69C124.9,158.68,127.75,158.12,127.22,156.41Z" fill="#342f38"/><path d="M24.51,161.2a1.3,1.3,0,0,0-.6.46,5.4,5.4,0,0,0-.13.7c0,1.85,2.85,1.29,2.32-.42A1.234,1.234,0,0,0,24.51,161.2Z" fill="#342f38"/><path d="M73.76,179.09a1.245,1.245,0,0,0-1.6-.74,1.224,1.224,0,0,0-.59.46,5.385,5.385,0,0,0-.12.7C71.44,181.36,74.32,180.8,73.76,179.09Z" fill="#342f38"/><path d="M130.21,133.07a1.253,1.253,0,0,0-1.6-.74,1.224,1.224,0,0,0-.59.46,4.157,4.157,0,0,0-.12.69C127.89,135.34,130.74,134.79,130.21,133.07Z" fill="#342f38"/><path d="M137.97,201.39a1.257,1.257,0,0,0-1.6-.74,1.224,1.224,0,0,0-.59.46,5.58,5.58,0,0,0-.13.69C135.65,203.66,138.5,203.11,137.97,201.39Z" fill="#342f38"/><path d="M61.1,188.92a1.245,1.245,0,0,0-1.6-.74,1.224,1.224,0,0,0-.59.46,5.537,5.537,0,0,0-.12.69C58.78,191.19,61.63,190.63,61.1,188.92Z" fill="#342f38"/><path d="M72.57,129.95v.12c-.59.83-.16,1.73.28,1.71C76.82,131.61,73.15,128.03,72.57,129.95Z" fill="#342f38"/><path d="M243.25,151.51c3.98-.17.3-3.75-.27-1.83v.12C242.38,150.63,242.81,151.53,243.25,151.51Z" fill="#342f38"/><path d="M56.69,167.07v.12c-.59.83-.16,1.73.28,1.71C60.94,168.73,57.26,165.15,56.69,167.07Z" fill="#342f38"/><path d="M205.51,155.79v.12c-.59.83-.16,1.73.28,1.71C209.76,157.45,206.09,153.87,205.51,155.79Z" fill="#342f38"/><path d="M160.84,199.81v.12c-.59.83-.16,1.73.28,1.71C165.08,201.47,161.41,197.89,160.84,199.81Z" fill="#342f38"/><path d="M65.49,148.49v.12c-.59.83-.17,1.73.28,1.71C69.74,150.15,66.07,146.57,65.49,148.49Z" fill="#342f38"/><path d="M169.64,181.23v.12c-.59.83-.16,1.73.28,1.71C173.89,182.89,170.21,179.31,169.64,181.23Z" fill="#342f38"/><path d="M46.62,114.27v.12c-.59.83-.16,1.73.28,1.71C50.86,115.93,47.18,112.35,46.62,114.27Z" fill="#342f38"/><path d="M248,165.83c3.98-.17.3-3.75-.27-1.83v.12C247.13,164.95,247.56,165.85,248,165.83Z" fill="#342f38"/><path d="M79.61,92.78v.12c-.59.83-.16,1.73.28,1.71C83.86,94.45,80.18,90.86,79.61,92.78Z" fill="#342f38"/><path d="M121.09,138.24v.11c-.59.83-.16,1.73.28,1.71C125.34,139.91,121.66,136.33,121.09,138.24Z" fill="#342f38"/><path d="M84.24,189.17c3.97-.17.3-3.75-.28-1.83v.12C83.37,188.28,83.8,189.19,84.24,189.17Z" fill="#342f38"/><path d="M44.82,182v.12c-.59.83-.16,1.73.28,1.71C49.07,183.66,45.4,180.08,44.82,182Z" fill="#342f38"/><path d="M16.88,180.84c3.97-.17.3-3.75-.28-1.83v.12C16.03,179.95,16.44,180.86,16.88,180.84Z" fill="#342f38"/><path d="M112.99,143.42v.12c-.59.83-.16,1.73.28,1.71C117.23,145.08,113.56,141.5,112.99,143.42Z" fill="#342f38"/><path d="M120.75,211.76v.12c-.59.83-.16,1.73.28,1.71C125,213.41,121.33,209.83,120.75,211.76Z" fill="#342f38"/><path d="M15.09,150.51v.12c-.59.83-.16,1.73.28,1.71C19.34,152.18,15.66,148.58,15.09,150.51Z" fill="#342f38"/><path d="M111.47,114.93v.12c-.59.83-.17,1.73.28,1.71C115.72,116.59,112.04,112.99,111.47,114.93Z" fill="#342f38"/><path d="M119.25,183.26v.12c-.59.83-.16,1.73.28,1.71C123.48,184.91,119.81,181.33,119.25,183.26Z" fill="#342f38"/><path d="M2.73,169.49l.12.04c.65.78,1.63.61,1.73.18C5.46,165.82,1.03,168.42,2.73,169.49Z" fill="#342f38"/><path d="M99.12,133.9l.12.04c.64.78,1.62.61,1.73.18C101.84,130.23,97.42,132.83,99.12,133.9Z" fill="#342f38"/><path d="M185.06,181.64c.65.79,1.63.61,1.73.18.89-3.88-3.56-1.28-1.84-.22Z" fill="#342f38"/><path d="M227.62,177.4l.12.04c.65.79,1.63.61,1.73.18C230.34,173.74,225.92,176.34,227.62,177.4Z" fill="#342f38"/><path d="M62.54,114.49c-1.16.24-.5,3.42,1.5,1.78C64.69,115.75,64.69,114.05,62.54,114.49Z" fill="#342f38"/><path d="M234.44,136.01c.65-.53.65-2.22-1.49-1.78C231.78,134.47,232.44,137.64,234.44,136.01Z" fill="#342f38"/><path d="M179.32,115.84c.65-.53.65-2.23-1.49-1.78C176.66,114.3,177.33,117.48,179.32,115.84Z" fill="#342f38"/><path d="M168.19,149.03c.65-.53.65-2.22-1.5-1.78C165.52,147.47,166.18,150.65,168.19,149.03Z" fill="#342f38"/><path d="M28.32,131.18c-1.16.24-.5,3.42,1.49,1.78C30.46,132.44,30.47,130.74,28.32,131.18Z" fill="#342f38"/><path d="M254.67,176.09c.65-.53.65-2.22-1.49-1.78C252.02,174.54,252.67,177.72,254.67,176.09Z" fill="#342f38"/><path d="M170.58,98.57c.65-.53.65-2.23-1.49-1.78C167.92,97.03,168.58,100.21,170.58,98.57Z" fill="#342f38"/><path d="M186.59,211.16c.65-.53.65-2.22-1.49-1.78C183.93,209.62,184.59,212.79,186.59,211.16Z" fill="#342f38"/><path d="M133.96,165.71c.65-.53.65-2.22-1.49-1.78C131.31,164.15,131.96,167.34,133.96,165.71Z" fill="#342f38"/><path d="M102.79,155.15c-1.16.24-.5,3.42,1.5,1.78C104.94,156.41,104.94,154.71,102.79,155.15Z" fill="#342f38"/><path d="M46.66,151.61c-1.16.24-.5,3.42,1.49,1.78C48.8,152.87,48.81,151.17,46.66,151.61Z" fill="#342f38"/><path d="M76.18,107.35c.65-.53.65-2.23-1.49-1.78C73.52,105.79,74.18,108.99,76.18,107.35Z" fill="#342f38"/><path d="M195.49,140.33c-1.16.24-.5,3.41,1.49,1.78C197.63,141.58,197.63,139.89,195.49,140.33Z" fill="#342f38"/><path d="M152.3,186.14c.65-.53.65-2.22-1.49-1.78C149.64,184.59,150.3,187.77,152.3,186.14Z" fill="#342f38"/><path d="M82.09,166.38c-1.16.24-.5,3.42,1.5,1.78C84.24,167.65,84.24,165.93,82.09,166.38Z" fill="#342f38"/><path d="M232.42,156.89c.65-.53.65-2.22-1.49-1.78C229.76,155.34,230.42,158.52,232.42,156.89Z" fill="#342f38"/></g></svg>