<svg xmlns="http://www.w3.org/2000/svg" width="51.982" height="40.573" viewBox="0 0 51.982 40.573"><g transform="translate(-0.001)"><path d="M11.714,38.337c.011.008.027,0,.038.011a.647.647,0,0,0,.293.081.634.634,0,0,0,.167-.023l13.78-3.761,13.78,3.761a.634.634,0,0,0,.167.023.624.624,0,0,0,.292-.082c.013-.006.027,0,.038-.011L51.68,31.363a.635.635,0,0,0,.279-.714L45.64,8.46a.632.632,0,0,0-.368-.413.646.646,0,0,0-.553.033l-6.291,3.53a.634.634,0,1,0,.623,1.106l5.59-3.138,5.968,20.954L40.446,36.742,38.032,17.431a.642.642,0,0,0-.709-.55.635.635,0,0,0-.55.707l2.418,19.347-12.565-3.43V30.044a.634.634,0,1,0-1.268,0v3.461l-12.566,3.43L15.21,17.588a.634.634,0,0,0-1.259-.157L11.538,36.742,1.376,30.532,7.344,9.58l5.59,3.138a.634.634,0,1,0,.623-1.106L7.264,8.081a.633.633,0,0,0-.919.38L.025,30.65a.631.631,0,0,0,.279.714Z" transform="translate(0 2.143)" fill="#342f38"/><path d="M22.347,29.629a.636.636,0,0,0,.856,0c.422-.384,10.351-9.5,10.351-18.855A10.662,10.662,0,0,0,22.777,0,10.662,10.662,0,0,0,12,10.777C12,19.975,21.925,29.238,22.347,29.629Zm.43-28.361a9.3,9.3,0,0,1,9.509,9.509c0,7.73-7.6,15.642-9.506,17.506-1.9-1.885-9.513-9.9-9.513-17.506A9.3,9.3,0,0,1,22.777,1.268Z" transform="translate(3.215)" fill="#342f38"/><path d="M27.411,9.706a5.706,5.706,0,1,0-5.706,5.706A5.713,5.713,0,0,0,27.411,9.706Zm-5.706,4.438a4.438,4.438,0,1,1,4.438-4.438A4.443,4.443,0,0,1,21.706,14.143Z" transform="translate(4.286 1.072)" fill="#342f38"/></g></svg>