<svg xmlns="http://www.w3.org/2000/svg" width="52" height="52" viewBox="0 0 52 52"><path d="M2.437,52h22.75a.813.813,0,1,0,0-1.625H2.437a.813.813,0,0,1-.812-.812V2.437a.813.813,0,0,1,.812-.812H36.562a.813.813,0,0,1,.813.812v8.125a.813.813,0,0,0,1.625,0V2.437A2.44,2.44,0,0,0,36.562,0H2.437A2.44,2.44,0,0,0,0,2.437V49.562A2.44,2.44,0,0,0,2.437,52Z" fill="#342f38"/><path d="M18,11.437v32.5a2.44,2.44,0,0,0,2.438,2.438H38.312a2.44,2.44,0,0,0,2.438-2.438v-32.5A2.44,2.44,0,0,0,38.312,9H20.438A2.44,2.44,0,0,0,18,11.437Zm21.125,0v32.5a.813.813,0,0,1-.812.813H20.438a.813.813,0,0,1-.812-.813v-32.5a.813.813,0,0,1,.813-.812H38.312A.813.813,0,0,1,39.125,11.437Z" transform="translate(11.25 5.625)" fill="#342f38"/><circle cx="1.468" cy="1.468" r="1.468" transform="translate(17.945 44.036)" fill="#342f38"/><circle cx="1.468" cy="1.468" r="1.468" transform="translate(39.083 44.036)" fill="#342f38"/></svg>