<svg xmlns="http://www.w3.org/2000/svg" width="35.45" height="51.563" viewBox="0 0 35.45 51.563"><g transform="translate(50)"><path d="M24.82,33.839H32.2a3.356,3.356,0,0,0,3.25-3.076V3.076A3.356,3.356,0,0,0,32.2,0H3.25A3.356,3.356,0,0,0,0,3.076V30.762a3.356,3.356,0,0,0,3.25,3.076h8c.561,0,3.356.119,3.356,2.485a15.548,15.548,0,0,1-1.228,6.932l-.079.176.649.28v.021l-.72-.145a.7.7,0,0,0-.061.168,5.752,5.752,0,0,0-.374,2.025c0,3.46,1.984,5.783,4.936,5.783,2.983,0,4.986-2.324,4.986-5.783a5.692,5.692,0,0,0-.319-1.871.805.805,0,0,0-.192-.487c-.042-.1-.1-.2-.163-.325-.353-.669-1.089-2.058-1.089-6.774C20.948,35.324,21.979,33.839,24.82,33.839ZM1.611,19.431H33.839v6.35H1.611ZM3.25,1.611H32.2a1.764,1.764,0,0,1,1.639,1.465V17.818H1.611V3.076A1.764,1.764,0,0,1,3.25,1.611Zm17.362,42.24c.045.085.084.156.15.3,0,0,0,.011.011.026s.013.04.021.061a4.139,4.139,0,0,1,.3,1.537c0,2.017-.885,4.172-3.373,4.172-2.451,0-3.323-2.154-3.323-4.172a4.139,4.139,0,0,1,.3-1.537c.006-.019.015-.037.019-.056l.053-.116.068-.15a17.1,17.1,0,0,0,1.371-7.6c0-3.234-3.124-4.1-5.018-4.1H3.25a1.764,1.764,0,0,1-1.639-1.465V27.393H33.839v3.369A1.764,1.764,0,0,1,32.2,32.227H24.82c-4.024,0-5.483,2.451-5.483,4.1C19.336,41.439,20.2,43.07,20.613,43.852Z" transform="translate(-50)" fill="#3b0e26"/></g></svg>