<svg xmlns="http://www.w3.org/2000/svg" width="36.133" height="51.563" viewBox="0 0 36.133 51.563"><path d="M33.616,31.806A.806.806,0,0,0,32.81,31h-29a.806.806,0,0,0,0,1.611h29A.806.806,0,0,0,33.616,31.806Z" transform="translate(0.905 18.952)" fill="#3b0e26"/><path d="M1.7,15.072A2.821,2.821,0,0,0,.974,18.82c.8,1.607,2.481,3.572,4.265,4.091A3.159,3.159,0,0,0,7.825,22.6c1.771-1.06,3.862-2.494,4.749-3.11a5.678,5.678,0,0,0,3.964.314l.019-.006c-.084,2.66-.985,4.322-5.388,8.411-3.925,3.643-6.254,8.429-6.231,12.8a9.4,9.4,0,0,0,3.029,7.121.8.8,0,0,0,.543.211H31.069a.806.806,0,1,0,0-1.611H8.831A7.879,7.879,0,0,1,6.551,41c-.021-3.87,2.17-8.323,5.715-11.615,4.7-4.36,5.912-6.426,5.912-10.05a.788.788,0,0,0-.037-.185,6.1,6.1,0,0,0,2.164-1.864c.653-.951,2.058-3.392,1.015-5.553a.806.806,0,0,0-1.45.7c.469.972.135,2.444-.893,3.94A4.984,4.984,0,0,1,16.14,18.24a3.883,3.883,0,0,1-3.145-.374.8.8,0,0,0-.92.006c-.029.019-2.863,2.016-5.074,3.342a1.558,1.558,0,0,1-1.308.151A6.741,6.741,0,0,1,2.418,18.1c-.53-1.06.013-1.566.259-1.747a40.557,40.557,0,0,0,8.456-9.992.813.813,0,0,0,.058-.643,31.549,31.549,0,0,1-.87-3.276,15.6,15.6,0,0,0,7.6,2.433c4.2,0,13.951,1.566,13.951,16.075A54.2,54.2,0,0,1,28.7,37.592a.805.805,0,0,0,.482,1.033.868.868,0,0,0,.276.047.807.807,0,0,0,.757-.53,54.875,54.875,0,0,0,3.271-17.195c0-16.408-11.913-17.683-15.563-17.683C13.881,3.264,9.848.2,9.809.165A.817.817,0,0,0,8.96.083a.8.8,0,0,0-.45.722A21.4,21.4,0,0,0,9.551,5.876,40.238,40.238,0,0,1,1.7,15.072Z" transform="translate(-0.576 0.001)" fill="#3b0e26"/><path d="M21.45,2.481C18.87.743,15.986,0,11.806,0a.806.806,0,0,0,0,1.611c3.835,0,6.45.659,8.745,2.206,3.729,2.517,8.174,7.531,8.174,17.13a43.087,43.087,0,0,1-1.587,11.89.806.806,0,0,0,.587.976.818.818,0,0,0,.195.024.8.8,0,0,0,.782-.611,44.5,44.5,0,0,0,1.636-12.28C30.336,10.641,25.5,5.216,21.45,2.481Z" transform="translate(5.796 0)" fill="#3b0e26"/></svg>